<?xml version="1.0" encoding="UTF-8"?>
<svg version="1.1" xmlns="http://www.w3.org/2000/svg" width="512" height="512">
<path d="M0 0 C0.57878906 0.40379883 1.15757812 0.80759766 1.75390625 1.22363281 C37.47987795 26.67533589 62.51846531 66.79298335 71.375 109.5625 C71.54306152 110.37146729 71.71112305 111.18043457 71.88427734 112.01391602 C74.41111244 125.24497094 74.41111244 125.24497094 71.6875 130.5625 C70 132 70 132 67 132 C67 137.94 67 143.88 67 150 C68.65 150.66 70.3 151.32 72 152 C74.09444268 154.56796886 73.99808382 156.09930309 73.93359375 159.44140625 C73.78526342 160.81704775 73.61870622 162.19080189 73.4375 163.5625 C73.34525146 164.30048828 73.25300293 165.03847656 73.15795898 165.79882812 C71.71022611 176.27431147 68.89351456 186.56134489 65.4453125 196.546875 C57.00474721 221.6707663 58.83965614 253.94849575 64.47558594 279.44628906 C64.85449694 281.29145158 65.16735269 283.15059637 65.43847656 285.01464844 C65.58510742 286.00754883 65.73173828 287.00044922 65.8828125 288.0234375 C66.06287842 289.37961182 66.06287842 289.37961182 66.24658203 290.76318359 C66.76555575 293.1386297 66.76555575 293.1386297 68.81982422 293.99853516 C69.53928223 294.32901855 70.25874023 294.65950195 71 295 C73.98981676 298.32261567 76.20910043 301.88482746 78.3984375 305.76953125 C79.03523438 306.89294922 79.67203125 308.01636719 80.328125 309.17382812 C80.66134766 309.76623291 80.99457031 310.3586377 81.33789062 310.96899414 C83.11997861 314.13673104 84.91650744 317.29627502 86.7109375 320.45703125 C87.25581818 321.4181633 87.25581818 321.4181633 87.81170654 322.39871216 C91.15788702 328.29515335 94.57043543 334.15169511 98 340 C103.40184885 349.2235913 108.72243325 358.49155587 114.01345825 367.77893066 C118.18786313 375.10453644 122.38955394 382.41293055 126.64794922 389.69018555 C127.82640872 391.70514229 129.00130894 393.7221856 130.17236328 395.74145508 C132.68030213 400.06401304 135.20802411 404.36081087 137.87109375 408.58984375 C142.82502973 416.59371516 145.91850686 423.33943353 144 433 C141.2255373 442.24820901 130.59255983 447.0226788 122.6875 451.3125 C121.89021484 451.75400391 121.09292969 452.19550781 120.27148438 452.65039062 C113.77451572 456.21853237 108.39954105 458.10009341 100.91015625 456.57421875 C91.03616449 453.48504282 86.81227786 443.64352959 82.0625 435.1875 C81.07338802 433.44938522 80.08426386 431.71127722 79.09440613 429.97358704 C78.07178194 428.17635224 77.05232915 426.37734531 76.03320312 424.578125 C72.82812861 418.92769734 69.56651401 413.30983004 66.3125 407.6875 C62.66771335 401.38511598 59.03538622 395.07697581 55.4609375 388.734375 C54.90752686 387.75509033 54.35411621 386.77580566 53.78393555 385.7668457 C52.74427073 383.92425882 51.70904348 382.07915876 50.67895508 380.23120117 C50.22157959 379.42142822 49.7642041 378.61165527 49.29296875 377.77734375 C48.8961792 377.06827881 48.49938965 376.35921387 48.09057617 375.62866211 C47.08483468 373.83643057 47.08483468 373.83643057 45 373 C44.9071875 373.8353125 44.814375 374.670625 44.71875 375.53125 C43.8890479 379.53546449 42.35491167 382.89344798 40.5 386.5 C40.14397705 387.19706055 39.7879541 387.89412109 39.42114258 388.61230469 C32.82930656 401.2817302 25.10176126 411.89823874 15 422 C12.32461085 422.04315144 9.67305179 422.04680441 7 422 C3.01558953 422 1.93835166 423.45435853 -1.0625 426 C-5.79166667 430 -5.79166667 430 -8 430 C-7.896875 431.216875 -7.79375 432.43375 -7.6875 433.6875 C-7.40624498 437.00630929 -7.90871609 437.88663407 -10.05078125 440.546875 C-13.38621198 443.32124652 -16.51929785 444.92473632 -20.5 446.5625 C-21.20995117 446.8605957 -21.91990234 447.15869141 -22.65136719 447.46582031 C-54.75973252 460.70385878 -88.96624158 460.02059029 -121 447 C-139.42871058 438.8584094 -158.4025834 424.63977164 -170 408 C-170 407.34 -170 406.68 -170 406 C-175.44510898 410.05584887 -175.44510898 410.05584887 -180.79296875 414.23828125 C-221.76784522 446.80006522 -274.57685693 461.88695742 -326.57373047 456.07568359 C-331.39774535 455.47428923 -336.20036405 454.77087843 -341 454 C-341.72413086 453.88785156 -342.44826172 453.77570313 -343.19433594 453.66015625 C-350.24507254 452.51850774 -356.62630246 451.04819889 -361 445 C-363.38934832 440.13850417 -364.71192233 435.46857954 -365.625 430.125 C-365.80675781 429.14080078 -365.80675781 429.14080078 -365.9921875 428.13671875 C-367.41554694 420.19994272 -368.15674173 412.31071022 -368.23828125 404.25 C-368.2480751 403.44238724 -368.25786896 402.63477448 -368.26795959 401.8026886 C-368.44369251 383.54516542 -368.20034352 365.87318588 -364 348 C-363.79101074 347.09878418 -363.58202148 346.19756836 -363.36669922 345.26904297 C-356.93136051 318.5105672 -344.4572926 293.91968826 -328 272 C-327.30777344 271.0615625 -326.61554688 270.123125 -325.90234375 269.15625 C-320.880699 262.68701382 -315.1337349 256.93471656 -309.375 251.125 C-308.56281006 250.30338379 -307.75062012 249.48176758 -306.91381836 248.63525391 C-295.46286545 237.24628654 -295.46286545 237.24628654 -289.25 236.625 C-286 237 -286 237 -283 238 C-279.99498398 236.37547624 -279.99498398 236.37547624 -276.875 234.125 C-275.79992187 233.38507813 -274.72484375 232.64515625 -273.6171875 231.8828125 C-271.18862614 230.24231406 -271.18862614 230.24231406 -270 229 C-270.0825 228.0925 -270.165 227.185 -270.25 226.25 C-269.97495392 222.67440099 -269.24568134 221.69434922 -266.69042969 219.30273438 C-263.27291911 216.66902027 -259.39802128 214.93302142 -255.5 213.125 C-254.57292236 212.69227783 -253.64584473 212.25955566 -252.69067383 211.8137207 C-228.8835709 200.95903332 -204.00380956 195.73849502 -177.95751953 194.21777344 C-175.92321706 194.10559891 -175.92321706 194.10559891 -174 193 C-174.72703125 191.79730469 -174.72703125 191.79730469 -175.46875 190.5703125 C-191.69620107 163.04605895 -200.2253952 134.11499256 -200.25 102.125 C-200.25067474 101.33999115 -200.25134949 100.5549823 -200.25204468 99.7461853 C-200.20591186 66.00843447 -190.12236838 32.51054661 -166 7.96484375 C-165.00216156 6.97438008 -164.00222335 5.98602647 -163 5 C-162.0925 4.09378906 -161.185 3.18757813 -160.25 2.25390625 C-153.76263933 -3.94114601 -146.81494384 -8.62892972 -139 -13 C-138.07960937 -13.53367187 -137.15921875 -14.06734375 -136.2109375 -14.6171875 C-92.87915701 -38.17502873 -38.80058988 -27.07354593 0 0 Z M43 232 C41.83372248 233.31548796 40.6928853 234.65354507 39.5625 236 C35.82459973 240.2766967 31.81246146 243.74594886 27.296875 247.17578125 C25.02272605 248.98195057 23.01224089 250.90930018 21 253 C21.6290625 253.77601563 22.258125 254.55203125 22.90625 255.3515625 C31.50007479 266.12253457 38.40641393 277.24707715 43.01074219 290.29052734 C43.59483531 291.8914228 44.28946447 293.45107447 45 295 C46.485 295.495 46.485 295.495 48 296 C49.66086058 294.85911831 49.66086058 294.85911831 51 293 C50.96783907 290.40908049 50.96783907 290.40908049 50.234375 287.5546875 C49.88826172 285.93820312 49.88826172 285.93820312 49.53515625 284.2890625 C49.27605469 283.16242188 49.01695312 282.03578125 48.75 280.875 C46.06787047 268.72736575 44.84080076 257.37370857 44.4375 244.9375 C44.39431641 243.69033203 44.35113281 242.44316406 44.30664062 241.15820312 C44.20137704 238.10555909 44.09924059 235.05284477 44 232 C43.67 232 43.34 232 43 232 Z " fill="#020201" transform="translate(368,41)"/>
<path d="M0 0 C2.36662298 1.34906158 4.57208348 2.71711452 6.8125 4.25 C7.46049561 4.68820068 8.10849121 5.12640137 8.77612305 5.57788086 C19.42075773 12.90954688 29.33108715 21.29154836 38.84375 30.02734375 C40.86241634 31.87413089 42.92083841 33.65948681 45 35.4375 C49.91224949 39.70552005 54.44322882 44.35919001 59 49 C57.77416206 52.85745334 56.37595948 56.47809714 54.625 60.125 C47.07884077 76.65996655 44.74944947 92.71058868 44.625 110.75 C44.60421387 112.54232056 44.60421387 112.54232056 44.58300781 114.37084961 C44.6447441 126.18603874 47.10027541 137.23992386 50.9375 148.375 C51.17662109 149.10332031 51.41574219 149.83164062 51.66210938 150.58203125 C53.17827116 155.0705102 55.00796824 159.08371365 57.42797852 163.16259766 C58 165 58 165 57.26220703 167.07910156 C55.39171911 169.92571644 52.91135821 171.97129883 50.3125 174.125 C49.73290527 174.60654541 49.15331055 175.08809082 48.55615234 175.58422852 C38.37427211 183.89393901 27.47516276 190.46871748 15.875 196.625 C14.87871582 197.15859131 13.88243164 197.69218262 12.85595703 198.24194336 C11.91091309 198.73186768 10.96586914 199.22179199 9.9921875 199.7265625 C9.15026855 200.16564941 8.30834961 200.60473633 7.44091797 201.05712891 C4.70809841 202.11275495 2.90454013 202.33375059 0 202 C-1.87426758 201.10473633 -1.87426758 201.10473633 -3.64453125 199.83203125 C-4.64794556 199.1201062 -4.64794556 199.1201062 -5.67163086 198.39379883 C-6.37811768 197.87197021 -7.08460449 197.3501416 -7.8125 196.8125 C-8.55443604 196.27584717 -9.29637207 195.73919434 -10.06079102 195.1862793 C-21.57424822 186.76842719 -32.52817519 177.67927124 -43 168 C-43.97582031 167.11570312 -44.95164063 166.23140625 -45.95703125 165.3203125 C-54.10509524 157.93343738 -62.05385999 150.42876413 -69.2109375 142.0625 C-70.44098976 140.64444849 -71.69805377 139.24952322 -72.9765625 137.875 C-82.35546024 127.77989552 -90.71728137 116.69958414 -98.375 105.25 C-99.46941406 103.61804688 -99.46941406 103.61804688 -100.5859375 101.953125 C-102.24086692 98.49697405 -101.99658205 97.59235421 -101 94 C-99.57386443 90.63063545 -97.83286237 87.4219822 -96.125 84.1875 C-95.63322266 83.25550781 -95.14144531 82.32351563 -94.63476562 81.36328125 C-83.53264233 60.7147462 -68.11699917 40.85940961 -49.60546875 26.28515625 C-46.67811871 24.15778473 -46.67811871 24.15778473 -46.125 20.4375 C-46.03489531 17.95962094 -46 15.47951678 -46 13 C-43.515625 10.82421875 -43.515625 10.82421875 -40.25 8.6875 C-39.18265625 7.96949219 -38.1153125 7.25148438 -37.015625 6.51171875 C-34 5 -34 5 -31.796875 5.14453125 C-30 6 -30 6 -27 8 C-20.88700278 7.73305689 -16.05418009 4.60552432 -10.83398438 1.70703125 C-4.27017136 -1.77122864 -4.27017136 -1.77122864 0 0 Z " fill="#FAA662" transform="translate(131,266)"/>
<path d="M0 0 C0.80356934 0.22574707 1.60713867 0.45149414 2.43505859 0.68408203 C26.26399829 7.60388834 45.82671677 19.41636377 63.57617188 36.62744141 C64.83024607 37.83635861 66.10867193 39.01990572 67.390625 40.19921875 C92.95590314 64.33909469 107.88280588 99.65334184 112.4453125 134.0390625 C113.14754728 136.52161082 113.95887329 137.43060035 116 139 C117.65 139.66 119.3 140.32 121 141 C121 146.94 121 152.88 121 159 C118.03 159.99 118.03 159.99 115 161 C112.11600504 163.88399496 112.22531711 167.17674112 111.6875 171.0625 C107.06258284 200.89306641 93.79093656 226.04285316 70.24609375 245.24609375 C64.91426604 249.04952274 64.91426604 249.04952274 62.125 248.8984375 C59.07772568 247.61006784 56.73343141 245.71517378 54.125 243.6875 C51.14990327 241.38579473 48.26920544 239.16294014 45.04980469 237.21435547 C41.73573149 234.80812397 40.20913403 232.74950106 38.1328125 229.24609375 C37.47539062 228.14458984 36.81796875 227.04308594 36.140625 225.90820312 C35.80998047 225.33851807 35.47933594 224.76883301 35.13867188 224.18188477 C34.12071081 222.43011891 33.08177681 220.69220101 32.0390625 218.95507812 C27 210.42166574 27 210.42166574 27 207 C29.5546875 205.17578125 29.5546875 205.17578125 32.875 203.3125 C34.51082031 202.37857422 34.51082031 202.37857422 36.1796875 201.42578125 C39 200 39 200 41 200 C41.40839111 200.74161377 41.81678223 201.48322754 42.23754883 202.24731445 C43.75984018 205.00594068 45.28669162 207.7619773 46.81665039 210.51635742 C47.47701028 211.70740124 48.13556024 212.89945047 48.79223633 214.0925293 C49.73819467 215.81043548 50.69128274 217.52440958 51.64453125 219.23828125 C52.21534424 220.26993408 52.78615723 221.30158691 53.37426758 222.36450195 C54.78582914 224.65280456 55.88396264 226.3632463 58 228 C61.5 228.58333333 61.5 228.58333333 65 228 C67.18547684 226.55851025 67.18547684 226.55851025 68 224 C67.93466334 215.76758065 62.7482884 209.55631341 58.484375 202.83007812 C57.89914062 201.88197266 57.31390625 200.93386719 56.7109375 199.95703125 C56.16743652 199.10085205 55.62393555 198.24467285 55.06396484 197.36254883 C54 195 54 195 54.19433594 192.79663086 C55.41758121 190.0687939 57.31921653 189.21679747 59.875 187.75 C60.75929688 187.22921875 61.64359375 186.7084375 62.5546875 186.171875 C65 185 65 185 68 185 C68.61488281 186.12019531 69.22976563 187.24039063 69.86328125 188.39453125 C70.67942102 189.8673352 71.49584201 191.33998334 72.3125 192.8125 C72.91868164 193.91948242 72.91868164 193.91948242 73.53710938 195.04882812 C73.93349609 195.76103516 74.32988281 196.47324219 74.73828125 197.20703125 C75.09962158 197.8616333 75.46096191 198.51623535 75.83325195 199.19067383 C77.07871647 201.122069 78.19425357 202.57118258 80 204 C85.04565002 203.80862516 85.04565002 203.80862516 89 201 C89.83762025 194.61314561 87.70305319 190.81916237 84.5 185.5625 C83.85611328 184.46518555 83.85611328 184.46518555 83.19921875 183.34570312 C82.14632537 181.55578437 81.07499718 179.77673146 80 178 C81.67735762 176.29380528 83.341672 174.71690034 85.1875 173.1875 C87.26200218 171.07169085 87.26200218 171.07169085 87.4375 167.9375 C87.1911209 165.07537906 87.1911209 165.07537906 85.9375 163.125 C82.90946518 161.36678623 80.43351057 161.70400771 77 162 C75.31864448 162.62870171 73.64830015 163.28913516 72 164 C70.80017556 162.07010782 69.61547182 160.13080772 68.4375 158.1875 C67.77621094 157.10855469 67.11492187 156.02960938 66.43359375 154.91796875 C65 152 65 152 66 149 C68.43359375 147.39453125 68.43359375 147.39453125 71.4375 145.8125 C72.42621094 145.28269531 73.41492188 144.75289062 74.43359375 144.20703125 C77 143 77 143 79 143 C79.763125 143.825 80.52625 144.65 81.3125 145.5 C83.72262479 148.16664992 83.72262479 148.16664992 86.5625 148.5625 C89.90209141 147.79182506 91.09619782 146.85570327 93 144 C92.83582968 140.43407381 92.83582968 140.43407381 92 137 C92 136.01 92 135.02 92 134 C92.928125 133.5978125 92.928125 133.5978125 93.875 133.1875 C96.2995233 132.04443152 96.2995233 132.04443152 98 129 C97.91832511 125.42823885 97.91832511 125.42823885 97 122 C93.49337515 119.6622501 92.12370255 119.6701038 88 120 C86.32024026 120.63295295 84.6507829 121.29491984 83 122 C81.80017556 120.07010782 80.61547182 118.13080772 79.4375 116.1875 C78.77621094 115.10855469 78.11492187 114.02960938 77.43359375 112.91796875 C76 110 76 110 77 107 C79.25 105.46484375 79.25 105.46484375 82 103.9375 C85.65467691 102.10856437 85.65467691 102.10856437 88 99 C88.37615126 94.86935374 88.37615126 94.86935374 86.875 91.125 C83.96414213 89.37848528 82.37730722 89.49965819 79 90 C76.59495222 91.22102426 74.32518675 92.55441466 72.05078125 94.00390625 C70 95 70 95 67 94 C65.39453125 91.8203125 65.39453125 91.8203125 63.8125 89.125 C63.28269531 88.24070312 62.75289062 87.35640625 62.20703125 86.4453125 C61 84 61 84 61 81 C63.37109375 79.421875 63.37109375 79.421875 66.4375 77.75 C71.04971443 75.02482942 71.04971443 75.02482942 73.4375 70.3125 C73.22288664 66.99578955 73.22288664 66.99578955 71.5 64.5 C69.01250511 62.71595547 69.01250511 62.71595547 65.6875 63 C61.52556566 64.12866016 58.68890025 65.80084793 55 68 C54.01 68 53.02 68 52 68 C49.69 63.71 47.38 59.42 45 55 C45.99 54.319375 46.98 53.63875 48 52.9375 C50.78173184 50.62925443 50.96858836 50.20243058 51.5625 46.375 C51.22495986 43.12482907 51.22495986 43.12482907 49.875 41.0625 C47.11848468 39.50047465 45.12379565 39.68762043 42 40 C39.21433941 40.91257306 39.21433941 40.91257306 37 42 C36.484375 41.030625 35.96875 40.06125 35.4375 39.0625 C33.24852964 35.68563828 33.24852964 35.68563828 29.4375 35.0625 C26.01664712 34.80921682 26.01664712 34.80921682 23 36 C22.79375 37.19625 22.5875 38.3925 22.375 39.625 C22.25898438 40.29789063 22.14296875 40.97078125 22.0234375 41.6640625 C21.99266983 44.73057372 22.92993475 47.14921547 24 50 C22.23462904 51.17491582 20.46250287 52.33968684 18.6875 53.5 C17.70136719 54.1496875 16.71523438 54.799375 15.69921875 55.46875 C13 57 13 57 10 57 C8.17578125 54.4453125 8.17578125 54.4453125 6.3125 51.125 C5.37857422 49.48917969 5.37857422 49.48917969 4.42578125 47.8203125 C3 45 3 45 3 43 C3.969375 42.443125 4.93875 41.88625 5.9375 41.3125 C9.29326186 39.23967408 9.29326186 39.23967408 10.125 35.5 C10.2829709 32.01492005 10.2829709 32.01492005 8.5 29.5 C4.46687884 27.0801273 1.13368587 28.47033502 -3.21875 29.55078125 C-3.8065625 29.69902344 -4.394375 29.84726562 -5 30 C-6.29662538 27.94047642 -7.58735727 25.87762943 -8.875 23.8125 C-9.42220703 22.9452832 -9.42220703 22.9452832 -9.98046875 22.06054688 C-12.0085252 18.79721967 -13.70492051 15.61940638 -15 12 C-16.43655854 11.91868537 -17.8744483 11.86066441 -19.3125 11.8125 C-20.11300781 11.77769531 -20.91351563 11.74289063 -21.73828125 11.70703125 C-24.05759694 11.82305764 -24.05759694 11.82305764 -25.78125 13.30078125 C-27.48783424 15.68015351 -27.3005064 17.65256624 -26.859375 20.47265625 C-25.48516598 24.51408006 -23.15610259 27.9912402 -20.7956543 31.51904297 C-18 35.72357568 -18 35.72357568 -18 39 C-20.5546875 40.82421875 -20.5546875 40.82421875 -23.875 42.6875 C-24.96554687 43.31011719 -26.05609375 43.93273437 -27.1796875 44.57421875 C-30 46 -30 46 -32 46 C-32.26627197 45.51233154 -32.53254395 45.02466309 -32.80688477 44.5222168 C-35.41384638 39.75877563 -38.05110109 35.01348411 -40.71777344 30.28320312 C-41.50161392 28.88745366 -42.27975647 27.48846022 -43.04785156 26.08398438 C-46.54354286 19.40952134 -46.54354286 19.40952134 -52.6875 15.5625 C-56.00421045 15.77711336 -56.00421045 15.77711336 -58.5 17.5 C-60.62453815 21.04089691 -59.8573083 23.0145695 -59 27 C-57.54572508 30.23698607 -57.54572508 30.23698607 -55.62109375 33.37109375 C-55.28956802 33.93828629 -54.9580423 34.50547882 -54.61647034 35.08985901 C-53.56746197 36.87893867 -52.50289623 38.65814115 -51.4375 40.4375 C-50.71834653 41.65758218 -50.00023719 42.87828043 -49.28320312 44.09960938 C-47.53414148 47.07361992 -45.77101175 50.03899543 -44 53 C-47.91525792 56.14937746 -51.45243874 58.85024377 -56 61 C-59.00867658 60.17668838 -59.93255872 59.09927855 -61.69165039 56.50976562 C-62.23813232 55.48560547 -62.78461426 54.46144531 -63.34765625 53.40625 C-63.95287109 52.29378906 -64.55808594 51.18132812 -65.18164062 50.03515625 C-65.80953043 48.85726967 -66.43647392 47.67887818 -67.0625 46.5 C-68.29461256 44.19291756 -69.53726257 41.89243142 -70.78515625 39.59375 C-71.33051025 38.56958984 -71.87586426 37.54542969 -72.43774414 36.49023438 C-73.91168578 33.76273202 -73.91168578 33.76273202 -77 32 C-80.54187831 31.66661404 -80.54187831 31.66661404 -84 32 C-86.30904041 33.92910777 -86.30904041 33.92910777 -86.59375 37.28125 C-86.42133134 44.09178706 -81.9457878 49.85414993 -78.5 55.5 C-77.77574436 56.71519402 -77.05307228 57.93133332 -76.33203125 59.1484375 C-74.57284343 62.11009771 -72.79246165 65.0583289 -71 68 C-73.9206552 71.02922974 -76.43472498 72.94276447 -80.25 74.75 C-81.14203125 75.17796875 -82.0340625 75.6059375 -82.953125 76.046875 C-83.62859375 76.36140625 -84.3040625 76.6759375 -85 77 C-85.29245605 76.49549316 -85.58491211 75.99098633 -85.88623047 75.47119141 C-87.21261238 73.18724699 -88.54374346 70.90610626 -89.875 68.625 C-90.33519531 67.8309375 -90.79539063 67.036875 -91.26953125 66.21875 C-91.93662109 65.07792969 -91.93662109 65.07792969 -92.6171875 63.9140625 C-93.02565918 63.2123291 -93.43413086 62.5105957 -93.85498047 61.78759766 C-95.00408052 59.85322855 -95.00408052 59.85322855 -97 58 C-101.66228885 57.5359554 -101.66228885 57.5359554 -105.9375 59.125 C-107.54255276 61.95744604 -107.33626562 63.75316863 -107 67 C-105.71832762 69.87697241 -104.0958905 72.51386895 -102.4375 75.1875 C-101.57286487 76.59205456 -100.71693518 78.00201688 -99.87109375 79.41796875 C-99.48880615 80.03438232 -99.10651855 80.6507959 -98.71264648 81.28588867 C-98 83 -98 83 -99 86 C-99.845625 86.350625 -100.69125 86.70125 -101.5625 87.0625 C-104.24796532 88.73843155 -104.24796532 88.73843155 -104.328125 91.4140625 C-104.31378773 93.95892734 -104.21406429 96.46452737 -104 99 C-98.58264203 99.93402724 -95.19548425 100.20808081 -90 98 C-89.0106909 99.38866323 -88.03396922 100.78629851 -87.0625 102.1875 C-86.51722656 102.96480469 -85.97195312 103.74210937 -85.41015625 104.54296875 C-84 107 -84 107 -83 112 C-86.96 114.31 -90.92 116.62 -95 119 C-96.32 117.68 -97.64 116.36 -99 115 C-99 114.34 -99 113.68 -99 113 C-104.50922448 111.67787864 -104.50922448 111.67787864 -109.5 113.5625 C-111.4162787 116.67645288 -111.44185255 118.39153754 -111 122 C-110.08742694 124.78566059 -110.08742694 124.78566059 -109 127 C-109.804375 127.45375 -110.60875 127.9075 -111.4375 128.375 C-114.08856572 129.74725665 -114.08856572 129.74725665 -115 132 C-115.39178406 135.60441333 -115.4106758 137.3839863 -113.375 140.4375 C-111.05436892 142.30490024 -111.05436892 142.30490024 -108 141.8125 C-106.515 141.4103125 -106.515 141.4103125 -105 141 C-103.66722854 140.66442719 -102.33400706 140.33062675 -101 140 C-99.82508418 141.76537096 -98.66031316 143.53749713 -97.5 145.3125 C-96.8503125 146.29863281 -96.200625 147.28476563 -95.53125 148.30078125 C-94 151 -94 151 -94 154 C-96.1171875 155.5 -96.1171875 155.5 -98.875 157 C-102.28271686 158.86405025 -103.80806343 159.71209515 -106 163 C-106.23314275 166.10857 -105.99528744 168.01413769 -105 171 C-99.67790275 172.25795026 -96.97612774 172.35717455 -92.1875 169.5625 C-91.09501953 168.85287109 -91.09501953 168.85287109 -89.98046875 168.12890625 C-88 167 -88 167 -85 167 C-83.17578125 169.625 -83.17578125 169.625 -81.3125 173 C-80.68988281 174.11375 -80.06726563 175.2275 -79.42578125 176.375 C-78.95527344 177.24125 -78.48476562 178.1075 -78 179 C-80.30697021 181.53841382 -82.72368812 183.05093876 -85.6875 184.75 C-88.08674027 186.23213903 -88.08674027 186.23213903 -90 188 C-90.75971599 191.73527027 -90.76875705 193.5981489 -88.9375 196.9375 C-85.74778818 198.6866968 -83.59024762 198.47085215 -80 198 C-77.76787287 196.83961622 -75.75232265 195.54584706 -73.69921875 194.09375 C-72 193 -72 193 -70 193 C-68.23828125 195.51953125 -68.23828125 195.51953125 -66.3125 198.8125 C-65.66925781 199.89144531 -65.02601563 200.97039062 -64.36328125 202.08203125 C-63 205 -63 205 -64 208 C-64.845625 208.598125 -65.69125 209.19625 -66.5625 209.8125 C-69.27801061 211.80326662 -69.27801061 211.80326662 -69.5625 215 C-69.18560655 218.04601142 -69.18560655 218.04601142 -67.4375 220.4375 C-63.99333363 222.64529895 -61.90791773 221.83741094 -58 221 C-56.68 221 -55.36 221 -54 221 C-53.34 222.32 -52.68 223.64 -52 225 C-54.37205861 225.98684881 -56.74723487 226.9645755 -59.125 227.9375 C-59.79015625 228.21529297 -60.4553125 228.49308594 -61.140625 228.77929688 C-69.01655379 231.98371888 -69.01655379 231.98371888 -73 232 C-75.26767567 230.47582455 -76.86777435 229.16171385 -78.75 227.25 C-79.26949219 226.74484863 -79.78898437 226.23969727 -80.32421875 225.71923828 C-81.90413143 224.16588281 -83.4540893 222.58712158 -85 221 C-86.27617187 219.71996094 -86.27617187 219.71996094 -87.578125 218.4140625 C-113.14110853 191.61416041 -128.90247586 154.92237531 -131 118 C-131.0505957 117.13568359 -131.10119141 116.27136719 -131.15332031 115.38085938 C-132.18129083 94.6291667 -129.11233961 73.80822805 -120 55 C-119.21496094 53.34871094 -119.21496094 53.34871094 -118.4140625 51.6640625 C-106.21573202 27.55374732 -85.44811029 9.3435387 -59.76098633 0.78808594 C-41.1343839 -5.16856686 -18.79896878 -5.28130094 0 0 Z " fill="#A7D0D5" transform="translate(314,33)"/>
<path d="M0 0 C26.24416888 3.75375032 47.85681627 14.33505648 67.1953125 32.45703125 C63.54320787 36.26673139 59.69891539 39.50931528 55.5078125 42.70703125 C50.28782139 46.74681478 45.2904242 50.93468993 40.4296875 55.40625 C38.34364364 57.32088816 36.21849204 59.17526083 34.0703125 61.01953125 C32.77454944 62.16073013 31.48277535 63.30647651 30.1953125 64.45703125 C29.59589844 64.98941406 28.99648438 65.52179688 28.37890625 66.0703125 C14.18105347 79.43822816 -1.7978487 100.05750432 -3.03515625 120.2109375 C-3.02097656 121.46777344 -3.00679688 122.72460938 -2.9921875 124.01953125 C-2.98251953 125.90865234 -2.98251953 125.90865234 -2.97265625 127.8359375 C-2.81988913 131.12931232 -2.42747985 134.22349335 -1.8046875 137.45703125 C-5.75582298 138.76054512 -9.74293493 138.58315406 -13.8515625 138.5546875 C-14.62276428 138.55327255 -15.39396606 138.5518576 -16.1885376 138.55039978 C-18.64396088 138.54481659 -21.09929192 138.5322672 -23.5546875 138.51953125 C-25.22265493 138.51451408 -26.89062379 138.50995155 -28.55859375 138.50585938 C-32.64066037 138.49485266 -36.72265831 138.47759961 -40.8046875 138.45703125 C-42.45785402 128.62268794 -43.19378551 119.12346894 -43.1796875 109.14453125 C-43.17881134 108.45415771 -43.17793518 107.76378418 -43.17703247 107.05249023 C-43.03070181 71.73464935 -33.30634552 34.97341459 -11.8046875 6.45703125 C-11.39347656 5.78542969 -10.98226563 5.11382812 -10.55859375 4.421875 C-7.68618461 0.05859606 -4.8692338 -0.31250306 0 0 Z " fill="#F97621" transform="translate(306.8046875,267.54296875)"/>
<path d="M0 0 C0.70398926 0.07001221 1.40797852 0.14002441 2.13330078 0.2121582 C5.05337286 0.57544675 7.01152984 0.89571021 9.3359375 2.76171875 C9.67882812 3.23222656 10.02171875 3.70273437 10.375 4.1875 C9.715 5.1775 9.055 6.1675 8.375 7.1875 C8.12774711 13.86332808 10.9683934 18.31059104 14.57958984 23.70654297 C17.375 27.91165838 17.375 27.91165838 17.375 31.1875 C14.8203125 33.01171875 14.8203125 33.01171875 11.5 34.875 C10.40945313 35.49761719 9.31890625 36.12023437 8.1953125 36.76171875 C5.375 38.1875 5.375 38.1875 3.375 38.1875 C3.10872803 37.69983154 2.84245605 37.21216309 2.56811523 36.7097168 C-0.03884638 31.94627563 -2.67610109 27.20098411 -5.34277344 22.47070312 C-6.12661392 21.07495366 -6.90475647 19.67596022 -7.67285156 18.27148438 C-11.16854286 11.59702134 -11.16854286 11.59702134 -17.3125 7.75 C-20.62921045 7.96461336 -20.62921045 7.96461336 -23.125 9.6875 C-25.24953815 13.22839691 -24.4823083 15.2020695 -23.625 19.1875 C-22.17072508 22.42448607 -22.17072508 22.42448607 -20.24609375 25.55859375 C-19.91456802 26.12578629 -19.5830423 26.69297882 -19.24147034 27.27735901 C-18.19246197 29.06643867 -17.12789623 30.84564115 -16.0625 32.625 C-15.34334653 33.84508218 -14.62523719 35.06578043 -13.90820312 36.28710938 C-12.15914148 39.26111992 -10.39601175 42.22649543 -8.625 45.1875 C-12.54025792 48.33687746 -16.07743874 51.03774377 -20.625 53.1875 C-23.63367658 52.36418838 -24.55755872 51.28677855 -26.31665039 48.69726562 C-26.86313232 47.67310547 -27.40961426 46.64894531 -27.97265625 45.59375 C-28.57787109 44.48128906 -29.18308594 43.36882812 -29.80664062 42.22265625 C-30.43453043 41.04476967 -31.06147392 39.86637818 -31.6875 38.6875 C-32.91961256 36.38041756 -34.16226257 34.07993142 -35.41015625 31.78125 C-35.95551025 30.75708984 -36.50086426 29.73292969 -37.06274414 28.67773438 C-38.53668578 25.95023202 -38.53668578 25.95023202 -41.625 24.1875 C-45.16687831 23.85411404 -45.16687831 23.85411404 -48.625 24.1875 C-50.93404041 26.11660777 -50.93404041 26.11660777 -51.21875 29.46875 C-51.04633134 36.27928706 -46.5707878 42.04164993 -43.125 47.6875 C-42.40074436 48.90269402 -41.67807228 50.11883332 -40.95703125 51.3359375 C-39.19784343 54.29759771 -37.41746165 57.2458289 -35.625 60.1875 C-38.5456552 63.21672974 -41.05972498 65.13026447 -44.875 66.9375 C-45.76703125 67.36546875 -46.6590625 67.7934375 -47.578125 68.234375 C-48.25359375 68.54890625 -48.9290625 68.8634375 -49.625 69.1875 C-49.91745605 68.68299316 -50.20991211 68.17848633 -50.51123047 67.65869141 C-51.83761238 65.37474699 -53.16874346 63.09360626 -54.5 60.8125 C-54.96019531 60.0184375 -55.42039063 59.224375 -55.89453125 58.40625 C-56.33925781 57.64570312 -56.78398437 56.88515625 -57.2421875 56.1015625 C-57.65065918 55.3998291 -58.05913086 54.6980957 -58.47998047 53.97509766 C-59.62908052 52.04072855 -59.62908052 52.04072855 -61.625 50.1875 C-66.28728885 49.7234554 -66.28728885 49.7234554 -70.5625 51.3125 C-72.16755276 54.14494604 -71.96126562 55.94066863 -71.625 59.1875 C-70.34332762 62.06447241 -68.7208905 64.70136895 -67.0625 67.375 C-66.19786487 68.77955456 -65.34193518 70.18951688 -64.49609375 71.60546875 C-64.11380615 72.22188232 -63.73151855 72.8382959 -63.33764648 73.47338867 C-62.625 75.1875 -62.625 75.1875 -63.625 78.1875 C-64.470625 78.538125 -65.31625 78.88875 -66.1875 79.25 C-68.87296532 80.92593155 -68.87296532 80.92593155 -68.953125 83.6015625 C-68.93878773 86.14642734 -68.83906429 88.65202737 -68.625 91.1875 C-63.20764203 92.12152724 -59.82048425 92.39558081 -54.625 90.1875 C-53.6356909 91.57616323 -52.65896922 92.97379851 -51.6875 94.375 C-51.14222656 95.15230469 -50.59695312 95.92960937 -50.03515625 96.73046875 C-48.625 99.1875 -48.625 99.1875 -47.625 104.1875 C-51.585 106.4975 -55.545 108.8075 -59.625 111.1875 C-60.945 109.8675 -62.265 108.5475 -63.625 107.1875 C-63.625 106.5275 -63.625 105.8675 -63.625 105.1875 C-69.13422448 103.86537864 -69.13422448 103.86537864 -74.125 105.75 C-76.0412787 108.86395288 -76.06685255 110.57903754 -75.625 114.1875 C-74.71242694 116.97316059 -74.71242694 116.97316059 -73.625 119.1875 C-74.8315625 119.868125 -74.8315625 119.868125 -76.0625 120.5625 C-78.71356572 121.93475665 -78.71356572 121.93475665 -79.625 124.1875 C-80.01678406 127.79191333 -80.0356758 129.5714863 -78 132.625 C-75.67936892 134.49240024 -75.67936892 134.49240024 -72.625 134 C-71.14 133.5978125 -71.14 133.5978125 -69.625 133.1875 C-68.29222854 132.85192719 -66.95900706 132.51812675 -65.625 132.1875 C-64.45008418 133.95287096 -63.28531316 135.72499713 -62.125 137.5 C-61.4753125 138.48613281 -60.825625 139.47226563 -60.15625 140.48828125 C-58.625 143.1875 -58.625 143.1875 -58.625 146.1875 C-60.7421875 147.6875 -60.7421875 147.6875 -63.5 149.1875 C-66.90771686 151.05155025 -68.43306343 151.89959515 -70.625 155.1875 C-70.85814275 158.29607 -70.62028744 160.20163769 -69.625 163.1875 C-64.30290275 164.44545026 -61.60112774 164.54467455 -56.8125 161.75 C-55.72001953 161.04037109 -55.72001953 161.04037109 -54.60546875 160.31640625 C-52.625 159.1875 -52.625 159.1875 -49.625 159.1875 C-47.80078125 161.8125 -47.80078125 161.8125 -45.9375 165.1875 C-45.31488281 166.30125 -44.69226563 167.415 -44.05078125 168.5625 C-43.58027344 169.42875 -43.10976562 170.295 -42.625 171.1875 C-44.93197021 173.72591382 -47.34868812 175.23843876 -50.3125 176.9375 C-52.71174027 178.41963903 -52.71174027 178.41963903 -54.625 180.1875 C-55.38471599 183.92277027 -55.39375705 185.7856489 -53.5625 189.125 C-50.37278818 190.8741968 -48.21524762 190.65835215 -44.625 190.1875 C-42.39287287 189.02711622 -40.37732265 187.73334706 -38.32421875 186.28125 C-36.625 185.1875 -36.625 185.1875 -34.625 185.1875 C-32.86328125 187.70703125 -32.86328125 187.70703125 -30.9375 191 C-30.29425781 192.07894531 -29.65101563 193.15789062 -28.98828125 194.26953125 C-27.625 197.1875 -27.625 197.1875 -28.625 200.1875 C-29.470625 200.785625 -30.31625 201.38375 -31.1875 202 C-33.90301061 203.99076662 -33.90301061 203.99076662 -34.1875 207.1875 C-33.81060655 210.23351142 -33.81060655 210.23351142 -32.0625 212.625 C-28.61833363 214.83279895 -26.53291773 214.02491094 -22.625 213.1875 C-21.305 213.1875 -19.985 213.1875 -18.625 213.1875 C-17.965 214.5075 -17.305 215.8275 -16.625 217.1875 C-18.99705861 218.17434881 -21.37223487 219.1520755 -23.75 220.125 C-24.41515625 220.40279297 -25.0803125 220.68058594 -25.765625 220.96679688 C-33.64155379 224.17121888 -33.64155379 224.17121888 -37.625 224.1875 C-39.89267567 222.66332455 -41.49277435 221.34921385 -43.375 219.4375 C-43.89449219 218.93234863 -44.41398437 218.42719727 -44.94921875 217.90673828 C-46.52913143 216.35338281 -48.0790893 214.77462158 -49.625 213.1875 C-50.90117187 211.90746094 -50.90117187 211.90746094 -52.203125 210.6015625 C-77.76610853 183.80166041 -93.52747586 147.10987531 -95.625 110.1875 C-95.6755957 109.32318359 -95.72619141 108.45886719 -95.77832031 107.56835938 C-96.80629083 86.8166667 -93.73733961 65.99572805 -84.625 47.1875 C-83.83996094 45.53621094 -83.83996094 45.53621094 -83.0390625 43.8515625 C-74.12600275 26.23466975 -61.0736803 12.89183052 -44.625 2.1875 C-43.635 1.5275 -42.645 0.8675 -41.625 0.1875 C-28.54377347 -2.57467134 -13.21333605 -1.42508063 0 0 Z " fill="#C8E1E3" transform="translate(278.625,40.8125)"/>
<path d="M0 0 C4.16501123 0.68000183 5.90786226 2.83298264 8.91015625 5.6796875 C20.3349931 15.34207221 37.18931899 13.11130296 51.0625 12.5 C55.88088838 12.03445523 60.44044978 10.92906857 65.0625 9.5 C66.25488281 9.14035156 67.44726562 8.78070313 68.67578125 8.41015625 C70.9298332 7.71792828 73.17827435 7.00689056 75.41796875 6.26953125 C78.0625 5.5 78.0625 5.5 81.0625 5.5 C77.59885986 14.82003652 71.649492 22.33581355 64.8828125 29.50390625 C61.59328098 33.1110964 61.97851598 35.71291082 62.0625 40.5 C62.0625 43.5 62.0625 43.5 60.5234375 45.21875 C56.53752756 48.62244837 52.89724403 51.44523379 48.0625 53.5 C47.546875 52.984375 47.03125 52.46875 46.5 51.9375 C43.75662563 50.31961255 42.24891396 50.25708227 39.15234375 50.859375 C35.68271642 51.9229617 32.48661784 53.54956075 29.2109375 55.09765625 C19.19424945 59.55918356 8.98075094 62.37543439 -1.9375 63.5 C-2.83339844 63.65339844 -3.72929687 63.80679688 -4.65234375 63.96484375 C-8.66341459 64.41601197 -10.94410218 64.23703709 -14.23828125 61.79296875 C-27.18465088 48.30996203 -41.9375 21.68862281 -41.9375 2.5 C-41.00478271 2.47494385 -40.07206543 2.4498877 -39.11108398 2.42407227 C-35.62400084 2.32847932 -32.13705812 2.22927541 -28.65014648 2.12768555 C-27.14595501 2.08458874 -25.64172252 2.04289793 -24.13745117 2.00268555 C-21.96520674 1.94436543 -19.79316398 1.88085516 -17.62109375 1.81640625 C-16.31712646 1.77974854 -15.01315918 1.74309082 -13.66967773 1.70532227 C-9.04706357 1.45101347 -4.55917433 0.77602967 0 0 Z " fill="#F97621" transform="translate(310.9375,418.5)"/>
<path d="M0 0 C-1.30843407 3.62229644 -3.01372719 6.84808081 -4.96948242 10.16113281 C-16.80695265 30.27957999 -24.83005163 52.84720512 -28 76 C-28.10296387 76.74749512 -28.20592773 77.49499023 -28.31201172 78.26513672 C-30.66328802 96.42531023 -30.20248401 114.72971218 -30 133 C-36.26777513 132.57317654 -41.6802463 131.72118032 -47.5625 129.5 C-48.76003906 129.0565625 -49.95757812 128.613125 -51.19140625 128.15625 C-54 127 -54 127 -55 126 C-55.19079576 124.67917805 -55.32331084 123.34981605 -55.4296875 122.01953125 C-55.50098877 121.19195312 -55.57229004 120.364375 -55.64575195 119.51171875 C-55.72140381 118.62097656 -55.79705566 117.73023438 -55.875 116.8125 C-57.83239851 95.99272961 -63.34177383 76.84079354 -77.91015625 61.1328125 C-79 59 -79 59 -78.51953125 56.25 C-67.67783718 33.0615952 -46.2293228 15.70883185 -23 6 C-18.71285045 4.44608172 -14.4120004 3.14675797 -10 2 C-9.17113281 1.77570313 -8.34226562 1.55140625 -7.48828125 1.3203125 C-2.45119863 0 -2.45119863 0 0 0 Z " fill="#F87521" transform="translate(280,269)"/>
<path d="M0 0 C1.63765426 2.28909684 3.04854399 4.50314906 4.4375 6.9375 C4.83638428 7.62320068 5.23526855 8.30890137 5.64624023 9.01538086 C13.6189335 22.89110662 13.6189335 22.89110662 13 30 C9.36517728 39.10458809 3.51569772 46.77631475 -3 54 C-3.68707031 54.76957031 -4.37414062 55.53914063 -5.08203125 56.33203125 C-21.08884446 73.28915619 -42.0779607 82.39207562 -64 89 C-66.9923942 86.0076058 -67.21796536 83.19582102 -67.375 79.125 C-67.08571465 59.11171322 -50.01651034 40.70663661 -36.44140625 27.48046875 C-29.59419085 20.96666994 -22.44467158 14.82211495 -15 9 C-14.47567383 8.58669434 -13.95134766 8.17338867 -13.41113281 7.74755859 C-11.78141532 6.46775387 -10.14273918 5.20053303 -8.5 3.9375 C-7.5203125 3.18339844 -6.540625 2.42929687 -5.53125 1.65234375 C-3 0 -3 0 0 0 Z " fill="#F87521" transform="translate(385,313)"/>
<path d="M0 0 C5.35469977 1.87414492 8.77571599 5.35623995 12.75 9.3125 C13.23210937 8.89097656 13.71421875 8.46945312 14.2109375 8.03515625 C14.84257812 7.48730469 15.47421875 6.93945312 16.125 6.375 C16.75148438 5.82972656 17.37796875 5.28445313 18.0234375 4.72265625 C20.32202569 2.84530255 21.58317307 2.33474359 24.5625 1.9375 C27.75 2.3125 27.75 2.3125 30.6875 4.4375 C32.75 7.3125 32.75 7.3125 32.9375 10.25 C31.55514975 13.81500853 29.84800101 15.43993697 26.9296875 17.8203125 C25.53648626 19.24544228 25.53648626 19.24544228 25.84765625 21.21875 C26.96151027 23.80327709 28.46888811 25.56455298 30.3125 27.6875 C32.60410203 30.55907539 33.680977 31.97993462 34.4375 35.625 C33.55525267 39.07378501 32.72184149 40.33127234 29.75 42.3125 C26.5 43.125 26.5 43.125 22.75 42.3125 C19.72961561 39.57775616 17.21991678 36.5458456 14.75 33.3125 C10.48936041 34.1427317 8.50432581 35.928614 5.75 39.3125 C6.01516915 42.95121007 7.8000554 44.63285798 10.3125 47.125 C12.96076679 50.05117134 13.70186906 51.04996759 14.4375 55.0625 C13.63517436 58.85531212 12.98512995 60.18412503 9.75 62.3125 C6.8125 62.875 6.8125 62.875 3.75 62.3125 C1.125 60.0625 1.125 60.0625 -1.25 57.3125 C-2.013125 56.549375 -2.77625 55.78625 -3.5625 55 C-4.119375 54.443125 -4.67625 53.88625 -5.25 53.3125 C-7.81490126 54.4117434 -9.37843192 55.44093192 -11.375 57.4375 C-11.99375 58.05625 -12.6125 58.675 -13.25 59.3125 C-13.91 59.3125 -14.57 59.3125 -15.25 59.3125 C-14.528125 60.19292969 -13.80625 61.07335937 -13.0625 61.98046875 C-12.1243647 63.15313788 -11.18689958 64.32634336 -10.25 65.5 C-9.77304688 66.07814453 -9.29609375 66.65628906 -8.8046875 67.25195312 C-6.77112536 69.82295668 -5.3395814 71.79630552 -4.7734375 75.05859375 C-5.25 77.3125 -5.25 77.3125 -7.875 80.1875 C-11.25 82.3125 -11.25 82.3125 -14.125 82.6875 C-19.06065631 80.51581122 -21.94057672 76.47027798 -25.25 72.3125 C-28.13157982 73.61072754 -29.40186125 74.48488304 -31.5625 76.9375 C-34.25 79.3125 -34.25 79.3125 -37.8125 79.875 C-41.25 79.3125 -41.25 79.3125 -43.6875 77.6875 C-45.25 75.3125 -45.25 75.3125 -45.9375 72.5625 C-44.89831518 67.64998995 -41.72218562 64.80240086 -38.25 61.3125 C-39.54210624 58.37873222 -40.76579035 56.62725428 -43.3125 54.6875 C-46.6052705 52.02526002 -47.117983 51.52705644 -47.5625 47.4375 C-47.25 44.3125 -47.25 44.3125 -45.6875 41.9375 C-42.11694932 39.55713288 -40.48633246 39.47912312 -36.25 40.3125 C-32.97262426 42.71312554 -30.09694673 45.42036364 -27.25 48.3125 C-24.28815191 47.00878054 -22.49229694 45.73321276 -20.5 43.1875 C-19.7575 42.23875 -19.015 41.29 -18.25 40.3125 C-19.09884766 39.58933594 -19.09884766 39.58933594 -19.96484375 38.8515625 C-20.69832031 38.21992188 -21.43179688 37.58828125 -22.1875 36.9375 C-22.91839844 36.31101562 -23.64929688 35.68453125 -24.40234375 35.0390625 C-27.03107631 32.58261474 -27.22382912 31.59514547 -27.5625 27.9375 C-27.25 24.3125 -27.25 24.3125 -25.625 21.875 C-22.52813997 19.83759209 -20.91579812 19.91267643 -17.25 20.3125 C-14.4765625 22.0625 -14.4765625 22.0625 -11.875 24.3125 C-10.56402344 25.42625 -10.56402344 25.42625 -9.2265625 26.5625 C-8.24816406 27.42875 -8.24816406 27.42875 -7.25 28.3125 C-4.28815191 27.00878054 -2.49229694 25.73321276 -0.5 23.1875 C0.2425 22.23875 0.985 21.29 1.75 20.3125 C1.11191406 19.81621094 0.47382813 19.31992187 -0.18359375 18.80859375 C-6.88088656 13.30239514 -6.88088656 13.30239514 -8.625 8.625 C-8.25 5.3125 -8.25 5.3125 -6.25 2.3125 C-3.25 0.3125 -3.25 0.3125 0 0 Z " fill="#040201" transform="translate(137.25,325.6875)"/>
<path d="M0 0 C4.37901144 0.75529461 8.53272234 2.07024341 12.75 3.4375 C17.24670031 4.88164342 21.66765347 6.22970009 26.3125 7.125 C30.83212358 8.19745305 30.83212358 8.19745305 33 11 C33.85620117 13.34985352 33.85620117 13.34985352 34.54296875 16.12890625 C34.94044312 17.66877197 34.94044312 17.66877197 35.34594727 19.23974609 C35.62365967 20.33625488 35.90137207 21.43276367 36.1875 22.5625 C40.2497822 37.81110982 45.89732568 54.48739679 55.66796875 67.1640625 C57 69 57 69 57 71 C34.34573557 66.85203609 16.70580745 56.7601957 0 41 C-0.63808594 40.41476562 -1.27617187 39.82953125 -1.93359375 39.2265625 C-6.72605782 34.67959214 -10.36200059 29.49570123 -14 24 C-12.68933137 21.18082597 -11.21135629 18.9042432 -9.25 16.5 C-5.3483429 11.42592377 -2.71257393 5.77143389 0 0 Z " fill="#F87521" transform="translate(221,410)"/>
<path d="M0 0 C0.35078613 0.63164062 0.70157227 1.26328125 1.06298828 1.9140625 C7.72845648 13.90197291 14.44748055 25.84868652 21.375 37.6875 C21.95596436 38.68370361 22.53692871 39.67990723 23.13549805 40.70629883 C25.62449504 44.96871955 28.1251785 49.22106821 30.69140625 53.4375 C31.07828613 54.08372314 31.46516602 54.72994629 31.86376953 55.39575195 C32.84567231 57.03426593 33.8420305 58.66409496 34.83984375 60.29296875 C36.22282024 63.5199139 36.08508494 64.70600358 35 68 C33.22167969 69.57739258 33.22167969 69.57739258 30.921875 70.89453125 C29.67470703 71.61479492 29.67470703 71.61479492 28.40234375 72.34960938 C27.08943359 73.07374023 27.08943359 73.07374023 25.75 73.8125 C24.89019531 74.31458984 24.03039062 74.81667969 23.14453125 75.33398438 C15.6571821 79.5737391 15.6571821 79.5737391 11 79 C9.39438726 77.0303617 8.31079458 75.33865708 7.125 73.125 C6.75407227 72.47152588 6.38314453 71.81805176 6.00097656 71.14477539 C5.14538951 69.6362672 4.29767214 68.12327994 3.45605469 66.60693359 C1.23625693 62.63258744 -1.05058973 58.69750711 -3.33032227 54.75732422 C-4.6151121 52.53545316 -5.89682908 50.31180253 -7.17553711 48.08642578 C-10.36530458 42.5363831 -13.57898365 37.00327149 -16.85546875 31.50390625 C-17.45907227 30.49078369 -18.06267578 29.47766113 -18.68457031 28.43383789 C-19.83239997 26.51274194 -20.98395509 24.59386584 -22.13964844 22.67749023 C-22.64915039 21.82485596 -23.15865234 20.97222168 -23.68359375 20.09375 C-24.13275146 19.34802734 -24.58190918 18.60230469 -25.04467773 17.83398438 C-26 16 -26 16 -26 14 C-23.82861328 12.48779297 -23.82861328 12.48779297 -20.8203125 10.7421875 C-19.74652344 10.11699219 -18.67273438 9.49179687 -17.56640625 8.84765625 C-15.86291016 7.87119141 -15.86291016 7.87119141 -14.125 6.875 C-12.99707031 6.21628906 -11.86914062 5.55757813 -10.70703125 4.87890625 C-2.27248318 0 -2.27248318 0 0 0 Z " fill="#26CEB1" transform="translate(461,403)"/>
<path d="M0 0 C3.71567118 3.56943725 6.93480502 7.34095286 10.0625 11.4375 C21.68335879 26.41941988 34.3830026 40.43800959 47.75 53.875 C48.35175049 54.48142334 48.95350098 55.08784668 49.57348633 55.71264648 C62.7510246 68.8433473 77.4619312 80.78540868 93 91 C89.35686498 94.64313502 83.90698613 94.92082079 79 96 C78.15566406 96.26425781 77.31132813 96.52851563 76.44140625 96.80078125 C73.59423936 97.48802843 71.87809625 97.63957694 69 97 C64.75327221 94.17569494 61.11687264 90.91820338 57.44970703 87.38769531 C55.62966519 85.64550639 53.72949377 84.0092856 51.8125 82.375 C50.5401788 81.25168298 49.2695787 80.12641568 48 79 C47.2894043 78.37351562 46.57880859 77.74703125 45.84667969 77.1015625 C39.68165517 71.61700989 33.74567836 65.9319488 27.91333008 60.09863281 C26.44044028 58.6279359 24.95969735 57.16546466 23.47851562 55.703125 C17.97227065 50.22865508 12.83107197 44.57614719 8 38.48583984 C5.33152414 35.16913804 2.49300597 32.02261666 -0.37109375 28.875 C-3.9499557 24.75544668 -4.4138655 22.31092133 -4.3359375 17.05078125 C-3.68956661 11.18083169 -1.80800373 5.60158299 0 0 Z " fill="#EEEBEE" transform="translate(22,383)"/>
<path d="M0 0 C-3.46364014 9.32003652 -9.413008 16.83581355 -16.1796875 24.00390625 C-19.46921902 27.6110964 -19.08398402 30.21291082 -19 35 C-19 38 -19 38 -20.5390625 39.71875 C-24.52497244 43.12244837 -28.16525597 45.94523379 -33 48 C-33.515625 47.484375 -34.03125 46.96875 -34.5625 46.4375 C-37.30587437 44.81961255 -38.81358604 44.75708227 -41.91015625 45.359375 C-45.37978358 46.4229617 -48.57588216 48.04956075 -51.8515625 49.59765625 C-65.00107313 55.45457227 -78.55901409 58.58676692 -93 58 C-93.33 57.34 -93.66 56.68 -94 56 C-92.45892578 55.36384766 -92.45892578 55.36384766 -90.88671875 54.71484375 C-68.11660049 45.15034667 -50.59397421 30.61021897 -37 10 C-41.95 9.67 -46.9 9.34 -52 9 C-52 8.67 -52 8.34 -52 8 C-51.11030518 7.97812622 -51.11030518 7.97812622 -50.20263672 7.95581055 C-34.44184885 7.52419617 -20.69436985 5.72428699 -5.64453125 0.76953125 C-3 0 -3 0 0 0 Z " fill="#EE651E" transform="translate(392,424)"/>
<path d="M0 0 C1.9419442 3.67849046 3.46502299 7.51476078 5 11.375 C5.39058594 12.34566406 5.39058594 12.34566406 5.7890625 13.3359375 C7.32590927 17.18581628 8.7295874 21.05439165 10 25 C-2.09266048 36.76583182 -16.15127217 46.08302426 -31 54 C-32.10859375 54.60070312 -33.2171875 55.20140625 -34.359375 55.8203125 C-43.13122915 60.42018724 -43.13122915 60.42018724 -48 60 C-50.11230469 58.93017578 -50.11230469 58.93017578 -52.171875 57.4453125 C-52.91824219 56.91292969 -53.66460937 56.38054687 -54.43359375 55.83203125 C-55.19800781 55.26871094 -55.96242188 54.70539063 -56.75 54.125 C-57.52988281 53.56941406 -58.30976562 53.01382813 -59.11328125 52.44140625 C-64.84922406 48.30155187 -64.84922406 48.30155187 -66 46 C-64.88625 45.52691406 -63.7725 45.05382812 -62.625 44.56640625 C-43.38355332 36.27941674 -25.57766571 26.42755603 -10.1953125 12.03515625 C-8.17076351 10.15830567 -6.08413784 8.42132287 -3.9375 6.6875 C-1.05229048 4.04784022 -0.61463877 3.55883438 0 0 Z " fill="#F99543" transform="translate(179,408)"/>
<path d="M0 0 C0.92232422 1.68029297 0.92232422 1.68029297 1.86328125 3.39453125 C2.67942102 4.8673352 3.49584201 6.33998334 4.3125 7.8125 C4.71662109 8.55048828 5.12074219 9.28847656 5.53710938 10.04882812 C5.93349609 10.76103516 6.32988281 11.47324219 6.73828125 12.20703125 C7.09962158 12.8616333 7.46096191 13.51623535 7.83325195 14.19067383 C9.06773457 16.1050389 10.25373734 17.53616064 12 19 C15.10839021 19.7269226 15.10839021 19.7269226 18 20 C15.76154087 35.66921388 5.46068568 51.51875962 -5 63 C-9.13630263 62.40332065 -12.12249745 60.05535896 -15.4375 57.6875 C-15.99759766 57.29626953 -16.55769531 56.90503906 -17.13476562 56.50195312 C-18.76894906 55.35211344 -20.3847769 54.17632527 -22 53 C-22.82282471 52.40098877 -23.64564941 51.80197754 -24.4934082 51.18481445 C-27.161596 48.85914848 -28.57793485 46.79748106 -30.296875 43.71875 C-30.86277344 42.71199219 -31.42867188 41.70523438 -32.01171875 40.66796875 C-32.58535156 39.62253906 -33.15898437 38.57710938 -33.75 37.5 C-34.33910156 36.45457031 -34.92820312 35.40914062 -35.53515625 34.33203125 C-40.23832552 25.88795033 -40.23832552 25.88795033 -41 22 C-39.04480616 20.82807953 -37.0857461 19.6626071 -35.125 18.5 C-34.03445313 17.8503125 -32.94390625 17.200625 -31.8203125 16.53125 C-29 15 -29 15 -27 15 C-26.59160889 15.74161377 -26.18321777 16.48322754 -25.76245117 17.24731445 C-24.24015982 20.00594068 -22.71330838 22.7619773 -21.18334961 25.51635742 C-20.52298972 26.70740124 -19.86443976 27.89945047 -19.20776367 29.0925293 C-18.26180533 30.81043548 -17.30871726 32.52440958 -16.35546875 34.23828125 C-15.78465576 35.26993408 -15.21384277 36.30158691 -14.62573242 37.36450195 C-13.21417086 39.65280456 -12.11603736 41.3632463 -10 43 C-6.5 43.58333333 -6.5 43.58333333 -3 43 C-0.81452316 41.55851025 -0.81452316 41.55851025 0 39 C-0.06533666 30.76758065 -5.2517116 24.55631341 -9.515625 17.83007812 C-10.10085938 16.88197266 -10.68609375 15.93386719 -11.2890625 14.95703125 C-11.83256348 14.10085205 -12.37606445 13.24467285 -12.93603516 12.36254883 C-14 10 -14 10 -13.80566406 7.79663086 C-12.58241879 5.0687939 -10.68078347 4.21679747 -8.125 2.75 C-7.24070312 2.22921875 -6.35640625 1.7084375 -5.4453125 1.171875 C-3 0 -3 0 0 0 Z " fill="#C7E1E3" transform="translate(382,218)"/>
<path d="M0 0 C0.66 0 1.32 0 2 0 C2.18830587 7.00916305 2.16119033 13.99055668 2 21 C1.99323242 21.90637207 1.98646484 22.81274414 1.97949219 23.74658203 C1.76570797 35.04570654 1.76570797 35.04570654 -1 40 C-5.06278122 43.73873988 -10.3903905 45.06285246 -15.62744141 46.39111328 C-17.94806539 46.98667165 -20.20475574 47.68606746 -22.48046875 48.43359375 C-37.79204788 53.38426336 -54.58568773 57.37833611 -70 51 C-67.91330258 48.91330258 -66.7097214 48.3725922 -63.9921875 47.37109375 C-63.1782251 47.06316895 -62.3642627 46.75524414 -61.52563477 46.43798828 C-60.21357056 45.94274658 -60.21357056 45.94274658 -58.875 45.4375 C-36.71240503 36.78548364 -13.32762276 22.68261881 -1.05078125 1.51171875 C-0.53064453 0.76341797 -0.53064453 0.76341797 0 0 Z " fill="#EE651E" transform="translate(402,364)"/>
<path d="M0 0 C4.00033251 3.94779531 7.85865102 8.0111694 11.6875 12.125 C12.30254395 12.78371094 12.91758789 13.44242187 13.55126953 14.12109375 C16.34441533 17.11868705 19.12578873 20.12409015 21.85546875 23.1796875 C26.07560596 27.90362403 30.29830291 32.32123273 35.1484375 36.3984375 C36.9743652 37.97782644 38.63805574 39.6370697 40.3125 41.375 C44.18962691 45.34229265 48.50062273 48.73400728 52.83984375 52.1796875 C53.55269531 52.78039062 54.26554687 53.38109375 55 54 C55 54.33 55 54.66 55 55 C42.20965819 55.44945112 29.78793615 55.18841959 17.125 53.1875 C15.50380249 52.9395166 15.50380249 52.9395166 13.84985352 52.68652344 C8.1512582 51.71111716 8.1512582 51.71111716 6 51 C3.05157385 46.57736077 2.71313477 41.94324787 1.875 36.75 C1.69614258 35.64857666 1.51728516 34.54715332 1.33300781 33.41235352 C-0.33719663 22.25777387 -0.41648114 11.2497963 0 0 Z " fill="#F6A460" transform="translate(15,427)"/>
<path d="M0 0 C1.63765426 2.28909684 3.04854399 4.50314906 4.4375 6.9375 C4.83638428 7.62320068 5.23526855 8.30890137 5.64624023 9.01538086 C13.6189335 22.89110662 13.6189335 22.89110662 13 30 C7.84912828 42.90202273 -1.79838249 53.7775556 -12 63 C-12.33 63 -12.66 63 -13 63 C-13.08636719 61.70449219 -13.17273438 60.40898437 -13.26171875 59.07421875 C-14.39444906 44.10630056 -16.77613599 29.75419509 -23 16 C-5.76595745 0 -5.76595745 0 0 0 Z " fill="#EF661E" transform="translate(385,313)"/>
<path d="M0 0 C0.75539062 0.62261719 1.51078125 1.24523437 2.2890625 1.88671875 C3.16175781 2.60601562 4.03445312 3.3253125 4.93359375 4.06640625 C5.91714844 4.89398438 6.90070313 5.7215625 7.9140625 6.57421875 C8.7481665 7.2707959 8.7481665 7.2707959 9.59912109 7.98144531 C16.34532235 13.62413012 22.86588795 19.35004397 29.00390625 25.66015625 C31.50240558 28.16376499 34.14686506 30.37465155 36.9140625 32.57421875 C35.33625327 36.28467122 33.00703002 38.87328259 30.2890625 41.82421875 C29.47179687 42.71625 28.65453125 43.60828125 27.8125 44.52734375 C27.18601563 45.2028125 26.55953125 45.87828125 25.9140625 46.57421875 C21.65776581 44.94349303 18.93103524 41.72892857 15.8515625 38.51171875 C11.04692523 33.60046172 6.11903227 29.0919637 0.7265625 24.8203125 C-1.87357442 22.74381426 -4.40264788 20.60813822 -6.92504883 18.43920898 C-13.09214744 13.13874954 -19.4171141 8.23838582 -26.0859375 3.57421875 C-23.02893137 0.51721262 -19.35158137 0.28418225 -15.2109375 -0.61328125 C-14.39496094 -0.80341797 -13.57898438 -0.99355469 -12.73828125 -1.18945312 C-11.55298828 -1.45145508 -11.55298828 -1.45145508 -10.34375 -1.71875 C-9.6233252 -1.87883545 -8.90290039 -2.0389209 -8.16064453 -2.20385742 C-4.83945658 -2.55911276 -2.73587315 -1.87002565 0 0 Z " fill="#EDEAED" transform="translate(173.0859375,255.42578125)"/>
<path d="M0 0 C26.68518743 0.30584742 51.17223589 14.61056053 70.0625 32.3125 C66.38161357 36.15975418 62.50064081 39.42635725 58.25 42.625 C57.65251953 43.07939453 57.05503906 43.53378906 56.43945312 44.00195312 C54.98302412 45.10883917 53.52312183 46.21115264 52.0625 47.3125 C48.69586459 44.04020114 45.66282729 40.67964105 42.75 37 C32.59915977 24.55649864 20.7811659 14.94930995 6.5 7.5625 C5.84580078 7.21509766 5.19160156 6.86769531 4.51757812 6.50976562 C0.29988875 4.43784201 -2.40726557 4.05604053 -6.9375 5.3125 C-4.54133387 0.36042332 -4.54133387 0.36042332 0 0 Z " fill="#EF651E" transform="translate(303.9375,267.6875)"/>
<path d="M0 0 C0.35078613 0.63164062 0.70157227 1.26328125 1.06298828 1.9140625 C7.72845648 13.90197291 14.44748055 25.84868652 21.375 37.6875 C21.95596436 38.68370361 22.53692871 39.67990723 23.13549805 40.70629883 C25.62449504 44.96871955 28.1251785 49.22106821 30.69140625 53.4375 C31.07828613 54.08372314 31.46516602 54.72994629 31.86376953 55.39575195 C32.84567231 57.03426593 33.8420305 58.66409496 34.83984375 60.29296875 C36 63 36 63 35.9375 65.6875 C34.78341087 68.53425319 33.70755854 69.30582109 31.0625 70.8125 C30.35222656 71.23144531 29.64195312 71.65039062 28.91015625 72.08203125 C27 73 27 73 25 73 C24.71302246 72.40574219 24.42604492 71.81148438 24.13037109 71.19921875 C20.9049059 64.62300275 17.35193275 58.30300223 13.625 52 C12.39130223 49.90010656 11.15825359 47.79983165 9.92578125 45.69921875 C9.28721191 44.6117334 8.64864258 43.52424805 7.99072266 42.40380859 C3.92097692 35.44521219 -0.09210024 28.45380843 -4.11279297 21.46679688 C-4.70850098 20.43232422 -5.30420898 19.39785156 -5.91796875 18.33203125 C-6.70337036 16.96655151 -6.70337036 16.96655151 -7.50463867 15.57348633 C-8.53434917 13.80137557 -9.62213227 12.06217173 -10.75512695 10.35424805 C-11.16593506 9.57734619 -11.57674316 8.80044434 -12 8 C-10.77974937 4.3392481 -9.873509 4.07660559 -6.5625 2.3125 C-5.75941406 1.87550781 -4.95632813 1.43851562 -4.12890625 0.98828125 C-2 0 -2 0 0 0 Z " fill="#1FB39C" transform="translate(461,403)"/>
<path d="M0 0 C1.7015625 0.4640625 1.7015625 0.4640625 3.4375 0.9375 C9.44301142 2.40505132 15.15835468 3.1186135 21.328125 2.8125 C33.62850872 2.27175421 33.62850872 2.27175421 37.33203125 4.23828125 C38.9375 5.9375 38.9375 5.9375 40.34375 7.84765625 C42.52832464 10.68657282 45.13016158 12.65961299 47.9375 14.875 C49.64217672 16.22864638 51.33544083 17.59731542 53 19 C53 19.33 53 19.66 53 20 C40.20965819 20.44945112 27.78793615 20.18841959 15.125 18.1875 C13.50380249 17.9395166 13.50380249 17.9395166 11.84985352 17.68652344 C6.1512582 16.71111716 6.1512582 16.71111716 4 16 C1.72525723 12.58788584 1.43370356 10.3431471 0.875 6.3125 C0.70742188 5.13300781 0.53984375 3.95351563 0.3671875 2.73828125 C0.24601562 1.83464844 0.12484375 0.93101562 0 0 Z " fill="#F89443" transform="translate(17,462)"/>
<path d="M0 0 C5.8777707 0.52736931 10.50888427 2.92950303 15.6875 5.5625 C16.57147461 6.00851563 17.45544922 6.45453125 18.36621094 6.9140625 C24.96378973 10.31332879 31.54258462 13.89306084 37 19 C37 19.66 37 20.32 37 21 C36.34 21 35.68 21 35 21 C34.79375 22.19625 34.5875 23.3925 34.375 24.625 C34.25898438 25.29789063 34.14296875 25.97078125 34.0234375 26.6640625 C33.99266983 29.73057372 34.92993475 32.14921547 36 35 C34.23462904 36.17491582 32.46250287 37.33968684 30.6875 38.5 C29.20830078 39.47453125 29.20830078 39.47453125 27.69921875 40.46875 C25 42 25 42 22 42 C20.17578125 39.4453125 20.17578125 39.4453125 18.3125 36.125 C17.68988281 35.03445312 17.06726563 33.94390625 16.42578125 32.8203125 C15 30 15 30 15 28 C15.969375 27.443125 16.93875 26.88625 17.9375 26.3125 C21.29326186 24.23967408 21.29326186 24.23967408 22.125 20.5 C22.2829709 17.01492005 22.2829709 17.01492005 20.5 14.5 C16.46687884 12.0801273 13.13368587 13.47033502 8.78125 14.55078125 C8.1934375 14.69902344 7.605625 14.84726562 7 15 C5.82226349 13.25743068 4.65816821 11.50563593 3.5 9.75 C2.8503125 8.77546875 2.200625 7.8009375 1.53125 6.796875 C0 4 0 4 0 0 Z " fill="#C6E0E2" transform="translate(302,48)"/>
<path d="M0 0 C0.721875 0.825 1.44375 1.65 2.1875 2.5 C4.85143897 5.37232835 4.85143897 5.37232835 8.8125 5.3125 C9.864375 5.209375 10.91625 5.10625 12 5 C14.15166094 9.30332188 13.1858483 15.06594623 13.18530273 19.84619141 C13.18746335 21.96407968 13.20554576 24.0814245 13.22460938 26.19921875 C13.25472072 33.68006683 12.92486873 40.74111824 11 48 C6.90810238 46.63603413 6.38452673 44.65151017 4.3125 40.9375 C3.68988281 39.83277344 3.06726563 38.72804687 2.42578125 37.58984375 C1.95527344 36.73519531 1.48476563 35.88054687 1 35 C2.67735762 33.29380528 4.341672 31.71690034 6.1875 30.1875 C8.26200218 28.07169085 8.26200218 28.07169085 8.4375 24.9375 C8.1911209 22.07537906 8.1911209 22.07537906 6.9375 20.125 C3.90946518 18.36678623 1.43351057 18.70400771 -2 19 C-3.68135552 19.62870171 -5.35169985 20.28913516 -7 21 C-8.19982444 19.07010782 -9.38452818 17.13080772 -10.5625 15.1875 C-11.55443359 13.56908203 -11.55443359 13.56908203 -12.56640625 11.91796875 C-14 9 -14 9 -13 6 C-10.56640625 4.39453125 -10.56640625 4.39453125 -7.5625 2.8125 C-6.07943359 2.01779297 -6.07943359 2.01779297 -4.56640625 1.20703125 C-2 0 -2 0 0 0 Z " fill="#C6E0E2" transform="translate(393,176)"/>
<path d="M0 0 C8.50732508 7.79107263 14.60307713 20.90818594 15.171875 32.50390625 C15.18556475 35.6765053 15.1341305 38.83054603 15 42 C10.28797782 40.32424563 6.99621047 37.85144297 3.16015625 34.70703125 C0.94465547 32.86012535 0.94465547 32.86012535 -2.0625 31.3125 C-4.94130557 27.87650625 -4.54907235 24.89349016 -4.37109375 20.51953125 C-2.79746835 5.59493671 -2.79746835 5.59493671 0 0 Z " fill="#F37320" transform="translate(194,344)"/>
<path d="M0 0 C0.42667969 0.32871094 0.85335937 0.65742188 1.29296875 0.99609375 C7.71308105 5.88067403 14.34946476 10.43789503 21 15 C17.35686498 18.64313502 11.90698613 18.92082079 7 20 C6.15566406 20.26425781 5.31132813 20.52851563 4.44140625 20.80078125 C1.00595006 21.6300293 -1.4775697 21.90885869 -4.61621094 20.03515625 C-8.72552101 17.03893017 -12.39675021 13.57811918 -16 10 C-16.49419434 9.51047852 -16.98838867 9.02095703 -17.49755859 8.51660156 C-18.66966521 7.34902682 -19.83555051 6.1752115 -21 5 C-18.25071558 4.49576443 -15.50068857 3.99646574 -12.75 3.5 C-11.97269531 3.35691406 -11.19539063 3.21382813 -10.39453125 3.06640625 C-9.64042969 2.93105469 -8.88632813 2.79570312 -8.109375 2.65625 C-7.07248535 2.46772461 -7.07248535 2.46772461 -6.01464844 2.27539062 C-4 2 -4 2 0 2 C0 1.34 0 0.68 0 0 Z " fill="#DCD8DC" transform="translate(94,459)"/>
<path d="M0 0 C1.06099328 1.73835057 2.09826483 3.49119804 3.125 5.25 C3.70507812 6.22453125 4.28515625 7.1990625 4.8828125 8.203125 C6 11 6 11 5.36254883 12.98413086 C3.65548176 15.50970921 1.95621142 16.53513835 -0.68359375 18.05078125 C-1.61107422 18.58380859 -2.53855469 19.11683594 -3.49414062 19.66601562 C-4.46544922 20.20935547 -5.43675781 20.75269531 -6.4375 21.3125 C-7.40494141 21.87517578 -8.37238281 22.43785156 -9.36914062 23.01757812 C-14.76001905 26.07403036 -14.76001905 26.07403036 -17 27 C-20.78570414 25.73809862 -21.21831571 24.45144185 -23.1875 21.0625 C-23.71730469 20.16660156 -24.24710937 19.27070313 -24.79296875 18.34765625 C-26 16 -26 16 -26 14 C-23.82861328 12.48779297 -23.82861328 12.48779297 -20.8203125 10.7421875 C-19.74652344 10.11699219 -18.67273438 9.49179687 -17.56640625 8.84765625 C-15.86291016 7.87119141 -15.86291016 7.87119141 -14.125 6.875 C-12.99707031 6.21628906 -11.86914062 5.55757813 -10.70703125 4.87890625 C-2.27248318 0 -2.27248318 0 0 0 Z " fill="#F7D743" transform="translate(446,377)"/>
<path d="M0 0 C-0.57616436 3.68745188 -1.25513229 7.34293985 -2 11 C-2.14824219 11.80566406 -2.29648437 12.61132812 -2.44921875 13.44140625 C-3 15.5625 -3 15.5625 -5 19 C-8.25044409 20.5757731 -11.42464523 20.79159201 -15 21 C-16.13953125 21.06832031 -17.2790625 21.13664062 -18.453125 21.20703125 C-25.66889726 21.41788174 -31.32834693 20.76068403 -38 18 C-35.9015229 15.9015229 -34.65721362 15.35019772 -31.921875 14.3359375 C-31.09671387 14.02205078 -30.27155273 13.70816406 -29.42138672 13.38476562 C-28.5398291 13.05154297 -27.65827148 12.71832031 -26.75 12.375 C-18.8976577 9.34085154 -11.72987613 5.85827716 -4.5546875 1.46875 C-2 0 -2 0 0 0 Z " fill="#F07220" transform="translate(370,397)"/>
<path d="M0 0 C5.3949382 -1.02085559 10.68639374 -1.72401607 16 0 C21.35536739 3.69935884 25.34851522 8.9491787 29.35644531 14.01269531 C30.95077931 15.94048479 32.62856965 17.66476935 34.4296875 19.3984375 C37 22 37 22 37 24 C33.535 25.98 33.535 25.98 30 28 C29.05640625 27.03900391 29.05640625 27.03900391 28.09375 26.05859375 C21.92119586 19.8209675 15.59742236 13.96873465 8.8359375 8.3828125 C8.28534668 7.92712891 7.73475586 7.47144531 7.16748047 7.00195312 C6.06763412 6.09373447 4.96514343 5.18870735 3.85986328 4.28710938 C2.55511504 3.21305575 1.27497737 2.10923031 0 1 C0 0.67 0 0.34 0 0 Z " fill="#F5A360" transform="translate(191,251)"/>
<path d="M0 0 C1.39521556 2.23953056 2.76562784 4.4888661 4.125 6.75 C4.52332031 7.38421875 4.92164063 8.0184375 5.33203125 8.671875 C8.09804499 13.33042446 8.09804499 13.33042446 7.6796875 16.1875 C5.1846928 18.87977335 2.19055806 20.52017937 -1 22.25 C-1.64195312 22.61351562 -2.28390625 22.97703125 -2.9453125 23.3515625 C-7.70453477 26 -7.70453477 26 -10 26 C-10.33 19.07 -10.66 12.14 -11 5 C-3 0 -3 0 0 0 Z " fill="#1FB29B" transform="translate(429,348)"/>
<path d="M0 0 C1.82421875 2.5546875 1.82421875 2.5546875 3.6875 5.875 C4.31011719 6.96554688 4.93273437 8.05609375 5.57421875 9.1796875 C7 12 7 12 7 14 C0.07 17.465 0.07 17.465 -7 21 C-12.56640625 11.91796875 -12.56640625 11.91796875 -14 9 C-12.74397824 5.23193471 -11.48987433 4.78753493 -8.125 2.8125 C-7.24070312 2.28269531 -6.35640625 1.75289062 -5.4453125 1.20703125 C-3 0 -3 0 0 0 Z " fill="#C4DDDF" transform="translate(271,211)"/>
<path d="M0 0 C2.5426272 2.5426272 4.01460061 4.43753048 5.75 7.5 C6.19859375 8.2734375 6.6471875 9.046875 7.109375 9.84375 C8 12 8 12 7 15 C4.8203125 16.60546875 4.8203125 16.60546875 2.125 18.1875 C1.24070312 18.71730469 0.35640625 19.24710938 -0.5546875 19.79296875 C-3 21 -3 21 -6 21 C-7.82421875 18.4453125 -7.82421875 18.4453125 -9.6875 15.125 C-10.31011719 14.03445312 -10.93273437 12.94390625 -11.57421875 11.8203125 C-13 9 -13 9 -13 7 C-8.71 4.69 -4.42 2.38 0 0 Z " fill="#C4DDDF" transform="translate(365,191)"/>
<path d="M0 0 C2.5426272 2.5426272 4.01460061 4.43753048 5.75 7.5 C6.19859375 8.2734375 6.6471875 9.046875 7.109375 9.84375 C8 12 8 12 7 15 C4.8203125 16.60546875 4.8203125 16.60546875 2.125 18.1875 C1.24070313 18.71730469 0.35640625 19.24710938 -0.5546875 19.79296875 C-3 21 -3 21 -6 21 C-7.82421875 18.4453125 -7.82421875 18.4453125 -9.6875 15.125 C-10.31011719 14.03445312 -10.93273437 12.94390625 -11.57421875 11.8203125 C-13 9 -13 9 -13 7 C-8.71 4.69 -4.42 2.38 0 0 Z " fill="#C3DCDE" transform="translate(250,115)"/>
<path d="M0 0 C2.86123584 2.86123584 4.31619211 5.15280732 6.1875 8.6875 C6.71730469 9.68136719 7.24710937 10.67523438 7.79296875 11.69921875 C8.19128906 12.45847656 8.58960938 13.21773437 9 14 C7.06730041 15.17460192 5.12866687 16.33944472 3.1875 17.5 C2.10855469 18.1496875 1.02960938 18.799375 -0.08203125 19.46875 C-3 21 -3 21 -6 21 C-8.31 16.71 -10.62 12.42 -13 8 C-8.71 5.36 -4.42 2.72 0 0 Z " fill="#C4DDDF" transform="translate(296,195)"/>
<path d="M0 0 C3.84643765 3.84643765 5.69872117 6.22697724 8 11 C7.91015625 13.015625 7.91015625 13.015625 7 15 C4.8203125 16.703125 4.8203125 16.703125 2.125 18.25 C1.24070313 18.77078125 0.35640625 19.2915625 -0.5546875 19.828125 C-3 21 -3 21 -6 21 C-7.82421875 18.4453125 -7.82421875 18.4453125 -9.6875 15.125 C-10.31011719 14.03445312 -10.93273437 12.94390625 -11.57421875 11.8203125 C-13 9 -13 9 -13 7 C-8.71 4.69 -4.42 2.38 0 0 Z " fill="#C4DDDF" transform="translate(254,184)"/>
<path d="M0 0 C1.60546875 2.43359375 1.60546875 2.43359375 3.1875 5.4375 C3.71730469 6.42621094 4.24710937 7.41492188 4.79296875 8.43359375 C6 11 6 11 6 13 C3.4453125 14.7265625 3.4453125 14.7265625 0.125 16.625 C-1.51082031 17.57246094 -1.51082031 17.57246094 -3.1796875 18.5390625 C-6 20 -6 20 -8 20 C-9.7265625 17.4453125 -9.7265625 17.4453125 -11.625 14.125 C-12.25664062 13.03445312 -12.88828125 11.94390625 -13.5390625 10.8203125 C-15 8 -15 8 -15 6 C-12.48046875 4.23828125 -12.48046875 4.23828125 -9.1875 2.3125 C-8.10855469 1.66925781 -7.02960938 1.02601563 -5.91796875 0.36328125 C-3 -1 -3 -1 0 0 Z " fill="#C4DDDF" transform="translate(325,181)"/>
<path d="M0 0 C4.3262276 2.29554934 5.99235113 8.86647544 7.9140625 13.015625 C3.6240625 15.655625 -0.6659375 18.295625 -5.0859375 21.015625 C-8.39378958 16.8808099 -10.86454124 13.71473248 -13.0859375 9.015625 C-11.9639454 5.35512578 -9.9849012 4.00326119 -6.7109375 2.203125 C-5.94007813 1.76355469 -5.16921875 1.32398438 -4.375 0.87109375 C-2.0859375 0.015625 -2.0859375 0.015625 0 0 Z " fill="#C4DDDF" transform="translate(350.0859375,164.984375)"/>
<path d="M0 0 C2.66131068 2.53620633 4.82203379 4.99503017 6.75 8.125 C7.17796875 8.80820313 7.6059375 9.49140625 8.046875 10.1953125 C9 12 9 12 9 14 C6.48046875 15.76171875 6.48046875 15.76171875 3.1875 17.6875 C2.10855469 18.33074219 1.02960938 18.97398437 -0.08203125 19.63671875 C-3 21 -3 21 -6 20 C-7.640625 17.85546875 -7.640625 17.85546875 -9.25 15.1875 C-9.79140625 14.31480469 -10.3328125 13.44210938 -10.890625 12.54296875 C-12 10 -12 10 -12.01953125 7.87890625 C-10.47102309 5.02514216 -8.29634253 4.1958514 -5.4375 2.75 C-4.42558594 2.22921875 -3.41367187 1.7084375 -2.37109375 1.171875 C-1.58863281 0.78515625 -0.80617188 0.3984375 0 0 Z " fill="#C4DDDF" transform="translate(265,142)"/>
<path d="M0 0 C1.76171875 2.51953125 1.76171875 2.51953125 3.6875 5.8125 C4.33074219 6.89144531 4.97398437 7.97039062 5.63671875 9.08203125 C7 12 7 12 6 15 C3.6015625 16.640625 3.6015625 16.640625 0.625 18.25 C-0.35210937 18.79140625 -1.32921875 19.3328125 -2.3359375 19.890625 C-5 21 -5 21 -8 20 C-9.60546875 17.56640625 -9.60546875 17.56640625 -11.1875 14.5625 C-11.98220703 13.07943359 -11.98220703 13.07943359 -12.79296875 11.56640625 C-14 9 -14 9 -14 7 C-11.4453125 5.2734375 -11.4453125 5.2734375 -8.125 3.375 C-7.03445313 2.74335937 -5.94390625 2.11171875 -4.8203125 1.4609375 C-2 0 -2 0 0 0 Z " fill="#C4DDDF" transform="translate(320,111)"/>
<path d="M0 0 C1.82421875 2.5546875 1.82421875 2.5546875 3.6875 5.875 C4.31011719 6.96554688 4.93273437 8.05609375 5.57421875 9.1796875 C7 12 7 12 7 14 C0.07 17.465 0.07 17.465 -7 21 C-12.56640625 11.91796875 -12.56640625 11.91796875 -14 9 C-12.74397824 5.23193471 -11.48987433 4.78753493 -8.125 2.8125 C-7.24070312 2.28269531 -6.35640625 1.75289063 -5.4453125 1.20703125 C-3 0 -3 0 0 0 Z " fill="#C4DDDF" transform="translate(347,96)"/>
<path d="M0 0 C1.82421875 2.625 1.82421875 2.625 3.6875 6 C4.31011719 7.11375 4.93273437 8.2275 5.57421875 9.375 C6.04472656 10.24125 6.51523437 11.1075 7 12 C3.23947647 16.27390558 -2.04160864 18.37496928 -7 21 C-10.96 14.07 -10.96 14.07 -15 7 C-3.375 0 -3.375 0 0 0 Z " fill="#C4DDDF" transform="translate(305,85)"/>
<path d="M0 0 C1.7265625 2.5546875 1.7265625 2.5546875 3.625 5.875 C4.57246094 7.51082031 4.57246094 7.51082031 5.5390625 9.1796875 C7 12 7 12 7 14 C4.48046875 15.76171875 4.48046875 15.76171875 1.1875 17.6875 C0.10855469 18.33074219 -0.97039062 18.97398437 -2.08203125 19.63671875 C-5 21 -5 21 -8 20 C-9.60546875 17.56640625 -9.60546875 17.56640625 -11.1875 14.5625 C-11.98220703 13.07943359 -11.98220703 13.07943359 -12.79296875 11.56640625 C-14 9 -14 9 -14 7 C-11.4453125 5.2734375 -11.4453125 5.2734375 -8.125 3.375 C-7.03445313 2.74335938 -5.94390625 2.11171875 -4.8203125 1.4609375 C-2 0 -2 0 0 0 Z " fill="#C4DEE0" transform="translate(313,222)"/>
<path d="M0 0 C2.31 4.62 4.62 9.24 7 14 C-2.08203125 19.56640625 -2.08203125 19.56640625 -5 21 C-8.76806529 19.74397824 -9.21246507 18.48987433 -11.1875 15.125 C-11.71730469 14.24070313 -12.24710937 13.35640625 -12.79296875 12.4453125 C-14 10 -14 10 -14 7 C-11.4453125 5.17578125 -11.4453125 5.17578125 -8.125 3.3125 C-7.03445313 2.68988281 -5.94390625 2.06726563 -4.8203125 1.42578125 C-2 0 -2 0 0 0 Z " fill="#C4DDDF" transform="translate(309,153)"/>
<path d="M0 0 C1.7265625 2.5546875 1.7265625 2.5546875 3.625 5.875 C4.57246094 7.51082031 4.57246094 7.51082031 5.5390625 9.1796875 C7 12 7 12 7 14 C4.4453125 15.7265625 4.4453125 15.7265625 1.125 17.625 C-0.51082031 18.57246094 -0.51082031 18.57246094 -2.1796875 19.5390625 C-5 21 -5 21 -7 21 C-8.76171875 18.48046875 -8.76171875 18.48046875 -10.6875 15.1875 C-11.33074219 14.10855469 -11.97398437 13.02960938 -12.63671875 11.91796875 C-14 9 -14 9 -13 6 C-10.56640625 4.39453125 -10.56640625 4.39453125 -7.5625 2.8125 C-6.07943359 2.01779297 -6.07943359 2.01779297 -4.56640625 1.20703125 C-2 0 -2 0 0 0 Z " fill="#C4DEE0" transform="translate(278,100)"/>
<path d="M0 0 C1.60546875 2.43359375 1.60546875 2.43359375 3.1875 5.4375 C3.71730469 6.42621094 4.24710937 7.41492188 4.79296875 8.43359375 C6 11 6 11 6 13 C3.4453125 14.7265625 3.4453125 14.7265625 0.125 16.625 C-1.51082031 17.57246094 -1.51082031 17.57246094 -3.1796875 18.5390625 C-6 20 -6 20 -8 20 C-9.76171875 17.48046875 -9.76171875 17.48046875 -11.6875 14.1875 C-12.33074219 13.10855469 -12.97398437 12.02960938 -13.63671875 10.91796875 C-15 8 -15 8 -14 5 C-11.6015625 3.359375 -11.6015625 3.359375 -8.625 1.75 C-7.64789063 1.20859375 -6.67078125 0.6671875 -5.6640625 0.109375 C-3 -1 -3 -1 0 0 Z " fill="#C5DEE0" transform="translate(283,170)"/>
<path d="M0 0 C2.76607967 1.3576888 3.69012996 3.17910162 5.23046875 5.81640625 C5.76285156 6.70070312 6.29523438 7.585 6.84375 8.49609375 C7.91796875 10.94140625 7.91796875 10.94140625 6.91796875 13.94140625 C4.7734375 15.58203125 4.7734375 15.58203125 2.10546875 17.19140625 C1.23277344 17.7328125 0.36007813 18.27421875 -0.5390625 18.83203125 C-3.08203125 19.94140625 -3.08203125 19.94140625 -5.1953125 19.9140625 C-7.90252284 18.5184199 -8.90036088 16.72209128 -10.45703125 14.12890625 C-11.00101563 13.25621094 -11.545 12.38351563 -12.10546875 11.484375 C-13.08203125 8.94140625 -13.08203125 8.94140625 -12.51953125 6.79296875 C-10.79445851 4.57100006 -9.16923212 3.48270772 -6.70703125 2.12890625 C-5.93617188 1.68933594 -5.1653125 1.24976563 -4.37109375 0.796875 C-2.08203125 -0.05859375 -2.08203125 -0.05859375 0 0 Z " fill="#C5DEE0" transform="translate(239.08203125,158.05859375)"/>
<path d="M0 0 C3.09718696 2.83247013 4.95667709 5.46409609 6.75 9.25 C7.17796875 10.14203125 7.6059375 11.0340625 8.046875 11.953125 C8.36140625 12.62859375 8.6759375 13.3040625 9 14 C7.09564732 15.22764874 5.1760079 16.43161233 3.25 17.625 C2.18265625 18.29789063 1.1153125 18.97078125 0.015625 19.6640625 C-3 21 -3 21 -5.21484375 20.484375 C-7.34176997 18.71581491 -8.48013154 17.04821998 -9.8125 14.625 C-10.25207031 13.85414063 -10.69164062 13.08328125 -11.14453125 12.2890625 C-12 10 -12 10 -11.984375 7.9140625 C-10.4880588 5.00455877 -8.31459309 4.20508156 -5.4375 2.75 C-4.42558594 2.22921875 -3.41367187 1.7084375 -2.37109375 1.171875 C-1.58863281 0.78515625 -0.80617188 0.3984375 0 0 Z " fill="#C5DEE0" transform="translate(376,149)"/>
<path d="M0 0 C2.15812506 1.76362908 3.28676292 3.41837717 4.62890625 5.859375 C5.06847656 6.63023437 5.50804687 7.40109375 5.9609375 8.1953125 C6.81640625 10.484375 6.81640625 10.484375 6.83203125 12.5703125 C5.23105385 15.58753914 2.79594974 16.32542854 -0.24609375 17.734375 C-1.35082031 18.25515625 -2.45554687 18.7759375 -3.59375 19.3125 C-4.44839844 19.69921875 -5.30304688 20.0859375 -6.18359375 20.484375 C-7.17290285 19.09571177 -8.14962453 17.69807649 -9.12109375 16.296875 C-9.66636719 15.51957031 -10.21164062 14.74226562 -10.7734375 13.94140625 C-12.22922265 11.40487201 -12.7797281 9.3625568 -13.18359375 6.484375 C-11.4470328 5.25680605 -9.69378998 4.05280647 -7.93359375 2.859375 C-6.9590625 2.18648437 -5.98453125 1.51359375 -4.98046875 0.8203125 C-2.18359375 -0.515625 -2.18359375 -0.515625 0 0 Z " fill="#C5DEE0" transform="translate(335.18359375,138.515625)"/>
<path d="M0 0 C2.28838322 1.71510295 3.29648347 3.33241656 4.63671875 5.8515625 C5.0646875 6.63402344 5.49265625 7.41648438 5.93359375 8.22265625 C6.88671875 10.4140625 6.88671875 10.4140625 6.88671875 13.4140625 C0.45171875 16.8790625 0.45171875 16.8790625 -6.11328125 20.4140625 C-8.75328125 16.1240625 -11.39328125 11.8340625 -14.11328125 7.4140625 C-11.60658181 4.90736306 -9.6773178 3.35794224 -6.67578125 1.6015625 C-5.53302734 0.91126953 -5.53302734 0.91126953 -4.3671875 0.20703125 C-2.11328125 -0.5859375 -2.11328125 -0.5859375 0 0 Z " fill="#C5DEE0" transform="translate(293.11328125,127.5859375)"/>
<path d="M0 0 C3.30785208 4.1348151 5.77860374 7.30089252 8 12 C6.8780079 15.66049922 4.8989637 17.01236381 1.625 18.8125 C0.85414063 19.25207031 0.08328125 19.69164062 -0.7109375 20.14453125 C-3 21 -3 21 -5.0859375 21.015625 C-9.4121651 18.72007566 -11.07828863 12.14914956 -13 8 C-8.71 5.36 -4.42 2.72 0 0 Z " fill="#C5DEE0" transform="translate(361,122)"/>
<path d="M0 0 C2.28683694 1.71275547 3.29381793 3.33084238 4.6328125 5.84765625 C5.06078125 6.63011719 5.48875 7.41257813 5.9296875 8.21875 C6.8828125 10.41015625 6.8828125 10.41015625 6.8828125 13.41015625 C4.2578125 15.234375 4.2578125 15.234375 0.8828125 17.09765625 C-0.2309375 17.72027344 -1.3446875 18.34289062 -2.4921875 18.984375 C-3.3584375 19.45488281 -4.2246875 19.92539063 -5.1171875 20.41015625 C-7.55705293 18.15741914 -9.25378687 15.83665935 -10.9296875 12.97265625 C-11.38988281 12.21082031 -11.85007812 11.44898438 -12.32421875 10.6640625 C-13.1171875 8.41015625 -13.1171875 8.41015625 -12.52734375 6.3046875 C-10.82915857 4.02319217 -9.21865881 2.92560027 -6.7421875 1.53515625 C-5.97132813 1.08398438 -5.20046875 0.6328125 -4.40625 0.16796875 C-2.1171875 -0.58984375 -2.1171875 -0.58984375 0 0 Z " fill="#C5DFE1" transform="translate(339.1171875,207.58984375)"/>
<path d="M0 0 C3.50297874 4.02193856 9 10.39433144 9 16 C0.585 16.495 0.585 16.495 -8 17 C-10.475 13.04 -10.475 13.04 -13 9 C-9.39299028 4.76568424 -4.85413839 2.5307901 0 0 Z " fill="#C4DDDF" transform="translate(285,237)"/>
<path d="M0 0 C1.06099328 1.73835057 2.09826483 3.49119804 3.125 5.25 C3.70507812 6.22453125 4.28515625 7.1990625 4.8828125 8.203125 C6 11 6 11 5.39453125 13.21484375 C3.02379706 16.24964914 0.47914455 17.35198416 -3 19 C-6.76382187 17.74539271 -7.25041838 16.47381388 -9.25 13.125 C-9.79140625 12.24070312 -10.3328125 11.35640625 -10.890625 10.4453125 C-12 8 -12 8 -11 5 C-9.00390625 3.61328125 -9.00390625 3.61328125 -6.5625 2.3125 C-5.75941406 1.87550781 -4.95632813 1.43851562 -4.12890625 0.98828125 C-2 0 -2 0 0 0 Z " fill="#F1C02B" transform="translate(446,377)"/>
<path d="M0 0 C3.89006773 1.38780795 6.96558708 3.2152227 10.3125 5.625 C11.19550781 6.25664062 12.07851562 6.88828125 12.98828125 7.5390625 C13.65214844 8.02117187 14.31601563 8.50328125 15 9 C14.48761549 13.36475697 13.55378753 16.25684647 11.0625 19.875 C10.53785156 20.65617187 10.01320312 21.43734375 9.47265625 22.2421875 C8.98667969 22.82226562 8.50070313 23.40234375 8 24 C7.34 24 6.68 24 6 24 C4.98867084 21.12854755 3.99075598 18.25354777 3 15.375 C2.71382812 14.56675781 2.42765625 13.75851562 2.1328125 12.92578125 C0.61093475 8.46885356 -0.37123303 4.77962528 0 0 Z " fill="#F27320" transform="translate(192,394)"/>
<path d="M0 0 C1.82421875 2.625 1.82421875 2.625 3.6875 6 C4.31011719 7.11375 4.93273437 8.2275 5.57421875 9.375 C6.04472656 10.24125 6.51523437 11.1075 7 12 C5.68 13.32 4.36 14.64 3 16 C-0.76806529 14.74397824 -1.21246507 13.48987433 -3.1875 10.125 C-3.71730469 9.24070312 -4.24710937 8.35640625 -4.79296875 7.4453125 C-6 5 -6 5 -6 2 C-3 0 -3 0 0 0 Z " fill="#C3DDDF" transform="translate(381,112)"/>
<path d="M0 0 C1.61411598 2.55343432 2.73308325 5.24773258 4 8 C-0.95 7.01 -5.9 6.02 -11 5 C-4.5 -1.5 -4.5 -1.5 0 0 Z " fill="#BCD4D6" transform="translate(329,250)"/>
<path d="M0 0 C1.32 0 2.64 0 4 0 C4.67756882 1.55780332 5.34159457 3.12150096 6 4.6875 C6.37125 5.55761719 6.7425 6.42773438 7.125 7.32421875 C8.01870488 10.0572002 8.16449676 12.14700934 8 15 C7.34 15 6.68 15 6 15 C4.23828125 12.48046875 4.23828125 12.48046875 2.3125 9.1875 C1.66925781 8.10855469 1.02601563 7.02960938 0.36328125 5.91796875 C-1 3 -1 3 0 0 Z " fill="#BDD7D9" transform="translate(391,140)"/>
<path d="M0 0 C7 8.75 7 8.75 7 12 C2.61538462 15 2.61538462 15 0 15 C0 10.05 0 5.1 0 0 Z " fill="#25CAAD" transform="translate(419,359)"/>
<path d="M0 0 C0.66 0 1.32 0 2 0 C3.9453125 2.1171875 3.9453125 2.1171875 6.125 4.875 C6.84945313 5.77992187 7.57390625 6.68484375 8.3203125 7.6171875 C10 10 10 10 10 12 C8.35 12.33 6.7 12.66 5 13 C3.02 9.04 1.04 5.08 -1 1 C-0.67 0.67 -0.34 0.34 0 0 Z " fill="#C3DCDE" transform="translate(361,88)"/>
</svg>
