<?xml version="1.0" encoding="UTF-8"?>
<svg version="1.1" xmlns="http://www.w3.org/2000/svg" width="512" height="512">
<path d="M0 0 C1.64249725 -0.01270432 1.64249725 -0.01270432 3.31817627 -0.02566528 C6.93025385 -0.04902581 10.54190539 -0.05005782 14.15405273 -0.04882812 C16.66698884 -0.05592887 19.17992331 -0.06362774 21.69285583 -0.07189941 C26.95591582 -0.08534105 32.21886623 -0.08709513 37.48193359 -0.08105469 C43.56020057 -0.07440708 49.63786176 -0.09731365 55.71600586 -0.13436842 C61.57332882 -0.16877679 67.43041333 -0.17540173 73.28782463 -0.17127991 C75.77615097 -0.17297475 78.26448504 -0.18265206 80.75274849 -0.20042419 C84.2288865 -0.22252502 87.70355511 -0.21295638 91.1796875 -0.1953125 C92.2089183 -0.20857574 93.23814911 -0.22183899 94.29856873 -0.23550415 C99.04115997 -0.1794887 101.2993916 -0.11698821 105.20298767 2.77087402 C107.02514648 5.41992188 107.02514648 5.41992188 107.02514648 8.41992188 C110.32514648 8.41992188 113.62514648 8.41992188 117.02514648 8.41992188 C117.10764648 7.65679687 117.19014648 6.89367187 117.27514648 6.10742188 C118.20380541 2.7797274 119.09237785 2.15809657 122.02514648 0.41992188 C124.51509762 0.04387438 124.51509762 0.04387438 127.37205505 0.04239845 C128.46292168 0.03457521 129.5537883 0.02675197 130.67771149 0.01869166 C132.47475651 0.02872991 132.47475651 0.02872991 134.30810547 0.03897095 C135.58120827 0.03429098 136.85431107 0.029611 138.16599274 0.02478921 C141.70256098 0.01224285 145.23888697 0.01846612 148.77545619 0.02774787 C152.58889215 0.03452376 156.40228588 0.02406403 160.2157135 0.01580811 C167.68959092 0.00244987 175.16337808 0.00535868 182.63725907 0.01404603 C188.71496736 0.02081801 194.79265034 0.02174138 200.87036133 0.01847458 C202.16738348 0.01778503 202.16738348 0.01778503 203.4906081 0.01708155 C205.24723419 0.01612237 207.00386028 0.01514973 208.76048636 0.01416378 C225.24564751 0.00560272 241.73075868 0.01545311 258.21591163 0.03156488 C272.34782362 0.04494972 286.47966163 0.04265651 300.61157227 0.02880859 C317.02487754 0.01273264 333.43813887 0.00644676 349.85145092 0.01564538 C351.60410245 0.01660101 353.35675398 0.01754412 355.10940552 0.01847458 C356.40285254 0.01916882 356.40285254 0.01916882 357.72242981 0.01987708 C363.7857383 0.02246235 369.84901884 0.01810558 375.912323 0.01103592 C383.31235988 0.00259748 390.71230136 0.00494934 398.1123274 0.02087815 C401.88494157 0.02873239 405.65739705 0.03190173 409.43000984 0.02193069 C413.5289159 0.01126182 417.62742557 0.02404954 421.72631836 0.03897095 C422.9065026 0.03227878 424.08668684 0.02558662 425.30263424 0.01869166 C442.17404136 0.13741587 455.69193509 5.95003528 468.02514648 17.41992188 C478.38075103 28.18824979 485.253622 42.0380098 485.29257202 57.08569336 C485.29710313 57.81375655 485.30163425 58.54181974 485.30630267 59.29194546 C485.31886673 61.70836846 485.31733155 64.12456377 485.31567383 66.54101562 C485.32166391 68.28289069 485.32847055 70.02476311 485.33602905 71.76663208 C485.35364305 76.48143547 485.35838236 81.19616619 485.35966063 85.9109993 C485.36108488 88.85928345 485.36535959 91.80754927 485.37065506 94.75582886 C485.38913697 105.04849414 485.39732759 115.34110773 485.39575195 125.63378906 C485.39454962 135.21781491 485.41567472 144.8016159 485.44723928 154.38558483 C485.47340666 162.62530416 485.48411912 170.86495003 485.48284113 179.10471058 C485.48233183 184.02113069 485.48799821 188.93735065 485.50919724 193.85372925 C485.52858851 198.47659537 485.52869804 203.09907046 485.51416397 207.72195053 C485.51207619 209.4150131 485.51677494 211.10810021 485.52888489 212.80112076 C485.6442607 230.05277297 485.6442607 230.05277297 479.09545898 237.66210938 C478.45350586 238.2009375 477.81155273 238.73976563 477.15014648 239.29492188 C476.51334961 239.84921875 475.87655273 240.40351563 475.22045898 240.97460938 C469.26490438 244.89552611 463.24339972 244.6879169 456.37670898 244.61523438 C455.3641806 244.61240448 454.35165222 244.60957458 453.30844116 244.60665894 C450.0888871 244.59550442 446.86961583 244.57040834 443.65014648 244.54492188 C441.46134843 244.53488597 439.272546 244.52576119 437.08374023 244.51757812 C431.7307799 244.49558058 426.3779834 244.46215012 421.02514648 244.41992188 C420.89459366 245.0355751 420.76404083 245.65122833 420.62953186 246.28553772 C420.36722023 247.49879982 420.36722023 247.49879982 420.09960938 248.73657227 C419.92780655 249.53785049 419.75600372 250.33912872 419.57899475 251.16468811 C416.82615921 262.37405364 407.96908933 272.0671279 398.58764648 278.29492188 C385.07673919 286.34074307 370.96559012 288.5932921 355.46264648 285.77148438 C341.04653196 281.28561895 330.88319375 273.15228468 322.70092773 260.75195312 C320.25237303 255.88338165 318.7484691 250.58988972 317.02514648 245.41992188 C262.57514648 245.41992188 208.12514648 245.41992188 152.02514648 245.41992188 C150.70514648 249.04992187 149.38514648 252.67992187 148.02514648 256.41992188 C141.01644587 269.93670163 130.73102558 279.09928539 116.65014648 284.79492188 C102.78933117 289.05153354 86.83183386 287.54378631 74.07202148 280.87695312 C61.03431481 273.09351348 52.11622699 262.09968133 48.02514648 247.41992188 C48.02514648 246.42992187 48.02514648 245.43992187 48.02514648 244.41992188 C47.32881104 244.42658371 46.63247559 244.43324554 45.91503906 244.44010925 C39.3247424 244.50043794 32.73452379 244.54600615 26.14401245 244.57535839 C22.75645076 244.59095648 19.36911891 244.61208594 15.98168945 244.64624023 C12.07944746 244.68275663 8.17752858 244.69967937 4.27514648 244.71289062 C2.46687378 244.73611641 2.46687378 244.73611641 0.62207031 244.7598114 C-6.85878155 244.76129758 -12.91900364 244.320034 -19.18188477 239.84179688 C-19.71168945 239.29007813 -20.24149414 238.73835937 -20.78735352 238.16992188 C-21.33004883 237.62851562 -21.87274414 237.08710938 -22.43188477 236.52929688 C-26.65382788 230.75752654 -27.41498098 225.56051376 -27.36253357 218.62159729 C-27.36791911 217.75963129 -27.37330464 216.8976653 -27.37885338 216.00957912 C-27.39311077 213.13392454 -27.38603472 210.25873172 -27.37890625 207.38305664 C-27.38461096 205.31620922 -27.39157561 203.24936495 -27.39970398 201.18252563 C-27.41763897 195.57716439 -27.41646636 189.97195966 -27.41076159 184.36657834 C-27.40767034 179.68461129 -27.41376148 175.00267432 -27.41980034 170.32071155 C-27.433845 159.27457324 -27.43228465 148.22851226 -27.42089844 137.18237305 C-27.4094162 125.79144675 -27.42349493 114.40075586 -27.45029491 103.00986058 C-27.47245435 93.22452053 -27.47908875 83.43925438 -27.4732185 73.65389103 C-27.46984846 67.81191841 -27.47226734 61.97009671 -27.48946953 56.12814522 C-27.50494041 50.63445407 -27.50098125 45.14111161 -27.48216438 39.64743423 C-27.47847898 37.63348011 -27.48158551 35.61950015 -27.49205017 33.60556984 C-27.505265 30.85172237 -27.49370824 28.09902843 -27.47605896 25.3452301 C-27.48566397 24.55231758 -27.49526897 23.75940506 -27.50516504 22.94246489 C-27.42470681 16.82172114 -25.81862128 11.50994239 -21.59839338 6.92426878 C-14.70637528 0.86788487 -8.81682413 -0.02515425 0 0 Z " fill="#241F20" transform="translate(26.974853515625,112.580078125)"/>
<path d="M0 0 C3.96 0 7.92 0 12 0 C12.99 2.475 12.99 2.475 14 5 C15.79480702 7.21071727 15.79480702 7.21071727 18.22001672 7.24905568 C19.15337468 7.24862364 20.08673264 7.2481916 21.04837418 7.24774647 C22.66117559 7.25431946 22.66117559 7.25431946 24.30655885 7.26102525 C25.49737746 7.25567992 26.68819607 7.25033458 27.9151001 7.24482727 C29.80169834 7.24822413 29.80169834 7.24822413 31.72640967 7.25168961 C35.22939053 7.25781225 38.73225869 7.2515294 42.2352314 7.243379 C46.00919155 7.23680787 49.78313696 7.24179472 53.55709839 7.24560547 C60.10283653 7.25083676 66.64854511 7.24932599 73.19428253 7.24382973 C83.54863406 7.23562299 93.90292166 7.24683961 104.25726318 7.2610321 C107.79982361 7.26563376 111.34238422 7.27008407 114.88494492 7.27447033 C115.77040838 7.27556847 116.65587184 7.27666661 117.56816752 7.27779803 C127.65481752 7.28998005 137.74146957 7.29752566 147.828125 7.3034668 C148.75041223 7.30401486 149.67269946 7.30456292 150.62293479 7.30512758 C165.5445653 7.31357352 180.46617774 7.31025599 195.38780835 7.30431245 C210.71320691 7.29868663 226.03851479 7.31227351 241.36388564 7.34186524 C250.8118328 7.35937398 260.25951731 7.36107743 269.70746312 7.34222009 C276.19258929 7.33057643 282.67753905 7.33712376 289.16264239 7.3576893 C292.89914075 7.36896303 296.63518379 7.37229114 300.37166214 7.35351372 C304.43516583 7.33328337 308.49760231 7.35211434 312.56109619 7.3742218 C313.72514614 7.3621843 314.8891961 7.35014681 316.08852029 7.33774453 C329.95491449 7.49069854 341.08067173 12.28949783 350.92578125 21.875 C355.24000829 26.45713407 361 33.41349907 361 40 C307.21 40 253.42 40 198 40 C197.34 37.36 196.68 34.72 196 32 C192.69340251 29.79560167 191.69576643 29.74781431 187.85147095 29.73930359 C186.78597519 29.73221878 185.72047943 29.72513397 184.62269592 29.71783447 C182.86934181 29.7215506 182.86934181 29.7215506 181.08056641 29.7253418 C179.84945633 29.72023087 178.61834625 29.71511993 177.34992981 29.70985413 C173.97169948 29.6983224 170.59371424 29.69588677 167.21548128 29.69841743 C164.39494531 29.69948661 161.57443201 29.69460501 158.75390089 29.689812 C152.09861202 29.67871244 145.44337959 29.6782816 138.78808594 29.68432617 C131.92444893 29.69036421 125.06101701 29.67806044 118.19741499 29.6567561 C112.30346896 29.63913483 106.40958817 29.63313965 100.51561677 29.63639385 C96.99596672 29.63820638 93.47646289 29.63557382 89.9568367 29.62167931 C86.03055032 29.60675992 82.10452456 29.61607576 78.17822266 29.62768555 C77.01336838 29.62004181 75.8485141 29.61239807 74.64836121 29.60452271 C73.0416581 29.61504417 73.0416581 29.61504417 71.40249634 29.6257782 C70.47446009 29.62561046 69.54642384 29.62544271 68.59026527 29.62526989 C65.40794361 30.08565198 63.55221838 31.05877351 61 33 C59.63099646 36.57996259 59.63099646 36.57996259 59 40 C58.28216465 40.00331015 57.5643293 40.00662029 56.82474136 40.01003075 C39.36510587 40.09122089 21.90556193 40.18330021 4.44604874 40.28752708 C-3.99721207 40.33766714 -12.44046309 40.38410989 -20.88378906 40.421875 C-28.24225645 40.45479713 -35.60064828 40.49462955 -42.9590323 40.54279006 C-46.85590178 40.56805288 -50.75272115 40.58983478 -54.64965057 40.60334396 C-58.31697828 40.61616632 -61.98413411 40.63822252 -65.65136719 40.66738319 C-67.64012342 40.68078696 -69.62893818 40.68438014 -71.61773682 40.68769836 C-72.80121704 40.69886185 -73.98469727 40.71002533 -75.20404053 40.7215271 C-76.2327615 40.72705786 -77.26148247 40.73258862 -78.3213768 40.73828697 C-81.06332815 41.00618743 -82.70289113 41.50359446 -85 43 C-86.7275769 46.4551538 -86.16578946 50.44747012 -86.17700195 54.25146484 C-86.18357315 55.21093521 -86.19014435 56.17040558 -86.19691467 57.15895081 C-86.21667122 60.3429471 -86.22831446 63.52689622 -86.23828125 66.7109375 C-86.24235678 67.79633442 -86.2464323 68.88173134 -86.25063133 70.00001907 C-86.2715004 75.74284933 -86.28579949 81.48565563 -86.29516602 87.22851562 C-86.30624264 93.16954804 -86.34065481 99.11020716 -86.38033772 105.05110741 C-86.40643951 109.61152865 -86.41485204 114.17186001 -86.41844749 118.7323494 C-86.42332877 120.92286327 -86.43498624 123.11337273 -86.45348549 125.30381393 C-86.47774365 128.36609548 -86.47693637 131.42739858 -86.4699707 134.48974609 C-86.48918579 135.85204597 -86.48918579 135.85204597 -86.50878906 137.24186707 C-86.50184525 138.07747665 -86.49490143 138.91308624 -86.48774719 139.77401733 C-86.49013555 140.49779257 -86.4925239 141.2215678 -86.49498463 141.96727562 C-85.76251324 144.97527297 -84.44519284 146.14755227 -82 148 C-79.24847336 148.60310421 -79.24847336 148.60310421 -76.16607666 148.51898193 C-74.97418228 148.53289474 -73.7822879 148.54680756 -72.55427551 148.56114197 C-70.59816597 148.55359642 -70.59816597 148.55359642 -68.60253906 148.54589844 C-67.21279239 148.55463427 -65.82305577 148.56512009 -64.43333435 148.57722473 C-60.66295039 148.60510477 -56.89289429 148.60848899 -53.12242222 148.60750484 C-49.18121037 148.61063226 -45.24014657 148.63624684 -41.29901123 148.65948486 C-33.83700211 148.70006168 -26.3750804 148.72038948 -18.91297793 148.73345876 C-8.82869653 148.7522894 1.25542644 148.80236636 11.33960152 148.85070229 C27.2263928 148.92602704 43.11299283 148.95957505 59 149 C59 172.1 59 195.2 59 219 C54.71 219 50.42 219 46 219 C45.195625 216.1228125 45.195625 216.1228125 44.375 213.1875 C40.06281569 199.33442008 32.60159939 187.39448453 19.62109375 180.24609375 C5.27238348 173.42457575 -9.85532883 171.39062882 -25.03515625 176.73828125 C-39.247531 182.7864987 -47.87215328 191.92112885 -54.8125 205.5625 C-55.82283647 208.48715821 -56.48888586 211.18938896 -57.07421875 214.21484375 C-57.24912842 215.11195068 -57.42403809 216.00905762 -57.60424805 216.93334961 C-57.73484619 217.61534424 -57.86544434 218.29733887 -58 219 C-65.77784995 219.07593214 -73.55560468 219.12855012 -81.33374023 219.16479492 C-83.98091199 219.1799012 -86.62805864 219.2003873 -89.27514648 219.22631836 C-93.07542101 219.26261991 -96.87536526 219.27970803 -100.67578125 219.29296875 C-102.45714226 219.31619453 -102.45714226 219.31619453 -104.27449036 219.33988953 C-105.37540512 219.34011612 -106.47631989 219.34034271 -107.6105957 219.34057617 C-109.06620659 219.35056892 -109.06620659 219.35056892 -110.55122375 219.36076355 C-113.42605977 218.93723116 -114.26075361 218.27571161 -116 216 C-117.20272819 213.59454362 -117.10071472 212.05003047 -117.0625 209.375 C-117.05347656 208.55773437 -117.04445313 207.74046875 -117.03515625 206.8984375 C-117.01775391 205.95871094 -117.01775391 205.95871094 -117 205 C-116.16597656 204.98582031 -115.33195312 204.97164062 -114.47265625 204.95703125 C-106.0865134 204.60160481 -99.55917526 203.46956002 -93.41015625 197.44140625 C-88.48093854 191.71208364 -87.09910763 187.41104798 -87 180 C-87.73869537 173.32829105 -90.52781151 168.28202014 -95.4375 163.75 C-100.29867799 160.43017113 -104.46197649 159.70306674 -110.3125 159.375 C-111.56675781 159.30023438 -112.82101563 159.22546875 -114.11328125 159.1484375 C-115.54220703 159.07496094 -115.54220703 159.07496094 -117 159 C-117.07002747 139.8854174 -117.12295741 120.77086077 -117.15543652 101.65617657 C-117.1709168 92.78123885 -117.19202844 83.90638076 -117.22631836 75.03149414 C-117.25618524 67.29769886 -117.27556655 59.56396124 -117.28226548 51.83010989 C-117.28618236 47.73366429 -117.2954115 43.63738365 -117.31719017 39.54099083 C-117.33751261 35.68737735 -117.34384248 31.83399721 -117.33932304 27.98033524 C-117.34015016 26.5641446 -117.34614118 25.14794637 -117.35761642 23.73180199 C-117.37249229 21.80174237 -117.3671775 19.87155831 -117.36076355 17.94145203 C-117.36352893 16.86018886 -117.36629431 15.77892569 -117.36914349 14.66489697 C-117 12 -117 12 -115.66495228 10.19115925 C-112.72425126 8.08728921 -110.09100783 7.87338305 -106.59729004 7.86196899 C-105.69718704 7.85651566 -104.79708405 7.85106232 -103.8697052 7.84544373 C-102.88467514 7.8444014 -101.89964508 7.84335907 -100.88476562 7.84228516 C-99.84551437 7.83720444 -98.80626312 7.83212372 -97.73551941 7.82688904 C-95.4765355 7.81618078 -93.21754095 7.80756239 -90.95854187 7.80076981 C-87.38689589 7.78899871 -83.8153718 7.76955189 -80.24377441 7.74765015 C-70.08817574 7.68596294 -59.9325901 7.63191343 -49.77685547 7.59863281 C-43.56821729 7.57773689 -37.35980205 7.54247738 -31.15129089 7.49787521 C-28.78137325 7.48367738 -26.41141619 7.4749843 -24.04145813 7.47182083 C-20.73247794 7.4669352 -17.42409422 7.44383873 -14.11523438 7.41650391 C-13.13020432 7.41951004 -12.14517426 7.42251617 -11.1302948 7.4256134 C-10.2301918 7.41452042 -9.33008881 7.40342743 -8.40270996 7.39199829 C-7.620317 7.38868814 -6.83792404 7.385378 -6.0318222 7.38196754 C-3.42375121 6.89166949 -2.5760635 6.11250916 -1 4 C-0.67 2.68 -0.34 1.36 0 0 Z " fill="#FD5256" transform="translate(133,121)"/>
<path d="M0 0 C34.98 0 69.96 0 106 0 C106 22.44 106 44.88 106 68 C71.02 68 36.04 68 0 68 C0 45.56 0 23.12 0 0 Z " fill="#EF4556" transform="translate(209,270)"/>
<path d="M0 0 C30.36 0 60.72 0 92 0 C92 25.41 92 50.82 92 77 C65.1875 77.3125 65.1875 77.3125 56.72729492 77.38793945 C54.52000212 77.42021743 52.31272493 77.45358944 50.10546875 77.48828125 C48.95485962 77.49452515 47.80425049 77.50076904 46.61877441 77.50720215 C45.52278931 77.52714233 44.4268042 77.54708252 43.29760742 77.56762695 C42.34496506 77.57873001 41.39232269 77.58983307 40.41081238 77.60127258 C37.9714816 77.82091583 37.9714816 77.82091583 36.23139954 79.27702332 C34.68603765 81.21665232 34.68603765 81.21665232 34 85 C30.37 85 26.74 85 23 85 C22.54625 84.030625 22.0925 83.06125 21.625 82.0625 C20.34213779 78.92920418 20.34213779 78.92920418 18 78 C12.06 77.67 6.12 77.34 0 77 C0 51.59 0 26.18 0 0 Z " fill="#95D0EB" transform="translate(404,177)"/>
<path d="M0 0 C0.495 1.485 0.495 1.485 1 3 C4.63 3 8.26 3 12 3 C12.680625 4.4540625 12.680625 4.4540625 13.375 5.9375 C14.65786221 9.07079582 14.65786221 9.07079582 17 10 C18.69463258 10.11902812 20.39371122 10.17714687 22.09228516 10.20532227 C23.15323395 10.22526749 24.21418274 10.24521271 25.30728149 10.26576233 C26.45626923 10.28247482 27.60525696 10.29918732 28.7890625 10.31640625 C30.54940323 10.3475779 30.54940323 10.3475779 32.3453064 10.37937927 C36.10514304 10.44491983 39.86505122 10.50378076 43.625 10.5625 C46.16927832 10.60568092 48.71354933 10.64929507 51.2578125 10.69335938 C57.50513447 10.80060586 63.7525286 10.90186061 70 11 C70 14.3 70 17.6 70 21 C67.77443359 21.02126953 67.77443359 21.02126953 65.50390625 21.04296875 C63.52340759 21.0899 61.5429398 21.13814719 59.5625 21.1875 C58.10166992 21.19620117 58.10166992 21.19620117 56.61132812 21.20507812 C49.71092283 21.41278263 44.5443333 22.75875649 39 27 C33.47264482 33.02462589 32.51795041 38.62239076 32.59765625 46.56640625 C33.33573468 52.86515322 36.16584608 57.68891027 41.07421875 61.69140625 C45.49545647 64.55989875 49.37078803 66.08022622 54.66796875 66.31640625 C55.56064453 66.35830078 56.45332031 66.40019531 57.37304688 66.44335938 C58.30181641 66.48267578 59.23058594 66.52199219 60.1875 66.5625 C61.59805664 66.62727539 61.59805664 66.62727539 63.03710938 66.69335938 C65.35792854 66.79938665 67.67885325 66.90145029 70 67 C70.05447047 68.41623216 70.09300508 69.83308191 70.125 71.25 C70.14820313 72.03890625 70.17140625 72.8278125 70.1953125 73.640625 C69.97962391 76.24614317 69.3921178 77.79986977 68 80 C65.6699002 81.1650499 64.32752923 81.1209358 61.73388672 81.11352539 C60.41274368 81.11341209 60.41274368 81.11341209 59.06491089 81.11329651 C58.11278717 81.10813522 57.16066345 81.10297394 56.1796875 81.09765625 C55.20589142 81.0962413 54.23209534 81.09482635 53.22879028 81.09336853 C50.11082927 81.08775973 46.9929394 81.07520573 43.875 81.0625 C41.76432395 81.05748613 39.65364678 81.05292303 37.54296875 81.04882812 C32.36195479 81.03778745 27.18098248 81.02104073 22 81 C21.73497681 79.82244141 21.73497681 79.82244141 21.46459961 78.62109375 C20.05254735 72.62527432 18.57812319 67.373048 15.5625 62 C14.98628906 60.948125 14.41007812 59.89625 13.81640625 58.8125 C12.09760204 56.15112575 10.24408904 54.20956459 8 52 C8 51.34 8 50.68 8 50 C7.43539062 49.73960937 6.87078125 49.47921875 6.2890625 49.2109375 C3.78383934 47.8856488 1.64613155 46.31910139 -0.625 44.625 C-12.52966978 36.1969152 -25.74363288 34.61632956 -40 36 C-49.09737785 37.70575835 -56.94414167 42.14972897 -64 48 C-64.95132812 48.78310547 -64.95132812 48.78310547 -65.921875 49.58203125 C-75.26686777 58.07935874 -79.03252375 69.13009501 -82 81 C-86.29 81 -90.58 81 -95 81 C-95 57.9 -95 34.8 -95 11 C-85.44998047 10.94392578 -85.44998047 10.94392578 -75.70703125 10.88671875 C-71.67380103 10.85644302 -67.64061516 10.82529775 -63.60742188 10.79101562 C-57.20567041 10.73668373 -50.80400667 10.68557399 -44.40209961 10.65356445 C-39.24076915 10.62755641 -34.07973314 10.58717147 -28.91858482 10.53681374 C-26.94945627 10.52012815 -24.98027678 10.50862442 -23.01108742 10.50238609 C-20.25292718 10.49276349 -17.49552312 10.46472615 -14.73754883 10.43237305 C-13.92330948 10.43380814 -13.10907013 10.43524323 -12.27015686 10.4367218 C-7.72138869 10.36125451 -4.52671775 9.99676652 -1 7 C-0.10407917 3.40080577 -0.10407917 3.40080577 0 0 Z " fill="#FD5256" transform="translate(426,259)"/>
<path d="M0 0 C18.81 0 37.62 0 57 0 C57 25.41 57 50.82 57 77 C38.19 77 19.38 77 0 77 C0 51.59 0 26.18 0 0 Z " fill="#51AFC9" transform="translate(331,177)"/>
<path d="M0 0 C18.81 0 37.62 0 57 0 C57 25.41 57 50.82 57 77 C38.19 77 19.38 77 0 77 C0 51.59 0 26.18 0 0 Z " fill="#94CFEA" transform="translate(135,177)"/>
<path d="M0 0 C18.81 0 37.62 0 57 0 C57 25.41 57 50.82 57 77 C38.19 77 19.38 77 0 77 C0 51.59 0 26.18 0 0 Z " fill="#51AFC8" transform="translate(62,177)"/>
<path d="M0 0 C7.28024977 6.00320446 13.53279914 14.88049722 14.46875 24.546875 C14.74920671 35.55849089 12.52446526 45.65557134 5.20703125 54.15625 C-1.89522693 61.09007518 -11.23392525 66.1983404 -21.26953125 66.5234375 C-31.51651351 66.08985574 -39.96723363 62.45166261 -47.51953125 55.5859375 C-48.26203125 54.7609375 -49.00453125 53.9359375 -49.76953125 53.0859375 C-50.45015625 52.3640625 -51.13078125 51.6421875 -51.83203125 50.8984375 C-57.74916763 42.30904598 -59.8899485 32.67116229 -58.37890625 22.44140625 C-55.91394673 11.39649148 -49.4866215 3.5855981 -40.1640625 -2.57421875 C-27.07857589 -9.8961142 -12.10241314 -8.36415013 0 0 Z " fill="#242021" transform="translate(148.76953125,316.9140625)"/>
<path d="M0 0 C10.14212452 -0.70821159 18.10210613 3.40401945 26.1796875 9.26171875 C32.80293842 15.1490529 37.08569243 23.24814982 37.74609375 32.03515625 C38.19120026 45.12716051 35.57982477 53.47948503 26.75390625 63.171875 C19.87583048 69.89033298 10.92806213 73.4819018 1.33984375 73.85546875 C-9.8513354 73.29517256 -18.6549295 68.48820765 -26.28515625 60.44921875 C-33.27947851 51.91614559 -35.23500524 42.69837088 -34.92578125 31.8203125 C-34.39269231 27.00651939 -33.04368926 23.39863004 -30.53515625 19.29296875 C-29.93703125 18.26171875 -29.33890625 17.23046875 -28.72265625 16.16796875 C-22.41564922 7.87875951 -15.74198457 3.2863468 -5.59765625 0.48046875 C-3.72841013 0.36602511 -1.86036514 0.21498827 0 0 Z " fill="#242021" transform="translate(394.53515625,309.70703125)"/>
<path d="M0 0 C15.18 0 30.36 0 46 0 C46 29.04 46 58.08 46 88 C30.82 88 15.64 88 0 88 C0 58.96 0 29.92 0 0 Z " fill="#50AEC7" transform="translate(208,166)"/>
<path d="M0 0 C14.85 0 29.7 0 45 0 C45 29.04 45 58.08 45 88 C30.15 88 15.3 88 0 88 C0 58.96 0 29.92 0 0 Z " fill="#96D1EC" transform="translate(270,166)"/>
<path d="M0 0 C17.49 0 34.98 0 53 0 C53 22.44 53 44.88 53 68 C35.51 68 18.02 68 0 68 C0 45.56 0 23.12 0 0 Z " fill="#E23740" transform="translate(209,270)"/>
<path d="M0 0 C1.31879402 -0.002062 1.31879402 -0.002062 2.66423035 -0.00416565 C4.10676682 0.00122726 4.10676682 0.00122726 5.57844543 0.00672913 C6.59325485 0.0065831 7.60806427 0.00643707 8.65362549 0.00628662 C12.01375961 0.00698426 15.37383855 0.01476974 18.73396301 0.02259827 C21.06138071 0.02446297 23.38879881 0.02588663 25.71621704 0.02688599 C31.84663473 0.030707 37.97702879 0.04053378 44.10743713 0.05158997 C50.36119772 0.06181299 56.61496211 0.06638552 62.86872864 0.07142639 C75.14282757 0.08215639 87.41690895 0.09922786 99.69099426 0.12025452 C99.69099426 0.45025452 99.69099426 0.78025452 99.69099426 1.12025452 C70.65099426 1.12025452 41.61099426 1.12025452 11.69099426 1.12025452 C11.36099426 51.61025452 11.03099426 102.10025452 10.69099426 154.12025452 C8.38099426 153.46025452 6.07099426 152.80025452 3.69099426 152.12025452 C1.21814935 151.84692651 -1.26265293 151.63718896 -3.74650574 151.49525452 C-4.98271667 151.42048889 -6.21892761 151.34572327 -7.49259949 151.26869202 C-8.88672058 151.19521545 -8.88672058 151.19521545 -10.30900574 151.12025452 C-10.37903321 132.00567192 -10.43196315 112.89111528 -10.46444225 93.77643108 C-10.47992254 84.90149337 -10.50103418 76.02663527 -10.5353241 67.15174866 C-10.56519098 59.41795338 -10.58457229 51.68421576 -10.59127122 43.95036441 C-10.5951881 39.85391881 -10.60441724 35.75763817 -10.62619591 31.66124535 C-10.64651835 27.80763187 -10.65284821 23.95425172 -10.64832878 20.10058975 C-10.64915589 18.68439912 -10.65514692 17.26820089 -10.66662216 15.8520565 C-10.68149803 13.92199689 -10.67618324 11.99181282 -10.66976929 10.06170654 C-10.67253467 8.98044337 -10.67530005 7.8991802 -10.67814922 6.78515148 C-10.30900574 4.12025452 -10.30900574 4.12025452 -8.97395802 2.31141376 C-6.05903587 0.22598674 -3.46315515 -0.00417751 0 0 Z " fill="#E93A46" transform="translate(26.309005737304688,128.87974548339844)"/>
<path d="M0 0 C9.32043367 1.54351131 16.3431291 6.27616873 22.453125 13.40625 C28.56113767 23.3921693 31.04747175 32.13677681 28.8046875 43.76953125 C25.92439375 54.24444569 21.02900976 61.49463113 11.71484375 67.1875 C6.16455821 70.17832744 0.84864501 72.54830714 -5.546875 71.40625 C-11.16380689 67.82029913 -14.64990141 63.3209044 -17.546875 57.40625 C-16.721875 57.57125 -15.896875 57.73625 -15.046875 57.90625 C-6.93276073 59.06540918 -0.73280763 58.60096515 6.453125 54.40625 C11.36383607 50.07433361 14.9367448 45.42320758 15.7890625 38.79296875 C15.90540496 30.75370482 14.27400134 25.85398775 9.203125 19.65625 C2.23502634 13.95507837 -3.56575426 12.58734362 -12.546875 13.40625 C-14.21865058 13.71293435 -15.88746526 14.03848892 -17.546875 14.40625 C-8.07448633 -0.53473419 -8.07448633 -0.53473419 0 0 Z " fill="#595C5C" transform="translate(133.546875,310.59375)"/>
<path d="M0 0 C11.03249455 3.20879744 18.44467782 8.97965252 24 19 C24.34160156 19.59167969 24.68320312 20.18335938 25.03515625 20.79296875 C28.6781874 28.46875067 28.21771476 39.98177985 25.875 48 C22.01616631 57.44068149 14.26574473 65.40328187 4.9375 69.4375 C-2.60988048 72.03766461 -2.60988048 72.03766461 -7 71 C-12.00999298 67.08490615 -15.95289265 63.09799702 -18 57 C-16.9378125 57.04640625 -15.875625 57.0928125 -14.78125 57.140625 C-3.65715828 57.7720858 -3.65715828 57.7720858 6 53 C12.21266258 46.30733038 13.3761807 41.05909512 13.27734375 32.04296875 C12.72806765 26.01640418 10.40425139 22.40425139 6.1875 18.1875 C-1.99026999 12.57530491 -8.17433339 12.63204855 -18 13 C-9.16896619 -1.20248737 -9.16896619 -1.20248737 0 0 Z " fill="#595C5C" transform="translate(405,311)"/>
<path d="M0 0 C0 0.33 0 0.66 0 1 C-1.051875 1.226875 -2.10375 1.45375 -3.1875 1.6875 C-8.47246423 3.21118928 -11.09150527 6.62349283 -14.0625 11.125 C-15.93528351 13.90396908 -17.2752777 15.1568055 -20 17 C-24.97216053 20.62553372 -28.20027553 24.00091845 -30 30 C-30.86639844 36.67808236 -30.38374953 43.08180859 -27 49 C-24.63454119 51.80120122 -22.66324523 53.64411232 -19.4375 55.375 C-16.65450244 57.23033171 -15.68884036 59.17045199 -14.1640625 62.08984375 C-11.24205664 66.88467887 -7.10899554 70.7031928 -2 73 C-13.76336086 73.73905932 -22.87365045 71.59845891 -32 63.90625 C-40.35610068 55.94184154 -44.15328336 46.92066421 -44.5 35.375 C-44.32028968 29.0530476 -43.28902172 24.38307015 -40 19 C-39.401875 17.96875 -38.80375 16.9375 -38.1875 15.875 C-31.88049297 7.58579076 -25.20682832 2.99337805 -15.0625 0.1875 C-10.04281681 -0.11982754 -5.02693545 -0.0732078 0 0 Z " fill="#414343" transform="translate(404,310)"/>
<path d="M0 0 C0 0.33 0 0.66 0 1 C-0.99 0.979375 -1.98 0.95875 -3 0.9375 C-7.89404131 1.60532234 -10.23603247 4.98953901 -13.30078125 8.578125 C-15.09436836 10.9328399 -15.09436836 10.9328399 -16.05078125 13.671875 C-17.43592491 17.06918208 -19.96003693 18.05442364 -23 20 C-27.40683886 24.65865822 -30.0905395 29.86349705 -30.5 36.3125 C-30.26885512 42.4588524 -27.6490038 48.22793734 -23.40234375 52.671875 C-21.99054903 53.85126126 -20.49918918 54.93390991 -19 56 C-16.98423001 58.01576999 -15.70243499 59.96869165 -14.1875 62.375 C-11.19108632 66.89871191 -8.61628496 70.30232401 -3.1875 71.75 C-2.465625 71.8325 -1.74375 71.915 -1 72 C-1 72.33 -1 72.66 -1 73 C-12.03949223 73.56666595 -21.07181493 71.75106612 -30 65 C-32.75 62.5 -32.75 62.5 -35 60 C-35.680625 59.278125 -36.36125 58.55625 -37.0625 57.8125 C-42.97963638 49.22310848 -45.12041725 39.58522479 -43.609375 29.35546875 C-41.14441548 18.31055398 -34.71709025 10.4996606 -25.39453125 4.33984375 C-17.25921332 -0.21221832 -9.09805235 -0.14806957 0 0 Z " fill="#414343" transform="translate(134,310)"/>
<path d="M0 0 C0.33 5.94 0.66 11.88 1 18 C-3.3621875 18.0928125 -3.3621875 18.0928125 -7.8125 18.1875 C-8.72491455 18.21481201 -9.6373291 18.24212402 -10.57739258 18.27026367 C-11.66250122 18.28150269 -11.66250122 18.28150269 -12.76953125 18.29296875 C-13.87711792 18.31653442 -13.87711792 18.31653442 -15.00708008 18.34057617 C-17.56017701 17.90426964 -18.39457619 16.98707807 -20 15 C-21.20272819 12.59454362 -21.10071472 11.05003047 -21.0625 8.375 C-21.05347656 7.55773437 -21.04445313 6.74046875 -21.03515625 5.8984375 C-21.02355469 5.27195312 -21.01195312 4.64546875 -21 4 C-20.13117187 3.96261719 -19.26234375 3.92523438 -18.3671875 3.88671875 C-12.15002121 3.53204819 -5.49701676 0 0 0 Z " fill="#EA3946" transform="translate(37,322)"/>
<path d="M0 0 C1.20366211 0.00966797 1.20366211 0.00966797 2.43164062 0.01953125 C3.26501953 0.03628906 4.09839844 0.05304688 4.95703125 0.0703125 C6.22450195 0.08384766 6.22450195 0.08384766 7.51757812 0.09765625 C9.60168368 0.12120547 11.68564342 0.15707603 13.76953125 0.1953125 C13.76953125 4.4853125 13.76953125 8.7753125 13.76953125 13.1953125 C10.66444152 13.30310732 7.56307707 13.38251879 4.45703125 13.4453125 C3.57595703 13.47882813 2.69488281 13.51234375 1.78710938 13.546875 C-4.69867565 13.64551812 -4.69867565 13.64551812 -7.34375 11.40625 C-8.6901293 8.04919853 -8.12299722 5.63792231 -7.23046875 2.1953125 C-4.12961304 0.12807536 -3.50115194 -0.04966173 0 0 Z " fill="#6BC3E1" transform="translate(482.23046875,295.8046875)"/>
<path d="M0 0 C10.47610182 -0.36974477 10.47610182 -0.36974477 12.83203125 1.29296875 C14.78547961 4.14800867 14.35745403 6.66376235 14 10 C12.45737187 12.10358381 11.31891683 12.84054159 9 14 C5.99525503 14.13559318 3.00931153 14.04299016 0 14 C0 9.38 0 4.76 0 0 Z " fill="#EF8636" transform="translate(16,296)"/>
<path d="M0 0 C2.375 1.5625 2.375 1.5625 4 4 C4.42519574 7.46230815 4.63902633 9.8347167 2.9375 12.9375 C-0.1652833 14.63902633 -2.53769185 14.42519574 -6 14 C-8.4375 12.375 -8.4375 12.375 -10 10 C-10.61195145 6.3282913 -10.48706506 4.71186432 -8.375 1.625 C-5.28813568 -0.48706506 -3.6717087 -0.61195145 0 0 Z " fill="#DCDFE3" transform="translate(399,339)"/>
<path d="M0 0 C3.4375 1 3.4375 1 5.375 2.75 C6.67120853 5.49491218 6.96237013 7.00074212 6.4375 10 C4.875 12.3125 4.875 12.3125 2.4375 14 C-1.02480815 14.42519574 -3.3972167 14.63902633 -6.5 12.9375 C-8.20152633 9.8347167 -7.98769574 7.46230815 -7.5625 4 C-5.30132583 0.38212133 -4.292718 0 0 0 Z " fill="#DDDFE3" transform="translate(127.5625,339)"/>
<path d="M0 0 C1.98 0 3.96 0 6 0 C6 4.29 6 8.58 6 13 C4.35 13 2.7 13 1 13 C-1.70238949 8.94641576 -1.22937614 6.81689896 -1 2 C-0.67 1.34 -0.34 0.68 0 0 Z " fill="#93CEE8" transform="translate(490,296)"/>
</svg>
