<?xml version="1.0" encoding="UTF-8"?>
<svg version="1.1" xmlns="http://www.w3.org/2000/svg" width="512" height="512">
<path d="M0 0 C7.09459575 5.57100224 11.59026226 13.50590774 13.5078125 22.30859375 C13.73171567 25.06177349 13.92174912 27.80164704 14.0703125 30.55859375 C14.11349609 31.30367188 14.15667969 32.04875 14.20117188 32.81640625 C14.30677975 34.64694275 14.40775451 36.47774551 14.5078125 38.30859375 C15.67957031 37.13490234 15.67957031 37.13490234 16.875 35.9375 C25.68673875 27.13883504 34.67628351 24.80531153 46.99206543 24.75280762 C48.42440323 24.75996895 49.85673615 24.76817331 51.2890625 24.77734375 C52.79398854 24.77464113 54.29891286 24.77075236 55.80383301 24.76574707 C58.94051932 24.75988805 62.07674647 24.76829719 65.21337891 24.78710938 C69.20424209 24.80989745 73.19402876 24.79675478 77.1848526 24.77281952 C80.28729141 24.7582631 83.38948118 24.76301211 86.4919281 24.77333069 C87.96211377 24.77597092 89.43232317 24.77282513 90.90248108 24.76341248 C103.37293561 24.70106334 114.12264772 26.48795016 123.5078125 35.30859375 C124.1678125 36.29859375 124.8278125 37.28859375 125.5078125 38.30859375 C125.53359375 37.365 125.559375 36.42140625 125.5859375 35.44921875 C126.14491361 22.79603222 128.14061147 11.60203729 137.5078125 2.30859375 C146.80101836 -5.31317221 155.47480522 -7.21855604 167.2578125 -7.19140625 C168.91296875 -7.23394531 168.91296875 -7.23394531 170.6015625 -7.27734375 C181.42643387 -7.30275425 190.93386135 -4.16586338 198.828125 3.43359375 C207.90639503 13.56747658 209.00101023 25.2016386 209.5078125 38.30859375 C210.0853125 37.44234375 210.6628125 36.57609375 211.2578125 35.68359375 C215.76120747 30.2198206 223.61773133 26.65252847 230.5078125 25.30859375 C232.71050762 25.20148243 234.91611629 25.1499312 237.12133789 25.1315918 C237.77724915 25.1250206 238.4331604 25.1184494 239.10894775 25.11167908 C241.27445611 25.09201175 243.43989512 25.08029446 245.60546875 25.0703125 C246.34931761 25.06623697 247.09316647 25.06216145 247.8595562 25.05796242 C251.80146885 25.03712352 255.74334698 25.02281584 259.68530273 25.01342773 C263.73117488 25.00240439 267.77649081 24.96804622 271.8221674 24.92825603 C274.95457385 24.90193903 278.0868512 24.89372236 281.21935844 24.89014626 C282.70911832 24.88531432 284.19887378 24.87379875 285.68852425 24.85510826 C298.2671728 24.7071713 309.03357905 26.404239 318.5078125 35.30859375 C319.1678125 36.29859375 319.8278125 37.28859375 320.5078125 38.30859375 C320.53359375 37.28121094 320.559375 36.25382812 320.5859375 35.1953125 C321.02488537 23.063322 322.82329881 12.45547739 331.5078125 3.30859375 C340.4113802 -4.96174607 350.02721637 -7.36549895 361.9453125 -7.19140625 C363.52795898 -7.21460938 363.52795898 -7.21460938 365.14257812 -7.23828125 C375.79046677 -7.18586088 385.79222269 -4.33931545 393.5078125 3.30859375 C404.06348087 16.4551989 404.30290995 30.09591703 403.5078125 46.30859375 C402.2377858 57.42424026 397.19638596 66.54097206 388.6328125 73.74609375 C378.0307605 81.63298609 367.45058208 83.42054756 354.5078125 82.30859375 C342.28848894 79.97976745 335.4251157 73.54544749 327.5078125 64.30859375 C327.5078125 73.21859375 327.5078125 82.12859375 327.5078125 91.30859375 C330.60216675 91.27717285 330.60216675 91.27717285 333.7590332 91.24511719 C340.61209695 91.17852619 347.46517584 91.13453108 354.31847858 91.10134506 C358.46941198 91.08056323 362.62001096 91.05242027 366.77075195 91.00683594 C370.78434169 90.96303895 374.79761189 90.93938612 378.81142235 90.92908478 C380.33468841 90.92175358 381.85793908 90.90743916 383.38106728 90.88567352 C394.12292663 90.73842294 404.91674487 91.25035541 413.3203125 98.80859375 C423.06940929 108.75046658 424.27284995 118.09359799 424.26454163 131.4559021 C424.24385264 133.53962287 424.22205206 135.62333287 424.19921875 137.70703125 C424.19563618 139.87268832 424.19428538 142.03835011 424.1950531 144.20401001 C424.19038317 148.72110586 424.16569783 153.23748009 424.12524414 157.75439453 C424.07409316 163.5380289 424.06280777 169.32087738 424.06507969 175.10471153 C424.06426365 179.56746897 424.04780805 184.03005538 424.02607536 188.49275589 C424.01654828 190.62575616 424.01062086 192.75877572 424.00839424 194.89179611 C424.00187833 197.86879222 423.97559872 200.84495988 423.94360352 203.82177734 C423.94496307 204.69772552 423.94632263 205.57367371 423.94772339 206.47616577 C423.85313023 212.50511162 422.81338234 216.83103584 418.5703125 221.390625 C417.8896875 221.96167969 417.2090625 222.53273438 416.5078125 223.12109375 C415.8271875 223.70503906 415.1465625 224.28898438 414.4453125 224.890625 C410.21698948 227.98514366 405.59744974 227.48351149 400.58935547 227.51733398 C399.2204995 227.53200966 399.2204995 227.53200966 397.82398987 227.54698181 C394.79934139 227.57693087 391.77473721 227.5983226 388.75 227.6171875 C387.71589115 227.62375933 386.6817823 227.63033115 385.61633682 227.63710213 C380.1400718 227.66969718 374.66382621 227.69414501 369.1875 227.71362305 C364.66149465 227.73141925 360.13611431 227.76621285 355.61035156 227.81616211 C350.14087464 227.8764544 344.67197619 227.90711168 339.20218277 227.91679573 C337.12182003 227.92533785 335.04147222 227.94412512 332.9612999 227.97353935 C312.79822459 228.24324596 312.79822459 228.24324596 307.08406067 223.24107361 C301.01866482 215.80489982 299.78128692 209.03176526 300.01953125 199.61328125 C300.02660599 198.53982452 300.03368073 197.4663678 300.04096985 196.36038208 C300.06872205 192.96737834 300.13142596 189.57608974 300.1953125 186.18359375 C300.22042007 183.86851359 300.2432289 181.5534073 300.26367188 179.23828125 C300.31848537 173.59447737 300.4019168 167.95165813 300.5078125 162.30859375 C299.66336075 162.3185865 299.66336075 162.3185865 298.80184937 162.32878113 C292.92931849 162.39527979 287.05689503 162.44045455 281.18408203 162.47338867 C278.99393365 162.48845181 276.80381531 162.50890634 274.61376953 162.53491211 C271.46118747 162.57140364 268.30900513 162.58834514 265.15625 162.6015625 C263.6934108 162.62478828 263.6934108 162.62478828 262.20101929 162.64848328 C256.97983334 162.64976854 252.85467035 162.56231735 248.5078125 159.30859375 C248.1778125 157.65859375 247.8478125 156.00859375 247.5078125 154.30859375 C241.5678125 154.30859375 235.6278125 154.30859375 229.5078125 154.30859375 C229.52352295 155.92757568 229.5392334 157.54655762 229.55541992 159.21459961 C229.6099066 165.24726343 229.64423095 171.27990567 229.67260742 177.31274414 C229.68765134 179.9189012 229.70809145 182.52503312 229.73413086 185.13110352 C229.77070674 188.8869448 229.78758345 192.64244999 229.80078125 196.3984375 C229.81626511 197.55504379 229.83174896 198.71165009 229.84770203 199.90330505 C229.84934253 207.87050641 229.37304447 214.92908937 224.0703125 221.18359375 C217.77922783 226.40059079 213.86578055 227.45982437 205.6652832 227.4855957 C204.76085983 227.4921669 203.85643646 227.4987381 202.92460632 227.50550842 C199.92760129 227.52523913 196.9306464 227.53690449 193.93359375 227.546875 C192.3971071 227.55298829 192.3971071 227.55298829 190.82958031 227.55922508 C185.40632707 227.58008639 179.98309914 227.59438699 174.55981445 227.60375977 C168.96558355 227.61481496 163.37175142 227.64920464 157.77766132 227.68893147 C153.47014134 227.71511349 149.16271607 227.7234531 144.85512352 227.72704124 C142.79351297 227.73190429 140.73190657 227.74351019 138.67037392 227.76207924 C135.77903564 227.78650059 132.88872491 227.7854999 129.99731445 227.77856445 C128.72907333 227.79777954 128.72907333 227.79777954 127.43521118 227.81738281 C121.67014759 227.76719232 117.34127744 226.51129896 112.5078125 223.30859375 C110.44921875 221.125 110.44921875 221.125 109.0703125 218.87109375 C108.59722656 218.12988281 108.12414062 217.38867188 107.63671875 216.625 C105.70855574 212.66859631 105.38254415 208.7831534 105.39428711 204.42651367 C105.39440796 203.4728894 105.39452881 202.51926514 105.39465332 201.53674316 C105.39976929 200.54750854 105.40488525 199.55827393 105.41015625 198.5390625 C105.41116333 197.62016235 105.41217041 196.70126221 105.41320801 195.7545166 C105.41842429 192.33502955 105.43238554 188.91556034 105.4453125 185.49609375 C105.4659375 177.84421875 105.4865625 170.19234375 105.5078125 162.30859375 C82.0778125 162.30859375 58.6478125 162.30859375 34.5078125 162.30859375 C34.70502361 177.98457255 34.70502361 177.98457255 34.95825195 193.65966797 C34.9728731 195.64419196 34.9856099 197.62873109 34.99609375 199.61328125 C35.02167358 200.62011963 35.04725342 201.62695801 35.0736084 202.66430664 C35.07854392 210.78028641 33.43635875 217.32412367 27.60733032 223.23612976 C21.50683601 227.93659258 15.66173463 228.17428645 8.17578125 228.0703125 C7.02161209 228.07368118 5.86744293 228.07704987 4.67829895 228.08052063 C2.25366735 228.0802231 -0.17100332 228.06509898 -2.59545898 228.03588867 C-6.31154229 227.99602021 -10.02408777 228.01526525 -13.74023438 228.04101562 C-16.10157635 228.03346117 -18.46291044 228.02251242 -20.82421875 228.0078125 C-22.48986626 228.01828865 -22.48986626 228.01828865 -24.18916321 228.02897644 C-31.83816003 227.88820285 -31.83816003 227.88820285 -35.22143555 224.88989258 C-36.4921875 222.30859375 -36.4921875 222.30859375 -36.4921875 220.30859375 C-43.0921875 220.30859375 -49.6921875 220.30859375 -56.4921875 220.30859375 C-56.8221875 221.95859375 -57.1521875 223.60859375 -57.4921875 225.30859375 C-61.12437855 227.73005445 -62.98377308 227.60728891 -67.3046875 227.62109375 C-68.50738281 227.63785156 -69.71007812 227.65460938 -70.94921875 227.671875 C-76.82795138 227.06909426 -80.5480496 224.78603125 -84.3046875 220.30859375 C-84.88863281 219.62796875 -85.47257812 218.94734375 -86.07421875 218.24609375 C-88.21301157 215.32366609 -88.61851058 212.82472936 -88.65281677 209.30812073 C-88.6628624 208.49675156 -88.67290802 207.68538239 -88.68325806 206.84942627 C-88.68908905 205.96269226 -88.69492004 205.07595825 -88.70092773 204.16235352 C-88.71071152 203.22534103 -88.7204953 202.28832855 -88.73057556 201.32292175 C-88.76053684 198.21529557 -88.78192366 195.10771271 -88.80078125 192 C-88.80735308 190.93653791 -88.8139249 189.87307583 -88.82069588 188.77738762 C-88.85330147 183.14205124 -88.87774281 177.50673379 -88.8972168 171.87133789 C-88.91498759 167.22033906 -88.94973886 162.56995135 -88.99975586 157.91918945 C-89.06017717 152.29408856 -89.09072371 146.6695517 -89.10038948 141.04414177 C-89.10891245 138.90764748 -89.12765178 136.77116696 -89.1571331 134.63485909 C-89.32749049 121.58138975 -89.43105319 111.11646941 -80.32078552 100.86524963 C-73.27498656 93.67771027 -64.74547412 91.11176692 -54.81762695 90.85449219 C-51.91272152 90.84073575 -49.01003231 90.87646227 -46.10546875 90.91796875 C-44.55178055 90.92544637 -42.99808279 90.93113209 -41.44438171 90.93511963 C-37.39182641 90.95025664 -33.3398616 90.98943204 -29.28753662 91.03393555 C-25.13773583 91.07514894 -20.98783789 91.0931858 -16.83789062 91.11328125 C-8.72235754 91.15594095 -0.60741442 91.22618957 7.5078125 91.30859375 C7.5078125 82.39859375 7.5078125 73.48859375 7.5078125 64.30859375 C4.5378125 67.60859375 1.5678125 70.90859375 -1.4921875 74.30859375 C-11.65729875 81.89208945 -21.95698046 83.28430716 -34.4921875 82.30859375 C-44.5330737 80.64665396 -53.57056666 75.42041791 -59.9609375 67.5078125 C-66.98293192 57.42265215 -68.8466461 47.46356143 -68.8046875 35.37109375 C-68.82080078 34.44619141 -68.83691406 33.52128906 -68.85351562 32.56835938 C-68.86142142 21.28679071 -65.57165529 12.23463951 -58.2421875 3.68359375 C-42.39956657 -9.99866978 -17.52986615 -11.89722891 0 0 Z M131.5078125 62.30859375 C131.5078125 72.20859375 131.5078125 82.10859375 131.5078125 92.30859375 C155.2678125 92.30859375 179.0278125 92.30859375 203.5078125 92.30859375 C203.5078125 82.40859375 203.5078125 72.50859375 203.5078125 62.30859375 C199.64688167 65.9717373 199.64688167 65.9717373 197.3828125 69.18359375 C192.20501584 75.45730443 183.46499498 79.90096352 175.5078125 81.30859375 C162.76609607 82.38817433 152.24055179 80.55595991 141.5859375 73.1015625 C138.50515794 70.44352149 136.17488831 67.36935287 133.8203125 64.06640625 C133.170625 63.19628906 133.170625 63.19628906 132.5078125 62.30859375 C132.1778125 62.30859375 131.8478125 62.30859375 131.5078125 62.30859375 Z " fill="#010101" transform="translate(88.4921875,284.69140625)"/>
<path d="M0 0 C0.91393876 -0.00765109 1.82787753 -0.01530219 2.7695114 -0.02318513 C5.80936383 -0.04370085 8.84845048 -0.03588916 11.88835144 -0.02792358 C14.07708429 -0.03662466 16.26581105 -0.04699324 18.45452881 -0.05889893 C24.38443347 -0.08562966 30.31408281 -0.08684172 36.24403596 -0.08177233 C41.20160707 -0.07962933 46.1591269 -0.08940887 51.116687 -0.09898317 C63.4853256 -0.12242356 75.8538386 -0.12073325 88.22248473 -0.10786955 C98.27529784 -0.09817924 108.32778885 -0.11531208 118.38053894 -0.15097046 C130.07645588 -0.1923084 141.77214843 -0.21315842 153.46814173 -0.20581949 C159.65122126 -0.20220029 165.83396764 -0.20740065 172.01699257 -0.23524857 C177.83423305 -0.2604696 183.6507477 -0.25645743 189.46797752 -0.23042679 C191.59636052 -0.22570984 193.7247951 -0.23111232 195.8531189 -0.24767303 C208.42209625 -0.33838052 218.83989429 -0.34402811 228.69999409 8.49944115 C237.9040642 17.90811833 238.64486774 28.91792604 238.63981628 41.42666626 C238.6448542 43.21805023 238.6448542 43.21805023 238.6499939 45.04562378 C238.6578495 48.31030858 238.66117054 51.57495514 238.66180968 54.83964825 C238.66252239 56.88371488 238.66466092 58.92777492 238.6673069 60.9718399 C238.67654951 68.11564047 238.68064328 75.25942242 238.67985535 82.40322876 C238.67925532 89.04127209 238.68979511 95.67923396 238.70559901 102.31725669 C238.71871763 108.03298946 238.72403741 113.74869575 238.72339994 119.46444345 C238.72314615 122.87072127 238.72593054 126.27692669 238.73657799 129.68318939 C238.74641265 133.48837472 238.74348583 137.29335234 238.73747253 141.09854126 C238.74309204 142.21265381 238.74871155 143.32676636 238.75450134 144.47463989 C238.70671903 156.41803816 236.9729245 166.14016715 228.89689636 175.34170532 C220.58976736 183.15786925 210.84645509 184.0950464 199.90325546 184.00724792 C197.6567111 183.98976318 195.41142835 183.99760991 193.16487122 184.01150513 C188.3996756 184.03666296 183.63478743 184.03137275 178.86955261 184.02139282 C173.33438243 184.00981909 167.79983625 184.011164 162.2647438 184.04545593 C160.06431919 184.05249463 157.86491028 184.0359511 155.66456604 184.01834106 C146.97616886 184.0177354 140.79837878 184.44875428 134.24479675 190.65029907 C131.76024821 194.72594294 130.14797316 198.99332258 128.49064636 203.45889282 C128.12608841 204.41658569 127.76153046 205.37427856 127.38592529 206.36099243 C126.22599465 209.41126844 125.07821609 212.46591984 123.93205261 215.52139282 C122.78082224 218.57625712 121.62693324 221.63004446 120.46746826 224.68179321 C119.74774878 226.57746949 119.03295743 228.47502616 118.32376099 230.37466431 C114.33933753 240.9002182 114.33933753 240.9002182 110.43205261 244.33389282 C106.1746914 246.05495374 102.0125629 246.38423088 97.49455261 245.52139282 C92.60271467 242.8110556 90.58336232 240.61780871 88.55705261 235.43154907 C88.31527283 234.82722549 88.07349304 234.22290192 87.8243866 233.6002655 C87.02516239 231.58197328 86.25753556 229.55364537 85.49455261 227.52139282 C84.93207319 226.04335765 84.36957262 224.56533052 83.80705261 223.08731079 C82.62855056 219.97244418 81.45449982 216.85592742 80.28361511 213.7381897 C79.84130554 212.56051025 79.84130554 212.56051025 79.39006042 211.35903931 C78.78777469 209.74478874 78.19085511 208.12852688 77.5990448 206.51040649 C76.72644792 204.13126871 75.83135743 201.76163593 74.93205261 199.39248657 C74.67560974 198.67475571 74.41916687 197.95702484 74.154953 197.21754456 C71.90902938 191.39576214 68.93355674 188.21254618 63.22238159 185.40403748 C59.94261889 184.34280342 57.19926495 184.26968573 53.75163269 184.26602173 C53.09396912 184.26240128 52.43630554 184.25878082 51.75871277 184.25505066 C50.33683466 184.24818218 48.91493033 184.24564643 47.49303627 184.24699783 C45.23397873 184.24796825 42.97539035 184.23495842 40.71640015 184.21801758 C34.29572719 184.17191571 27.87510231 184.14716955 21.45426941 184.14053345 C17.5190249 184.13548696 13.58426916 184.11107715 9.6491909 184.07520676 C8.15867246 184.06547833 6.66808617 184.06303839 5.17754555 184.06837845 C-6.33382592 184.10766922 -15.99633907 182.88290653 -24.68122864 174.70889282 C-32.65705252 165.1447357 -33.68851327 154.84413365 -33.75544739 142.89639282 C-33.77607239 141.96826782 -33.79669739 141.04014282 -33.81794739 140.08389282 C-33.86940386 131.10473776 -33.86940386 131.10473776 -30.50544739 127.52139282 C-28.03044739 127.02639282 -28.03044739 127.02639282 -25.50544739 126.52139282 C-25.50544739 119.92139282 -25.50544739 113.32139282 -25.50544739 106.52139282 C-27.15544739 106.19139282 -28.80544739 105.86139282 -30.50544739 105.52139282 C-33.68070633 101.73192752 -33.88029336 98.52218698 -33.87776184 93.68667603 C-33.88141251 93.01925888 -33.88506317 92.35184174 -33.88882446 91.66419983 C-33.89690238 89.46659559 -33.88333638 87.26973563 -33.86872864 85.07217407 C-33.86820939 83.53385926 -33.86872959 81.99554378 -33.87023926 80.45722961 C-33.87014964 77.23348067 -33.85974696 74.00998231 -33.84162903 70.7862854 C-33.81903778 66.67883087 -33.81838161 62.57174522 -33.82514668 58.4642458 C-33.82851027 55.28553564 -33.82181034 52.10690762 -33.81201744 48.92821312 C-33.80819901 47.41534036 -33.80700311 45.90245841 -33.80860329 44.38958168 C-33.81085498 31.6487062 -33.68845245 19.4572019 -24.71638489 9.54483032 C-17.44370405 2.73574667 -9.88712174 -0.08926878 0 0 Z " fill="#DAF3F6" transform="translate(153.5054473876953,-0.521392822265625)"/>
<path d="M0 0 C0.91393876 -0.00765109 1.82787753 -0.01530219 2.7695114 -0.02318513 C5.80936383 -0.04370085 8.84845048 -0.03588916 11.88835144 -0.02792358 C14.07708429 -0.03662466 16.26581105 -0.04699324 18.45452881 -0.05889893 C24.38443347 -0.08562966 30.31408281 -0.08684172 36.24403596 -0.08177233 C41.20160707 -0.07962933 46.1591269 -0.08940887 51.116687 -0.09898317 C63.4853256 -0.12242356 75.8538386 -0.12073325 88.22248473 -0.10786955 C98.27529784 -0.09817924 108.32778885 -0.11531208 118.38053894 -0.15097046 C130.07645588 -0.1923084 141.77214843 -0.21315842 153.46814173 -0.20581949 C159.65122126 -0.20220029 165.83396764 -0.20740065 172.01699257 -0.23524857 C177.83423305 -0.2604696 183.6507477 -0.25645743 189.46797752 -0.23042679 C191.59636052 -0.22570984 193.7247951 -0.23111232 195.8531189 -0.24767303 C208.42209625 -0.33838052 218.83989429 -0.34402811 228.69999409 8.49944115 C237.9040642 17.90811833 238.64486774 28.91792604 238.63981628 41.42666626 C238.6448542 43.21805023 238.6448542 43.21805023 238.6499939 45.04562378 C238.6578495 48.31030858 238.66117054 51.57495514 238.66180968 54.83964825 C238.66252239 56.88371488 238.66466092 58.92777492 238.6673069 60.9718399 C238.67654951 68.11564047 238.68064328 75.25942242 238.67985535 82.40322876 C238.67925532 89.04127209 238.68979511 95.67923396 238.70559901 102.31725669 C238.71871763 108.03298946 238.72403741 113.74869575 238.72339994 119.46444345 C238.72314615 122.87072127 238.72593054 126.27692669 238.73657799 129.68318939 C238.74641265 133.48837472 238.74348583 137.29335234 238.73747253 141.09854126 C238.74309204 142.21265381 238.74871155 143.32676636 238.75450134 144.47463989 C238.70671903 156.41803816 236.9729245 166.14016715 228.89689636 175.34170532 C220.58976736 183.15786925 210.84645509 184.0950464 199.90325546 184.00724792 C197.6567111 183.98976318 195.41142835 183.99760991 193.16487122 184.01150513 C188.3996756 184.03666296 183.63478743 184.03137275 178.86955261 184.02139282 C173.33438243 184.00981909 167.79983625 184.011164 162.2647438 184.04545593 C160.06431919 184.05249463 157.86491028 184.0359511 155.66456604 184.01834106 C146.97616886 184.0177354 140.79837878 184.44875428 134.24479675 190.65029907 C131.76024821 194.72594294 130.14797316 198.99332258 128.49064636 203.45889282 C128.12608841 204.41658569 127.76153046 205.37427856 127.38592529 206.36099243 C126.22599465 209.41126844 125.07821609 212.46591984 123.93205261 215.52139282 C122.78082224 218.57625712 121.62693324 221.63004446 120.46746826 224.68179321 C119.74774878 226.57746949 119.03295743 228.47502616 118.32376099 230.37466431 C114.33933753 240.9002182 114.33933753 240.9002182 110.43205261 244.33389282 C106.1746914 246.05495374 102.0125629 246.38423088 97.49455261 245.52139282 C92.60271467 242.8110556 90.58336232 240.61780871 88.55705261 235.43154907 C88.31527283 234.82722549 88.07349304 234.22290192 87.8243866 233.6002655 C87.02516239 231.58197328 86.25753556 229.55364537 85.49455261 227.52139282 C84.93207319 226.04335765 84.36957262 224.56533052 83.80705261 223.08731079 C82.62855056 219.97244418 81.45449982 216.85592742 80.28361511 213.7381897 C79.84130554 212.56051025 79.84130554 212.56051025 79.39006042 211.35903931 C78.78777469 209.74478874 78.19085511 208.12852688 77.5990448 206.51040649 C76.72644792 204.13126871 75.83135743 201.76163593 74.93205261 199.39248657 C74.67560974 198.67475571 74.41916687 197.95702484 74.154953 197.21754456 C71.90902938 191.39576214 68.93355674 188.21254618 63.22238159 185.40403748 C59.94261889 184.34280342 57.19926495 184.26968573 53.75163269 184.26602173 C53.09396912 184.26240128 52.43630554 184.25878082 51.75871277 184.25505066 C50.33683466 184.24818218 48.91493033 184.24564643 47.49303627 184.24699783 C45.23397873 184.24796825 42.97539035 184.23495842 40.71640015 184.21801758 C34.29572719 184.17191571 27.87510231 184.14716955 21.45426941 184.14053345 C17.5190249 184.13548696 13.58426916 184.11107715 9.6491909 184.07520676 C8.15867246 184.06547833 6.66808617 184.06303839 5.17754555 184.06837845 C-6.33382592 184.10766922 -15.99633907 182.88290653 -24.68122864 174.70889282 C-32.65705252 165.1447357 -33.68851327 154.84413365 -33.75544739 142.89639282 C-33.77607239 141.96826782 -33.79669739 141.04014282 -33.81794739 140.08389282 C-33.84669805 135.0669028 -33.79603268 131.59307665 -30.50544739 127.52139282 C-29.50544739 126.52139282 -29.50544739 126.52139282 -26.25544739 126.14639282 C-22.50544739 126.52139282 -22.50544739 126.52139282 -19.80622864 128.30654907 C-16.36703366 133.11207958 -16.87673581 137.56651573 -16.94294739 143.33389282 C-17.27367343 154.17066342 -17.27367343 154.17066342 -12.50544739 163.52139282 C-6.37196706 168.54071185 0.24204154 168.05369373 7.83159447 167.97668266 C10.10840044 167.95460225 12.38389161 167.95857586 14.6607666 167.96916199 C20.31704153 167.99072343 25.97301866 167.9736194 31.6292572 167.94766235 C36.41174455 167.92610505 41.19338013 167.92453559 45.97585487 167.95057869 C48.1984571 167.95487482 50.41950849 167.93045393 52.64193726 167.90504456 C63.52092153 167.89256931 72.64829891 169.81013906 80.93205261 177.20889282 C88.22872151 184.5708563 91.35484406 195.86021257 94.998703 205.35562134 C95.81601518 207.48221283 96.64407351 209.60441009 97.47306824 211.72647095 C97.99779706 213.08364544 98.52190888 214.44105869 99.04533386 215.79873657 C99.51624451 217.01810913 99.98715515 218.23748169 100.47233582 219.49380493 C101.49455261 222.52139282 101.49455261 222.52139282 101.49455261 225.52139282 C102.15455261 225.52139282 102.81455261 225.52139282 103.49455261 225.52139282 C103.60323669 224.85406128 103.71192078 224.18672974 103.82389832 223.49917603 C104.64920895 219.83470066 105.90647428 216.38524381 107.22502136 212.87686157 C107.49792496 212.14824417 107.77082855 211.41962677 108.05200195 210.66893005 C108.63060012 209.13085865 109.2115161 207.59365742 109.79460144 206.05728149 C110.67357764 203.73131943 111.53434422 201.39912721 112.39494324 199.0663147 C116.92606101 186.98792847 122.27207971 176.56943172 134.21696472 170.37661743 C140.38398625 167.73251408 146.7613029 168.00036632 153.35051155 168.06610298 C155.66837645 168.08822783 157.98495358 168.08419788 160.30288696 168.07362366 C166.05434584 168.05209443 171.80550728 168.06928556 177.55693054 168.09512329 C182.4319227 168.11659798 187.30608008 168.11838183 192.18105888 168.09220695 C194.45257785 168.08788634 196.72260628 168.11239455 198.99395752 168.13774109 C205.64004241 168.14775193 211.35269803 168.07479878 217.01394653 164.27882385 C222.36305488 157.92960705 221.93426947 150.89940404 221.91447449 142.9960022 C221.92294403 141.74801346 221.93141357 140.50002472 221.94013977 139.21421814 C221.95947323 135.80706942 221.96529108 132.40046949 221.96339226 128.9933033 C221.96327219 126.14291873 221.97185076 123.29258487 221.98016977 120.44221449 C221.99937093 113.7158056 222.00229913 106.98952081 221.99552917 100.26309204 C221.98888509 93.33565792 222.01177449 86.40875581 222.04884291 79.48142958 C222.07957348 73.52111234 222.0908965 67.560966 222.08700609 61.60057116 C222.08494265 58.04615761 222.09035487 54.49215857 222.11489868 50.93782043 C222.14136967 46.97393044 222.12741215 43.01073426 222.10978699 39.04678345 C222.12305023 37.87670242 222.13631348 36.7066214 222.14997864 35.50108337 C222.09012859 29.70802327 221.76063373 25.56126378 218.15261078 20.90526581 C212.92205467 16.53966184 208.16093787 16.08699807 201.65789795 16.14044189 C200.34067093 16.13342194 200.34067093 16.13342194 198.99683326 16.12626016 C196.06045297 16.11431423 193.12453972 16.12376593 190.18815613 16.13320923 C188.08042631 16.12914333 185.97269862 16.12380134 183.86497498 16.11727905 C178.1439152 16.10360111 172.4230177 16.10890638 166.70195508 16.11841631 C160.71411022 16.12601137 154.72627925 16.11896762 148.73843384 16.11425781 C138.68177293 16.10879941 128.6251781 16.11599371 118.56852722 16.13027954 C106.94417349 16.14660174 95.31997765 16.14132095 83.69562775 16.12480032 C73.7141499 16.11118263 63.73271956 16.10926733 53.75123543 16.11711633 C47.79026225 16.12179184 41.82936326 16.12242108 35.86839485 16.11250687 C30.26314028 16.10383559 24.65808907 16.10986228 19.05285645 16.12718964 C16.9965594 16.13115377 14.94024521 16.13002169 12.883955 16.12340164 C10.07513655 16.11519321 7.26696806 16.1254995 4.45819092 16.14044189 C3.24008401 16.13040365 3.24008401 16.13040365 1.99736887 16.12016261 C-4.67017133 16.18887182 -9.33997423 17.5601615 -14.40974426 22.15176392 C-17.92165147 27.66844769 -17.14519711 34.69216285 -17.06646729 40.99837112 C-17.03626573 43.4707926 -17.03745956 45.94149232 -17.04658508 48.4140625 C-17.06046392 53.65839332 -17.03579279 58.90215568 -17.00544739 64.14639282 C-16.97027825 70.23315508 -16.95107303 76.31907985 -16.97357178 82.40592575 C-16.97418845 84.83770517 -16.94503841 87.26796194 -16.91474915 89.69952393 C-16.91682388 91.19304678 -16.9202896 92.68656857 -16.92536926 94.18008423 C-16.91695007 95.48023468 -16.90853088 96.78038513 -16.89985657 98.11993408 C-17.66466892 102.41570205 -19.087554 103.88849521 -22.50544739 106.52139282 C-28.35318401 107.32797718 -28.35318401 107.32797718 -31.38044739 105.20889282 C-33.81502809 101.55702177 -33.63726708 98.16974905 -33.65071106 93.91372681 C-33.65406967 93.24660172 -33.65742828 92.57947662 -33.66088867 91.89213562 C-33.67039477 89.68390034 -33.67234221 87.47574105 -33.67341614 85.26748657 C-33.67663108 83.72631296 -33.67999534 82.18513965 -33.6835022 80.64396667 C-33.68949411 77.4083587 -33.69134225 74.17277743 -33.69075012 70.93716431 C-33.69064898 66.81399453 -33.70425074 62.69099884 -33.72152233 58.56787014 C-33.73271065 55.38060235 -33.73466718 52.19337557 -33.7341404 49.00609016 C-33.73531218 47.48762479 -33.73968839 45.96915807 -33.74747276 44.4507122 C-33.80678921 31.67504415 -33.71642418 19.48810518 -24.71638489 9.54483032 C-17.44370405 2.73574667 -9.88712174 -0.08926878 0 0 Z " fill="#000000" transform="translate(153.5054473876953,-0.521392822265625)"/>
<path d="M0 0 C1.25512894 -0.0127597 2.51025787 -0.02551941 3.80342102 -0.03866577 C5.16606491 -0.04172396 6.52871088 -0.04395143 7.89135742 -0.04541016 C9.29994337 -0.05184381 10.708528 -0.05857259 12.11711121 -0.06558228 C15.06671239 -0.07753787 18.01619662 -0.08126496 20.96582031 -0.08007812 C24.72840734 -0.07987521 28.49023675 -0.10715568 32.25264454 -0.14162254 C35.16191488 -0.16396384 38.07100509 -0.16791345 40.9803524 -0.16685867 C42.3665191 -0.1692046 43.75269153 -0.1779709 45.13877296 -0.19352341 C53.06314222 -0.27410443 58.97938921 -0.15073642 65.68432617 4.29052734 C69.3274294 7.87218324 71.62621792 10.76997123 71.82476807 15.96556091 C71.83686895 17.58483886 71.84330148 19.20416461 71.84545898 20.82348633 C71.85290634 22.14805847 71.85290634 22.14805847 71.86050415 23.49938965 C71.87514203 26.42847464 71.88192993 29.3575055 71.88745117 32.28662109 C71.89320059 34.31681826 71.89895835 36.3470154 71.90472412 38.37721252 C71.91523827 42.63681288 71.92107845 46.89639434 71.92456055 51.15600586 C71.93005092 56.6217719 71.95408883 62.08728954 71.9825325 67.55297756 C72.00112777 71.74706256 72.00636278 75.94108729 72.00789642 80.13521004 C72.01092974 82.1507001 72.01898097 84.16618895 72.0320816 86.18163872 C72.0490797 88.99734458 72.04727737 91.8124379 72.04077148 94.62817383 C72.04998627 95.46516312 72.05920105 96.3021524 72.06869507 97.164505 C72.02728026 102.86769065 72.02728026 102.86769065 70.29416275 105.00449467 C68.14333557 106.72270264 66.81088532 106.66843684 64.0769043 106.67529297 C62.68030579 106.69045959 62.68030579 106.69045959 61.25549316 106.70593262 C60.25232056 106.70291138 59.24914795 106.69989014 58.21557617 106.69677734 C57.18372192 106.70761353 56.15186768 106.71844971 55.08874512 106.72961426 C50.66801565 106.77557821 46.24734181 106.78697211 41.82641602 106.80175781 C38.60175451 106.81741842 35.37758945 106.8504146 32.15307617 106.88427734 C31.14990356 106.8812561 30.14673096 106.87823486 29.11315918 106.87512207 C27.71656067 106.8902887 27.71656067 106.8902887 26.29174805 106.90576172 C25.47250854 106.90781616 24.65326904 106.90987061 23.8092041 106.9119873 C21.13227068 107.38887422 20.28829889 108.11845855 18.68432617 110.29052734 C18.18932617 112.27052734 18.18932617 112.27052734 17.68432617 114.29052734 C10.75432617 114.29052734 3.82432617 114.29052734 -3.31567383 114.29052734 C-4.30567383 112.31052734 -5.29567383 110.33052734 -6.31567383 108.29052734 C-9.16081854 106.86795499 -11.97644742 106.96415272 -15.12426758 106.76708984 C-17.8034168 106.18445846 -18.60074932 105.39620902 -20.31567383 103.29052734 C-20.61717383 100.38937746 -20.7356662 97.70204219 -20.71972656 94.79931641 C-20.72658981 93.93230103 -20.73345306 93.06528564 -20.74052429 92.17199707 C-20.75885518 89.29988311 -20.75494449 86.42831238 -20.74926758 83.55615234 C-20.75382772 81.55938539 -20.75913279 79.56262002 -20.76515198 77.56585693 C-20.77409645 73.37603389 -20.77164635 69.1864013 -20.76171875 64.99658203 C-20.75025185 59.63535181 -20.77039886 54.27478245 -20.79963589 48.91363907 C-20.81801601 44.78712809 -20.81770138 40.66077475 -20.81199837 36.53423309 C-20.81184524 34.55833766 -20.81788219 32.58243149 -20.83028984 30.60657501 C-20.84522485 27.83707286 -20.8345029 25.06878158 -20.81738281 22.29931641 C-20.82705078 21.48763 -20.83671875 20.6759436 -20.84667969 19.83966064 C-20.77399699 14.20368159 -19.52072075 10.94698892 -16.31567383 6.29052734 C-11.31440126 1.54573029 -6.82638007 0.04723663 0 0 Z " fill="#DBF4F7" transform="translate(35.315673828125,390.70947265625)"/>
<path d="M0 0 C1.29524597 -0.0159874 2.59049194 -0.03197479 3.92498779 -0.04844666 C5.33703212 -0.05482489 6.74908119 -0.06021715 8.16113281 -0.06469727 C9.61598806 -0.07366999 11.07084239 -0.08279195 12.5256958 -0.09205627 C15.57542152 -0.10853553 18.62503763 -0.11624403 21.67480469 -0.11914062 C25.56646921 -0.12451389 29.4570905 -0.16215283 33.34846115 -0.20788479 C36.35467197 -0.23776058 39.36063519 -0.24486649 42.36698151 -0.24586678 C43.80061861 -0.25005073 45.2342577 -0.26241134 46.6677475 -0.28338432 C54.82323669 -0.39317706 61.37351315 -0.4147651 67.61425781 5.30639648 C72.36862198 10.54838775 72.76619721 13.93919862 72.77539062 20.83935547 C72.78283798 22.16392761 72.78283798 22.16392761 72.79043579 23.51525879 C72.80507367 26.44434378 72.81186157 29.37337464 72.81738281 32.30249023 C72.82313223 34.3326874 72.82888999 36.36288454 72.83465576 38.39308167 C72.84516991 42.65268203 72.8510101 46.91226348 72.85449219 51.171875 C72.85998256 56.63764105 72.88402047 62.10315868 72.91246414 67.5688467 C72.93105941 71.7629317 72.93629442 75.95695643 72.93782806 80.15107918 C72.94086138 82.16656925 72.94891261 84.18205809 72.96201324 86.19750786 C72.97901134 89.01321373 72.97720901 91.82830704 72.97070312 94.64404297 C72.97991791 95.48103226 72.98913269 96.31802155 72.99862671 97.18037415 C72.9574327 102.85315448 72.9574327 102.85315448 71.31663132 105.02021313 C68.40831046 107.21751817 64.92977092 106.72155317 61.42675781 106.69458008 C60.17511841 106.70246552 60.17511841 106.70246552 58.89819336 106.71051025 C56.13669176 106.72372697 53.37576539 106.71496635 50.61425781 106.70483398 C48.69759002 106.70685424 46.78092297 106.70976527 44.86425781 106.71353149 C40.84595425 106.71795711 36.82785065 106.71151614 32.80957031 106.69750977 C27.65429773 106.68041777 22.49949367 106.69025768 17.34423828 106.70822716 C13.38603168 106.71905857 9.42793648 106.71562161 5.46972656 106.70784378 C3.56868433 106.70583999 1.66763205 106.70830729 -0.23339844 106.71528244 C-2.88861959 106.72288635 -5.54307797 106.71130784 -8.19824219 106.69458008 C-8.98690674 106.70065277 -9.77557129 106.70672546 -10.58813477 106.71298218 C-15.93122338 106.65050035 -15.93122338 106.65050035 -18.08685398 105.01853085 C-20.35812326 102.02464873 -19.80937773 98.32120554 -19.78979492 94.70751953 C-19.79665817 93.82914429 -19.80352142 92.95076904 -19.81059265 92.04577637 C-19.82892248 89.1363924 -19.82501344 86.22754467 -19.81933594 83.31811523 C-19.8238957 81.29653243 -19.82920065 79.27495118 -19.83522034 77.25337219 C-19.84416428 73.01227531 -19.8417148 68.77136659 -19.83178711 64.53027344 C-19.82031253 59.09944595 -19.84047936 53.66927011 -19.86970425 48.23852825 C-19.88806894 44.06144594 -19.88777294 39.88451956 -19.88206673 35.707407 C-19.88191346 33.70556539 -19.88796255 31.70371325 -19.9003582 29.70191002 C-19.91526636 26.89867979 -19.90459135 24.09665017 -19.88745117 21.29345703 C-19.89711914 20.46882462 -19.90678711 19.6441922 -19.91674805 18.79457092 C-19.84906668 13.49795814 -18.86285167 10.52648384 -15.38574219 6.30639648 C-10.32319757 1.75010633 -6.82570517 0.06373498 0 0 Z " fill="#DBF4F7" transform="translate(229.3857421875,390.693603515625)"/>
<path d="M0 0 C1.87796516 -0.01913956 1.87796516 -0.01913956 3.79386902 -0.03866577 C5.15855759 -0.04172453 6.52324824 -0.0439517 7.88793945 -0.04541016 C9.29555902 -0.05184247 10.70317726 -0.05857115 12.11079407 -0.06558228 C15.06217543 -0.07755106 18.01343983 -0.0812638 20.96484375 -0.08007812 C24.72624127 -0.07987558 28.48687776 -0.10711156 32.24809551 -0.14162254 C35.15740827 -0.16399209 38.06654126 -0.16791253 40.97593117 -0.16685867 C42.36127137 -0.16920208 43.74661749 -0.17795385 45.13187218 -0.19352341 C53.62519959 -0.28000412 61.84562062 -0.28399041 68.42411804 5.77334595 C72.91304279 10.87629452 72.96608033 15.36206593 72.97485352 21.84521484 C72.98230087 23.15537567 72.98230087 23.15537567 72.98989868 24.49200439 C73.00451214 27.38318669 73.01131982 30.27431418 73.0168457 33.16552734 C73.02259641 35.17187502 73.02835416 37.17822268 73.03411865 39.18457031 C73.04462534 43.39111589 73.05047065 47.59764236 73.05395508 51.80419922 C73.05944888 57.20155655 73.08349721 62.59866275 73.11192703 67.99594116 C73.1305209 72.13941189 73.1357572 76.28282163 73.13729095 80.42633057 C73.14032375 82.41670103 73.14837328 84.40707026 73.16147614 86.3973999 C73.17847394 89.17707656 73.17667219 91.95613274 73.17016602 94.73583984 C73.1793808 95.56190735 73.18859558 96.38797485 73.1980896 97.23907471 C73.1569023 102.83801522 73.1569023 102.83801522 71.51609421 105.00155067 C68.60891989 107.20275967 65.13022278 106.70569165 61.6262207 106.67871094 C60.3745813 106.68659637 60.3745813 106.68659637 59.09765625 106.69464111 C56.33615465 106.70785783 53.57522828 106.69909721 50.8137207 106.68896484 C48.89705291 106.6909851 46.98038586 106.69389613 45.0637207 106.69766235 C41.04541714 106.70208797 37.02731354 106.695647 33.0090332 106.68164062 C27.85376062 106.66454863 22.69895656 106.67438853 17.54370117 106.69235802 C13.58549457 106.70318943 9.62739938 106.69975247 5.66918945 106.69197464 C3.76814723 106.68997085 1.86709494 106.69243815 -0.03393555 106.6994133 C-2.6891567 106.70701721 -5.34361508 106.6954387 -7.9987793 106.67871094 C-8.78744385 106.68478363 -9.5761084 106.69085632 -10.38867188 106.69711304 C-15.73176049 106.63463121 -15.73176049 106.63463121 -17.88739109 105.00266171 C-20.15866037 102.00877959 -19.60991484 98.3053364 -19.59033203 94.69165039 C-19.59719528 93.81327515 -19.60405853 92.9348999 -19.61112976 92.02990723 C-19.62945959 89.12052326 -19.62555055 86.21167553 -19.61987305 83.30224609 C-19.62443281 81.28066329 -19.62973776 79.25908204 -19.63575745 77.23750305 C-19.64470139 72.99640617 -19.6422519 68.75549745 -19.63232422 64.5144043 C-19.62084964 59.08357681 -19.64101647 53.65340097 -19.67024136 48.22265911 C-19.68860605 44.0455768 -19.68831005 39.86865042 -19.68260384 35.69153786 C-19.68245057 33.68969625 -19.68849966 31.68784411 -19.70089531 29.68604088 C-19.71580347 26.88281065 -19.70512845 24.08078103 -19.68798828 21.27758789 C-19.69765625 20.45295547 -19.70732422 19.62832306 -19.71728516 18.77870178 C-19.64960379 13.482089 -18.66338878 10.5106147 -15.1862793 6.29052734 C-10.20326309 1.80581275 -6.72098043 0.04654091 0 0 Z " fill="#FD636E" transform="translate(424.186279296875,390.70947265625)"/>
<path d="M0 0 C5.50863019 3.06132474 8.89792531 7.42085061 11.6875 13 C11.77336809 15.32416296 11.79461043 17.65083307 11.78515625 19.9765625 C11.7837413 20.66181 11.78232635 21.3470575 11.78086853 22.05307007 C11.77526675 24.24375761 11.76271406 26.4343433 11.75 28.625 C11.74498522 30.10937352 11.74042228 31.59374865 11.73632812 33.078125 C11.72529677 36.71878315 11.70803099 40.35938164 11.6875 44 C12.45304199 43.97905273 13.21858398 43.95810547 14.00732422 43.93652344 C17.52557885 43.85261638 21.04362203 43.80110404 24.5625 43.75 C26.36847656 43.69972656 26.36847656 43.69972656 28.2109375 43.6484375 C37.2246276 43.55046261 43.92398365 44.99691361 51.5625 49.8125 C56.35961774 54.75070944 58.48457924 59.95618858 58.9375 66.75 C58.85344499 72.39219264 56.92817459 76.86603971 54.125 81.6875 C47.05839402 88.39171593 39.64040466 89.61705845 30.14453125 89.43945312 C28.78383676 89.39769896 27.42315965 89.35537453 26.0625 89.3125 C24.6628007 89.28736056 23.2630574 89.26455743 21.86328125 89.24414062 C18.4702088 89.18563938 15.07944105 89.10370469 11.6875 89 C11.70321045 89.87213135 11.7189209 90.7442627 11.73510742 91.64282227 C11.78650821 94.90623018 11.82398093 98.16920232 11.85229492 101.43286133 C11.86729877 102.84015734 11.88770863 104.24740724 11.91381836 105.65454102 C11.95057665 107.68777907 11.96730984 109.72039432 11.98046875 111.75390625 C11.9961792 112.97408447 12.01188965 114.1942627 12.02807617 115.45141602 C11.44872792 121.48785107 9.06710253 126.73269497 4.6875 131 C-1.64928175 135.22064546 -7.70564423 137.46240328 -15.3125 136 C-21.82934877 133.75477911 -26.53760863 130.78030241 -30.3125 125 C-32.14454271 120.48139004 -32.54934046 116.71033397 -32.5078125 111.8515625 C-32.5049826 111.19417084 -32.50215271 110.53677917 -32.49923706 109.85946655 C-32.48813447 107.78111767 -32.46304986 105.70321634 -32.4375 103.625 C-32.42745731 102.20703752 -32.41833373 100.78906821 -32.41015625 99.37109375 C-32.38822805 95.91391963 -32.35376818 92.45700358 -32.3125 89 C-33.6739917 89.02356567 -33.6739917 89.02356567 -35.06298828 89.04760742 C-38.45123072 89.0989313 -41.83905619 89.13644416 -45.22753906 89.16479492 C-46.69017075 89.17982196 -48.15275782 89.20024955 -49.61523438 89.22631836 C-51.7253728 89.26297267 -53.83491226 89.27978676 -55.9453125 89.29296875 C-57.21262207 89.3086792 -58.47993164 89.32438965 -59.78564453 89.34057617 C-65.56433964 88.78254767 -70.2399147 86.0725853 -74.3125 82 C-78.31799737 75.90372104 -80.52520791 70.30261067 -79.3125 63 C-77.66904647 56.49661961 -74.83146964 51.91660733 -69.4375 47.8125 C-64.22585348 44.78974502 -59.82656421 43.7474851 -53.8203125 43.8046875 C-52.02207031 43.81435547 -52.02207031 43.81435547 -50.1875 43.82421875 C-48.33125 43.84935547 -48.33125 43.84935547 -46.4375 43.875 C-45.17679688 43.88402344 -43.91609375 43.89304688 -42.6171875 43.90234375 C-39.5154296 43.92584192 -36.41406348 43.95869666 -33.3125 44 C-33.32821045 43.22398438 -33.3439209 42.44796875 -33.36010742 41.6484375 C-33.42284673 38.09903381 -33.46161447 34.54974724 -33.5 31 C-33.52513672 29.77925781 -33.55027344 28.55851562 -33.57617188 27.30078125 C-33.6473114 18.52690603 -33.1255419 11.17674195 -26.875 4.38671875 C-18.84239065 -2.74222205 -9.90666814 -4.37321386 0 0 Z " fill="#040303" transform="translate(266.3125,28)"/>
<path d="M0 0 C0.67384232 -0.00686325 1.34768463 -0.0137265 2.04194641 -0.02079773 C4.2587317 -0.03902678 6.47480658 -0.03523406 8.69165039 -0.02954102 C10.23955006 -0.03410483 11.7874477 -0.039411 13.33534241 -0.04542542 C16.575859 -0.05434892 19.81612905 -0.05194234 23.05664062 -0.04199219 C27.20057498 -0.03050526 31.34365683 -0.05071276 35.48747921 -0.07990932 C38.68320584 -0.09829392 41.87872905 -0.0979744 45.07449532 -0.0922718 C46.60185504 -0.09211885 48.12922879 -0.09814149 49.65653801 -0.11056328 C51.79630198 -0.12551482 53.93450226 -0.11476837 56.07421875 -0.09765625 C57.28935654 -0.09749008 58.50449432 -0.09732391 59.75645447 -0.09715271 C66.44613706 0.9051051 70.26171515 5.24735844 74.10180664 10.40405273 C75.06168275 13.28368108 75.22334478 15.07032714 75.21533203 18.05908203 C75.21521873 19.47020515 75.21521873 19.47020515 75.21510315 20.90983582 C75.20994186 21.92241959 75.20478058 22.93500336 75.19946289 23.97827148 C75.19804794 25.01724075 75.196633 26.05621002 75.19517517 27.12666321 C75.1895732 30.44832222 75.17702036 33.76991406 75.16430664 37.09155273 C75.1592919 39.3422028 75.15472894 41.59285393 75.15063477 43.84350586 C75.13960313 49.3637111 75.12286307 54.88387712 75.10180664 60.40405273 C74.44180664 60.40405273 73.78180664 60.40405273 73.10180664 60.40405273 C72.8248999 60.97655762 72.54799316 61.5490625 72.26269531 62.13891602 C71.10180664 64.40405273 71.10180664 64.40405273 69.84130859 66.4152832 C65.26667184 74.18391927 65.32237914 81.80192124 65.28930664 90.52905273 C65.26611473 91.97700629 65.2407398 93.42492659 65.21313477 94.87280273 C65.15088432 98.38319438 65.11807577 101.89311122 65.10180664 105.40405273 C64.19098579 105.41951393 64.19098579 105.41951393 63.26176453 105.43528748 C56.95158052 105.54332506 50.64154009 105.6579254 44.33154297 105.77636719 C41.97545369 105.81972482 39.61933281 105.86139928 37.26318359 105.90136719 C33.87986726 105.95904949 30.49671007 106.02275005 27.11352539 106.08764648 C26.05719406 106.10435898 25.00086273 106.12107147 23.91252136 106.13829041 C22.44133598 106.16820824 22.44133598 106.16820824 20.94042969 106.19873047 C19.64470284 106.22204689 19.64470284 106.22204689 18.32279968 106.24583435 C15.92815239 106.32415012 15.92815239 106.32415012 13.10180664 107.40405273 C12.44180664 109.38405273 11.78180664 111.36405273 11.10180664 113.40405273 C4.83180664 113.40405273 -1.43819336 113.40405273 -7.89819336 113.40405273 C-7.90206055 109.49819336 -7.90206055 109.49819336 -7.90600586 105.51342773 C-7.9289142 102.95143343 -7.96191757 100.3897502 -7.99584961 97.82788086 C-8.01385829 96.06688932 -8.02160598 94.30575827 -8.01831055 92.54467773 C-8.00580977 81.54399497 -8.32223739 72.68991428 -14.89819336 63.40405273 C-15.4166835 62.95814789 -15.93517365 62.51224304 -16.46937561 62.05282593 C-18.34513638 59.88830629 -18.2943351 58.63939759 -18.33398438 55.80004883 C-18.36269371 54.40246841 -18.36269371 54.40246841 -18.39198303 52.97665405 C-18.39699074 51.46731796 -18.39699074 51.46731796 -18.40209961 49.92749023 C-18.41208481 48.88766998 -18.42207001 47.84784973 -18.43235779 46.77651978 C-18.44755736 44.57248922 -18.45458301 42.36838955 -18.45410156 40.16430664 C-18.4606291 36.81205102 -18.51499918 33.46281081 -18.57202148 30.11108398 C-18.58083047 27.96656282 -18.58678005 25.82202764 -18.58959961 23.67749023 C-18.61115616 22.68341156 -18.63271271 21.68933289 -18.65492249 20.66513062 C-18.586095 13.57623741 -16.84801565 8.60161486 -11.89819336 3.40405273 C-7.91441424 0.38330013 -4.94751986 0.02201305 0 0 Z " fill="#5FB6FE" transform="translate(324.898193359375,325.595947265625)"/>
<path d="M0 0 C0.99065712 -0.01226624 0.99065712 -0.01226624 2.00132751 -0.02478027 C4.19211932 -0.04963613 6.38284606 -0.06615539 8.57373047 -0.08056641 C9.32315792 -0.08589008 10.07258537 -0.09121376 10.84472275 -0.09669876 C14.8155795 -0.12343803 18.78640481 -0.14280572 22.75732422 -0.15722656 C26.03593011 -0.17053806 29.3139095 -0.19833643 32.59228516 -0.23925781 C36.55635313 -0.28873646 40.51985503 -0.31336676 44.4842186 -0.32045364 C45.99043834 -0.32714313 47.49664661 -0.34230508 49.00268936 -0.36634445 C63.69849285 -0.58743165 63.69849285 -0.58743165 69.07688904 3.60913086 C74.74437706 9.63710562 75.17318841 16.06948546 75.13232422 24.04443359 C75.1385228 25.06209808 75.14472137 26.07976257 75.15110779 27.12826538 C75.15817777 29.267955 75.1550816 31.40769996 75.14233398 33.54736328 C75.12842745 36.81564338 75.16263174 40.08108043 75.20068359 43.34912109 C75.20163452 45.43505929 75.19977738 47.52100106 75.19482422 49.60693359 C75.20808243 50.57893707 75.22134064 51.55094055 75.23500061 52.55239868 C75.14791087 58.90844522 74.0116082 61.43526582 69.56591797 66.19287109 C63.58878329 78.12390137 63.58878329 78.12390137 64.56591797 105.19287109 C40.47591797 105.19287109 16.38591797 105.19287109 -8.43408203 105.19287109 C-8.76408203 94.96287109 -9.09408203 84.73287109 -9.43408203 74.19287109 C-11.08408203 70.89287109 -12.73408203 67.59287109 -14.43408203 64.19287109 C-15.09408203 62.87287109 -15.75408203 61.55287109 -16.43408203 60.19287109 C-17.09408203 60.19287109 -17.75408203 60.19287109 -18.43408203 60.19287109 C-18.51029238 53.60928786 -18.56274919 47.02581887 -18.59887695 40.44189453 C-18.61394167 38.20324451 -18.63439737 35.9646239 -18.66040039 33.72607422 C-18.69688486 30.50399508 -18.71383186 27.28230698 -18.72705078 24.06005859 C-18.74253464 23.06295868 -18.75801849 22.06585876 -18.77397156 21.0385437 C-18.77549053 14.73374885 -18.18767133 10.11817643 -13.68017578 5.32958984 C-13.08333984 4.85134766 -12.48650391 4.37310547 -11.87158203 3.88037109 C-11.27216797 3.38923828 -10.67275391 2.89810547 -10.05517578 2.39208984 C-6.67487687 -0.10851682 -4.16806437 0.04477341 0 0 Z " fill="#FC636E" transform="translate(130.43408203125,325.80712890625)"/>
<path d="M0 0 C1.03447266 -0.02900391 2.06894531 -0.05800781 3.13476562 -0.08789062 C13.96427236 -0.17604566 23.48307003 2.7601621 31.4375 10.3125 C40.33797117 19.89444576 42.09539998 29.99299735 41.9375 42.75 C41.96070313 44.61881836 41.96070313 44.61881836 41.984375 46.52539062 C41.92969421 59.54625387 38.42372253 69.12855419 29.3671875 78.44140625 C19.56913227 87.71029822 9.90881069 89.82726064 -3.23046875 89.58203125 C-13.60507094 89.12607883 -21.94917009 84.15963217 -29.5625 77.3125 C-40.14205389 65.13064853 -41.17409611 50.76334916 -40.5625 35.3125 C-39.59524446 24.4792379 -35.81373006 15.56685513 -27.81640625 8.0703125 C-19.02188785 1.21150266 -10.78929684 0.09826318 0 0 Z " fill="#000000" transform="translate(352.5625,211.6875)"/>
<path d="M0 0 C1.5169043 -0.02320313 1.5169043 -0.02320313 3.06445312 -0.046875 C14.63028942 0.01270432 23.29803585 4.2447641 31.625 12.08984375 C40.54379306 21.56606138 41.22722095 33.53334107 41.08203125 45.9140625 C40.58281078 58.30012702 37.25895683 69.04309205 28.9375 78.5 C18.10169237 87.79059442 6.88949487 90.7508023 -7.08544922 89.72753906 C-18.61844646 88.40020473 -26.98595561 81.38261646 -34.30078125 72.875 C-41.11928801 63.68286671 -41.29301022 54.43815372 -41.375 43.375 C-41.40400391 42.09367187 -41.43300781 40.81234375 -41.46289062 39.4921875 C-41.53958484 27.97625561 -38.99508412 19.03995135 -31.0625 10.5 C-22.27983299 2.16129199 -11.81162002 -0.18136845 0 0 Z " fill="#010000" transform="translate(159.0625,211.5)"/>
<path d="M0 0 C16.51618989 -0.90197639 16.51618989 -0.90197639 22.421875 3.3203125 C28.5005662 9.7902066 28.5778618 14.66937244 28.51757812 23.39599609 C28.5245874 24.64223251 28.53159668 25.88846893 28.53881836 27.17247009 C28.55338103 30.57991143 28.55000417 33.98637785 28.53730202 37.39376402 C28.52714451 40.96813952 28.53657572 44.54247459 28.54284668 48.11685181 C28.55011702 54.12062009 28.54055364 60.12419135 28.52148438 66.12792969 C28.49973644 73.05470267 28.506754 79.98100427 28.52879 86.90776575 C28.54698539 92.86723894 28.54948161 98.82657081 28.53903532 104.78606284 C28.53282045 108.33987939 28.53190857 111.89347498 28.54518127 115.44727707 C28.55895994 119.41344025 28.53982251 123.37908262 28.51757812 127.34521484 C28.52567505 128.51327164 28.53377197 129.68132843 28.54211426 130.88478088 C28.46656238 138.1708485 27.74139765 144.32339873 22.3473053 149.62407207 C16.23535469 154.61946399 8.21998744 153.62795456 0.78125 153.48828125 C-0.68704009 153.4789409 -2.1553459 153.47183057 -3.62365723 153.46684265 C-7.4643554 153.44786831 -11.30408884 153.39885341 -15.14440918 153.34332275 C-19.07270258 153.29192129 -23.00115382 153.26928434 -26.9296875 153.24414062 C-34.62022865 153.1907225 -42.3099785 153.10552961 -50 153 C-50 152.67 -50 152.34 -50 152 C-49.07371796 152.00452431 -49.07371796 152.00452431 -48.12872314 152.00914001 C-41.70440102 152.03369218 -35.28156809 152.00963658 -28.85742188 151.95727539 C-26.45967136 151.94413125 -24.06181943 151.94340531 -21.6640625 151.95532227 C-18.21772889 151.97030012 -14.77422639 151.94070606 -11.328125 151.90234375 C-10.25508118 151.91659897 -9.18203735 151.93085419 -8.07647705 151.94554138 C-2.80842393 152.01826459 -2.80842393 152.01826459 1.55334473 149.52224731 C4.37380535 144.79985934 5.12238851 140.10489895 5.14717102 134.72016907 C5.15432632 133.65066513 5.16148163 132.58116119 5.16885376 131.47924805 C5.17154266 130.31087402 5.17423157 129.1425 5.17700195 127.9387207 C5.18357315 126.7041362 5.19014435 125.4695517 5.19691467 124.19755554 C5.21664458 120.10696163 5.22831388 116.01640691 5.23828125 111.92578125 C5.24233075 110.51440092 5.24644773 109.10302079 5.25063133 107.69164085 C5.26967427 101.05855301 5.28390624 94.42547623 5.2922433 87.79236633 C5.30200772 80.1509871 5.32830992 72.50989817 5.36874419 64.86862117 C5.39896861 58.95252282 5.41371821 53.03650739 5.41702431 47.12033337 C5.41936791 43.59155356 5.42823731 40.06308416 5.45348549 36.53438759 C5.48123684 32.59224939 5.47691573 28.65048881 5.4699707 24.70825195 C5.48278076 23.54999908 5.49559082 22.39174622 5.50878906 21.19839478 C5.46360023 14.14654527 4.27250249 9.21190189 1 3 C0.505 1.515 0.505 1.515 0 0 Z " fill="#C1ECF0" transform="translate(348,15)"/>
<path d="M0 0 C3.63326668 0.60554445 4.74144325 1.6558915 7 4.5 C8.48142369 7.46284738 8.1563352 10.48895689 8.17578125 13.73828125 C8.19898469 15.21290482 8.22310224 16.68751423 8.24804688 18.16210938 C8.2831201 20.48601683 8.3124821 22.80940535 8.32592773 25.13354492 C8.34144891 27.37742999 8.38168505 29.61979912 8.42578125 31.86328125 C8.42387283 32.55303543 8.42196442 33.24278961 8.41999817 33.95344543 C8.54014938 38.71734003 9.63943318 41.14571681 13 44.5 C15.95618772 45.97809386 18.96249861 45.63581933 22.203125 45.640625 C23.67319249 45.65895997 25.14324499 45.67853092 26.61328125 45.69921875 C28.92847864 45.72812809 31.24271616 45.74999846 33.55810547 45.75048828 C35.79480921 45.75383879 38.02930677 45.78848263 40.265625 45.828125 C41.29251434 45.81752045 41.29251434 45.81752045 42.34014893 45.80670166 C47.91332971 45.94663642 50.2663654 47.62940365 54 51.5 C54.625 54.5625 54.625 54.5625 54 57.5 C52.42333984 59.65429688 52.42333984 59.65429688 50 61.5 C47.39475199 61.87094467 45.20001911 62.011855 42.6015625 61.96875 C41.88898285 61.97579956 41.1764032 61.98284912 40.44223022 61.9901123 C37.40530531 62.01951999 34.36902692 62.00301033 31.33203125 61.99072266 C29.1089906 61.98833126 26.88697543 62.00931758 24.6640625 62.03125 C23.98574371 62.01993042 23.30742493 62.00861084 22.60855103 61.99694824 C17.62858016 62.0493225 14.82885475 63.37699982 11 66.5 C8.60537007 70.09194489 8.72057726 72.68973913 8.7265625 76.8359375 C8.70627085 78.30729924 8.68542002 79.77865335 8.6640625 81.25 C8.64148334 83.56289104 8.62499878 85.87548045 8.61914062 88.18847656 C8.60959216 90.42568101 8.57578853 92.66153678 8.5390625 94.8984375 C8.54410797 95.58505463 8.54915344 96.27167175 8.55435181 96.97909546 C8.45742987 101.73356907 7.42340474 104.20534654 4 107.5 C0.5625 108.6875 0.5625 108.6875 -3 108.5 C-6.48164069 105.21573768 -7.81482595 103.62826451 -8.59594727 98.86889648 C-8.58619873 97.54962158 -8.5764502 96.23034668 -8.56640625 94.87109375 C-8.57204086 94.15897232 -8.57767548 93.44685089 -8.58348083 92.71315002 C-8.59984412 90.45391757 -8.58446173 88.19666221 -8.5625 85.9375 C-8.54586187 83.67495539 -8.5368597 81.41370377 -8.55223083 79.15113831 C-8.56571381 77.10136331 -8.55036042 75.05145854 -8.53344727 73.00170898 C-9.07827885 68.91247851 -10.06526952 67.34705923 -13 64.5 C-16.50577245 61.95322719 -20.29545323 62.22052044 -24.46875 62.2265625 C-25.94141394 62.20627998 -27.41407014 62.18542932 -28.88671875 62.1640625 C-31.19749512 62.14144158 -33.50796553 62.12497987 -35.81884766 62.11914062 C-38.05687035 62.1096151 -40.29353255 62.07585094 -42.53125 62.0390625 C-43.21989136 62.04410797 -43.90853271 62.04915344 -44.61804199 62.05435181 C-47.96885 61.98571163 -49.73093999 61.70504191 -52.42773438 59.64990234 C-54 57.5 -54 57.5 -54.625 54.5625 C-53.89898441 51.0050236 -52.59615159 49.75606213 -49.78567505 47.54324341 C-46.71839674 45.75125002 -43.86395014 45.90778394 -40.37109375 45.93359375 C-39.30291161 45.92514183 -39.30291161 45.92514183 -38.21315002 45.91651917 C-35.95391757 45.90015588 -33.69666221 45.91553827 -31.4375 45.9375 C-29.17495539 45.95413813 -26.91370377 45.9631403 -24.65113831 45.94776917 C-22.60136331 45.93428619 -20.55145854 45.94963958 -18.50170898 45.96655273 C-14.41247851 45.42172115 -12.84705923 44.43473048 -10 41.5 C-7.45322719 37.99422755 -7.72052044 34.20454677 -7.7265625 30.03125 C-7.70627998 28.55858606 -7.68542932 27.08592986 -7.6640625 25.61328125 C-7.64144158 23.30250488 -7.62497987 20.99203447 -7.61914062 18.68115234 C-7.6096151 16.44312965 -7.57585094 14.20646745 -7.5390625 11.96875 C-7.54410797 11.28010864 -7.54915344 10.59146729 -7.55435181 9.88195801 C-7.48572722 6.53191108 -7.20126097 4.76550905 -5.15380859 2.06445312 C-3 0.5 -3 0.5 0 0 Z " fill="#F6616B" transform="translate(256,40.5)"/>
<path d="M0 0 C5.52056883 3.89622651 8.91667054 8.25708023 10.625 14.875 C11.58800545 24.54167446 12.67043455 36.50436477 7.2421875 44.96875 C2.01470691 51.13061118 -3.63259367 56.0863053 -11.90625 57.22265625 C-20.0486503 57.66865851 -26.32696776 55.45038064 -32.44921875 50.04296875 C-39.55426172 42.49106773 -40.88775529 34.91816025 -40.8125 24.875 C-40.83248047 23.92882812 -40.85246094 22.98265625 -40.87304688 22.0078125 C-40.86801118 14.73627463 -39.42367522 9.4079167 -34.62890625 3.8515625 C-34.07074219 3.40554687 -33.51257813 2.95953125 -32.9375 2.5 C-32.38191406 2.03851563 -31.82632813 1.57703125 -31.25390625 1.1015625 C-23.19731729 -4.15783237 -8.51071967 -4.48615901 0 0 Z " fill="#FCDCCD" transform="translate(173.375,229.125)"/>
<path d="M0 0 C4.97715665 3.29243245 8.31595846 7.61899279 10.01953125 13.3359375 C11.17597624 24.86312414 11.58948363 37.70250535 4.51171875 47.40234375 C-0.16256589 52.60927943 -5.73759445 55.67745335 -12.6484375 56.75 C-20.69577574 57.18131009 -27.01753654 54.83615446 -33.0546875 49.50390625 C-40.25770754 41.84786608 -41.52307563 34.07708427 -41.54296875 23.8984375 C-41.57970703 22.91294922 -41.61644531 21.92746094 -41.65429688 20.91210938 C-41.69818648 13.55328511 -39.89016213 8.84683263 -34.98046875 3.3359375 C-25.91086949 -4.67863659 -10.83121332 -5.20341083 0 0 Z " fill="#D57E49" transform="translate(368.98046875,229.6640625)"/>
<path d="M0 0 C1.2384668 -0.04350586 1.2384668 -0.04350586 2.50195312 -0.08789062 C9.62113858 -0.1608216 14.75153491 1.57705778 20.08984375 6.34765625 C20.63769531 7.01667969 21.18554688 7.68570312 21.75 8.375 C22.31589844 9.04660156 22.88179688 9.71820313 23.46484375 10.41015625 C26.99467064 15.39283942 26.07506568 21.65768402 26.125 27.5 C26.15400391 28.61181641 26.18300781 29.72363281 26.21289062 30.86914062 C26.27775777 39.29688032 25.06348669 44.54819962 19.4375 51.0625 C12.78037878 56.7686039 7.2319201 59.83417269 -1.56640625 59.625 C-8.74322039 58.76934407 -15.60551454 54.88364857 -20.1875 49.3125 C-26.43102649 39.79704949 -26.58582394 28.29587491 -25.1875 17.3125 C-23.40635451 10.41668903 -19.8561198 6.35534589 -14.0546875 2.37109375 C-9.50744163 -0.20694732 -5.07197971 0.0580318 0 0 Z " fill="#FCDCCC" transform="translate(450.1875,292.6875)"/>
<path d="M0 0 C5.70406774 3.43820318 9.17171301 8.82763903 11.25 15.0625 C12.31554732 26.03493977 12.55437327 37.59830768 6.25 47.0625 C1.26320251 52.97435375 -4.50647372 56.29494434 -12.125 57.41015625 C-20.30052191 57.90835212 -26.6039 54.80697021 -32.6875 49.5 C-39.3022391 41.68258106 -40.13482476 35.86949893 -40.1875 25.75 C-40.22037109 24.64720703 -40.25324219 23.54441406 -40.28710938 22.40820312 C-40.33976638 14.3899779 -38.90151126 9.31956396 -33.27124023 3.54614258 C-24.86161632 -3.96461927 -10.13717935 -4.48821681 0 0 Z " fill="#D57E49" transform="translate(75.75,294.9375)"/>
<path d="M0 0 C4.7814477 3.16811414 7.81462676 6.83377932 10.1875 12.0625 C11.02411554 16.57071126 11.02842346 20.92604478 10.9375 25.5 C10.96070313 26.66337891 10.98390625 27.82675781 11.0078125 29.02539062 C10.95369964 37.03860361 9.41782245 42.86324428 4.1875 49.0625 C-2.34733405 54.46264429 -8.64243486 57.56964431 -17.1875 57.37890625 C-24.09475751 56.54633503 -30.00128488 52.98306092 -34.8125 48.0625 C-40.19413975 40.94883826 -40.61014002 34.26835013 -40.5 25.5625 C-40.52771484 24.39074219 -40.55542969 23.21898437 -40.58398438 22.01171875 C-40.56188042 14.13387063 -39.20398637 8.92749813 -33.8125 3.0625 C-25.42747533 -4.44953367 -10.03160862 -4.37548887 0 0 Z " fill="#FDDDCD" transform="translate(270.8125,294.9375)"/>
<path d="M0 0 C8.18906885 -0.09303902 16.37791364 -0.16393536 24.56738186 -0.20724869 C28.37087732 -0.22804618 32.17400885 -0.25621807 35.97729492 -0.30175781 C39.65371801 -0.34549865 43.32979298 -0.36919592 47.00645638 -0.37950897 C48.40299007 -0.38685014 49.79950659 -0.40118483 51.19589043 -0.42292023 C59.74477541 -0.55058986 67.98499339 -0.62013955 74.60984802 5.48309326 C79.10021904 10.58478167 79.15236021 15.07197476 79.16113281 21.5546875 C79.16858017 22.86484833 79.16858017 22.86484833 79.17617798 24.20147705 C79.19079144 27.09265935 79.19759912 29.98378683 79.203125 32.875 C79.20887571 34.88134768 79.21463345 36.88769533 79.22039795 38.89404297 C79.23090463 43.10058855 79.23674995 47.30711502 79.24023438 51.51367188 C79.24572818 56.9110292 79.26977651 62.30813541 79.29820633 67.70541382 C79.3168002 71.84888455 79.3220365 75.99229429 79.32357025 80.13580322 C79.32660305 82.12617368 79.33465258 84.11654292 79.34775543 86.10687256 C79.36475323 88.88654922 79.36295149 91.6656054 79.35644531 94.4453125 C79.3656601 95.27138 79.37487488 96.09744751 79.3843689 96.94854736 C79.34337439 102.52127999 79.34337439 102.52127999 77.76877975 104.71652222 C75.47910764 106.37797457 74.14231375 106.34666842 71.33203125 106.29296875 C70.43935547 106.28330078 69.54667969 106.27363281 68.62695312 106.26367188 C67.69818359 106.23853516 66.76941406 106.21339844 65.8125 106.1875 C64.87212891 106.17396484 63.93175781 106.16042969 62.96289062 106.14648438 C60.64134962 106.11113096 58.32096347 106.06178674 56 106 C56.01332367 104.30443466 56.01332367 104.30443466 56.0269165 102.57461548 C56.10819277 91.89386593 56.16805667 81.21317957 56.20724869 70.53219032 C56.22807546 65.0416736 56.2563033 59.55140761 56.30175781 54.06103516 C56.34539075 48.7571709 56.369174 43.45354702 56.37950897 38.14951706 C56.38686908 36.13141474 56.40124138 34.11332477 56.42292023 32.09532547 C56.75611215 17.54649234 56.75611215 17.54649234 52 4 C51.505 2.515 51.505 2.515 51 1 C34.17 1 17.34 1 0 1 C0 0.67 0 0.34 0 0 Z " fill="#F94654" transform="translate(418,391)"/>
<path d="M0 0 C8.46707727 -0.11619309 16.93381773 -0.20486534 25.40149689 -0.25906086 C29.33403316 -0.28508102 33.26602131 -0.32033773 37.19824219 -0.37719727 C40.99787226 -0.43179153 44.79697738 -0.46147748 48.5969696 -0.47438622 C50.04180661 -0.48357737 51.48661703 -0.50152556 52.93122864 -0.52865028 C60.98822831 -0.67382389 67.77184572 -0.73964209 74 5 C78.75436417 10.24199126 79.15193939 13.63280213 79.16113281 20.53295898 C79.16858017 21.85753113 79.16858017 21.85753113 79.17617798 23.2088623 C79.19081586 26.13794729 79.19760375 29.06697815 79.203125 31.99609375 C79.20887442 34.02629092 79.21463218 36.05648806 79.22039795 38.08668518 C79.2309121 42.34628554 79.23675228 46.605867 79.24023438 50.86547852 C79.24572475 56.33124456 79.26976266 61.79676219 79.29820633 67.26245022 C79.3168016 71.45653521 79.32203661 75.65055995 79.32357025 79.84468269 C79.32660356 81.86017276 79.3346548 83.8756616 79.34775543 85.89111137 C79.36475353 88.70681724 79.3629512 91.52191056 79.35644531 94.33764648 C79.3656601 95.17463577 79.37487488 96.01162506 79.3843689 96.87397766 C79.34336547 102.52051343 79.34336547 102.52051343 77.76877975 104.71931553 C75.47906943 106.37717963 74.14040628 106.34663197 71.33203125 106.29296875 C70.43935547 106.28330078 69.54667969 106.27363281 68.62695312 106.26367188 C67.69818359 106.23853516 66.76941406 106.21339844 65.8125 106.1875 C64.87212891 106.17396484 63.93175781 106.16042969 62.96289062 106.14648438 C60.64134962 106.11113096 58.32096347 106.06178674 56 106 C56.01332367 104.28231163 56.01332367 104.28231163 56.0269165 102.52992249 C56.10814871 91.71641527 56.16803566 80.9029703 56.20724869 70.08922672 C56.22808654 64.53030196 56.2563349 58.97162435 56.30175781 53.4128418 C56.34535087 48.0441439 56.36916569 42.67568311 56.37950897 37.30682182 C56.38687618 35.26277372 56.40126253 33.21873798 56.42292023 31.17479134 C56.45213301 28.30252583 56.45594853 25.43122903 56.45410156 22.55883789 C56.46848267 21.72157669 56.48286377 20.88431549 56.49768066 20.02168274 C56.45537582 13.90607521 54.82161349 9.39143001 52 4 C51.505 3.01 51.505 3.01 51 2 C34.17 1.67 17.34 1.34 0 1 C0 0.67 0 0.34 0 0 Z " fill="#BFEAEE" transform="translate(223,391)"/>
<path d="M0 0 C8.20633968 -0.09297117 16.41245669 -0.16390134 24.61919403 -0.20724869 C28.43056435 -0.22806079 32.24157246 -0.25625997 36.05273438 -0.30175781 C39.73563664 -0.34544579 43.41819208 -0.36918499 47.10133362 -0.37950897 C48.50148472 -0.3868595 49.90161836 -0.40121298 51.30162048 -0.42292023 C59.27989019 -0.54162506 65.25399362 -0.49262198 72 4 C75.64232742 7.5831342 77.9418543 10.47846401 78.14044189 15.67503357 C78.15254278 17.29431151 78.15897531 18.91363726 78.16113281 20.53295898 C78.16858017 21.85753113 78.16858017 21.85753113 78.17617798 23.2088623 C78.19081586 26.13794729 78.19760375 29.06697815 78.203125 31.99609375 C78.20887442 34.02629092 78.21463218 36.05648806 78.22039795 38.08668518 C78.2309121 42.34628554 78.23675228 46.605867 78.24023438 50.86547852 C78.24572475 56.33124456 78.26976266 61.79676219 78.29820633 67.26245022 C78.3168016 71.45653521 78.32203661 75.65055995 78.32357025 79.84468269 C78.32660356 81.86017276 78.3346548 83.8756616 78.34775543 85.89111137 C78.36475353 88.70681724 78.3629512 91.52191056 78.35644531 94.33764648 C78.3656601 95.17463577 78.37487488 96.01162506 78.3843689 96.87397766 C78.34336547 102.52051343 78.34336547 102.52051343 76.76877975 104.71931553 C74.47906943 106.37717963 73.14040628 106.34663197 70.33203125 106.29296875 C69.43935547 106.28330078 68.54667969 106.27363281 67.62695312 106.26367188 C66.69818359 106.23853516 65.76941406 106.21339844 64.8125 106.1875 C63.87212891 106.17396484 62.93175781 106.16042969 61.96289062 106.14648438 C59.64134962 106.11113096 57.32096347 106.06178674 55 106 C55.01110306 104.84456696 55.02220612 103.68913391 55.03364563 102.49868774 C55.13522998 91.58251091 55.21006533 80.66643063 55.25906086 69.74988747 C55.28509733 64.13823288 55.32038687 58.52696146 55.37719727 52.91552734 C55.43172888 47.49494055 55.46146525 42.07472112 55.47438622 36.65388107 C55.48358816 34.59110104 55.5015573 32.52833995 55.52865028 30.46571732 C55.56522172 27.56476451 55.56993364 24.66530827 55.56762695 21.76416016 C55.59459152 20.49963516 55.59459152 20.49963516 55.62210083 19.20956421 C55.55845 11.75780067 53.74477035 9.48954069 50 2 C25.25 1.505 25.25 1.505 0 1 C0 0.67 0 0.34 0 0 Z " fill="#BFEAEE" transform="translate(29,391)"/>
<path d="M0 0 C18.36831006 -0.93928858 18.36831006 -0.93928858 23.3986969 3.35366821 C29.10551402 9.22096119 29.60649989 16.02699292 29.56640625 23.8515625 C29.57570412 25.37805923 29.57570412 25.37805923 29.58518982 26.93539429 C29.5922598 29.07508391 29.58916363 31.21482886 29.57641602 33.35449219 C29.56250948 36.62277229 29.59671377 39.88820933 29.63476562 43.15625 C29.63571655 45.2421882 29.63385941 47.32812997 29.62890625 49.4140625 C29.64216446 50.38606598 29.65542267 51.35806946 29.66908264 52.35952759 C29.58105694 58.78388308 28.56142344 61.47366773 24 66 C19.02064573 73.47721514 19.33795312 81.90729905 19.25 90.5625 C19.22178687 91.9668328 19.19185214 93.37113212 19.16015625 94.77539062 C19.08989033 98.18328752 19.04263108 101.59164539 19 105 C14.38 105 9.76 105 5 105 C5.00666183 103.83790512 5.01332367 102.67581024 5.02018738 101.47850037 C5.08105021 90.51718269 5.12599755 79.55589938 5.15543652 68.59445095 C5.17108026 62.95929855 5.1922952 57.32428277 5.22631836 51.68920898 C5.2589575 46.24920881 5.27686273 40.8093399 5.28463173 35.36924934 C5.29016703 33.29565426 5.30097613 31.22206622 5.31719017 29.14852715 C5.33902474 26.24005585 5.34196437 23.33212429 5.34057617 20.42358398 C5.351362 19.56978149 5.36214783 18.715979 5.3732605 17.83630371 C5.34553699 12.45459152 4.43754289 8.80838285 2 4 C1.608125 3.195625 1.21625 2.39125 0.8125 1.5625 C0.4103125 0.7890625 0.4103125 0.7890625 0 0 Z " fill="#FA4654" transform="translate(176,326)"/>
<path d="M0 0 C2.70942393 -0.10861833 5.414439 -0.18758577 8.125 -0.25 C8.88554687 -0.28351563 9.64609375 -0.31703125 10.4296875 -0.3515625 C15.80265531 -0.44419988 18.72896692 0.45459698 23 4 C26.30040844 7.20633504 28.85362967 10.38908829 29.12025452 15.14506531 C29.1169236 16.38749748 29.1169236 16.38749748 29.11352539 17.6550293 C29.11344986 18.59577805 29.11337433 19.53652679 29.11329651 20.50578308 C29.10813522 21.51836685 29.10297394 22.53095062 29.09765625 23.57421875 C29.0962413 24.61318802 29.09482635 25.65215729 29.09336853 26.72261047 C29.08776656 30.04426948 29.07521372 33.36586133 29.0625 36.6875 C29.05748525 38.93815007 29.0529223 41.18880119 29.04882812 43.43945312 C29.03779649 48.95965837 29.02105643 54.47982439 29 60 C28.34 60 27.68 60 27 60 C26.58463989 60.85875732 26.58463989 60.85875732 26.16088867 61.73486328 C25 64 25 64 23.73950195 66.01123047 C19.16486519 73.77986654 19.2205725 81.39786851 19.1875 90.125 C19.16430809 91.57295355 19.13893316 93.02087386 19.11132812 94.46875 C19.04504175 97.97991925 19.02347521 101.48725527 19 105 C14.38 105 9.76 105 5 105 C5.01665459 103.24805832 5.01665459 103.24805832 5.03364563 101.46072388 C5.13522482 90.42681689 5.21006288 79.3930054 5.25906086 68.35873604 C5.28509861 62.68654948 5.32039058 57.01474192 5.37719727 51.34277344 C5.43172418 45.86383235 5.46146429 40.38525467 5.47438622 34.90606308 C5.48358899 32.82095498 5.50155976 30.73586565 5.52865028 28.65091324 C6.08855988 13.50491964 6.08855988 13.50491964 0 0 Z " fill="#25A3F9" transform="translate(371,326)"/>
<path d="M0 0 C21.46536951 -0.89646555 21.46536951 -0.89646555 28.86328125 5.6484375 C36.55597619 14.05715894 35.65558487 23.73977005 35.19091797 34.52929688 C34.59332822 42.26281132 31.79505422 48.41999988 25.97265625 53.5625 C19.17589638 58.5153864 12.38742317 60.18248917 4 59 C3.01 58.34 2.02 57.68 1 57 C2.0828125 56.071875 2.0828125 56.071875 3.1875 55.125 C10.90785803 47.11586417 11.62233944 38.7700346 11.48828125 28.1640625 C11.45065671 26.48437195 11.41289493 24.80468447 11.375 23.125 C11.35846185 21.42189507 11.34412186 19.71876731 11.33203125 18.015625 C11.34003241 9.43745471 11.34003241 9.43745471 10 1 C6.7 1 3.4 1 0 1 C0 0.67 0 0.34 0 0 Z " fill="#C46B35" transform="translate(344,227)"/>
<path d="M0 0 C20.94788447 -1.02685708 20.94788447 -1.02685708 28 5 C35.7654311 14.14239414 35.72793691 23.04176788 35.21777344 34.54785156 C34.55594989 42.00004411 31.558543 47.93511378 26.1875 53.0625 C19.81424407 57.94667744 14.16353837 59.33828982 6.19921875 59.30078125 C4 59 4 59 1 57 C1.7425 56.34 2.485 55.68 3.25 55 C9.20493689 49.04506311 11.09863275 41.76883253 11.13894653 33.53039551 C11.1369223 32.85005249 11.13489807 32.16970947 11.1328125 31.46875 C11.13376923 30.75521362 11.13472595 30.04167725 11.13571167 29.30651855 C11.13638961 27.80379142 11.13456234 26.30106129 11.13037109 24.79833984 C11.12501734 22.50741962 11.13032916 20.21669543 11.13671875 17.92578125 C11.1360579 16.46093707 11.1347766 14.99609301 11.1328125 13.53125 C11.13483673 12.85090698 11.13686096 12.17056396 11.13894653 11.46960449 C11.12125677 7.85456264 10.85197947 4.51621317 10 1 C6.7 1 3.4 1 0 1 C0 0.67 0 0.34 0 0 Z " fill="#C46B35" transform="translate(52,293)"/>
<path d="M0 0 C21.47332431 -0.99209404 21.47332431 -0.99209404 29 5 C35.40984256 11.78928161 35.92943343 18.41100146 35.75 27.4375 C35.77320313 28.60087891 35.79640625 29.76425781 35.8203125 30.96289062 C35.76619964 38.97610361 34.23032245 44.80074428 29 51 C23.3265518 55.688327 17.39867379 59.29601635 9.875 59.25 C8.60269531 59.25773437 8.60269531 59.25773437 7.3046875 59.265625 C5 59 5 59 2 57 C2.59748047 56.36384766 2.59748047 56.36384766 3.20703125 55.71484375 C11.85375315 46.14243873 12.18667987 36.63784422 12.18530273 24.1706543 C12.18749651 21.94105135 12.2057006 19.71193793 12.22460938 17.48242188 C12.22754246 16.05989752 12.22952782 14.63737082 12.23046875 13.21484375 C12.23457764 11.92698975 12.23868652 10.63913574 12.24291992 9.31225586 C12.01707108 6.23276721 11.78106207 4.49164719 10 2 C7.58320293 1.29823412 7.58320293 1.29823412 4.875 1.25 C3.96492187 1.19328125 3.05484375 1.1365625 2.1171875 1.078125 C1.41851562 1.05234375 0.71984375 1.0265625 0 1 C0 0.67 0 0.34 0 0 Z " fill="#FBCABC" transform="translate(246,293)"/>
<path d="M0 0 C21.33319361 -0.97659584 21.33319361 -0.97659584 28 5 C33.20579264 9.8422959 35.02022429 15.05193633 35.37109375 22.046875 C35.81760947 42.67121983 35.81760947 42.67121983 28.1328125 51.03125 C21.53941005 57.29113404 15.45485833 59.33849801 6.453125 59.30078125 C4 59 4 59 1 57 C1.721875 56.566875 2.44375 56.13375 3.1875 55.6875 C8.96120401 50.17040506 11.75004272 41.9957849 12.14526367 34.09667969 C12.16992964 30.64768777 12.18565557 27.19908673 12.1875 23.75 C12.20586914 21.96529297 12.20586914 21.96529297 12.22460938 20.14453125 C12.23573658 13.43111637 11.7601984 7.48420914 10 1 C6.7 1 3.4 1 0 1 C0 0.67 0 0.34 0 0 Z " fill="#FACABC" transform="translate(149,227)"/>
<path d="M0 0 C3.00099588 -0.10890711 5.99796378 -0.18773555 9 -0.25 C9.83917969 -0.28351563 10.67835938 -0.31703125 11.54296875 -0.3515625 C18.75182102 -0.46332765 23.86756947 1.20069244 29.27734375 6.03515625 C29.82519531 6.70417969 30.37304688 7.37320312 30.9375 8.0625 C31.50339844 8.73410156 32.06929688 9.40570313 32.65234375 10.09765625 C36.18217064 15.08033942 35.26256568 21.34518402 35.3125 27.1875 C35.34150391 28.29931641 35.37050781 29.41113281 35.40039062 30.55664062 C35.46525777 38.98438032 34.25098669 44.23569962 28.625 50.75 C20.98674028 57.29707976 14.98681911 59.7600588 5 59 C4.34 58.67 3.68 58.34 3 58 C4.15423973 55.49914724 5.4426095 53.3499173 7 51.0625 C12.52407193 42.60376485 12.18647246 33.81743254 12.18530273 24.00463867 C12.18749763 21.93973422 12.20571568 19.87535769 12.22460938 17.81054688 C12.22654297 16.50021484 12.22847656 15.18988281 12.23046875 13.83984375 C12.23457764 12.64738037 12.23868652 11.45491699 12.24291992 10.22631836 C12.0044843 7.05955783 11.35529229 4.84990741 10 2 C6.7 1.67 3.4 1.34 0 1 C0 0.67 0 0.34 0 0 Z " fill="#FBCBBC" transform="translate(441,293)"/>
</svg>
