<?xml version="1.0" encoding="UTF-8"?>
<svg version="1.1" xmlns="http://www.w3.org/2000/svg" width="512" height="512">
<path d="M0 0 C1.02087708 0.00131424 1.02087708 0.00131424 2.06237793 0.00265503 C33.90710199 0.13735331 66.52723487 11.96445166 90.3984375 33.48046875 C92.63392198 36.02556258 92.72273576 38.04531047 93.0625 41.375 C93.72160072 46.68204472 95.97271897 49.15470037 99.7421875 52.7890625 C102.91805526 54.95977346 105.08959757 54.86247797 108.7890625 54.16796875 C112.4372879 54.50019546 114.59700852 56.87019639 117.0625 59.375 C128.97279917 73.88428198 138.79250801 92.24880036 137.0625 111.375 C135.09098138 122.08691781 127.19105539 130.56115009 119.0625 137.375 C117.39910757 138.04979466 115.7331441 138.71836423 114.0625 139.375 C113.93875 140.1175 113.815 140.86 113.6875 141.625 C112.72755391 145.8487628 109.57764854 148.01262535 106.0625 150.375 C105.4025 150.375 104.7425 150.375 104.0625 150.375 C103.89814453 151.35339844 103.89814453 151.35339844 103.73046875 152.3515625 C103.49263672 153.66253906 103.49263672 153.66253906 103.25 155 C103.02376953 156.28777344 103.02376953 156.28777344 102.79296875 157.6015625 C101.95272838 160.79177995 100.61551777 163.47319694 99.0625 166.375 C99.88492187 166.58253906 100.70734375 166.79007813 101.5546875 167.00390625 C113.00826939 170.16488324 121.18754057 174.66810638 127.65625 184.859375 C132.96526846 194.35661914 133.80107277 205.17714075 131.25390625 215.72265625 C127.59592512 225.53212121 121.33840047 232.95184242 112.125 237.9375 C106.80311805 240.36274787 101.89359259 241.34919871 96.0625 241.375 C96.145 242.53 96.2275 243.685 96.3125 244.875 C96.2760692 268.00855711 82.53947816 290.06829803 66.75 305.8125 C64.86138795 307.67426674 62.96293212 309.52524607 61.0625 311.375 C60.06117929 312.37367754 59.06085572 313.37335842 58.0625 314.375 C61.34945367 319.18379966 64.45831695 323.6195142 70.23013306 325.29394531 C73.95229964 325.59238565 77.56802904 325.60388971 81.30078125 325.5 C82.67164957 325.49870536 84.04252955 325.5021334 85.41337585 325.51000977 C89.00532996 325.51943735 92.59409365 325.47128269 96.1854248 325.40863037 C101.22471728 325.3312303 106.2647021 325.33310589 111.30448914 325.32568359 C113.98038679 325.3215269 116.65248711 325.29362207 119.32844543 325.25244141 C138.80351613 325.0562086 156.39170365 329.98370616 170.8125 343.625 C182.20858796 355.65194283 189.38333555 371.48579817 189.36328125 388.109375 C189.36756638 388.90982239 189.3718515 389.71026978 189.37626648 390.53497314 C189.3819683 392.2122707 189.38254096 393.88959297 189.37817383 395.56689453 C189.37499099 398.13225938 189.39860203 400.69649412 189.42382812 403.26171875 C189.42609929 404.89843605 189.42680547 406.53515644 189.42578125 408.171875 C189.434991 408.93546326 189.44420074 409.69905151 189.45368958 410.48577881 C189.42582632 413.68259687 189.27134336 415.99175773 187.72729492 418.82519531 C186.0625 420.375 186.0625 420.375 183.0625 421.375 C182.7325 426.985 182.4025 432.595 182.0625 438.375 C183.7125 438.705 185.3625 439.035 187.0625 439.375 C189.33536255 442.78429383 189.32317913 444.02963911 189.35302734 448.03637695 C189.36578705 449.19800858 189.37854675 450.3596402 189.39169312 451.55647278 C189.39503159 453.44084297 189.39503159 453.44084297 189.3984375 455.36328125 C189.4050943 456.65437302 189.4117511 457.94546478 189.41860962 459.27568054 C189.43058411 462.01023703 189.43429043 464.74466719 189.43310547 467.47924805 C189.43290259 470.97307315 189.46017034 474.46608198 189.49464989 477.95971394 C189.52232462 481.30258132 189.52106985 484.64530086 189.5234375 487.98828125 C189.53780853 489.23845535 189.55217957 490.48862946 189.56698608 491.77668762 C189.51028694 502.56766752 189.51028694 502.56766752 185.0625 507.375 C180.56227588 511.33948315 178.25363571 512.49928951 172.30461502 512.50922108 C171.07121108 512.51367892 169.83780715 512.51813676 168.56702733 512.52272969 C167.18573712 512.52264039 165.80444692 512.52245052 164.42315674 512.52217102 C162.96552645 512.52546867 161.50789708 512.52919403 160.05026889 512.5333125 C156.03021276 512.54335187 152.01017157 512.5470524 147.99010468 512.54970181 C143.66005312 512.55359913 139.33001346 512.56317785 134.99996948 512.57191467 C124.53572524 512.59169526 114.07148 512.60174729 103.60722172 512.61064246 C98.68279591 512.61502274 93.75837118 512.62039022 88.83394623 512.62563133 C72.46980131 512.64264517 56.10565707 512.65714018 39.74150467 512.66438007 C35.49303435 512.66629006 31.24456404 512.66821038 26.99609375 512.67016602 C25.94012099 512.67064976 24.88414822 512.6711335 23.79617628 512.6716319 C6.68342785 512.67993528 -10.42925075 512.70527671 -27.54196867 512.73774669 C-45.10019506 512.77079113 -62.65838592 512.78882646 -80.21664357 512.79202431 C-90.07943757 512.79419184 -99.94212974 512.8029758 -109.80489349 512.82848549 C-118.20317099 512.85015679 -126.60132193 512.85826055 -134.99962422 512.84851871 C-139.28594438 512.84396361 -143.57200323 512.84593012 -147.85828781 512.86528015 C-151.78156821 512.88283876 -155.70439525 512.88197402 -159.62767997 512.86638286 C-161.04764227 512.86399562 -162.46763536 512.86838797 -163.88755044 512.88021151 C-177.05567359 512.98307738 -177.05567359 512.98307738 -181.9375 508.375 C-185.53942364 504.28632993 -187.05970547 501.99230094 -187.07794189 496.58364868 C-187.08365204 495.57171448 -187.08936218 494.55978027 -187.09524536 493.5171814 C-187.09636322 492.40243439 -187.09748108 491.28768738 -187.09863281 490.13916016 C-187.10359772 488.96820801 -187.10856262 487.79725586 -187.11367798 486.59082031 C-187.12580378 483.37122155 -187.13325078 480.15165914 -187.13768864 476.93204165 C-187.14062103 474.91679257 -187.14472644 472.90154917 -187.14919281 470.88630295 C-187.1628789 464.57089058 -187.17253673 458.2554912 -187.1763947 451.94006503 C-187.18086039 444.67059767 -187.19833379 437.40131976 -187.2273953 430.13190997 C-187.24910969 424.50285008 -187.25910436 418.87384306 -187.26043582 413.2447418 C-187.2614781 409.88855969 -187.26873319 406.53269589 -187.28525543 403.17653275 C-187.30242251 399.4191406 -187.30040868 395.66220125 -187.29394531 391.90478516 C-187.3031601 390.81028046 -187.31237488 389.71577576 -187.3218689 388.58810425 C-187.23519706 372.40068904 -181.57741061 358.51812093 -170.9375 346.375 C-170.40511719 345.76011719 -169.87273437 345.14523437 -169.32421875 344.51171875 C-157.1360263 331.39268583 -139.92932024 325.82887467 -122.46875 325.12109375 C-120.47932599 325.07352021 -118.48971547 325.03321864 -116.5 325 C-115.539729 324.97381592 -114.57945801 324.94763184 -113.59008789 324.9206543 C-109.25265446 324.91034616 -106.61667654 324.99385519 -102.77734375 327.1484375 C-100.9375 329.375 -100.9375 329.375 -100.9375 333.375 C-95.3275 333.375 -89.7175 333.375 -83.9375 333.375 C-83.2775 331.395 -82.6175 329.415 -81.9375 327.375 C-78.75896035 324.86073942 -75.66931151 325.30007887 -71.75 325.375 C-67.44533734 325.14664882 -65.48352946 324.81257156 -62.0859375 322.08984375 C-59.88046836 319.60081429 -57.84820442 317.09540861 -55.9375 314.375 C-58.57107338 311.71704168 -61.22369947 309.09464628 -63.953125 306.53515625 C-79.72003305 291.5601049 -93.18108323 270.16286279 -94.03515625 247.8203125 C-94.02355469 247.05460938 -94.01195312 246.28890625 -94 245.5 C-93.99097656 244.71882812 -93.98195313 243.93765625 -93.97265625 243.1328125 C-93.96105469 242.55273438 -93.94945312 241.97265625 -93.9375 241.375 C-94.52015625 241.37242187 -95.1028125 241.36984375 -95.703125 241.3671875 C-105.48660292 240.90570269 -114.74008831 236.79484219 -121.40625 229.5078125 C-128.872308 219.10866029 -131.05277002 208.87088643 -129.9375 196.375 C-127.65815388 185.64253597 -121.8498762 177.94487923 -112.81640625 171.91796875 C-107.79559009 169.22702929 -102.4395806 167.76345608 -96.9375 166.375 C-97.21464844 165.80652344 -97.49179688 165.23804688 -97.77734375 164.65234375 C-100.04686783 159.81446147 -101.48405184 155.70301588 -101.9375 150.375 C-102.659375 150.16875 -103.38125 149.9625 -104.125 149.75 C-107.93611399 147.88678872 -109.47230172 145.82627759 -111.9375 142.375 C-111.9375 141.385 -111.9375 140.395 -111.9375 139.375 C-112.63875 139.1584375 -113.34 138.941875 -114.0625 138.71875 C-117.65997816 137.03731999 -120.18164398 134.66349288 -122.9375 131.875 C-123.46641846 131.34326172 -123.99533691 130.81152344 -124.5402832 130.26367188 C-132.57637245 121.89206998 -135.34728748 113.37085193 -135.20703125 101.93359375 C-133.51167923 79.55003304 -116.75682596 60.80739365 -101.9375 45.375 C-101.40688965 44.8195752 -100.8762793 44.26415039 -100.32958984 43.69189453 C-96.14306618 39.39391994 -91.716463 35.62249389 -86.9375 32 C-85.82665039 31.15755737 -85.82665039 31.15755737 -84.69335938 30.2980957 C-59.89266091 11.77434601 -31.20924581 -0.04421118 0 0 Z " fill="#000101" transform="translate(254.9375,-0.37499999999999994)"/>
<path d="M0 0 C5.94 0 11.88 0 18 0 C18.99 2.475 18.99 2.475 20 5 C23.16240582 7.10827055 24.50657469 7.33817465 28.1875 7.625 C29.08855469 7.69976562 29.98960937 7.77453125 30.91796875 7.8515625 C31.60503906 7.90054687 32.29210937 7.94953125 33 8 C34.39102876 15.16688761 35.77811796 22.33452995 37.16259766 29.50268555 C37.63306589 31.93612523 38.10440313 34.36939707 38.57666016 36.80249023 C39.25917939 40.31970088 39.93846821 43.8375231 40.6171875 47.35546875 C40.82560272 48.42580856 41.03401794 49.49614838 41.24874878 50.59892273 C42.5024903 57.11714795 43.59089063 63.64170387 44.5486145 70.2101593 C44.92287327 72.52330925 45.38532738 74.74128036 46 77 C49.85113732 77.93683813 53.38111333 78.7493371 57.08447266 77.03515625 C59.08577993 75.60904176 60.95328904 74.10682066 62.8125 72.5 C64.08074617 71.43696753 65.35779084 70.3843198 66.64453125 69.34375 C67.19471924 68.87130859 67.74490723 68.39886719 68.31176758 67.91210938 C70 67 70 67 72.08422852 67.21191406 C75.08017679 68.44434952 76.27074038 70.63624659 78.125 73.25 C78.90451603 74.34238526 79.68583558 75.4334853 80.46875 76.5234375 C81.07976562 77.37760254 81.07976562 77.37760254 81.703125 78.24902344 C83.030448 80.04110939 84.42028181 81.76008421 85.84375 83.4765625 C86.30765137 84.0447168 86.77155273 84.61287109 87.24951172 85.19824219 C88.1496722 86.29556242 89.06240285 87.38271931 89.98876953 88.45800781 C92.06993886 91.03750841 93.04956266 92.40998254 92.7671051 95.77249146 C91.94600352 99.22718414 90.82637579 102.35383016 89.49975586 105.64794922 C89.246017 106.28280746 88.99227814 106.91766571 88.73085022 107.57176208 C87.89788763 109.65174688 87.05645011 111.72818692 86.21484375 113.8046875 C85.63281882 115.2532162 85.05132945 116.70196021 84.47035217 118.15090942 C82.94514491 121.95061026 81.41270923 125.74735443 79.87872314 129.54351807 C78.03682391 134.10604376 76.20397015 138.67220957 74.36959076 143.23776245 C71.58662738 150.16131369 68.79225129 157.08015679 66 164 C43.89 164 21.78 164 -1 164 C-1.3125 135.1875 -1.3125 135.1875 -1.38793945 126.09448242 C-1.4202162 123.72312831 -1.45358802 121.35178874 -1.48828125 118.98046875 C-1.49452515 117.74349243 -1.50076904 116.50651611 -1.50720215 115.23205566 C-1.53711243 113.4662616 -1.53711243 113.4662616 -1.56762695 111.66479492 C-1.57873001 110.64109299 -1.58983307 109.61739105 -1.60127258 108.56266785 C-1.80632559 105.98112375 -1.80632559 105.98112375 -3.30827332 104.16938782 C-6.14981367 102.20520371 -8.67173726 102.64340042 -12 103 C-13.80091527 104.10375905 -13.80091527 104.10375905 -15 106 C-15.47353152 108.64134748 -15.47353152 108.64134748 -15.43237305 111.66479492 C-15.45216721 112.82577194 -15.47196136 113.98674896 -15.49235535 115.1829071 C-15.49874527 116.43610245 -15.50513519 117.68929779 -15.51171875 118.98046875 C-15.52966995 120.26359451 -15.54762115 121.54672028 -15.56611633 122.86872864 C-15.61362737 126.27663059 -15.64342907 129.68446629 -15.66955566 133.09259033 C-15.69935598 136.57162563 -15.74588801 140.05043261 -15.79101562 143.52929688 C-15.87706083 150.35273455 -15.94440051 157.17624822 -16 164 C-23.67211202 164.02526605 -31.3442134 164.04283123 -39.01635742 164.05493164 C-41.62866619 164.05997377 -44.24097211 164.06680725 -46.85327148 164.07543945 C-50.59880268 164.08751036 -54.34429672 164.09322935 -58.08984375 164.09765625 C-59.26586655 164.10281754 -60.44188934 164.10797882 -61.65354919 164.11329651 C-62.73459427 164.11337204 -63.81563934 164.11344757 -64.92944336 164.11352539 C-65.88652695 164.115746 -66.84361053 164.11796661 -67.82969666 164.12025452 C-70 164 -70 164 -71 163 C-71.10428173 161.54936357 -71.13961796 160.09370349 -71.14717102 158.63934326 C-71.15432632 157.69754211 -71.16148163 156.75574097 -71.16885376 155.78540039 C-71.17154266 154.74343506 -71.17423157 153.70146973 -71.17700195 152.62792969 C-71.18357315 151.53675842 -71.19014435 150.44558716 -71.19691467 149.3213501 C-71.21671894 145.6881911 -71.22833127 142.05507374 -71.23828125 138.421875 C-71.24235678 137.18130592 -71.2464323 135.94073685 -71.25063133 134.66257477 C-71.26937205 128.76523162 -71.28392379 122.86790172 -71.2922433 116.97053599 C-71.30197419 110.1854867 -71.32817349 103.40076728 -71.36874419 96.615834 C-71.40274473 90.72495432 -71.41440555 84.83418331 -71.41844749 78.94321442 C-71.42330059 76.44754056 -71.43487781 73.95186989 -71.45348549 71.45626068 C-71.58977432 51.95179222 -70.60260255 36.38547841 -56.8125 21.25 C-45.51494475 10.68868992 -33.08261074 7.60637625 -18.125 7.4375 C-15.7107999 7.40312057 -13.29669833 7.36054825 -10.8828125 7.30859375 C-9.82465332 7.29626709 -8.76649414 7.28394043 -7.67626953 7.27124023 C-4.77517056 7.18809526 -4.77517056 7.18809526 -2 5 C-1.34 3.35 -0.68 1.7 0 0 Z " fill="#5E98D5" transform="translate(154,333)"/>
<path d="M0 0 C8.21575596 -0.14015596 16.43099737 -0.24619679 24.64766026 -0.31087303 C28.46467933 -0.34194359 32.28086978 -0.38395752 36.09741211 -0.45263672 C39.79335887 -0.51871556 43.48851822 -0.55388753 47.18501091 -0.56926346 C48.58223784 -0.58019405 49.9794307 -0.60152984 51.37631416 -0.63438034 C65.26067538 -0.94736181 77.22994364 2.58477247 87.85546875 11.87109375 C97.50667002 21.45197661 104.09202382 33.18680454 104.30210876 47.01325989 C104.30424881 47.70626694 104.30638885 48.39927399 104.30859375 49.11328125 C104.33371683 50.62305135 104.35911529 52.13281689 104.38476562 53.64257812 C104.41364425 55.99063261 104.43770672 58.33860869 104.45629883 60.68676758 C104.47789397 62.97514107 104.51727736 65.26269148 104.55859375 67.55078125 C104.55876747 68.60547356 104.55876747 68.60547356 104.5589447 69.68147278 C104.61649085 72.50579592 104.67856848 74.52120033 106.27758789 76.90307617 C108.24944331 78.28658963 108.24944331 78.28658963 112 79 C112 84.94 112 90.88 112 97 C109.525 97.99 109.525 97.99 107 99 C104.42775679 101.57224321 104.73575096 102.59172488 104.69702148 106.16821289 C104.67205849 107.78482567 104.67205849 107.78482567 104.64659119 109.43409729 C104.63817703 110.60182175 104.62976288 111.7695462 104.62109375 112.97265625 C104.60409927 114.16604111 104.5871048 115.35942596 104.56959534 116.588974 C104.51630792 120.41342847 104.47609387 124.23787116 104.4375 128.0625 C104.39365258 131.89064357 104.3470118 135.71870029 104.29469299 139.54673767 C104.2626025 141.93270894 104.23575484 144.31875718 104.21446228 146.70484924 C104.19422752 148.31673378 104.19422752 148.31673378 104.17358398 149.96118164 C104.16407211 150.91223282 104.15456024 151.863284 104.14476013 152.84315491 C104 155 104 155 103 156 C101.31198015 156.09353163 99.62004793 156.11744791 97.92944336 156.11352539 C96.84839828 156.11344986 95.76735321 156.11337433 94.65354919 156.11329651 C92.889515 156.10555458 92.889515 156.10555458 91.08984375 156.09765625 C89.89267227 156.0962413 88.69550079 156.09482635 87.46205139 156.09336853 C83.62050934 156.08774979 79.77902457 156.07519411 75.9375 156.0625 C73.34049563 156.05748741 70.74349035 156.05292409 68.14648438 156.04882812 C61.76430321 156.03777427 55.3821557 156.02101792 49 156 C48.99413376 155.28003342 48.98826752 154.56006683 48.98222351 153.81828308 C48.92433137 147.03486974 48.85227486 140.25173902 48.76428509 133.46865368 C48.71954792 129.9813232 48.68029968 126.49411043 48.65356445 123.0065918 C48.62259149 118.99758213 48.56780184 114.98920633 48.51171875 110.98046875 C48.50532883 109.72727341 48.4989389 108.47407806 48.49235535 107.1829071 C48.47256119 106.02193008 48.45276703 104.86095306 48.43237305 103.66479492 C48.42126999 102.64109299 48.41016693 101.61739105 48.39872742 100.56266785 C48.19367441 97.98112375 48.19367441 97.98112375 46.69172668 96.16938782 C43.85018633 94.20520371 41.32826274 94.64340042 38 95 C36.19908473 96.10375905 36.19908473 96.10375905 35 98 C34.52646848 100.64134748 34.52646848 100.64134748 34.56762695 103.66479492 C34.54768677 104.84199097 34.52774658 106.01918701 34.50720215 107.23205566 C34.4978363 109.08752014 34.4978363 109.08752014 34.48828125 110.98046875 C34.47164429 112.11762329 34.45500732 113.25477783 34.43786621 114.4263916 C34.3799712 118.67990567 34.34779097 122.93373833 34.3125 127.1875 C34.209375 136.695625 34.10625 146.20375 34 156 C11.89 156 -10.22 156 -33 156 C-36.155625 148.12125 -39.31125 140.2425 -42.5625 132.125 C-43.5429126 129.67852051 -44.5233252 127.23204102 -45.53344727 124.71142578 C-47.62839119 119.48228526 -49.71152358 114.24849241 -51.79376221 109.01428223 C-52.93283529 106.16783871 -54.08860677 103.32880589 -55.24951172 100.49121094 C-55.90484089 98.86662458 -56.55996669 97.24195616 -57.21484375 95.6171875 C-57.51693253 94.89274445 -57.8190213 94.16830139 -58.13026428 93.42190552 C-59.19749962 90.74780483 -60.05317557 88.60291238 -59.79711914 85.69970703 C-58.45266005 82.83290025 -56.47047109 80.45337217 -54.5 78 C-53.59563145 76.85082881 -52.69200337 75.70107456 -51.7890625 74.55078125 C-51.32790039 73.96635254 -50.86673828 73.38192383 -50.39160156 72.77978516 C-48.17698496 69.94740708 -46.02489993 67.06913248 -43.875 64.1875 C-43.12992187 63.19105469 -42.38484375 62.19460938 -41.6171875 61.16796875 C-40.81667969 60.09482422 -40.81667969 60.09482422 -40 59 C-34.93584844 59.99651866 -31.44337045 63.3409042 -27.57226562 66.58203125 C-23.91851633 69.39384714 -21.7031246 70.32116453 -17.04296875 69.8046875 C-15.69010069 69.56412095 -14.33973079 69.30536155 -13 69 C-8.52444628 46.02658783 -4.26472045 23.01327719 0 0 Z " fill="#5E98D6" transform="translate(325,341)"/>
<path d="M0 0 C1.19802246 0.48699371 2.39604492 0.97398743 3.63037109 1.47573853 C10.00561658 3.58451961 16.25671421 3.41973575 22.9140625 3.38818359 C24.29978853 3.39225606 25.68551131 3.3976017 27.07122803 3.40411377 C30.81093155 3.41771315 34.55038494 3.41251952 38.29009247 3.40297651 C42.21765276 3.39534142 46.14519271 3.40243616 50.07275391 3.40713501 C56.66637995 3.41258141 63.25990495 3.40543035 69.85351562 3.39111328 C77.45905723 3.37478888 85.0643575 3.38007818 92.66989326 3.3965925 C99.21880205 3.41023928 105.76763851 3.41211147 112.31655693 3.40427649 C116.21964341 3.39961746 120.12261674 3.39892605 124.0256958 3.40888596 C127.69646664 3.41760002 131.36692859 3.41145353 135.03766632 3.39420319 C137.01466964 3.38839304 138.99169931 3.39721585 140.96868896 3.40658569 C147.9731747 3.3569663 153.49571883 2.64397717 160 0 C160.09342243 8.34621336 160.16412577 16.69220172 160.20724869 25.03881168 C160.22796437 28.91612008 160.25598112 32.79306609 160.30175781 36.67016602 C160.34579755 40.42442223 160.36925687 44.17833395 160.37950897 47.9328289 C160.38679779 49.35231373 160.40102457 50.77178358 160.42292023 52.19111824 C160.6177677 65.36745162 158.44841127 77.66196169 152.125 89.375 C151.77405273 90.0443457 151.42310547 90.71369141 151.06152344 91.40332031 C150.06254286 93.28176873 149.03862942 95.14325018 148 97 C147.52820313 97.85335937 147.05640625 98.70671875 146.5703125 99.5859375 C135.47922266 117.76482439 116.55904807 128.73136493 96.375 133.8125 C74.89864719 137.99775806 53.68994783 133.92488224 35.375 121.875 C22.13786022 112.25385938 12.99358189 101.00245545 6.25 86.0625 C5.96793701 85.4427832 5.68587402 84.82306641 5.39526367 84.18457031 C0.62986558 73.10754695 -0.42942458 62.3209846 -0.29296875 50.390625 C-0.28735778 48.92804403 -0.2830948 47.46545733 -0.28010559 46.00286865 C-0.26877468 42.19539193 -0.23941248 38.38827096 -0.20599365 34.58093262 C-0.1750357 30.679004 -0.16154589 26.77701662 -0.14648438 22.875 C-0.11452841 15.24983966 -0.06347904 7.6249701 0 0 Z " fill="#FDD1A3" transform="translate(176,181)"/>
<path d="M0 0 C0.58378418 0.4940332 1.16756836 0.98806641 1.76904297 1.49707031 C4.90454355 4.02619836 6.33033863 4.83526886 10.421875 4.61328125 C11.52015625 4.34902344 12.6184375 4.08476563 13.75 3.8125 C17.75 3.8125 17.75 3.8125 20.328125 6 C21.20984375 6.928125 22.0915625 7.85625 23 8.8125 C23.89203125 9.740625 24.7840625 10.66875 25.703125 11.625 C26.71632813 12.7078125 26.71632813 12.7078125 27.75 13.8125 C27.42 14.8025 27.09 15.7925 26.75 16.8125 C26.00936949 22.56825713 27.31048321 25.28908018 30.6628418 29.71069336 C31.207229 30.40428955 31.75161621 31.09788574 32.3125 31.8125 C39.29363697 41.21093672 48.23273925 53.4210363 46.75 65.8125 C45.48651193 70.26247721 43.93071029 73.73018224 40.5 76.875 C39.9225 77.184375 39.345 77.49375 38.75 77.8125 C38.37875 76.760625 38.0075 75.70875 37.625 74.625 C35.82632436 70.4023948 33.4719842 68.44890548 29.75 65.8125 C26.27699275 64.65483092 23.13915053 64.63730443 19.5246582 64.60717773 C18.4267244 64.59232834 18.4267244 64.59232834 17.30661011 64.57717896 C14.88803335 64.54559989 12.46943696 64.52082077 10.05078125 64.49609375 C8.37354523 64.47552112 6.69631436 64.45452456 5.01908875 64.43312073 C0.60505341 64.37793199 -3.80902846 64.32850861 -8.22314453 64.28027344 C-12.72758119 64.23003507 -17.23195028 64.17436119 -21.73632812 64.11914062 C-30.57416102 64.01159817 -39.41205259 63.91014449 -48.25 63.8125 C-46.82332383 60.17154319 -45.20722723 56.76809954 -43.375 53.3125 C-38.23508475 42.90669119 -35.90200262 33.97415923 -35.8125 22.375 C-35.80234863 21.42705566 -35.79219727 20.47911133 -35.78173828 19.50244141 C-35.85078555 14.02825703 -36.12151291 8.94098709 -40.25 4.8125 C-45.42735677 4.44197661 -45.42735677 4.44197661 -50.25 5.8125 C-56.60997203 6.11598414 -60.6828986 4.35707018 -65.54296875 0.37890625 C-67.25 -1.1875 -67.25 -1.1875 -69.375 -3.5625 C-71.21295637 -5.40534374 -71.21295637 -5.40534374 -74.0625 -5.875 C-78.2049735 -4.98152532 -79.59419125 -3.05932939 -82.39453125 -0.01171875 C-86.1892091 3.71904874 -90.35608662 5.63713765 -95.625 6.125 C-98.25 5.8125 -98.25 5.8125 -100.25 4.8125 C-104.86544634 4.36012534 -104.86544634 4.36012534 -109.0625 5.9375 C-114.5914296 14.66738885 -112.97832574 27.8965511 -111.14453125 37.6328125 C-108.90043432 45.60964614 -105.30000685 53.26593097 -101.18344116 60.44206238 C-100.22638779 62.110429 -100.22638779 62.110429 -99.25 63.8125 C-100.67700729 63.81796844 -100.67700729 63.81796844 -102.13284302 63.82354736 C-111.10802531 63.86052417 -120.08286535 63.91832608 -129.05778694 63.99640274 C-133.6716769 64.03587473 -138.2853761 64.06806453 -142.89941406 64.08349609 C-147.35410277 64.09866459 -151.80826699 64.13311332 -156.26272202 64.18080902 C-157.96027945 64.19562087 -159.65791176 64.20354091 -161.3555336 64.20438385 C-163.73775075 64.20675594 -166.1185213 64.23385257 -168.50048828 64.26660156 C-169.5481411 64.25905602 -169.5481411 64.25905602 -170.61695862 64.25135803 C-175.59279685 64.35686619 -178.39554371 65.73313302 -182.25 68.8125 C-184.78513821 71.62932023 -186.71112326 74.35002732 -188.25 77.8125 C-192.85538339 72.60114512 -195.87314475 68.53986541 -195.61328125 61.22265625 C-193.08387221 44.44152317 -180.2370034 29.99990438 -169.25 17.8125 C-168.59644531 17.08675781 -167.94289062 16.36101563 -167.26953125 15.61328125 C-150.2100356 -2.31919499 -126.13212281 -16.84030494 -102.25 -23.1875 C-101.17621094 -23.48398437 -100.10242188 -23.78046875 -98.99609375 -24.0859375 C-64.98624949 -32.22440737 -27.13749517 -21.24755735 0 0 Z " fill="#5E97D4" transform="translate(330.25,41.1875)"/>
<path d="M0 0 C10.7150169 -1.12789652 21.06156195 3.38382735 29.5 9.8125 C39.9621359 18.95602508 47.31422295 30.93308912 48.27124023 44.98168945 C48.29216439 46.35878405 48.30434073 47.73603427 48.30859375 49.11328125 C48.33371683 50.62305135 48.35911529 52.13281689 48.38476562 53.64257812 C48.41364425 55.99063261 48.43770672 58.33860869 48.45629883 60.68676758 C48.47789397 62.97514107 48.51727736 65.26269148 48.55859375 67.55078125 C48.55870956 68.25390945 48.55882538 68.95703766 48.5589447 69.68147278 C48.61649085 72.50579592 48.67856848 74.52120033 50.27758789 76.90307617 C52.24944331 78.28658963 52.24944331 78.28658963 56 79 C56 84.94 56 90.88 56 97 C53.525 97.99 53.525 97.99 51 99 C48.42775679 101.57224321 48.73575096 102.59172488 48.69702148 106.16821289 C48.67205849 107.78482567 48.67205849 107.78482567 48.64659119 109.43409729 C48.63817703 110.60182175 48.62976288 111.7695462 48.62109375 112.97265625 C48.60409927 114.16604111 48.5871048 115.35942596 48.56959534 116.588974 C48.51630792 120.41342847 48.47609387 124.23787116 48.4375 128.0625 C48.39365258 131.89064357 48.3470118 135.71870029 48.29469299 139.54673767 C48.2626025 141.93270894 48.23575484 144.31875718 48.21446228 146.70484924 C48.20097244 147.77943893 48.1874826 148.85402863 48.17358398 149.96118164 C48.15931618 151.38775841 48.15931618 151.38775841 48.14476013 152.84315491 C48 155 48 155 47 156 C45.5112814 156.08669432 44.018555 156.10703494 42.52734375 156.09765625 C41.62822266 156.09443359 40.72910156 156.09121094 39.80273438 156.08789062 C38.85720703 156.07951172 37.91167969 156.07113281 36.9375 156.0625 C35.98810547 156.05798828 35.03871094 156.05347656 34.06054688 156.04882812 C31.70696935 156.0370011 29.35351523 156.02052025 27 156 C26.99761165 155.42445783 26.99522329 154.84891565 26.99276257 154.25593281 C26.93341236 140.19793723 26.85773607 126.14010691 26.76428509 112.08229542 C26.7194777 105.283802 26.68002919 98.4853592 26.65356445 91.68676758 C26.62798059 85.11844953 26.58697572 78.55032982 26.53681374 71.98215294 C26.52020562 69.48373945 26.50865383 66.98528677 26.50238609 64.48682594 C26.44413882 43.3912247 25.63311336 25.33983599 10.32421875 9.19921875 C7.52573959 6.55124603 4.60534696 4.24110619 1.43359375 2.05859375 C0.96050781 1.70925781 0.48742187 1.35992187 0 1 C0 0.67 0 0.34 0 0 Z " fill="#3B85CD" transform="translate(381,341)"/>
<path d="M0 0 C57.42 0 114.84 0 174 0 C171.59516424 7.21450729 168.09809399 12.38337655 161.5 16.375 C153.65097855 20.01918853 146.99187602 20.29713647 138.41455078 20.29052734 C137.16002106 20.29724457 135.90549133 20.30396179 134.61294556 20.31088257 C131.18717075 20.32658129 127.76163845 20.33323494 124.33584452 20.33451414 C122.19143427 20.33594008 120.0470491 20.34021799 117.90264511 20.34550858 C110.40985257 20.36398487 102.91713097 20.37218208 95.42431641 20.37060547 C88.45837941 20.36940425 81.49275233 20.39050874 74.52689373 20.4220928 C68.53004387 20.44830681 62.53329494 20.45897065 56.53638828 20.45769465 C52.96184231 20.45718658 49.38757213 20.46278336 45.81308365 20.48405075 C41.82325537 20.50714381 37.83411529 20.49788112 33.84423828 20.48583984 C32.67199707 20.49707886 31.49975586 20.50831787 30.29199219 20.51989746 C20.18250038 20.4425244 13.14746377 17.74423291 5.73046875 10.875 C2.95445526 7.86712985 0 4.24886254 0 0 Z " fill="#544D55" transform="translate(169,151)"/>
<path d="M0 0 C0.7590309 0.00223072 1.51806181 0.00446144 2.30009365 0.00675976 C3.10061877 0.00519977 3.90114389 0.00363978 4.72592735 0.00203252 C7.42913455 -0.00198077 10.13228635 0.00121342 12.83549404 0.00434887 C14.76502929 0.00299498 16.69456428 0.00121511 18.62409878 -0.00096118 C23.88014383 -0.00553692 29.13616936 -0.00374539 34.39221478 -0.0005821 C39.87973746 0.00194078 45.36725841 -0.00039583 50.85478115 -0.00196826 C60.071988 -0.00379017 69.28918685 -0.0013831 78.50639248 0.00337231 C89.17925152 0.00881497 99.85209145 0.00705233 110.52495003 0.00154591 C119.67055933 -0.00298463 128.81616286 -0.00363607 137.96177292 -0.00101542 C143.43188001 0.00054768 148.9019781 0.0007402 154.37208462 -0.00255191 C159.51344991 -0.00542976 164.65479046 -0.00345654 169.79615307 0.00234234 C171.68887573 0.00367041 173.58160046 0.00327505 175.47432232 0.00107968 C178.0466458 -0.00163002 180.61888867 0.00174706 183.19120693 0.00675976 C183.95023784 0.00452904 184.70926874 0.00229832 185.49130058 0 C190.63150044 0.01959356 190.63150044 0.01959356 191.74565029 1.13374341 C191.84474331 3.46534396 191.87535533 5.80004282 191.87065029 8.13374341 C191.87322842 9.41249341 191.87580654 10.69124341 191.87846279 12.00874341 C191.74565029 15.13374341 191.74565029 15.13374341 190.74565029 16.13374341 C188.21859399 16.23370623 185.71880515 16.26815543 183.19120693 16.26072705 C182.39068181 16.26228704 181.59015669 16.26384703 180.76537323 16.26545429 C178.06216603 16.26946758 175.35901423 16.26627339 172.65580654 16.26313794 C170.72627129 16.26449183 168.7967363 16.2662717 166.86720181 16.268448 C161.61115675 16.27302373 156.35513122 16.2712322 151.09908581 16.26806891 C145.61156313 16.26554603 140.12404218 16.26788264 134.63651943 16.26945508 C125.41931259 16.27127698 116.20211374 16.26886991 106.9849081 16.2641145 C96.31204907 16.25867184 85.63920913 16.26043448 74.96635056 16.2659409 C65.82074126 16.27047144 56.67513772 16.27112288 47.52952766 16.26850224 C42.05942058 16.26693913 36.58932248 16.26674661 31.11921597 16.27003872 C25.97785067 16.27291657 20.83651012 16.27094335 15.69514751 16.26514447 C13.80242485 16.2638164 11.90970012 16.26421176 10.01697826 16.26640713 C7.44465478 16.26911683 4.87241192 16.26573975 2.30009365 16.26072705 C1.54106275 16.26295777 0.78203184 16.26518849 0 16.26748681 C-5.14019986 16.24789325 -5.14019986 16.24789325 -6.25434971 15.13374341 C-6.35344273 12.80214285 -6.38405475 10.46744399 -6.37934971 8.13374341 C-6.38192783 6.85499341 -6.38450596 5.57624341 -6.38716221 4.25874341 C-6.1716049 -0.81319325 -4.61503152 0.01759171 0 0 Z " fill="#0077C7" transform="translate(163.25434970855713,119.8662565946579)"/>
<path d="M0 0 C0.09342243 8.34621336 0.16412577 16.69220172 0.20724869 25.03881168 C0.22796437 28.91612008 0.25598112 32.79306609 0.30175781 36.67016602 C0.34579755 40.42442223 0.36925687 44.17833395 0.37950897 47.9328289 C0.38679779 49.35231373 0.40102457 50.77178358 0.42292023 52.19111824 C0.6177677 65.36745162 -1.55158873 77.66196169 -7.875 89.375 C-8.22594727 90.0443457 -8.57689453 90.71369141 -8.93847656 91.40332031 C-9.93745714 93.28176873 -10.96137058 95.14325018 -12 97 C-12.47179687 97.85335937 -12.94359375 98.70671875 -13.4296875 99.5859375 C-23.24189592 115.66866964 -39.42371828 126.2539079 -57 132 C-57.7115625 132.24492187 -58.423125 132.48984375 -59.15625 132.7421875 C-62.83363006 133.91959427 -66.15332414 134.18764272 -70 134 C-67.11486262 131.75600426 -64.13861737 129.86822463 -61 128 C-39.86845559 114.52195769 -29.16281678 94.91966172 -22.47729492 71.26245117 C-17.91480684 49.63555755 -20.39463199 27.09939118 -20 5 C-61.91 5 -103.82 5 -147 5 C-147 4.67 -147 4.34 -147 4 C-146.29615929 3.99761165 -145.59231857 3.99522329 -144.86714935 3.99276257 C-127.72319833 3.9335681 -110.57939746 3.85798962 -93.43560028 3.76428509 C-85.14490532 3.71936291 -76.85425298 3.67994003 -68.56347656 3.65356445 C-61.3353221 3.63055535 -54.1073029 3.59712489 -46.87925577 3.55129844 C-43.05377619 3.52740536 -39.22843024 3.508651 -35.40287781 3.50238609 C-31.79784926 3.49631741 -28.19316244 3.47625384 -24.58826065 3.44572449 C-22.64322135 3.43281796 -20.6981021 3.43450931 -18.75302124 3.4367218 C-12.30157603 3.36771261 -5.80611557 0 0 0 Z " fill="#F6B782" transform="translate(336,181)"/>
<path d="M0 0 C20.87875999 1.95061079 42.1202881 12.23008993 58.01904297 25.68457031 C61.15454355 28.21369836 62.58033863 29.02276886 66.671875 28.80078125 C67.77015625 28.53652344 68.8684375 28.27226563 70 28 C74 28 74 28 76.578125 30.1875 C77.45984375 31.115625 78.3415625 32.04375 79.25 33 C80.14203125 33.928125 81.0340625 34.85625 81.953125 35.8125 C82.62859375 36.534375 83.3040625 37.25625 84 38 C83.67 38.99 83.34 39.98 83 41 C82.25936949 46.75575713 83.56048321 49.47658018 86.9128418 53.89819336 C87.72942261 54.93858765 87.72942261 54.93858765 88.5625 56 C95.54363697 65.39843672 104.48273925 77.6085363 103 90 C101.73651193 94.44997721 100.18071029 97.91768224 96.75 101.0625 C96.1725 101.371875 95.595 101.68125 95 102 C94.62875 100.948125 94.2575 99.89625 93.875 98.8125 C92.0511747 94.56264294 89.7762346 92.64336422 86 90 C85.13632812 89.74992187 84.27265625 89.49984375 83.3828125 89.2421875 C82.59648437 88.83226563 81.81015625 88.42234375 81 88 C80.171875 85.33984375 80.171875 85.33984375 79.75 81.9375 C76.95836266 66.78511289 67.82671267 54.49702861 58 43 C57.27554688 42.13503906 56.55109375 41.27007812 55.8046875 40.37890625 C51.56084491 35.44439908 47.03564394 31.11479307 42 27 C41.26934326 26.39285156 41.26934326 26.39285156 40.52392578 25.7734375 C28.03145809 15.43171538 14.90657091 7.41007687 0 1 C0 0.67 0 0.34 0 0 Z " fill="#3B85CD" transform="translate(274,17)"/>
<path d="M0 0 C2.25136995 0.96227909 4.35912206 2.07703214 6.5 3.265625 C11.83613092 6.01719177 17.01777183 7.07409118 22.9375 7.828125 C23.62800202 21.63816549 19.46001582 33.91541393 10.375 44.328125 C6.90674593 48.12697521 4.29037331 50.40032985 -0.8125 51.328125 C-7.52375418 50.29562436 -11.80451834 45.52340817 -15.75 40.265625 C-22.45775829 29.99676849 -24.86160796 20.00948804 -25.0625 7.828125 C-24.40765625 7.75335938 -23.7528125 7.67859375 -23.078125 7.6015625 C-16.11637443 6.59859843 -10.7999589 4.445828 -4.69140625 0.97265625 C-2.0625 -0.171875 -2.0625 -0.171875 0 0 Z " fill="#FCDE75" transform="translate(257.0625,54.171875)"/>
<path d="M0 0 C3.12907245 1.50045757 5.37729257 2.99814479 7.8125 5.5 C8.43769531 6.1084375 9.06289063 6.716875 9.70703125 7.34375 C12.84133311 13.78279914 9.48015999 23.45663331 8.1875 30.27734375 C8.01371826 31.21050919 7.83993652 32.14367462 7.66088867 33.1051178 C7.29641406 35.05750983 6.92993692 37.00952903 6.56152344 38.96118164 C5.99706712 41.95304555 5.43946002 44.94612754 4.8828125 47.93945312 C4.52643984 49.84382455 4.16968284 51.74812411 3.8125 53.65234375 C3.64580811 54.54606186 3.47911621 55.43977997 3.30737305 56.36058044 C3.15051025 57.18896927 2.99364746 58.01735809 2.83203125 58.87084961 C2.69514893 59.59791611 2.5582666 60.3249826 2.41723633 61.07408142 C2 63 2 63 1 66 C-1.84963908 64.65323648 -4.35722065 63.12814168 -6.90625 61.27734375 C-7.64504395 60.74262451 -8.38383789 60.20790527 -9.14501953 59.65698242 C-9.92216309 59.08955322 -10.69930664 58.52212402 -11.5 57.9375 C-12.69471924 57.06992065 -12.69471924 57.06992065 -13.91357422 56.18481445 C-20.32359439 51.5197514 -26.68456787 46.7922985 -33 42 C-31.45555924 38.51490069 -29.37524647 35.85677663 -26.9375 32.9375 C-26.12667969 31.96039063 -25.31585938 30.98328125 -24.48046875 29.9765625 C-23.66191406 28.99429687 -22.84335937 28.01203125 -22 27 C-20.58122141 25.27256574 -19.16453557 23.54341044 -17.75 21.8125 C-17.02425781 20.925625 -16.29851562 20.03875 -15.55078125 19.125 C-10.35231752 12.76213129 -5.1782851 6.37929104 0 0 Z " fill="#3B85CD" transform="translate(300,325)"/>
<path d="M0 0 C3.74498159 3.65646384 7.2280115 7.45712785 10.625 11.4375 C11.1420752 12.04150635 11.65915039 12.6455127 12.19189453 13.26782227 C16.34165876 18.1504548 20.32642894 23.14953149 24.25170898 28.21362305 C26.65001644 31.3043715 29.09641569 34.31910136 31.6875 37.25 C34 40 34 40 34 42 C32.47802734 43.35351562 32.47802734 43.35351562 30.3359375 44.90625 C29.54936768 45.48101074 28.76279785 46.05577148 27.95239258 46.64794922 C27.10185303 47.25912598 26.25131348 47.87030273 25.375 48.5 C24.0904895 49.43416748 24.0904895 49.43416748 22.7800293 50.38720703 C20.19214642 52.26583974 17.59742585 54.13458966 15 56 C14.24960449 56.53979492 13.49920898 57.07958984 12.72607422 57.63574219 C8.82710466 60.43764609 4.91861601 63.22564543 1 66 C-0.85536638 63.21695043 -1.3635397 62.01327972 -1.94555664 58.87084961 C-2.1023439 58.04246078 -2.25913116 57.21407196 -2.42066956 56.36058044 C-2.58220016 55.46686234 -2.74373077 54.57314423 -2.91015625 53.65234375 C-3.08252304 52.7258754 -3.25488983 51.79940704 -3.43247986 50.84486389 C-3.79628393 48.88099437 -4.15667367 46.91648975 -4.51391602 44.95141602 C-5.0562462 41.9718583 -5.61020711 38.99464756 -6.16601562 36.01757812 C-6.51892904 34.10429563 -6.87116369 32.19088778 -7.22265625 30.27734375 C-7.38621109 29.39779526 -7.54976593 28.51824677 -7.71827698 27.61204529 C-8.5019462 23.27400939 -9.19576832 18.93010683 -9.74169922 14.55541992 C-9.84271942 13.75673996 -9.94373962 12.95806 -10.04782104 12.13517761 C-10 10 -10 10 -7.91015625 6.8359375 C-6.97042969 6.02382813 -6.03070313 5.21171875 -5.0625 4.375 C-4.12535156 3.53710938 -3.18820313 2.69921875 -2.22265625 1.8359375 C-1.48917969 1.23007812 -0.75570312 0.62421875 0 0 Z " fill="#3B85CD" transform="translate(211,325)"/>
<path d="M0 0 C0.66 0 1.32 0 2 0 C4.54861398 6.47651303 7.09338999 12.95452433 9.63549805 19.43359375 C10.50082425 21.63771734 11.36702984 23.84149589 12.23413086 26.04492188 C13.48001523 29.21133666 14.72273629 32.37897704 15.96484375 35.546875 C16.35341049 36.53242371 16.74197723 37.51797241 17.14231873 38.53338623 C17.50261673 39.4540387 17.86291473 40.37469116 18.23413086 41.32324219 C18.55167831 42.1315448 18.86922577 42.93984741 19.19639587 43.77264404 C20 46 20 46 21 50 C7.8 50 -5.4 50 -19 50 C-15.625 39.875 -15.625 39.875 -14.19067383 36.21459961 C-13.87056839 35.39442856 -13.55046295 34.57425751 -13.22065735 33.72923279 C-12.88616074 32.87885941 -12.55166412 32.02848602 -12.20703125 31.15234375 C-11.68069344 29.80638878 -11.68069344 29.80638878 -11.14372253 28.4332428 C-10.03542123 25.60049849 -8.92401611 22.7689842 -7.8125 19.9375 C-7.05513201 18.00333607 -6.29796861 16.06909201 -5.54101562 14.13476562 C-3.69637281 9.42224807 -1.84894763 4.71083014 0 0 Z " fill="#534C54" transform="translate(255,447)"/>
<path d="M0 0 C0 14.52 0 29.04 0 44 C-9.18000997 41.95999779 -13.01343374 40.42397607 -18.38671875 33.11328125 C-21.3750678 27.94396166 -21.89748916 22.86172608 -21 17 C-19.06337883 10.28234531 -14.55924177 6.00576104 -9 2 C-5.48740111 0.16386876 -4.06107431 0 0 0 Z " fill="#F6B782" transform="translate(161,182)"/>
<path d="M0 0 C9.1106131 2.02458069 13.14722513 3.56270363 18.38671875 10.95703125 C21.48295748 16.465077 21.93055611 21.45397552 20.33984375 27.515625 C17.94808864 34.43204238 14.52594811 38.55580215 8.09765625 42.02734375 C5.26641163 43.32624456 3.13307664 44 0 44 C0 29.48 0 14.96 0 0 Z " fill="#F8B782" transform="translate(351,182)"/>
<path d="M0 0 C2.89809582 1.44904791 5.12444818 2.71295296 7.671875 4.6015625 C8.66767578 5.33632813 8.66767578 5.33632813 9.68359375 6.0859375 C10.36550781 6.59382813 11.04742187 7.10171875 11.75 7.625 C12.44738281 8.140625 13.14476562 8.65625 13.86328125 9.1875 C15.57755267 10.45559119 17.28905156 11.7274289 19 13 C13.85800327 21.09082059 7.97883331 28.52113912 2 36 C-1.17220366 34.63902368 -2.86933425 33.25048573 -4.91015625 30.48046875 C-5.42513672 29.78759766 -5.94011719 29.09472656 -6.47070312 28.38085938 C-7.25864258 27.29514648 -7.25864258 27.29514648 -8.0625 26.1875 C-8.59166016 25.47529297 -9.12082031 24.76308594 -9.66601562 24.02929688 C-12.32651441 20.42076589 -14.68235788 16.86273686 -17 13 C-11.39 8.71 -5.78 4.42 0 0 Z " fill="#413D41" transform="translate(255,377)"/>
<path d="M0 0 C0.67293091 -0.0038269 1.34586182 -0.00765381 2.03918457 -0.01159668 C3.4579417 -0.0143113 4.87674927 -0.00698134 6.29541016 0.00976562 C8.46240203 0.03118725 10.62607951 0.00995462 12.79296875 -0.015625 C14.17448646 -0.01298164 15.5560021 -0.00785647 16.9375 0 C18.18982422 0.00451172 19.44214844 0.00902344 20.73242188 0.01367188 C24.51986999 0.61938929 25.70864838 1.48550719 27.96875 4.53125 C28.53125 7.46875 28.53125 7.46875 27.96875 10.53125 C25.40182584 13.74108812 23.89471842 15.34109064 19.81835938 16.17822266 C18.08295898 16.18668213 18.08295898 16.18668213 16.3125 16.1953125 C14.40791016 16.20498047 14.40791016 16.20498047 12.46484375 16.21484375 C11.14613281 16.19550781 9.82742188 16.17617188 8.46875 16.15625 C6.49068359 16.18525391 6.49068359 16.18525391 4.47265625 16.21484375 C3.20292969 16.20839844 1.93320312 16.20195312 0.625 16.1953125 C-0.53193359 16.18967285 -1.68886719 16.1840332 -2.88085938 16.17822266 C-6.95721842 15.34109064 -8.46432584 13.74108812 -11.03125 10.53125 C-11.59375 7.46875 -11.59375 7.46875 -11.03125 4.53125 C-7.82378634 0.20882958 -5.23193263 0.01884896 0 0 Z " fill="#020304" transform="translate(314.03125,462.46875)"/>
<path d="M0 0 C0.67293091 -0.0038269 1.34586182 -0.00765381 2.03918457 -0.01159668 C3.4579417 -0.0143113 4.87674927 -0.00698134 6.29541016 0.00976562 C8.46240203 0.03118725 10.62607951 0.00995462 12.79296875 -0.015625 C14.17448646 -0.01298164 15.5560021 -0.00785647 16.9375 0 C18.18982422 0.00451172 19.44214844 0.00902344 20.73242188 0.01367188 C24.51986999 0.61938929 25.70864838 1.48550719 27.96875 4.53125 C28.53125 7.46875 28.53125 7.46875 27.96875 10.53125 C25.40182584 13.74108812 23.89471842 15.34109064 19.81835938 16.17822266 C18.08295898 16.18668213 18.08295898 16.18668213 16.3125 16.1953125 C14.40791016 16.20498047 14.40791016 16.20498047 12.46484375 16.21484375 C11.14613281 16.19550781 9.82742187 16.17617188 8.46875 16.15625 C6.49068359 16.18525391 6.49068359 16.18525391 4.47265625 16.21484375 C3.20292969 16.20839844 1.93320313 16.20195312 0.625 16.1953125 C-0.53193359 16.18967285 -1.68886719 16.1840332 -2.88085938 16.17822266 C-6.95721842 15.34109064 -8.46432584 13.74108812 -11.03125 10.53125 C-11.59375 7.46875 -11.59375 7.46875 -11.03125 4.53125 C-7.82378634 0.20882958 -5.23193263 0.01884896 0 0 Z " fill="#020304" transform="translate(181.03125,462.46875)"/>
<path d="M0 0 C0.62261719 0.0721875 1.24523437 0.144375 1.88671875 0.21875 C8.8307331 0.91605688 15.71164054 1.11025578 22.6875 1.125 C23.56559326 1.12951172 24.44368652 1.13402344 25.34838867 1.13867188 C30.97383508 1.12599838 36.41936213 0.71242186 42 0 C40.16328431 3.91478624 37.63619458 6.94762213 34.8125 10.1875 C30.38057321 15.34142902 26.10430936 20.57894976 22 26 C18.84752913 24.63672336 17.06580583 23.20061552 14.94140625 20.515625 C14.39033203 19.82726562 13.83925781 19.13890625 13.27148438 18.4296875 C12.42553711 17.35074219 12.42553711 17.35074219 11.5625 16.25 C10.43909408 14.83830925 9.31540036 13.42684748 8.19140625 12.015625 C7.65531738 11.33564453 7.11922852 10.65566406 6.56689453 9.95507812 C5.11086663 8.13833281 3.61016723 6.3722862 2.08984375 4.609375 C0 2 0 2 0 0 Z " fill="#FAB983" transform="translate(235,329)"/>
<path d="M0 0 C7.59 0 15.18 0 23 0 C20.59516424 7.21450729 17.09809399 12.38337655 10.5 16.375 C2.58757339 20.04862664 -4.080597 20.27928535 -12.72827148 20.22705078 C-14.63175102 20.22748886 -14.63175102 20.22748886 -16.57368469 20.22793579 C-20.03602707 20.22850728 -23.49822957 20.21678627 -26.96053958 20.20278788 C-30.58534448 20.19024629 -34.21015294 20.18910732 -37.8349762 20.18673706 C-44.69130512 20.18053234 -51.5475699 20.16413522 -58.40387064 20.14403808 C-66.21282336 20.12164764 -74.02177922 20.11067776 -81.83075607 20.10064721 C-97.88720819 20.07976805 -113.9435959 20.04461176 -130 20 C-130 19.67 -130 19.34 -130 19 C-129.38708288 19.00129882 -128.77416576 19.00259764 -128.1426754 19.00393581 C-113.2191903 19.03315547 -98.29610344 19.02375553 -83.37270164 18.97153378 C-76.15572581 18.94720759 -68.93916958 18.93588467 -61.72216797 18.95532227 C-55.43071909 18.97223392 -49.13985719 18.96459589 -42.84848559 18.92765242 C-39.51789186 18.90894764 -36.18851314 18.90608089 -32.85789108 18.92530632 C-29.13658883 18.94470267 -25.41791879 18.92070833 -21.69677734 18.88647461 C-20.59626038 18.9022908 -19.49574341 18.91810699 -18.36187744 18.93440247 C-12.81529456 18.90855401 -12.81529456 18.90855401 -7.99782181 16.4912281 C-4.9391868 13.02923136 -3.04267055 9.47908902 -1.625 5.0625 C-1.08875 3.391875 -0.5525 1.72125 0 0 Z " fill="#3C383C" transform="translate(320,151)"/>
<path d="M0 0 C3.64588169 -0.02682987 7.29156846 -0.04675569 10.9375 -0.0625 C12.49887695 -0.07506836 12.49887695 -0.07506836 14.09179688 -0.08789062 C15.57583008 -0.09272461 15.57583008 -0.09272461 17.08984375 -0.09765625 C18.46450806 -0.10551147 18.46450806 -0.10551147 19.86694336 -0.11352539 C22 0 22 0 23 1 C23.09909302 3.33160055 23.12970504 5.66629942 23.125 8 C23.12886719 9.918125 23.12886719 9.918125 23.1328125 11.875 C23 15 23 15 22 16 C20.36527118 16.08700342 18.72685945 16.10701063 17.08984375 16.09765625 C16.10048828 16.09443359 15.11113281 16.09121094 14.09179688 16.08789062 C13.05087891 16.07951172 12.00996094 16.07113281 10.9375 16.0625 C9.89271484 16.05798828 8.84792969 16.05347656 7.77148438 16.04882812 C5.18096546 16.03699927 2.59047578 16.01906319 0 16 C0 10.72 0 5.44 0 0 Z " fill="#0166B1" transform="translate(332,120)"/>
<path d="M0 0 C2.97618378 1.0439537 4.91798249 2.45541006 7.3515625 4.453125 C8.14175781 5.09378906 8.93195313 5.73445313 9.74609375 6.39453125 C10.33777344 6.88824219 10.92945313 7.38195312 11.5390625 7.890625 C10.08955845 12.24710145 7.86159138 15.20819789 4.9140625 18.703125 C4.09679687 19.67894531 3.27953125 20.65476562 2.4375 21.66015625 C1.81101562 22.39621094 1.18453125 23.13226563 0.5390625 23.890625 C-3.66626222 22.36667705 -5.71097916 19.2753385 -8.2109375 15.765625 C-8.82775391 14.92064453 -8.82775391 14.92064453 -9.45703125 14.05859375 C-10.46569835 12.67460866 -11.46433036 11.28331959 -12.4609375 9.890625 C-11.05958543 6.59205782 -9.48048071 4.76036862 -6.6484375 2.578125 C-5.98199219 2.04574219 -5.31554687 1.51335937 -4.62890625 0.96484375 C-2.4609375 -0.109375 -2.4609375 -0.109375 0 0 Z " fill="#534C54" transform="translate(256.4609375,389.109375)"/>
<path d="M0 0 C0 11.88 0 23.76 0 36 C-5.72214733 33.13892633 -8.74903508 28.96505704 -11 23 C-11.95840215 16.12952678 -10.9448408 10.72065338 -7 5 C-2.625 0 -2.625 0 0 0 Z " fill="#F7CC9F" transform="translate(151,186)"/>
</svg>
