<?xml version="1.0" encoding="UTF-8"?>
<svg version="1.1" xmlns="http://www.w3.org/2000/svg" width="512" height="512">
<path d="M0 0 C1.18803223 -0.01260864 2.37606445 -0.02521729 3.60009766 -0.03820801 C4.87933105 -0.03011108 6.15856445 -0.02201416 7.4765625 -0.01367188 C8.79317871 -0.01749878 10.10979492 -0.02132568 11.46630859 -0.02526855 C14.25051684 -0.03115911 17.03421099 -0.02261601 19.81835938 -0.00390625 C23.38305583 0.01888437 26.94654768 0.00575872 30.51119995 -0.01819611 C33.9164168 -0.03614518 37.32131144 -0.02356965 40.7265625 -0.01367188 C42.6454126 -0.02581726 42.6454126 -0.02581726 44.60302734 -0.03820801 C46.38507568 -0.01929504 46.38507568 -0.01929504 48.203125 0 C49.77054443 0.00477356 49.77054443 0.00477356 51.36962891 0.00964355 C54.81846465 0.65086811 56.01745582 1.73467887 58.1015625 4.51757812 C58.27820071 7.35907545 58.24025573 9.80653598 58.0078125 12.61523438 C57.92806426 14.23290602 57.85555043 15.8509474 57.78955078 17.46923828 C57.73737396 18.72501678 57.73737396 18.72501678 57.68414307 20.00616455 C56.90442041 32.60750519 56.90442041 32.60750519 60.85253906 44.15478516 C65.44139589 48.00366617 70.85854094 49.76464256 76.50146484 51.56152344 C80.53197446 53.04353993 83.68222808 55.386788 87.0390625 58.01757812 C87.94422607 58.7056958 87.94422607 58.7056958 88.86767578 59.40771484 C90.62822936 60.75870352 92.3675415 62.13275239 94.1015625 63.51757812 C94.64828613 63.95005859 95.19500977 64.38253906 95.75830078 64.828125 C109.86846506 76.08240895 122.52588492 88.88474573 133.1015625 103.51757812 C133.51180664 104.07815918 133.92205078 104.63874023 134.34472656 105.21630859 C157.15764799 136.72631765 171.93002463 176.88220517 172.33984375 216.01367188 C172.34968292 216.7961731 172.35952209 217.57867432 172.36965942 218.3848877 C173.01745845 283.36386561 148.42058626 336.072506 106.1015625 384.51757812 C104.91298875 385.93334404 103.72527824 387.34983594 102.5390625 388.76757812 C100.1015625 391.51757812 100.1015625 391.51757812 98.1015625 392.51757812 C96.9465625 392.33195312 95.7915625 392.14632813 94.6015625 391.95507812 C90.05808538 391.88813924 87.81870471 393.96603713 84.5390625 396.95507812 C81.1275688 400.41427919 81.1275688 400.41427919 79.9375 404.90429688 C80.25546754 406.39770178 80.59673893 407.88633215 80.9609375 409.36914062 C81.1015625 411.51757812 81.1015625 411.51757812 79.9296875 413.54101562 C78.06608818 415.62725734 76.10729232 417.5679788 74.1015625 419.51757812 C72.78000712 421.03054926 71.46758487 422.55154297 70.1640625 424.08007812 C67.7732591 426.85971549 65.24908232 429.28294698 62.46850586 431.65991211 C58.10157565 435.46260152 54.01414573 439.49420431 49.9453125 443.61132812 C49.1987439 444.36168335 48.45217529 445.11203857 47.6829834 445.88513184 C45.32004225 448.26017733 42.9603888 450.63844629 40.6015625 453.01757812 C37.48995604 456.1559703 34.37492495 459.29090557 31.2578125 462.42382812 C30.20901917 463.48506897 30.20901917 463.48506897 29.13903809 464.56774902 C25.1927712 468.53334764 21.13657742 472.29124877 16.89978027 475.94421387 C14.57493405 477.97835568 12.39354406 480.12935464 10.2265625 482.33007812 C9.38609375 483.17828125 8.545625 484.02648437 7.6796875 484.90039062 C6.82890625 485.7640625 5.978125 486.62773437 5.1015625 487.51757812 C-0.18062478 492.87979855 -5.46653998 498.1345159 -11.1875 503.02978516 C-13.35183308 504.91184078 -15.35719267 506.94131159 -17.3984375 508.95507812 C-20.17991239 511.39781422 -22.21699911 513.10339702 -25.9609375 513.45507812 C-29.37806878 512.97050594 -31.12068205 511.73380283 -33.64453125 509.42382812 C-34.34118896 508.7914624 -35.03784668 508.15909668 -35.75561523 507.50756836 C-36.46274658 506.85087158 -37.16987793 506.1941748 -37.8984375 505.51757812 C-38.56367432 504.90664307 -39.22891113 504.29570801 -39.91430664 503.66625977 C-41.91921406 501.81479795 -43.91082789 499.9500891 -45.8984375 498.08007812 C-46.59904297 497.42265625 -47.29964844 496.76523437 -48.02148438 496.08789062 C-52.10642079 492.2427967 -56.11838204 488.34250983 -60.04664612 484.33692932 C-61.80536005 482.60902502 -63.61815226 481.00856514 -65.49584961 479.41186523 C-70.49601211 475.0615956 -75.1604515 470.3991733 -79.83984375 465.70898438 C-80.76635239 464.78343246 -81.69286102 463.85788055 -82.64744568 462.90428162 C-84.59626111 460.95692957 -86.54328487 459.007809 -88.48901367 457.05737305 C-90.96207611 454.57861418 -93.43960283 452.10437382 -95.91850376 449.63145542 C-98.31139951 447.24307667 -100.70044068 444.85085733 -103.08984375 442.45898438 C-103.96919083 441.58166153 -104.8485379 440.70433868 -105.75453186 439.8004303 C-110.15791362 435.38041646 -114.42358602 430.90347975 -118.47703552 426.15916443 C-120.34629894 424.00034006 -122.34954688 422.00530783 -124.3984375 420.01757812 C-127.74777479 416.70771114 -130.89769706 413.31010863 -133.9609375 409.73632812 C-135.88446527 407.53357858 -137.85948864 405.38444112 -139.84863281 403.2409668 C-144.6855142 398.02698106 -149.27577961 392.68825154 -153.734375 387.14257812 C-155.79629832 384.64147259 -157.9426479 382.26680984 -160.1484375 379.89257812 C-165.95978911 373.5051447 -171.07328012 366.59521051 -176.25195312 359.69482422 C-177.80798368 357.6371907 -179.3870851 355.60021063 -180.9765625 353.56835938 C-206.45086415 320.77066253 -223.85062934 279.89206633 -224.1015625 237.88085938 C-224.10862213 237.08737595 -224.11568176 236.29389252 -224.12295532 235.47636414 C-224.44077257 189.23564786 -214.9512997 144.49427893 -186.8984375 106.51757812 C-186.14304688 105.47988281 -185.38765625 104.4421875 -184.609375 103.37304688 C-178.9837801 95.78103799 -172.81114449 88.78379515 -166.27978516 81.96191406 C-165.05335711 80.67956194 -163.84014263 79.38460152 -162.62890625 78.08789062 C-130.62988785 44.72342246 -81.81906336 23.80772929 -35.83642578 22.42553711 C-32.56473521 22.38440081 -29.29534672 22.38097561 -26.0234375 22.39257812 C-24.9096875 22.38871094 -23.7959375 22.38484375 -22.6484375 22.38085938 C-21.04355469 22.38279297 -21.04355469 22.38279297 -19.40625 22.38476562 C-18.44348145 22.38589355 -17.48071289 22.38702148 -16.48876953 22.38818359 C-14.13850794 22.50558592 -12.14648414 22.84999247 -9.8984375 23.51757812 C-9.91938477 22.96295898 -9.94033203 22.40833984 -9.96191406 21.83691406 C-10.04527298 19.3139879 -10.09715618 16.79135164 -10.1484375 14.26757812 C-10.18195313 13.39488281 -10.21546875 12.5221875 -10.25 11.62304688 C-10.26289063 10.77871094 -10.27578125 9.934375 -10.2890625 9.06445312 C-10.31000977 8.2894043 -10.33095703 7.51435547 -10.35253906 6.71582031 C-9.196749 1.12080219 -5.1433486 0.01566401 0 0 Z " fill="#020101" transform="translate(281.8984375,-0.517578125)"/>
<path d="M0 0 C0 5.61 0 11.22 0 17 C-1.98773438 17.03867187 -1.98773438 17.03867187 -4.015625 17.078125 C-5.76044944 17.13440966 -7.50523983 17.19175692 -9.25 17.25 C-10.55904297 17.27126953 -10.55904297 17.27126953 -11.89453125 17.29296875 C-15.55922042 17.43284238 -18.28925365 17.62729155 -21.5625 19.34375 C-23.94377751 23.7439367 -23.68126187 28.32585065 -23.75 33.25 C-23.77964844 34.28125 -23.80929688 35.3125 -23.83984375 36.375 C-23.91044778 38.91674495 -23.96319009 41.45757783 -24 44 C-25.20011719 44.07476562 -26.40023437 44.14953125 -27.63671875 44.2265625 C-44.23857326 45.45570589 -69.46657383 48.46657383 -82 61 C-82.42392157 65.66052404 -82.42392157 65.66052404 -80.875 69.9375 C-78.12894628 71.49359711 -76.13375936 71.22703007 -73 71 C-69.77349454 69.85312801 -69.77349454 69.85312801 -66.5 68.25 C-52.59831504 62.00921451 -39.43190199 60.20455743 -24 58 C-24 93.64 -24 129.28 -24 166 C-30.6 166 -37.2 166 -44 166 C-44.02505615 163.98608154 -44.0501123 161.97216309 -44.07592773 159.8972168 C-44.15935794 153.24751441 -44.2480495 146.59788973 -44.33933926 139.94829082 C-44.39453281 135.91615716 -44.44794712 131.88401619 -44.49731445 127.85180664 C-44.54501062 123.96141552 -44.59735535 120.07111231 -44.65294075 116.18082619 C-44.6733405 114.69567869 -44.69205751 113.21050711 -44.70907402 111.725317 C-44.73317079 109.64711162 -44.76321796 107.56907192 -44.79467773 105.4909668 C-44.81022202 104.30738083 -44.8257663 103.12379486 -44.84178162 101.90434265 C-44.87536986 98.93363184 -44.87536986 98.93363184 -46 96 C-47.62463842 95.94604522 -49.24978541 95.90722805 -50.875 95.875 C-51.77992188 95.85179687 -52.68484375 95.82859375 -53.6171875 95.8046875 C-56.18806994 95.75675164 -56.18806994 95.75675164 -58 98 C-58.33293744 100.95441801 -58.33293744 100.95441801 -58.31884766 104.46923828 C-58.32889328 105.13277313 -58.3389389 105.79630798 -58.34928894 106.47994995 C-58.38021988 108.67672852 -58.39718312 110.87338469 -58.4140625 113.0703125 C-58.43276623 114.59204163 -58.45233904 116.11376031 -58.4727478 117.63546753 C-58.52415924 121.64343105 -58.56373649 125.65142823 -58.60089111 129.6595459 C-58.64087448 133.74837634 -58.69199259 137.83706568 -58.7421875 141.92578125 C-58.83905348 149.95043176 -58.92239502 157.97514008 -59 166 C-64.28 166 -69.56 166 -75 166 C-75.05607422 162.26236328 -75.05607422 162.26236328 -75.11328125 158.44921875 C-75.15949038 156.0364503 -75.2107261 153.62383739 -75.26245117 151.21118164 C-75.29570863 149.53419441 -75.32373808 147.85709503 -75.34643555 146.17993164 C-75.37996737 143.76920775 -75.43227978 141.35951238 -75.48828125 138.94921875 C-75.49467117 138.19912033 -75.5010611 137.44902191 -75.50764465 136.67619324 C-75.60732122 132.5929896 -75.60732122 132.5929896 -77.40869141 129.02587891 C-80.4960912 127.03550549 -83.42699452 127.71642814 -87 128 C-89.94192784 130.94192784 -89.35537397 134.12190973 -89.4140625 138.0703125 C-89.43342865 138.86654022 -89.4527948 139.66276794 -89.4727478 140.48312378 C-89.53260474 143.03030634 -89.57895279 145.57753395 -89.625 148.125 C-89.66317421 149.8502803 -89.70222561 151.57554143 -89.7421875 153.30078125 C-89.83831109 157.53369876 -89.92231908 161.76670549 -90 166 C-91.33961792 166.02187378 -91.33961792 166.02187378 -92.70629883 166.04418945 C-96.02217278 166.10527077 -99.33721899 166.17942478 -102.65258789 166.26245117 C-104.08704628 166.29569001 -105.52163513 166.32372535 -106.95629883 166.34643555 C-109.01960807 166.38000271 -111.08172303 166.43231413 -113.14453125 166.48828125 C-115.00621948 166.52755737 -115.00621948 166.52755737 -116.90551758 166.56762695 C-120.30260728 167.04228146 -120.96031843 167.38559423 -123 170 C-123.30984132 172.90591101 -123.43745448 175.60193676 -123.43237305 178.51049805 C-123.4425647 179.37900391 -123.45275635 180.24750977 -123.46325684 181.14233398 C-123.49347195 184.01552713 -123.50266575 186.88838737 -123.51171875 189.76171875 C-123.52855912 191.7528444 -123.54670849 193.74395937 -123.56611633 195.73506165 C-123.6136921 200.97767807 -123.64345245 206.22025124 -123.66955566 211.4630127 C-123.69932298 216.81201728 -123.74586642 222.16087267 -123.79101562 227.50976562 C-123.87713494 238.0064325 -123.94444183 248.50313001 -124 259 C-127.16127421 255.16936603 -129.46421076 251.38969252 -131.5 246.875 C-131.80333252 246.20831299 -132.10666504 245.54162598 -132.41918945 244.85473633 C-138.89581723 230.44818023 -143.53539422 214.89338935 -144 199 C-144.02578125 198.2373584 -144.0515625 197.4747168 -144.078125 196.68896484 C-144.46277572 183.81518597 -143.89643223 171.56942289 -141 159 C-140.83902832 158.30100586 -140.67805664 157.60201172 -140.51220703 156.88183594 C-136.52036588 140.32393958 -129.16478689 124.66147358 -119 111 C-118.37609375 110.154375 -117.7521875 109.30875 -117.109375 108.4375 C-112.58917006 102.55755862 -107.53903262 97.39818289 -102.22265625 92.25 C-99.39234126 89.38486567 -99.05588473 88.61473204 -98.6875 84.5625 C-98.6459589 81.02286822 -98.6459589 81.02286822 -100.6875 79.0625 C-103.47456944 77.78195458 -104.95187133 77.6306647 -108 78 C-133.94007836 95.53581621 -150.05392557 132.57299898 -156 162 C-156.20882812 162.99902344 -156.41765625 163.99804688 -156.6328125 165.02734375 C-162.96014368 202.43894475 -153.95969361 242.18828365 -132.6796875 273.53515625 C-130.54086661 276.44441262 -128.31640001 279.23047621 -126 282 C-125.09175673 283.12053387 -124.18423775 284.24165508 -123.27734375 285.36328125 C-118.29131113 291.46277504 -113.20418207 297.10951485 -107 302 C-106.06929688 302.76699219 -105.13859375 303.53398437 -104.1796875 304.32421875 C-74.42397035 328.43620748 -36.92055583 338.27922411 0.94824219 334.72314453 C39.15336348 330.06800963 71.7405608 309.31992731 96 280 C120.02477716 248.89615174 130.25252766 207.93958752 125.33984375 169.140625 C121.83815796 146.03596838 113.01208071 117.83519109 96.48608398 100.40307617 C90.95897974 94.26891461 91.21322165 88.49147113 91.4140625 80.53125 C91.42255219 79.25519897 91.43104187 77.97914795 91.43978882 76.66442871 C91.46756792 73.29658046 91.52131454 69.93124201 91.5880127 66.56408691 C91.64975636 63.11846429 91.67687151 59.67258069 91.70703125 56.2265625 C91.77300696 49.48369011 91.87327879 42.74198972 92 36 C93.27953204 36.95313114 94.55816774 37.90746565 95.83642578 38.86230469 C96.54856232 39.39362 97.26069885 39.9249353 97.99441528 40.47235107 C102.24077307 43.70679131 106.10655046 47.35544678 110 51 C110.81597656 51.76183594 111.63195312 52.52367187 112.47265625 53.30859375 C142.62197191 82.40674468 160.21557644 122.96908886 166 164 C166.18691406 165.20785156 166.37382812 166.41570312 166.56640625 167.66015625 C172.12379076 213.53383929 158.69685134 260.1240581 133 298 C132.52804199 298.69577148 132.05608398 299.39154297 131.56982422 300.10839844 C123.91493182 311.30661451 115.95417504 322.41973167 106.8671875 332.51171875 C106.35615479 333.08696289 105.84512207 333.66220703 105.31860352 334.25488281 C104.34503599 335.34255138 103.35671722 336.41727135 102.35131836 337.47558594 C99.87359099 340.24628016 99.01737211 341.82945446 98.63671875 345.56640625 C98.86899673 348.90170758 98.86899673 348.90170758 99.83984375 351.57421875 C100 354 100 354 97.69140625 356.89453125 C96.66327784 357.88286114 95.61954107 358.85515567 94.5625 359.8125 C94.03333984 360.31458984 93.50417969 360.81667969 92.95898438 361.33398438 C91.65239036 362.56995168 90.32783937 363.78688595 89 365 C88.01 364.67 87.02 364.34 86 364 C81.45704488 363.39345394 81.45704488 363.39345394 77.328125 365.09375 C75.61820291 366.65426142 74.05542201 368.28562975 72.5 370 C71.70529297 370.82951172 71.70529297 370.82951172 70.89453125 371.67578125 C68.13668009 374.58053974 65.50414481 377.57679047 62.90234375 380.62109375 C58.12836121 386.1059544 52.9515455 391.19771408 47.80297852 396.32739258 C46.066064 398.058947 44.33456111 399.79578359 42.60351562 401.53320312 C37.47804242 406.6614329 32.34177771 411.68870257 26.82202148 416.39624023 C23.38096768 419.42508687 20.20851352 422.7288202 17 426 C12.3999344 430.68991063 7.72847197 435.18455832 2.75 439.47265625 C0.73749029 441.22911004 -1.14491895 443.07866605 -3 445 C-6.8219949 448.88266149 -10.85247047 452.47018764 -15 456 C-18.006818 454.66000502 -19.99762609 453.20154709 -22.25 450.8125 C-24.58085498 448.40819371 -26.93810095 446.15533681 -29.5 444 C-34.3863171 439.80082124 -38.86145 435.19093501 -43.36914062 430.59375 C-46.35095722 427.57100034 -49.35510668 424.65400149 -52.58984375 421.90234375 C-58.40559506 416.88497111 -63.76300975 411.38578084 -69.18188477 405.94848633 C-71.05829475 404.06671726 -72.93998969 402.19035262 -74.82226562 400.31445312 C-80.23830659 394.90110282 -85.5915879 389.49829253 -90.55639648 383.66186523 C-92.89793981 380.96629862 -95.44500748 378.49113885 -98 376 C-101.82098147 372.22541532 -105.48844848 368.40697238 -108.96875 364.3125 C-111.26039791 361.703547 -113.63338226 359.1828483 -116.01635742 356.6574707 C-121.46718802 350.88014874 -126.72850679 345.05423458 -131.68359375 338.83984375 C-133.89074637 336.13394163 -136.17317726 333.52187408 -138.49023438 330.91088867 C-160.5571202 305.96041188 -179.30811569 278.66611426 -190 247 C-190.58394531 245.34097656 -190.58394531 245.34097656 -191.1796875 243.6484375 C-193.39021612 237.01685165 -194.85013732 230.28823257 -196.1875 223.4375 C-196.43826294 222.16156982 -196.43826294 222.16156982 -196.6940918 220.85986328 C-205.72565895 172.23550636 -194.00941532 120.63104274 -166.27709961 80.00048828 C-141.2892661 44.2336693 -104.79025551 15.76456323 -62 5 C-61.21141602 4.78714355 -60.42283203 4.57428711 -59.61035156 4.35498047 C-39.75802812 -0.87907842 -20.36073826 -0.49606563 0 0 Z " fill="#FD7F85" transform="translate(272,38)"/>
<path d="M0 0 C28.38 0 56.76 0 86 0 C86.26478209 31.38957727 86.4862571 62.77807289 86.61278395 94.16841908 C86.62779159 97.87823187 86.64332354 101.5880423 86.65917969 105.29785156 C86.66232741 106.0363763 86.66547514 106.77490104 86.66871825 107.53580531 C86.72086794 119.4782091 86.81544449 131.41991639 86.92583355 143.36190763 C87.03823971 155.62481667 87.10474436 167.88736214 87.12906194 180.15076518 C87.14549008 187.71225911 87.19727724 195.27178426 87.2949976 202.83267173 C87.36621488 208.64046399 87.37341627 214.44700825 87.35729218 220.25514984 C87.36058387 222.6303669 87.38432827 225.00566093 87.4304657 227.38043213 C87.79630662 247.18847469 87.79630662 247.18847469 81.80139279 253.76599383 C79.33072094 256.08841791 76.77439525 258.04401901 74 260 C73.29920696 260.57027546 72.59841393 261.14055092 71.87638474 261.72810745 C70.2710338 263.02422601 68.57581703 264.20696902 66.875 265.375 C66.2864624 265.77944336 65.6979248 266.18388672 65.09155273 266.60058594 C63.40492519 267.7493782 61.70290525 268.87547795 60 270 C59.14792969 270.57492187 58.29585938 271.14984375 57.41796875 271.7421875 C41.27673625 282.07471776 19.09997311 289 0 289 C0 193.63 0 98.26 0 0 Z " fill="#FEFDFE" transform="translate(263,70)"/>
<path d="M0 0 C6.39079525 4.79309644 12.19907304 9.56990856 18 15 C19.22396484 16.14275391 19.22396484 16.14275391 20.47265625 17.30859375 C50.62197191 46.40674468 68.21557644 86.96908886 74 128 C74.28037109 129.81177734 74.28037109 129.81177734 74.56640625 131.66015625 C80.12379076 177.53383929 66.69685134 224.1240581 41 262 C40.52804199 262.69577148 40.05608398 263.39154297 39.56982422 264.10839844 C31.91493182 275.30661451 23.95417504 286.41973167 14.8671875 296.51171875 C14.35615479 297.08696289 13.84512207 297.66220703 13.31860352 298.25488281 C12.34503599 299.34255138 11.35671722 300.41727135 10.35131836 301.47558594 C7.87359099 304.24628016 7.01737211 305.82945446 6.63671875 309.56640625 C6.86899673 312.90170758 6.86899673 312.90170758 7.83984375 315.57421875 C8 318 8 318 5.69140625 320.89453125 C4.66327784 321.88286114 3.61954107 322.85515567 2.5625 323.8125 C2.03333984 324.31458984 1.50417969 324.81667969 0.95898438 325.33398438 C-0.34760964 326.56995168 -1.67216063 327.78688595 -3 329 C-3.99 328.67 -4.98 328.34 -6 328 C-10.54295512 327.39345394 -10.54295512 327.39345394 -14.671875 329.09375 C-16.38179709 330.65426142 -17.94457799 332.28562975 -19.5 334 C-20.02980469 334.55300781 -20.55960937 335.10601562 -21.10546875 335.67578125 C-23.86331991 338.58053974 -26.49585519 341.57679047 -29.09765625 344.62109375 C-33.87163879 350.1059544 -39.0484545 355.19771408 -44.19702148 360.32739258 C-45.933936 362.058947 -47.66543889 363.79578359 -49.39648438 365.53320312 C-54.52195758 370.6614329 -59.65822229 375.68870257 -65.17797852 380.39624023 C-68.61903232 383.42508687 -71.79148648 386.7288202 -75 390 C-79.6000656 394.68991063 -84.27152803 399.18455832 -89.25 403.47265625 C-91.26250971 405.22911004 -93.14491895 407.07866605 -95 409 C-98.8219949 412.88266149 -102.85247047 416.47018764 -107 420 C-110.06713244 418.63757574 -112.11840293 417.10300295 -114.4375 414.6875 C-115.035625 414.07132812 -115.63375 413.45515625 -116.25 412.8203125 C-116.8275 412.21960938 -117.405 411.61890625 -118 411 C-118.97672182 410.01839457 -119.95554767 409.03887306 -120.9375 408.0625 C-121.618125 407.381875 -122.29875 406.70125 -123 406 C-122.53851563 405.59910156 -122.07703125 405.19820313 -121.6015625 404.78515625 C-119.39577257 402.86271878 -117.19764966 400.93173858 -115 399 C-114.28982224 398.37859634 -113.57964447 397.75719269 -112.84794617 397.11695862 C-105.32825992 390.45102087 -98.24045876 383.38627601 -91.14453125 376.27734375 C-89.83052363 374.9640116 -88.51636775 373.65082777 -87.20207214 372.33778381 C-84.46487648 369.60205261 -81.72947236 366.86454633 -78.99536133 364.12573242 C-75.50897816 360.63364139 -72.01810811 357.14607562 -68.52588367 353.65982723 C-65.81731005 350.95488351 -63.11114276 348.24754241 -60.40567589 345.53949165 C-59.11993253 344.25308632 -57.83346012 342.9674092 -56.54621315 341.68250847 C-47.69607368 332.87241351 -47.69607368 332.87241351 -39.35035706 323.58847046 C-37.03728307 320.86752367 -34.56743134 318.29182871 -32.125 315.6875 C-27.67222953 310.89508794 -23.40404975 306.00591374 -19.31640625 300.89453125 C-17.67866944 298.84805069 -16.02538615 296.83012862 -14.33984375 294.82421875 C-1.11643643 278.92580417 10.50470124 261.3740853 20 243 C20.58652344 241.89140625 21.17304688 240.7828125 21.77734375 239.640625 C29.93096006 223.29641452 35.96656892 205.00618769 39 187 C39.26248535 185.55584717 39.26248535 185.55584717 39.53027344 184.08251953 C41.15579736 174.2110723 41.3391119 164.49159067 41.31567383 154.50610352 C41.3125166 151.70223956 41.33605157 148.89943742 41.36132812 146.09570312 C41.40145504 134.7218186 40.40125147 124.11125215 38 113 C37.80656006 112.02699951 37.61312012 111.05399902 37.41381836 110.05151367 C31.67327291 81.67265359 19.35674159 55.14232212 2 32 C1.67 40.58 1.34 49.16 1 58 C0.67 58 0.34 58 0 58 C0 38.86 0 19.72 0 0 Z " fill="#E3636D" transform="translate(364,74)"/>
<path d="M0 0 C28.05 0 56.1 0 85 0 C85 46.2 85 92.4 85 140 C54.36337485 140 25.46731234 123.81182189 4 103 C3.29659485 102.48564392 2.5931897 101.97128784 1.86846924 101.44134521 C-1.01647935 97.67186629 -0.52702397 94.07915881 -0.45410156 89.45800781 C-0.45468567 88.49182022 -0.45526978 87.52563263 -0.45587158 86.53016663 C-0.45308547 83.33745361 -0.42196785 80.14567486 -0.390625 76.953125 C-0.38316451 74.73924266 -0.37747067 72.52535371 -0.37347412 70.3114624 C-0.35820283 64.48502362 -0.31890768 58.6589838 -0.2746582 52.83270264 C-0.22654327 45.84186549 -0.20817865 38.85089492 -0.18484497 31.85993958 C-0.14605806 21.23968225 -0.06941373 10.62030029 0 0 Z " fill="#847D86" transform="translate(163,219)"/>
<path d="M0 0 C0 35.64 0 71.28 0 108 C-6.6 108 -13.2 108 -20 108 C-20.02505615 105.98608154 -20.0501123 103.97216309 -20.07592773 101.8972168 C-20.15935794 95.24751441 -20.2480495 88.59788973 -20.33933926 81.94829082 C-20.39453281 77.91615716 -20.44794712 73.88401619 -20.49731445 69.85180664 C-20.54501062 65.96141552 -20.59735535 62.07111231 -20.65294075 58.18082619 C-20.6733405 56.69567869 -20.69205751 55.21050711 -20.70907402 53.725317 C-20.73317079 51.64711162 -20.76321796 49.56907192 -20.79467773 47.4909668 C-20.81799416 45.71558784 -20.81799416 45.71558784 -20.84178162 43.90434265 C-20.87536986 40.93363184 -20.87536986 40.93363184 -22 38 C-23.62463842 37.94604522 -25.24978541 37.90722805 -26.875 37.875 C-28.23238281 37.84019531 -28.23238281 37.84019531 -29.6171875 37.8046875 C-32.18806994 37.75675164 -32.18806994 37.75675164 -34 40 C-34.33293744 42.95441801 -34.33293744 42.95441801 -34.31884766 46.46923828 C-34.32889328 47.13277313 -34.3389389 47.79630798 -34.34928894 48.47994995 C-34.38021988 50.67672852 -34.39718312 52.87338469 -34.4140625 55.0703125 C-34.43276623 56.59204163 -34.45233904 58.11376031 -34.4727478 59.63546753 C-34.52415924 63.64343105 -34.56373649 67.65142823 -34.60089111 71.6595459 C-34.64087448 75.74837634 -34.69199259 79.83706568 -34.7421875 83.92578125 C-34.83905348 91.95043176 -34.92239502 99.97514008 -35 108 C-40.28 108 -45.56 108 -51 108 C-51.05607422 104.26236328 -51.05607422 104.26236328 -51.11328125 100.44921875 C-51.15949038 98.0364503 -51.2107261 95.62383739 -51.26245117 93.21118164 C-51.29570863 91.53419441 -51.32373808 89.85709503 -51.34643555 88.17993164 C-51.37996737 85.76920775 -51.43227978 83.35951238 -51.48828125 80.94921875 C-51.49467117 80.19912033 -51.5010611 79.44902191 -51.50764465 78.67619324 C-51.60732122 74.5929896 -51.60732122 74.5929896 -53.40869141 71.02587891 C-56.4960912 69.03550549 -59.42699452 69.71642814 -63 70 C-65.94192784 72.94192784 -65.35537397 76.12190973 -65.4140625 80.0703125 C-65.43342865 80.86654022 -65.4527948 81.66276794 -65.4727478 82.48312378 C-65.53260474 85.03030634 -65.57895279 87.57753395 -65.625 90.125 C-65.66317421 91.8502803 -65.70222561 93.57554143 -65.7421875 95.30078125 C-65.83831109 99.53369876 -65.92231908 103.76670549 -66 108 C-66.89307861 108.01458252 -67.78615723 108.02916504 -68.70629883 108.04418945 C-72.02217278 108.10527077 -75.33721899 108.17942478 -78.65258789 108.26245117 C-80.08704628 108.29569001 -81.52163513 108.32372535 -82.95629883 108.34643555 C-85.01960807 108.38000271 -87.08172303 108.43231413 -89.14453125 108.48828125 C-91.00621948 108.52755737 -91.00621948 108.52755737 -92.90551758 108.56762695 C-96.30260728 109.04228146 -96.96031843 109.38559423 -99 112 C-99.30984132 114.90591101 -99.43745448 117.60193676 -99.43237305 120.51049805 C-99.4425647 121.37900391 -99.45275635 122.24750977 -99.46325684 123.14233398 C-99.49347195 126.01552713 -99.50266575 128.88838737 -99.51171875 131.76171875 C-99.52855912 133.7528444 -99.54670849 135.74395937 -99.56611633 137.73506165 C-99.6136921 142.97767807 -99.64345245 148.22025124 -99.66955566 153.4630127 C-99.69932298 158.81201728 -99.74586642 164.16087267 -99.79101562 169.50976562 C-99.87713494 180.0064325 -99.94444183 190.50313001 -100 201 C-103.16127421 197.16936603 -105.46421076 193.38969252 -107.5 188.875 C-107.80333252 188.20831299 -108.10666504 187.54162598 -108.41918945 186.85473633 C-114.89581723 172.44818023 -119.53539422 156.89338935 -120 141 C-120.02578125 140.2373584 -120.0515625 139.4747168 -120.078125 138.68896484 C-120.46277572 125.81518597 -119.89643223 113.56942289 -117 101 C-116.83902832 100.30100586 -116.67805664 99.60201172 -116.51220703 98.88183594 C-112.52036588 82.32393958 -105.16478689 66.66147358 -95 53 C-94.37609375 52.154375 -93.7521875 51.30875 -93.109375 50.4375 C-88.58917006 44.55755862 -83.53903262 39.39818289 -78.22265625 34.25 C-75.9738269 32.20633893 -75.9738269 32.20633893 -75 30 C-75.18483156 28.60381082 -75.37274652 27.20802877 -75.5625 25.8125 C-75.609375 23.38671875 -75.609375 23.38671875 -75 21 C-72.02829259 18.03396379 -68.64186686 16.05220527 -65 14 C-64.11570313 13.42378906 -63.23140625 12.84757812 -62.3203125 12.25390625 C-61.55460937 11.84011719 -60.78890625 11.42632812 -60 11 C-57.5625 11.8125 -57.5625 11.8125 -55 13 C-50.07794181 13.4398435 -46.9300258 12.34080657 -42.5 10.25 C-29.56199432 4.42103378 -14.32713498 0 0 0 Z " fill="#C1DAFC" transform="translate(248,96)"/>
<path d="M0 0 C28.38 0 56.76 0 86 0 C86.26478209 31.38957727 86.4862571 62.77807289 86.61278395 94.16841908 C86.62779159 97.87823187 86.64332354 101.5880423 86.65917969 105.29785156 C86.66232741 106.0363763 86.66547514 106.77490104 86.66871825 107.53580531 C86.72086794 119.4782091 86.81544449 131.41991639 86.92583355 143.36190763 C87.03823971 155.62481667 87.10474436 167.88736214 87.12906194 180.15076518 C87.14549008 187.71225911 87.19727724 195.27178426 87.2949976 202.83267173 C87.36621488 208.64046399 87.37341627 214.44700825 87.35729218 220.25514984 C87.36058387 222.6303669 87.38432827 225.00566093 87.4304657 227.38043213 C87.79630662 247.18847469 87.79630662 247.18847469 81.80139279 253.76599383 C79.33072094 256.08841791 76.77439525 258.04401901 74 260 C73.29920696 260.57027546 72.59841393 261.14055092 71.87638474 261.72810745 C70.2710338 263.02422601 68.57581703 264.20696902 66.875 265.375 C66.2864624 265.77944336 65.6979248 266.18388672 65.09155273 266.60058594 C63.40492519 267.7493782 61.70290525 268.87547795 60 270 C59.14792969 270.57492187 58.29585938 271.14984375 57.41796875 271.7421875 C44.30284035 280.13760966 27.36658382 285.77052684 12 288 C13.66991746 284.66016508 17.4563156 283.88362834 20.75 282.4375 C28.87131805 278.74204034 35.87414409 274.40843924 43 269 C43.91652344 268.30648438 44.83304687 267.61296875 45.77734375 266.8984375 C57.66033309 257.97293683 57.66033309 257.97293683 63.3293457 244.74829102 C63.51386567 242.35101358 63.61971904 239.96581901 63.6875 237.5625 C63.72166016 236.73556641 63.75582031 235.90863281 63.79101562 235.05664062 C63.87268621 233.03821056 63.93803724 231.01913116 64 229 C63.49782959 229.32234619 62.99565918 229.64469238 62.47827148 229.97680664 C59.12319653 231.3620021 55.92228422 231.34399415 52.34765625 231.37109375 C51.2419352 231.38463646 51.2419352 231.38463646 50.11387634 231.39845276 C48.55813645 231.41292911 47.00233604 231.4218355 45.4465332 231.42553711 C43.0733349 231.43744563 40.70272895 231.48665886 38.33007812 231.53710938 C36.8151168 231.54657331 35.30013958 231.55380849 33.78515625 231.55859375 C33.0798024 231.57812607 32.37444855 231.59765839 31.64772034 231.61778259 C27.76606066 231.58243488 26.12299766 231.09753445 23.04467773 228.65649414 C21 226 21 226 20.5 222.9375 C21.07640738 219.55110666 21.48491094 218.33362922 24 216 C26.89070973 215.631775 29.3949607 215.5097986 32.28125 215.57421875 C33.0911438 215.57750687 33.9010376 215.58079498 34.73547363 215.58418274 C36.4469405 215.59460167 38.15837202 215.61454858 39.86962891 215.64331055 C42.49010616 215.68733379 45.10966769 215.70473873 47.73046875 215.71679688 C49.39324238 215.73022346 51.05600474 215.74514712 52.71875 215.76171875 C53.50318481 215.76910568 54.28761963 215.77649261 55.0958252 215.78410339 C58.31000738 215.84055044 60.93022886 215.97674295 64 217 C64 201.49 64 185.98 64 170 C63.01 170.66 62.02 171.32 61 172 C58.29001005 172.23182042 55.68511375 172.35193963 52.97265625 172.37109375 C52.18733017 172.38012222 51.40200409 172.3891507 50.59288025 172.39845276 C48.93280854 172.41295179 47.27267974 172.42184114 45.61254883 172.42553711 C43.07470433 172.43744275 40.53928503 172.48663358 38.00195312 172.53710938 C36.38803269 172.54657292 34.77409734 172.55380829 33.16015625 172.55859375 C32.4027565 172.57812607 31.64535675 172.59765839 30.86500549 172.61778259 C27.0402387 172.58507699 25.34742718 172.31951406 22.48999023 169.69165039 C21 167 21 167 21 163.375 C22 160 22 160 23.58203125 158.31176758 C26.91516032 156.50351813 29.99165021 156.58881288 33.6875 156.63671875 C34.42701904 156.63622025 35.16653809 156.63572174 35.9284668 156.63520813 C37.48847141 156.63754353 39.04848016 156.64724061 40.60839844 156.66381836 C42.99188037 156.6874196 45.37424329 156.68437453 47.7578125 156.67773438 C49.27604831 156.68331141 50.79427943 156.69042146 52.3125 156.69921875 C53.02301514 156.69830734 53.73353027 156.69739594 54.46557617 156.69645691 C58.44163674 156.75323635 60.32920426 157.16460213 64 159 C64 143.49 64 127.98 64 112 C62.02 112.99 62.02 112.99 60 114 C57.32971552 114.22704655 54.76547589 114.35153083 52.09375 114.37109375 C51.33203491 114.38012222 50.57031982 114.3891507 49.78552246 114.39845276 C48.17850665 114.41292973 46.57143223 114.42183565 44.96435547 114.42553711 C42.50778296 114.43746222 40.05370106 114.48668987 37.59765625 114.53710938 C36.03386639 114.54657117 34.47006116 114.55380737 32.90625 114.55859375 C32.17386108 114.57812607 31.44147217 114.59765839 30.68688965 114.61778259 C26.89935336 114.58430017 25.32340467 114.30772814 22.53710938 111.65649414 C20.65873962 108.41022012 20.37157309 106.69200811 21 103 C22.52124023 100.84521484 22.52124023 100.84521484 25 99 C27.85419425 98.62635047 30.31242808 98.48502922 33.16015625 98.5390625 C33.94643906 98.53997894 34.73272186 98.54089539 35.54283142 98.5418396 C37.2012233 98.5478697 38.85960458 98.56359817 40.51782227 98.58837891 C43.05721099 98.62492388 45.59514118 98.6293979 48.13476562 98.62890625 C49.74740845 98.63873657 51.3600414 98.65039321 52.97265625 98.6640625 C53.73208023 98.66628815 54.49150421 98.66851379 55.27394104 98.67080688 C59.03953571 98.73870855 60.79074176 98.86049451 64 101 C64 85.49 64 69.98 64 54 C62.68 54.66 61.36 55.32 60 56 C57.41322149 56.22672023 54.93581573 56.35147266 52.34765625 56.37109375 C51.61050888 56.38012222 50.87336151 56.3891507 50.11387634 56.39845276 C48.55813645 56.41292911 47.00233604 56.4218355 45.4465332 56.42553711 C43.0733349 56.43744563 40.70272895 56.48665886 38.33007812 56.53710938 C36.8151168 56.54657331 35.30013958 56.55380849 33.78515625 56.55859375 C33.0798024 56.57812607 32.37444855 56.59765839 31.64772034 56.61778259 C27.76606066 56.58243488 26.12299766 56.09753445 23.04467773 53.65649414 C21 51 21 51 20.5 47.9375 C21.07640738 44.55110666 21.48491094 43.33362922 24 41 C26.89070973 40.631775 29.3949607 40.5097986 32.28125 40.57421875 C33.4960907 40.57915092 33.4960907 40.57915092 34.73547363 40.58418274 C36.4469405 40.59460167 38.15837202 40.61454858 39.86962891 40.64331055 C42.49010616 40.68733379 45.10966769 40.70473873 47.73046875 40.71679688 C49.39324238 40.73022346 51.05600474 40.74514712 52.71875 40.76171875 C53.50318481 40.76910568 54.28761963 40.77649261 55.0958252 40.78410339 C58.31000738 40.84055044 60.93022886 40.97674295 64 42 C64 28.47 64 14.94 64 1 C42.88 1 21.76 1 0 1 C0 0.67 0 0.34 0 0 Z " fill="#EEECEE" transform="translate(263,70)"/>
<path d="M0 0 C6.6 0 13.2 0 20 0 C20 46.2 20 92.4 20 140 C12.125 140 12.125 140 8.81640625 139.34375 C8.11708984 139.20839844 7.41777344 139.07304687 6.69726562 138.93359375 C5.99279297 138.79050781 5.28832031 138.64742187 4.5625 138.5 C3.83095703 138.35691406 3.09941406 138.21382812 2.34570312 138.06640625 C0.56264514 137.71678704 -1.21885203 137.35922312 -3 137 C-2.01 136.67 -1.02 136.34 0 136 C0 125.77 0 115.54 0 105 C-1.65 105.99 -3.3 106.98 -5 108 C-8.125 107.9375 -8.125 107.9375 -11 107 C-15.20876005 102.55714324 -14.51498214 97.79808628 -14.5 92 C-14.52835938 91.00226563 -14.55671875 90.00453125 -14.5859375 88.9765625 C-14.60549549 81.68143222 -14.60549549 81.68143222 -11.6328125 78.3359375 C-8.73384922 76.8649502 -7.19817568 76.49502489 -4 77 C-3.01 77.66 -2.02 78.32 -1 79 C-0.67 69.76 -0.34 60.52 0 51 C-0.99 51.66 -1.98 52.32 -3 53 C-4.9375 53.3359375 -4.9375 53.3359375 -7 53.375 C-7.680625 53.40335937 -8.36125 53.43171875 -9.0625 53.4609375 C-11 53 -11 53 -12.59179688 51.28759766 C-15.11375928 47.19072045 -14.5121211 42.69086491 -14.5 38 C-14.52835938 37.00226563 -14.55671875 36.00453125 -14.5859375 34.9765625 C-14.60541497 27.71146555 -14.60541497 27.71146555 -11.703125 24.30078125 C-8.08640266 22.56036429 -5.83312485 23.04171879 -2 24 C-1.67 24.33 -1.34 24.66 -1 25 C-0.67 16.75 -0.34 8.5 0 0 Z " fill="#5B515D" transform="translate(228,219)"/>
<path d="M0 0 C3.28457368 3.28457368 4.95679067 6.60512556 6.875 10.75 C7.22651123 11.50716309 7.57802246 12.26432617 7.94018555 13.04443359 C13.36379089 24.96715381 16.83099968 37.10324137 19 50 C19.18691406 51.06992188 19.37382812 52.13984375 19.56640625 53.2421875 C21.07868754 66.34862536 20.6354325 80.09141659 18 93 C17.82855469 94.12535156 17.65710938 95.25070313 17.48046875 96.41015625 C14.98573597 111.45902819 8.88697805 125.97453624 1 139 C0.67 139 0.34 139 0 139 C0 93.13 0 47.26 0 0 Z " fill="#BED8F9" transform="translate(364,158)"/>
<path d="M0 0 C12.54 0 25.08 0 38 0 C38 13.2 38 26.4 38 40 C25.46 40 12.92 40 0 40 C0 26.8 0 13.6 0 0 Z " fill="#C4C1C5" transform="translate(287,15)"/>
<path d="M0 0 C1.21128319 -0.00574036 1.21128319 -0.00574036 2.44703674 -0.01159668 C4.15423835 -0.01431753 5.86148152 -0.00694409 7.56860352 0.00976562 C10.17884627 0.03114712 12.78632811 0.0099865 15.39648438 -0.015625 C17.05599565 -0.01298121 18.71550521 -0.00785516 20.375 0 C21.15427353 -0.00809692 21.93354706 -0.01619385 22.73643494 -0.02453613 C26.28535934 0.03669565 28.35621046 0.23566054 31.24243164 2.38085938 C32.75390625 4.53125 32.75390625 4.53125 33.31640625 7.46875 C32.55104389 11.63572285 31.04530714 12.90848303 27.75390625 15.53125 C24.96106273 16.03186116 22.78763576 16.23543481 20.00390625 16.1953125 C18.90030762 16.20248795 18.90030762 16.20248795 17.77441406 16.20980835 C16.22458752 16.2131988 14.67468864 16.20405592 13.125 16.18310547 C10.76008839 16.15632002 8.39992123 16.18287417 6.03515625 16.21484375 C4.52472917 16.21153949 3.01430502 16.2051329 1.50390625 16.1953125 C0.45058105 16.21049423 0.45058105 16.21049423 -0.62402344 16.22598267 C-4.48205592 16.13443395 -6.14455929 15.61205115 -9.19921875 13.18115234 C-11.24609375 10.53125 -11.24609375 10.53125 -11.74609375 7.46875 C-10.51376903 0.22884229 -6.62945758 -0.06870391 0 0 Z " fill="#090909" transform="translate(295.24609375,285.46875)"/>
<path d="M0 0 C1.21128319 -0.00574036 1.21128319 -0.00574036 2.44703674 -0.01159668 C4.15423835 -0.01431753 5.86148152 -0.00694409 7.56860352 0.00976562 C10.17884627 0.03114712 12.78632811 0.0099865 15.39648438 -0.015625 C17.05599565 -0.01298121 18.71550521 -0.00785516 20.375 0 C21.15427353 -0.00809692 21.93354706 -0.01619385 22.73643494 -0.02453613 C26.28535934 0.03669565 28.35621046 0.23566054 31.24243164 2.38085938 C32.75390625 4.53125 32.75390625 4.53125 33.31640625 7.46875 C32.55104389 11.63572285 31.04530714 12.90848303 27.75390625 15.53125 C24.96106273 16.03186116 22.78763576 16.23543481 20.00390625 16.1953125 C18.90030762 16.20248795 18.90030762 16.20248795 17.77441406 16.20980835 C16.22458752 16.2131988 14.67468864 16.20405592 13.125 16.18310547 C10.76008839 16.15632002 8.39992123 16.18287417 6.03515625 16.21484375 C4.52472917 16.21153949 3.01430502 16.2051329 1.50390625 16.1953125 C0.45058105 16.21049423 0.45058105 16.21049423 -0.62402344 16.22598267 C-4.48205592 16.13443395 -6.14455929 15.61205115 -9.19921875 13.18115234 C-11.24609375 10.53125 -11.24609375 10.53125 -11.74609375 7.46875 C-10.51376903 0.22884229 -6.62945758 -0.06870391 0 0 Z " fill="#090909" transform="translate(295.24609375,110.46875)"/>
<path d="M0 0 C1.1758667 -0.00574036 1.1758667 -0.00574036 2.37548828 -0.01159668 C4.02963549 -0.01431353 5.68382583 -0.0069681 7.33789062 0.00976562 C9.86686162 0.03118108 12.39299214 0.00995903 14.921875 -0.015625 C16.53125626 -0.01298168 18.14063575 -0.00785661 19.75 0 C20.5042627 -0.00809692 21.25852539 -0.01619385 22.03564453 -0.02453613 C25.52966835 0.03772927 27.5141461 0.26132216 30.34765625 2.38085938 C31.875 4.53125 31.875 4.53125 32.4375 7.46875 C31.67067811 11.64366919 30.18128812 12.91072061 26.875 15.53125 C24.00304074 16.03113125 21.7346734 16.23516623 18.87109375 16.1953125 C18.11079361 16.20009613 17.35049347 16.20487976 16.56715393 16.20980835 C14.96605347 16.2131991 13.36488301 16.20405421 11.76391602 16.18310547 C9.31565069 16.15628452 6.8719531 16.18289352 4.42382812 16.21484375 C2.86457324 16.21154022 1.30532119 16.20513515 -0.25390625 16.1953125 C-0.98315811 16.20543365 -1.71240997 16.21555481 -2.46376038 16.22598267 C-6.23251562 16.13917885 -7.8195099 15.82300987 -10.58569336 13.18115234 C-12.46922136 9.93867607 -12.75327199 8.22234793 -12.125 4.53125 C-8.85883266 -0.07907082 -5.26172821 -0.05648405 0 0 Z " fill="#040404" transform="translate(296.125,168.46875)"/>
<path d="M0 0 C1.10572105 -0.00786278 1.10572105 -0.00786278 2.23377991 -0.0158844 C3.78954817 -0.02229444 5.34536496 -0.02098072 6.90112305 -0.01245117 C9.27415825 -0.00394567 11.64478089 -0.03270426 14.01757812 -0.06445312 C15.53255137 -0.06606551 17.04752885 -0.06548689 18.5625 -0.0625 C19.62053078 -0.07935097 19.62053078 -0.07935097 20.69993591 -0.09654236 C24.26253777 -0.04646784 26.25362128 0.37473341 29.29907227 2.28100586 C31.34765625 4.43359375 31.34765625 4.43359375 31.91015625 7.37109375 C31.20004447 11.2372579 30.19823505 12.72430549 27.34765625 15.43359375 C24.44122848 15.94244903 22.1266853 16.13662427 19.22265625 16.09765625 C18.04678955 16.1048317 18.04678955 16.1048317 16.84716797 16.1121521 C15.19301339 16.11554817 13.53879144 16.10636589 11.88476562 16.08544922 C9.35524615 16.05867409 6.83016301 16.08520115 4.30078125 16.1171875 C2.69139647 16.11388334 1.08201445 16.10747697 -0.52734375 16.09765625 C-1.65873779 16.11283798 -1.65873779 16.11283798 -2.81298828 16.12832642 C-6.61930232 16.04353819 -8.32286173 15.73773594 -11.16015625 13.11865234 C-12.65234375 10.43359375 -12.65234375 10.43359375 -12.65234375 6.80859375 C-10.67054045 0.12000761 -6.32074966 -0.02623128 0 0 Z " fill="#040404" transform="translate(296.65234375,226.56640625)"/>
<path d="M0 0 C4.95 0 9.9 0 15 0 C15 13.2 15 26.4 15 40 C10.05 40 5.1 40 0 40 C0 26.8 0 13.6 0 0 Z " fill="#D8D6D9" transform="translate(287,15)"/>
<path d="M0 0 C2.82980874 2.06226002 4.72147108 3.6857917 5.46728516 7.20483398 C5.63755353 9.82033112 5.63274277 12.3801344 5.5625 15 C5.57345703 15.88945312 5.58441406 16.77890625 5.59570312 17.6953125 C5.54841751 21.91949421 5.37357778 24.38367548 3.1484375 28.0546875 C0.34447066 30.59355202 -1.21571696 31.15446053 -5 31 C-8.03169701 28.92380101 -9.74683768 27.26799515 -10.48120117 23.58984375 C-10.67403589 20.68985678 -10.68178707 17.84310523 -10.625 14.9375 C-10.64433594 13.94427734 -10.66367188 12.95105469 -10.68359375 11.92773438 C-10.63496081 4.70574333 -10.63496081 4.70574333 -7.6171875 1.3515625 C-4.62860353 -0.19179579 -3.29279266 -0.74087835 0 0 Z " fill="#030303" transform="translate(224,296)"/>
<path d="M0 0 C3.53916405 1.2048218 4.7410495 1.95840365 6.9375 5 C7.53733524 8.320694 7.49549047 11.57163619 7.4375 14.9375 C7.45296875 15.83146484 7.4684375 16.72542969 7.484375 17.64648438 C7.45916463 21.89127964 7.32106947 24.36504251 5.08984375 28.05859375 C2.28223317 30.5910483 0.72056006 31.15441061 -3.0625 31 C-6.09419701 28.92380101 -7.80933768 27.26799515 -8.54370117 23.58984375 C-8.73653589 20.68985678 -8.74428707 17.84310523 -8.6875 14.9375 C-8.70683594 13.94427734 -8.72617188 12.95105469 -8.74609375 11.92773438 C-8.69759706 4.72597618 -8.69759706 4.72597618 -5.71484375 1.31640625 C-3.0625 0 -3.0625 0 0 0 Z " fill="#030303" transform="translate(189.0625,296)"/>
<path d="M0 0 C2.14114095 1.83313459 2.9061329 3.33388102 3.29882812 6.12060547 C3.44141707 8.73318626 3.45815968 11.3212328 3.4375 13.9375 C3.45748047 14.83146484 3.47746094 15.72542969 3.49804688 16.64648438 C3.49491759 20.86162923 3.35544709 23.3799249 1.2265625 27.09375 C-1.1325341 29.11346779 -2.01095464 29.66245428 -5.0625 29.5625 C-9 29 -9 29 -10.71679688 27.28125 C-13.05168947 23.13032983 -12.51203464 18.65740532 -12.5 14 C-12.52835938 13.00226563 -12.55671875 12.00453125 -12.5859375 10.9765625 C-12.60542964 3.70599253 -12.60542964 3.70599253 -9.6953125 0.3125 C-5.9967045 -1.48856129 -3.90457617 -1.15691146 0 0 Z " fill="#020203" transform="translate(226,243)"/>
<path d="M0 0 C2.14114095 1.83313459 2.9061329 3.33388102 3.29882812 6.12060547 C3.44141707 8.73318626 3.45815968 11.3212328 3.4375 13.9375 C3.45748047 14.83146484 3.47746094 15.72542969 3.49804688 16.64648438 C3.49491759 20.86162923 3.35544709 23.3799249 1.2265625 27.09375 C-1.1325341 29.11346779 -2.01095464 29.66245428 -5.0625 29.5625 C-9 29 -9 29 -10.71679688 27.28125 C-13.05168947 23.13032983 -12.51203464 18.65740532 -12.5 14 C-12.52835938 13.00226563 -12.55671875 12.00453125 -12.5859375 10.9765625 C-12.60542964 3.70599253 -12.60542964 3.70599253 -9.6953125 0.3125 C-5.9967045 -1.48856129 -3.90457617 -1.15691146 0 0 Z " fill="#030303" transform="translate(193,243)"/>
</svg>
