<?xml version="1.0" encoding="UTF-8"?>
<svg version="1.1" xmlns="http://www.w3.org/2000/svg" width="512" height="512">
<path d="M0 0 C2.11132985 -0.0096551 4.22166404 -0.04067933 6.33276367 -0.07226562 C15.40986883 -0.14483521 24.10168557 0.06368367 31.26049805 6.30273438 C32.18282227 7.06263672 32.18282227 7.06263672 33.1237793 7.83789062 C38.5369972 14.96664653 39.54459235 22.7288925 39.4440918 31.43554688 C39.44554703 32.46783417 39.44700226 33.50012146 39.44850159 34.56369019 C39.44685246 36.73015181 39.43540294 38.89662638 39.41455078 41.06298828 C39.38551361 44.36346506 39.3939804 47.66233993 39.40698242 50.96289062 C39.40074608 53.07878378 39.39235595 55.19467191 39.3815918 57.31054688 C39.38452744 58.28782745 39.38746307 59.26510803 39.39048767 60.27200317 C39.2662471 69.36282239 37.03423052 75.84214169 30.79956055 82.60742188 C28.38376106 84.73781045 26.09155076 85.62685824 22.94799805 86.24023438 C22.94799805 87.89023437 22.94799805 89.54023438 22.94799805 91.24023438 C23.91479492 91.21703125 24.8815918 91.19382812 25.87768555 91.16992188 C38.5503 90.99426187 47.27250904 92.03183079 57.94799805 99.24023438 C59.43299805 100.23023438 59.43299805 100.23023438 60.94799805 101.24023438 C61.6750293 100.64275391 61.6750293 100.64275391 62.41674805 100.03320312 C73.49969152 91.27341511 84.12743268 91.06771692 97.94799805 91.24023438 C97.61799805 90.25023437 97.28799805 89.26023437 96.94799805 88.24023438 C95.95799805 88.57023437 94.96799805 88.90023437 93.94799805 89.24023438 C83.79555023 90.09798966 77.07085448 88.68831082 68.69799805 83.05273438 C62.84513395 77.06685064 59.86391708 70.38401815 59.63549805 62.05273438 C59.74973678 53.46198153 63.18004338 47.21709106 68.94018555 40.97070312 C72.47727453 37.92220036 77.17212447 35.24023438 81.94799805 35.24023438 C81.92479492 34.5621875 81.9015918 33.88414062 81.87768555 33.18554688 C81.69249074 23.63478625 81.99570562 15.51253957 88.3112793 7.92773438 C93.42251384 2.65791738 99.19898215 0.53463916 106.44555664 -0.03442383 C113.41925492 -0.08432257 113.41925492 -0.08432257 116.22631836 -0.07543945 C118.31116264 -0.07228354 120.39457891 -0.09577289 122.47924805 -0.12109375 C131.51002938 -0.1653256 140.18984669 0.09703381 147.26049805 6.36523438 C147.87538086 6.8834375 148.49026367 7.40164063 149.1237793 7.93554688 C154.67987446 14.9550247 155.53992223 22.05610966 155.4440918 30.77539062 C155.44554703 31.85348495 155.44700226 32.93157928 155.44850159 34.04234314 C155.44685013 36.30893675 155.43537396 38.57554246 155.41455078 40.84204102 C155.38555271 44.29622352 155.39396789 47.74887249 155.40698242 51.203125 C155.40074519 53.41472094 155.39235437 55.62631208 155.3815918 57.83789062 C155.38452744 58.86205582 155.38746307 59.88622101 155.39048767 60.94142151 C155.29486303 68.2645839 154.50671438 74.19743658 149.63549805 79.99023438 C146.94799805 82.24023438 146.94799805 82.24023438 143.69799805 84.24023438 C140.72329548 85.95682538 140.72329548 85.95682538 140.27612305 88.86523438 C140.11370117 90.04085937 140.11370117 90.04085937 139.94799805 91.24023438 C140.84260742 91.21703125 141.7372168 91.19382812 142.65893555 91.16992188 C156.76223238 90.95942491 167.07627536 92.77131462 177.94799805 102.24023438 C177.94799805 101.58023438 177.94799805 100.92023438 177.94799805 100.24023438 C189.07413448 91.11551126 200.10716575 90.87653367 213.94799805 91.24023438 C213.94799805 89.59023438 213.94799805 87.94023437 213.94799805 86.24023438 C212.89612305 85.89992188 212.89612305 85.89992188 211.82299805 85.55273438 C205.93024928 82.86256646 202.5176531 79.40761288 199.77297974 73.66278076 C198.16935353 68.95375641 198.35909836 64.14484618 198.3815918 59.21679688 C198.37539322 58.07544281 198.36919464 56.93408875 198.36280823 55.75814819 C198.35572978 53.3527715 198.35884932 50.9473456 198.37158203 48.54199219 C198.3854301 44.88318638 198.35136323 41.22694901 198.31323242 37.56835938 C198.31228092 35.22200459 198.31414169 32.87564663 198.3190918 30.52929688 C198.30583359 29.44669586 198.29257538 28.36409485 198.27891541 27.24868774 C198.37622873 19.21613529 200.01487361 12.08332456 205.93772888 6.29605103 C213.73787773 -0.14101467 222.55851778 -0.10603376 232.22631836 -0.07543945 C234.31116264 -0.07228354 236.39457891 -0.09577289 238.47924805 -0.12109375 C247.53335657 -0.16550745 256.21763782 0.07860342 263.26049805 6.42773438 C264.18282227 7.22244141 264.18282227 7.22244141 265.1237793 8.03320312 C270.90758237 15.0307379 271.55530466 21.26450693 271.5144043 30.04492188 C271.52060287 31.1640799 271.52680145 32.28323792 271.53318787 33.43630981 C271.54026537 35.79460789 271.53714842 38.15295615 271.52441406 40.51123047 C271.51056603 44.0976267 271.5446338 47.68140243 271.58276367 51.26757812 C271.58371518 53.56836001 271.58185436 55.86914512 271.5769043 58.16992188 C271.59016251 59.23064911 271.60342072 60.29137634 271.61708069 61.38424683 C271.52796928 68.5974375 270.12664844 74.26495079 265.94799805 80.24023438 C259.55096812 86.24023438 259.55096812 86.24023438 255.94799805 86.24023438 C255.94799805 87.89023437 255.94799805 89.54023438 255.94799805 91.24023438 C256.84260742 91.21703125 257.7372168 91.19382812 258.65893555 91.16992188 C270.23220748 90.99718647 281.44612936 91.38855256 290.44799805 99.49023438 C290.94299805 100.06773437 291.43799805 100.64523437 291.94799805 101.24023438 C295.40283516 99.72010604 298.26295268 97.61408802 301.2644043 95.36132812 C302.94799805 94.24023438 302.94799805 94.24023438 305.94799805 93.24023438 C306.03196587 92.14601669 306.03196587 92.14601669 306.11763 91.0296936 C306.65019969 84.11533022 307.19343843 77.20187668 307.74831867 70.2892704 C308.03314103 66.73640009 308.31399926 63.18331356 308.58544922 59.62939453 C308.84814474 56.19209086 309.12170833 52.75580181 309.40245628 49.31992722 C309.55760349 47.38757885 309.70182486 45.45436309 309.84577942 43.52114868 C310.73341296 32.85209331 312.15513254 23.12085738 319.94799805 15.24023438 C328.57235313 8.35126781 337.88661959 7.86720022 348.54370117 7.86962891 C350.67928899 7.86527254 352.81277688 7.82893353 354.94799805 7.79101562 C365.36245373 7.7051435 375.60246014 8.86845683 383.4519043 16.43554688 C394.15469931 29.34596802 392.70050468 49.89531731 394.01049805 65.80273438 C394.27010959 68.93856214 394.53095324 72.07426694 394.79527283 75.20970154 C394.95840633 77.14603825 395.11883043 79.08260574 395.27613831 81.01942444 C395.70843075 87.19741739 395.70843075 87.19741739 396.94799805 93.24023438 C398.99743561 94.82222664 398.99743561 94.82222664 401.57299805 95.99023438 C409.33766404 100.3335597 413.5931824 106.17513276 416.31193542 114.54432678 C417.51158112 119.62894241 417.31188575 124.73435376 417.2409668 129.93164062 C417.23672195 131.11749252 417.23247711 132.30334442 417.22810364 133.52513123 C417.21141238 137.28457063 417.17377693 141.04345905 417.13549805 144.80273438 C417.12043891 147.36327347 417.10675266 149.92382102 417.09448242 152.484375 C417.06154012 158.73651372 417.01143625 164.98833466 416.94799805 171.24023438 C417.77525391 171.21928711 418.60250977 171.19833984 419.45483398 171.17675781 C423.20243175 171.09361818 426.94983554 171.04157907 430.69799805 170.99023438 C431.99995117 170.95671875 433.3019043 170.92320312 434.64331055 170.88867188 C435.89370117 170.87578125 437.1440918 170.86289062 438.43237305 170.84960938 C439.58447266 170.82866211 440.73657227 170.80771484 441.92358398 170.78613281 C445.57990512 171.33511225 446.71398527 172.35802626 448.94799805 175.24023438 C449.5144043 177.24023437 449.5144043 177.24023437 449.51049805 179.24023438 C449.53241211 179.90023437 449.55432617 180.56023437 449.5769043 181.24023438 C448.5853582 184.39347413 446.65834988 185.44298126 443.94799805 187.24023438 C440.85771561 187.74163103 440.85771561 187.74163103 437.31842041 187.74359894 C436.66243693 187.7494127 436.00645345 187.75522646 435.33059168 187.7612164 C433.12879404 187.77583395 430.92810817 187.7619243 428.72631836 187.74816895 C427.1333878 187.7527772 425.54046149 187.75912961 423.9475441 187.76707792 C419.56737099 187.78380485 415.18754564 187.77550969 410.80737114 187.76313305 C406.08473202 187.7540986 401.36215352 187.7680443 396.63952637 187.77905273 C387.38675736 187.79685973 378.13411798 187.79298827 368.88134384 187.78140217 C361.36290165 187.77237669 353.84449585 187.77114001 346.3260498 187.77549744 C345.25688143 187.77611037 344.18771306 187.7767233 343.08614564 187.77735481 C340.91429995 187.77863368 338.74245428 187.77993053 336.57060862 187.78124517 C316.19467662 187.79265736 295.81881656 187.77952725 275.44289637 187.75804371 C257.95107131 187.74017216 240.45935243 187.74327608 222.9675293 187.76171875 C202.66560492 187.78311418 182.36374362 187.79155866 162.06180954 187.7792697 C159.89785513 187.77799547 157.73390072 187.77673799 155.56994629 187.77549744 C154.50517823 187.77488033 153.44041016 187.77426323 152.3433764 187.77362743 C144.83205164 187.77017055 137.32076682 187.77601016 129.80944824 187.78541565 C120.65838099 187.79662227 111.50745102 187.79362377 102.35639954 187.77229267 C97.68540387 187.76176424 93.01463727 187.7576909 88.34364319 187.77088928 C84.070177 187.78278198 79.79715285 187.77630254 75.52372694 187.75497907 C73.97534991 187.75049971 72.42693577 187.75280912 70.87858248 187.76248223 C68.77771195 187.77460337 66.67836594 187.76221754 64.57757568 187.74359894 C62.82562456 187.74262482 62.82562456 187.74262482 61.03828049 187.74163103 C57.25543863 187.12786698 55.56005697 186.01872193 52.94799805 183.24023438 C52.94799805 181.92023438 52.94799805 180.60023438 52.94799805 179.24023438 C46.34799805 179.24023438 39.74799805 179.24023438 32.94799805 179.24023438 C32.61799805 180.89023437 32.28799805 182.54023438 31.94799805 184.24023438 C29.513598 187.05511382 27.96701406 187.23824849 24.23573303 187.62791443 C22.71685882 187.64875401 21.19770293 187.65303213 19.67871094 187.64428711 C18.84735123 187.65115036 18.01599152 187.65801361 17.15943909 187.66508484 C14.41300344 187.68337669 11.66713775 187.67951193 8.9206543 187.67382812 C7.01020624 187.67838887 5.09975982 187.68369412 3.1893158 187.68971252 C-0.81461248 187.69864838 -4.81834135 187.6962152 -8.82226562 187.6862793 C-13.95162703 187.67479057 -19.08029994 187.69499722 -24.20957088 187.72419643 C-28.15499744 187.74254882 -32.10025872 187.74226787 -36.04571724 187.73655891 C-37.93674243 187.73640557 -39.82777874 187.74246046 -41.71876335 187.75485039 C-44.36405405 187.76974004 -47.00806934 187.75909862 -49.65332031 187.74194336 C-50.82317474 187.75644531 -50.82317474 187.75644531 -52.0166626 187.77124023 C-55.56546033 187.72308391 -57.90468543 187.32059151 -61.03747559 185.61174011 C-63.6640744 182.51970108 -63.67973862 180.8244668 -63.68310547 176.79443359 C-63.69563858 175.48562225 -63.70817169 174.17681091 -63.72108459 172.82833862 C-63.70880861 171.40052301 -63.69538743 169.97271685 -63.6809082 168.54492188 C-63.68173756 167.07243678 -63.68419947 165.59995178 -63.68821716 164.12747192 C-63.69107577 161.03879977 -63.67638037 157.95085241 -63.64892578 154.86230469 C-63.61502127 150.92826812 -63.62079981 146.99554249 -63.63958836 143.06144524 C-63.65023288 140.01733758 -63.64115071 136.97352731 -63.62620354 133.92944717 C-63.62106345 132.48077405 -63.62145214 131.03206928 -63.62774849 129.58340073 C-63.65858938 118.2132947 -62.30177641 108.63061973 -54.23950195 100.06445312 C-45.48077658 92.76030179 -36.22620539 91.07940072 -25.11450195 91.17773438 C-24.08873047 91.18450195 -24.08873047 91.18450195 -23.04223633 91.19140625 C-21.37878592 91.20303877 -19.71538146 91.22096743 -18.05200195 91.24023438 C-18.05200195 89.59023438 -18.05200195 87.94023437 -18.05200195 86.24023438 C-18.89762695 86.07523437 -19.74325195 85.91023438 -20.61450195 85.74023438 C-25.82155453 83.46806598 -29.57034696 79.65834447 -31.85179138 74.39515686 C-34.02522444 68.37231385 -34.49197221 62.98607047 -34.45043945 56.61523438 C-34.45330963 55.6282959 -34.45617981 54.64135742 -34.45913696 53.62451172 C-34.46116658 51.55044985 -34.45571445 49.47636835 -34.44311523 47.40234375 C-34.42704616 44.24890869 -34.44300206 41.09675513 -34.4621582 37.94335938 C-34.46017558 35.91731491 -34.4563315 33.89127124 -34.45043945 31.86523438 C-34.45651215 30.93372559 -34.46258484 30.0022168 -34.46884155 29.04248047 C-34.37827423 20.50696882 -32.7376344 13.12803384 -26.7980957 6.74414062 C-18.87115645 -0.08331265 -9.94131754 0.02747169 0 0 Z " fill="#010202" transform="translate(63.052001953125,308.759765625)"/>
<path d="M0 0 C0.79930158 -0.00453111 1.59860316 -0.00906223 2.422126 -0.01373065 C5.08573219 -0.02633517 7.74913289 -0.02475684 10.4127655 -0.02310181 C12.32858542 -0.02908951 14.24440293 -0.03589562 16.16021729 -0.04345703 C21.35453637 -0.06109932 26.54878954 -0.06581166 31.74313569 -0.0670886 C34.99110423 -0.06851174 38.2390561 -0.07278441 41.48702049 -0.07808304 C52.8258864 -0.09657729 64.16470533 -0.10475438 75.50358582 -0.10317993 C86.06059026 -0.10197862 96.61739022 -0.12308048 107.17434293 -0.15466726 C116.24888499 -0.18084771 125.32336034 -0.19154649 134.39793986 -0.19026911 C139.8129821 -0.18976001 145.22784255 -0.19541463 150.64284706 -0.21662521 C155.73764054 -0.23603738 160.83207937 -0.23611161 165.9268856 -0.22159195 C167.79165034 -0.21950648 169.65643745 -0.22418908 171.52116394 -0.23631287 C192.18069115 -0.3618836 192.18069115 -0.3618836 200.65959167 6.64242554 C207.53946518 15.14109281 208.6243751 21.45821312 207.78459167 32.26742554 C206.15008821 38.53958642 202.07733273 42.72051556 196.78459167 46.26742554 C193.46363626 48.07451627 190.63073808 49.26742554 186.78459167 49.26742554 C186.78459167 84.90742554 186.78459167 120.54742554 186.78459167 157.26742554 C188.76459167 157.59742554 190.74459167 157.92742554 192.78459167 158.26742554 C199.09175967 160.96884124 203.27467815 165.46210144 206.78459167 171.26742554 C208.97204128 177.82977434 209.10158807 186.50594522 206.09709167 192.82992554 C202.29115836 199.07112388 196.74572631 203.8921529 189.61193848 205.8697052 C185.75484217 206.41227948 181.9329734 206.39810926 178.04704285 206.38095093 C177.17824493 206.38109695 176.30944702 206.38124298 175.4143219 206.38139343 C172.55204239 206.38069859 169.68982852 206.37292627 166.82756042 206.36508179 C164.83930497 206.36321609 162.85104905 206.3617929 160.86279297 206.36079407 C155.63659897 206.35698088 150.41043287 206.34716082 145.18424988 206.33609009 C139.84856036 206.3258502 134.51286632 206.32129092 129.1771698 206.31625366 C118.71296287 206.30553748 108.24878396 206.28795037 97.78459167 206.26742554 C97.78459167 213.85742554 97.78459167 221.44742554 97.78459167 229.26742554 C100.09459167 229.26742554 102.40459167 229.26742554 104.78459167 229.26742554 C109.38459167 231.46742554 109.38459167 231.46742554 110.78459167 234.26742554 C111.1855678 237.87621062 111.08050442 239.75600908 109.24552917 242.92733765 C105.99646492 246.01684964 103.36006443 245.97587884 99.09709167 245.89633179 C98.35757263 245.89874374 97.61805359 245.9011557 96.85612488 245.90364075 C95.29609299 245.90266336 93.73602597 245.8892951 92.17619324 245.86434937 C89.79185371 245.83003006 87.41122041 245.84369296 85.02677917 245.86312866 C83.50853427 245.85622992 81.99029892 245.84655725 80.47209167 245.83383179 C79.76157654 245.83879166 79.0510614 245.84375153 78.3190155 245.84886169 C74.8828396 245.76733806 73.08190816 245.49972724 70.33952332 243.35702515 C68.1936859 240.47333502 68.14109093 238.66795456 68.34318542 235.17367554 C68.78459167 233.26742554 68.78459167 233.26742554 70.78459167 230.76742554 C73.78459167 229.26742554 73.78459167 229.26742554 81.78459167 229.26742554 C81.78459167 221.67742554 81.78459167 214.08742554 81.78459167 206.26742554 C79.1356488 206.28313599 76.48670593 206.29884644 73.75749207 206.31503296 C64.98450628 206.36484451 56.21151408 206.39792068 47.43842411 206.42286205 C42.12168939 206.43848727 36.80510012 206.45966805 31.4884491 206.4937439 C26.3531801 206.52644953 21.21805062 206.54430218 16.08268547 206.55205727 C14.12796776 206.55758069 12.17325729 206.56836646 10.21859932 206.58461571 C7.47098181 206.606539 4.72393361 206.60938627 1.97624207 206.60800171 C1.17638382 206.61878754 0.37652557 206.62957336 -0.4475708 206.64068604 C-8.06265194 206.59943113 -15.56883449 204.6688928 -21.64118958 199.88461304 C-26.88652231 194.49610745 -28.5402008 188.53512962 -28.77790833 181.14242554 C-28.45300137 173.25915675 -26.69634 168.31776432 -20.90290833 162.95492554 C-16.79097424 159.70959261 -12.57088159 157.26742554 -7.21540833 157.26742554 C-7.21540833 121.62742554 -7.21540833 85.98742554 -7.21540833 49.26742554 C-9.19540833 48.93742554 -11.17540833 48.60742554 -13.21540833 48.26742554 C-19.52257632 45.56600983 -23.7054948 41.07274963 -27.21540833 35.26742554 C-29.37041707 28.80239929 -29.43789799 20.65983436 -27.12165833 14.23226929 C-23.02610465 7.0105882 -18.18898164 2.92123682 -10.20843184 0.69744754 C-6.82667931 -0.03221169 -3.44120777 -0.01449267 0 0 Z " fill="#010202" transform="translate(28.215408325195313,15.732574462890625)"/>
<path d="M0 0 C0.99485916 -0.0127597 1.98971832 -0.02551941 3.01472473 -0.03866577 C4.07938461 -0.04089142 5.14404449 -0.04311707 6.2409668 -0.04541016 C7.89989204 -0.05539536 7.89989204 -0.05539536 9.59233093 -0.06558228 C11.92986389 -0.07569634 14.26742565 -0.08039968 16.60498047 -0.08007812 C20.16707392 -0.08444433 23.7279211 -0.12075983 27.28979492 -0.15869141 C29.56518133 -0.1645613 31.8405736 -0.16852954 34.1159668 -0.17041016 C35.17455399 -0.18478119 36.23314117 -0.19915222 37.32380676 -0.21395874 C44.9348011 -0.16732756 50.24124183 1.10388764 56.11987305 6.25537109 C56.65870117 6.90634766 57.1975293 7.55732422 57.75268555 8.22802734 C58.30698242 8.87642578 58.8612793 9.52482422 59.43237305 10.19287109 C62.18862649 14.19316326 63.1276284 17.77167938 63.16821289 22.59643555 C63.1809726 23.63133621 63.1937323 24.66623688 63.20687866 25.73249817 C63.20910431 26.84090561 63.21132996 27.94931305 63.21362305 29.09130859 C63.22360825 30.81682198 63.22360825 30.81682198 63.23379517 32.57719421 C63.24391086 35.00888472 63.24861252 37.44060293 63.24829102 39.87231445 C63.25265753 43.57924545 63.28897255 47.28497927 63.3269043 50.99169922 C63.33277408 53.35823162 63.33674239 55.72476966 63.33862305 58.09130859 C63.35299408 59.19364334 63.36736511 60.29597809 63.38217163 61.43171692 C63.33621045 69.23244206 62.13600828 74.58817215 56.8425293 80.60302734 C56.17350586 81.15990234 55.50448242 81.71677734 54.81518555 82.29052734 C53.8077832 83.15677734 53.8077832 83.15677734 52.7800293 84.04052734 C50.87768555 85.29052734 50.87768555 85.29052734 47.87768555 85.29052734 C47.87768555 87.27052734 47.87768555 89.25052734 47.87768555 91.29052734 C48.70792236 91.25910645 48.70792236 91.25910645 49.55493164 91.22705078 C62.42824471 90.80374517 72.26519237 90.52799212 82.69018555 98.91552734 C87.9693427 103.89568799 92.62675043 111.2598849 92.99794006 118.70133972 C92.99571945 119.65398209 92.99349884 120.60662445 92.99121094 121.58813477 C92.99113541 122.66902878 92.99105988 123.74992279 92.99098206 124.86357117 C92.98582077 126.02927139 92.98065948 127.19497162 92.9753418 128.39599609 C92.97321938 130.18750847 92.97321938 130.18750847 92.97105408 132.01521301 C92.96544904 135.83617642 92.95289565 139.65708159 92.94018555 143.47802734 C92.9351712 146.06591712 92.93060818 148.65380782 92.92651367 151.24169922 C92.91547797 157.59132852 92.89873491 163.94092377 92.87768555 170.29052734 C94.1918042 170.26442383 94.1918042 170.26442383 95.5324707 170.23779297 C96.69053223 170.22425781 97.84859375 170.21072266 99.04174805 170.19677734 C100.18595215 170.179375 101.33015625 170.16197266 102.5090332 170.14404297 C109.72961154 170.45802666 115.00508167 172.92430831 119.87768555 178.22802734 C125.67046846 185.23228168 125.6535124 192.50776953 124.87768555 201.29052734 C123.18849109 208.0793785 118.66983885 211.73830833 112.87768555 215.29052734 C112.08097506 215.81520064 112.08097506 215.81520064 111.2681694 216.3504734 C107.77121735 217.72564419 104.33287065 217.57257339 100.62994385 217.55795288 C99.37146641 217.56474955 99.37146641 217.56474955 98.08756518 217.57168353 C95.27178134 217.58435978 92.45619011 217.58270507 89.64038086 217.58105469 C87.62323762 217.587038 85.60609667 217.59384309 83.58895874 217.60140991 C78.10535005 217.61909905 72.62180375 217.62376657 67.13816929 217.62504148 C62.5607413 217.62693969 57.98332787 217.63429648 53.40590549 217.64138567 C42.60482468 217.65767897 31.80377723 217.66255384 21.00268555 217.66113281 C9.86233411 217.65993171 -1.27782348 217.68102518 -12.41812587 217.71262014 C-21.98259287 217.73877888 -31.54699657 217.74950025 -41.11149907 217.74822199 C-46.82386029 217.74771216 -52.53604936 217.75340688 -58.24837494 217.77457809 C-63.6230012 217.79395309 -68.99729099 217.79408981 -74.37192917 217.77954483 C-76.34234738 217.7774546 -78.3127866 217.78217035 -80.28316879 217.79426575 C-82.97805264 217.80973426 -85.67177873 217.80039959 -88.36663818 217.78500366 C-89.14214232 217.79529079 -89.91764646 217.80557791 -90.71665072 217.81617677 C-97.26842911 217.73374559 -102.39127099 215.64093757 -107.36450195 211.36083984 C-112.66495978 205.04594033 -114.57140217 200.10099114 -114.37231445 191.81396484 C-113.70552639 185.08357282 -110.96424604 180.02486046 -106.12231445 175.29052734 C-100.12544584 171.55144393 -94.9408558 170.16289026 -87.88500977 170.17700195 C-86.62400452 170.17707748 -85.36299927 170.17715302 -84.06378174 170.17723083 C-82.69266724 170.18233706 -81.32155315 170.18755305 -79.95043945 170.19287109 C-78.54368134 170.19473706 -77.13692257 170.19616012 -75.73016357 170.19715881 C-72.03450718 170.20096991 -68.33889033 170.21078814 -64.64324951 170.22186279 C-60.86934952 170.23210721 -57.09544311 170.23666292 -53.3215332 170.24169922 C-45.92177354 170.25241171 -38.52205458 170.26999708 -31.12231445 170.29052734 C-31.12231445 162.70052734 -31.12231445 155.11052734 -31.12231445 147.29052734 C-34.42231445 146.96052734 -37.72231445 146.63052734 -41.12231445 146.29052734 C-43.00374911 145.97230938 -44.88151498 145.62784152 -46.74731445 145.22802734 C-47.58520508 145.05142578 -48.4230957 144.87482422 -49.28637695 144.69287109 C-49.89223633 144.56009766 -50.4980957 144.42732422 -51.12231445 144.29052734 C-51.58637695 145.24958984 -51.58637695 145.24958984 -52.05981445 146.22802734 C-53.12231445 148.29052734 -53.12231445 148.29052734 -54.12231445 149.29052734 C-67.23621781 150.16478757 -77.60157105 146.13567511 -88.43481445 139.04052734 C-90.13302675 137.96136659 -91.83124866 136.88222049 -93.53013611 135.80412292 C-95.26342033 134.70037737 -96.99120935 133.58845393 -98.71801758 132.47460938 C-102.99633947 129.72062622 -107.3219959 127.04394065 -111.64697266 124.36401367 C-115.5779252 121.92355651 -119.49213787 119.45690525 -123.40698242 116.99072266 C-125.99073109 115.37291779 -128.58754359 113.77854453 -131.1887207 112.18896484 C-132.70857192 111.24416687 -134.2281241 110.29888759 -135.74731445 109.35302734 C-136.75000366 108.75300903 -136.75000366 108.75300903 -137.77294922 108.14086914 C-143.61376223 104.45968447 -147.91330882 99.74482916 -150.21606445 93.16552734 C-151.3153498 85.38596951 -151.24491438 80.22126795 -147.43481445 73.16552734 C-142.77444114 67.37154971 -137.93560563 63.08877439 -130.40771484 61.84033203 C-119.86196747 61.3906639 -111.90089368 65.20391479 -102.55981445 69.54052734 C-101.07451319 70.21207399 -99.58818456 70.88135305 -98.10083008 71.54833984 C-97.35026337 71.88625549 -96.59969666 72.22417114 -95.8263855 72.57232666 C-94.24670076 73.28080535 -92.66519681 73.98523926 -91.08206177 74.68597412 C-86.25587175 76.83291184 -81.5156863 79.0913024 -76.79956055 81.47119141 C-59.15156878 90.08168458 -44.11827445 92.00435563 -24.92242432 91.57806396 C-21.42799576 91.5140825 -17.93363156 91.52120629 -14.4387207 91.52099609 C-7.66517162 91.51078316 -0.89448031 91.42672841 5.87768555 91.29052734 C5.87768555 89.31052734 5.87768555 87.33052734 5.87768555 85.29052734 C5.03206055 85.12552734 4.18643555 84.96052734 3.31518555 84.79052734 C-2.17042241 82.39680751 -6.00741741 78.12227532 -8.20483398 72.54101562 C-9.15107512 69.18863283 -9.35201628 66.49041157 -9.31762695 63.01708984 C-9.30795898 61.28652344 -9.30795898 61.28652344 -9.2980957 59.52099609 C-9.27295898 57.73628906 -9.27295898 57.73628906 -9.24731445 55.91552734 C-9.23829102 54.70251953 -9.22926758 53.48951172 -9.2199707 52.23974609 C-9.19648034 49.25646961 -9.16363127 46.2736014 -9.12231445 43.29052734 C-9.89317383 43.00693359 -10.6640332 42.72333984 -11.45825195 42.43115234 C-15.78065152 40.5805062 -18.21663596 37.53973905 -20.93481445 33.79052734 C-23.17152438 27.19811914 -23.46868019 19.3925907 -20.62231445 12.91552734 C-16.09754425 5.3152016 -8.93864849 0.0782573 0 0 Z " fill="#010101" transform="translate(387.122314453125,61.70947265625)"/>
<path d="M0 0 C46.53 0 93.06 0 141 0 C141 17.82 141 35.64 141 54 C127.64273438 54.03867188 127.64273438 54.03867188 114.015625 54.078125 C107.66671577 54.10648216 101.3178575 54.13734172 94.9689827 54.1718235 C86.739412 54.21618542 78.50995246 54.25459431 70.28027344 54.27099609 C63.7655414 54.28399882 57.25104165 54.31092781 50.73644042 54.35461307 C47.28662987 54.37725939 43.83710614 54.39290882 40.38721466 54.39188385 C36.53687442 54.39100075 32.68712136 54.42120791 28.83691406 54.45410156 C27.69180359 54.4490712 26.54669312 54.44404083 25.36688232 54.43885803 C23.79360168 54.45972725 23.79360168 54.45972725 22.1885376 54.48101807 C21.27780613 54.48470524 20.36707466 54.48839241 19.42874527 54.49219131 C16.21633267 55.1638513 15.00871891 56.45354641 13 59 C12.41654524 62.04253508 12.41654524 62.04253508 13 65 C14.54506466 67.03667615 15.72146156 67.86073078 18 69 C19.63419552 69.10456976 21.27256857 69.1465458 22.9100647 69.15821838 C23.94775497 69.1680072 24.98544525 69.17779602 26.05458069 69.18788147 C27.19753098 69.19363693 28.34048126 69.1993924 29.51806641 69.20532227 C30.71804764 69.21522186 31.91802887 69.22512146 33.15437317 69.23532104 C36.44959893 69.26154258 39.74480002 69.28339064 43.04006624 69.30332303 C46.48209033 69.32516773 49.92407004 69.35256382 53.36605835 69.37937927 C59.88604706 69.42932671 66.40606038 69.47425791 72.92609727 69.51740164 C80.34803893 69.56675651 87.76993607 69.62168111 95.19183469 69.67708123 C110.46118225 69.79093275 125.73057133 69.89756729 141 70 C141 73.63 141 77.26 141 81 C138.6831015 81.00546844 138.6831015 81.00546844 136.31939697 81.01104736 C121.78094941 81.04794805 107.24274917 81.10542862 92.70447159 81.18390274 C85.22973518 81.22371996 77.75510447 81.25609873 70.28027344 81.27099609 C63.7655414 81.28399882 57.25104165 81.31092781 50.73644042 81.35461307 C47.28662987 81.37725939 43.83710614 81.39290882 40.38721466 81.39188385 C36.53687442 81.39100075 32.68712136 81.42120791 28.83691406 81.45410156 C27.69180359 81.4490712 26.54669312 81.44404083 25.36688232 81.43885803 C23.79360168 81.45972725 23.79360168 81.45972725 22.1885376 81.48101807 C21.27780613 81.48470524 20.36707466 81.48839241 19.42874527 81.49219131 C16.21596311 82.16392857 15.00345992 83.4485087 13 86 C12.64542635 89.47482175 12.8945914 91.68377419 14 95 C16.99136462 96.16453824 19.969064 96.13549331 23.15057373 96.15821838 C24.19101334 96.1680072 25.23145294 96.17779602 26.30342102 96.18788147 C27.43918076 96.19363693 28.57494049 96.1993924 29.74511719 96.20532227 C30.94539047 96.21522186 32.14566376 96.22512146 33.38230896 96.23532104 C36.66914487 96.261485 39.95597577 96.28335689 43.24285412 96.30332303 C46.6795276 96.32521315 50.11615728 96.35258701 53.55279541 96.37937927 C60.05855141 96.42926528 66.56433178 96.47421926 73.07013535 96.51740164 C80.47761302 96.56680901 87.88504675 96.62171414 95.2924819 96.67708123 C110.52828089 96.79083845 125.76412091 96.89749607 141 97 C141 100.63 141 104.26 141 108 C94.47 108 47.94 108 0 108 C0 72.36 0 36.72 0 0 Z " fill="#FEF8E1" transform="translate(37,65)"/>
<path d="M0 0 C1.56691488 0.68971514 3.12972185 1.38881522 4.68896484 2.09570312 C5.53929291 2.47247192 6.38962097 2.84924072 7.26571655 3.23742676 C9.98084433 4.44241446 12.69047445 5.65921097 15.39990234 6.87695312 C18.06043566 8.06353926 20.72208763 9.24757791 23.38412476 10.43078613 C25.03191902 11.16418091 26.67873224 11.89978781 28.3241272 12.6385498 C30.03188072 13.4026749 31.74738519 14.14958651 33.46803284 14.88421631 C36.07807334 16.06240116 38.57127537 17.31453307 41.10118103 18.64752197 C56.30462254 26.31797901 70.10687894 26.55999626 86.88818359 26.29882812 C89.64155427 26.28620278 92.39484637 26.28875847 95.14823914 26.29156494 C101.60189145 26.29080553 108.05445359 26.24900385 114.5077917 26.18779778 C126.08739701 26.07801129 137.66702325 26.01284273 149.24715203 26.00351071 C152.63897467 25.99910741 156.02988887 25.98253744 159.42144203 25.93819427 C163.18960599 25.89085678 166.95692592 25.87296849 170.7253418 25.86035156 C171.83242996 25.83758652 172.93951813 25.81482147 174.08015442 25.79136658 C180.8884258 25.80640885 185.58049334 26.80546081 190.77490234 31.37695312 C196.3263116 37.56793382 196.45391744 43.46651297 196.26318359 51.53320312 C196.25814819 52.54737305 196.25311279 53.56154297 196.2479248 54.60644531 C196.22193511 58.36357239 196.15212888 62.12029373 196.08740234 65.87695312 C195.93271484 78.49945313 195.93271484 78.49945313 195.77490234 91.37695312 C164.75490234 91.37695312 133.73490234 91.37695312 101.77490234 91.37695312 C101.52490234 67.06445312 101.52490234 67.06445312 101.47705078 59.39526367 C101.44769108 57.39304285 101.41686711 55.39084273 101.38427734 53.38867188 C101.38258545 51.82469666 101.38258545 51.82469666 101.38085938 50.22912598 C101.35113037 48.73741882 101.35113037 48.73741882 101.32080078 47.21557617 C101.31191833 46.35175827 101.30303589 45.48794037 101.29388428 44.59794617 C100.94648682 42.23077322 100.94648682 42.23077322 98.96734619 40.56672668 C95.64888014 38.76589463 93.33860992 39.45302894 89.77490234 40.37695312 C87.5495444 43.71499003 87.48511831 45.00515023 87.36083984 48.91992188 C87.32216797 49.99306641 87.28349609 51.06621094 87.24365234 52.171875 C87.21271484 53.29142578 87.18177734 54.41097656 87.14990234 55.56445312 C87.11123047 56.69560547 87.07255859 57.82675781 87.03271484 58.9921875 C86.93837702 61.78694562 86.85278583 64.58169591 86.77490234 67.37695312 C85.21105671 67.2224454 83.64726534 67.06738837 82.08349609 66.91210938 C80.77723267 66.78267944 80.77723267 66.78267944 79.44458008 66.65063477 C69.85831126 65.66789975 69.85831126 65.66789975 67.77490234 64.37695312 C67.31294524 63.07533147 66.90118728 61.75554383 66.52099609 60.42773438 C65.86306948 58.24659257 65.86306948 58.24659257 64.77490234 56.37695312 C61.88611915 55.19863367 59.78161912 54.62456826 56.77490234 54.12695312 C46.51395781 51.83595504 39.0118987 46.97816564 30.40283203 41.13183594 C25.60299138 37.92659118 20.67980929 34.91782431 15.77490234 31.87695312 C13.75105963 30.61067345 11.72761868 29.34375141 9.70458984 28.07617188 C5.84660011 25.66319528 1.9767416 23.27139265 -1.90478516 20.89648438 C-2.78392578 20.35378906 -3.66306641 19.81109375 -4.56884766 19.25195312 C-6.21236845 18.23743412 -7.86057801 17.2304577 -9.51416016 16.23242188 C-10.60470703 15.55566406 -10.60470703 15.55566406 -11.71728516 14.86523438 C-12.35005371 14.47891846 -12.98282227 14.09260254 -13.63476562 13.69458008 C-16.41781162 11.38876196 -17.13049898 8.93272036 -17.72509766 5.43945312 C-17.14845156 1.9074958 -15.87312838 0.51219986 -13.22119141 -1.83789062 C-8.86552987 -3.55117432 -4.12922246 -1.70852206 0 0 Z " fill="#0492FB" transform="translate(269.22509765625,141.623046875)"/>
<path d="M0 0 C0.72944321 -0.00700928 1.45888641 -0.01401855 2.21043396 -0.02124023 C4.60170515 -0.03872507 6.99177517 -0.02723127 9.38305664 -0.01367188 C11.05782801 -0.01636984 12.73259785 -0.02025479 14.40736389 -0.02526855 C17.91007463 -0.03115095 21.41237608 -0.02264273 24.91503906 -0.00390625 C29.38830433 0.01886518 33.86060853 0.00576419 38.33383846 -0.01819611 C41.79044229 -0.03270352 45.24682119 -0.02802528 48.70343208 -0.01768494 C50.35193561 -0.01503036 52.00046004 -0.01824243 53.64893913 -0.02760315 C69.65922224 -0.09856794 69.65922224 -0.09856794 76.35571289 4.51757812 C80.97397426 9.25425645 81.48298793 12.95285994 81.46923828 19.38769531 C81.46912498 21.15907867 81.46912498 21.15907867 81.4690094 22.96624756 C81.46384811 24.2361554 81.45868683 25.50606323 81.45336914 26.81445312 C81.45195419 28.11835999 81.45053925 29.42226685 81.44908142 30.76568604 C81.44527156 34.22460868 81.4354544 37.68348903 81.42437744 41.14239502 C81.41413035 44.67500232 81.40957674 48.20761648 81.40454102 51.74023438 C81.39383071 58.6660347 81.37624635 65.59180003 81.35571289 72.51757812 C74.75571289 72.51757812 68.15571289 72.51757812 61.35571289 72.51757812 C60.36571289 70.53757812 59.37571289 68.55757813 58.35571289 66.51757812 C55.40197219 65.04070778 52.3926303 65.33876853 49.15209961 65.31225586 C48.41053619 65.30235626 47.66897278 65.29245667 46.90493774 65.28225708 C44.44845801 65.25061449 41.99195892 65.22587381 39.53540039 65.20117188 C37.83431489 65.18060472 36.13323453 65.15960832 34.43215942 65.13819885 C29.95070553 65.08295348 25.46920533 65.0335551 20.9876709 64.98535156 C16.41629913 64.93515452 11.84499476 64.87945909 7.27368164 64.82421875 C-1.69891705 64.71660703 -10.67157422 64.61516876 -19.64428711 64.51757812 C-19.7714717 57.25865468 -19.85879995 50.00002051 -19.91894531 42.74023438 C-19.94402869 40.27267722 -19.97810358 37.80519393 -20.02148438 35.33789062 C-20.08240458 31.78301734 -20.11055998 28.22912972 -20.13256836 24.67382812 C-20.15837479 23.57768188 -20.18418121 22.48153564 -20.21076965 21.35217285 C-20.21291641 15.43766198 -19.63590877 11.23796734 -16.40446472 6.23083496 C-11.37691483 1.33730368 -6.9064791 0.01677199 0 0 Z " fill="#98E5FB" transform="translate(34.644287109375,415.482421875)"/>
<path d="M0 0 C0.7514328 -0.0065712 1.5028656 -0.0131424 2.27706909 -0.01991272 C4.76967464 -0.03966028 7.26221986 -0.05131247 9.75488281 -0.0612793 C10.60609962 -0.06535482 11.45731644 -0.06943035 12.3343277 -0.07362938 C16.84104673 -0.0944979 21.34773527 -0.10879533 25.85449219 -0.11816406 C30.50622184 -0.12922077 35.1574721 -0.16360966 39.80903244 -0.20333576 C43.38817219 -0.22950395 46.96719787 -0.23785614 50.54642487 -0.24144554 C52.26080812 -0.24631222 53.97518626 -0.2579286 55.68947601 -0.27648354 C58.09284707 -0.30087652 60.4949801 -0.29990999 62.8984375 -0.29296875 C63.60308136 -0.30577881 64.30772522 -0.31858887 65.03372192 -0.33178711 C70.04438208 -0.27920267 72.83576404 1.06529647 76.70800781 4.17700195 C80.43123179 8.40336431 81.83477373 10.6817862 81.8215332 16.26928711 C81.82141235 17.34509033 81.8212915 18.42089355 81.82116699 19.52929688 C81.81605103 20.66343018 81.81093506 21.79756348 81.80566406 22.96606445 C81.80465698 24.00593506 81.8036499 25.04580566 81.8026123 26.1171875 C81.79736916 30.01213682 81.78340796 33.90707046 81.77050781 37.80200195 C81.74988281 46.50575195 81.72925781 55.20950195 81.70800781 64.17700195 C48.37800781 64.17700195 15.04800781 64.17700195 -19.29199219 64.17700195 C-19.35386719 55.88575195 -19.41574219 47.59450195 -19.47949219 39.05200195 C-19.5068042 36.44406738 -19.53411621 33.83613281 -19.56225586 31.14916992 C-19.57102112 29.07251447 -19.57866496 26.99585386 -19.58496094 24.91918945 C-19.60030884 23.84870361 -19.61565674 22.77821777 -19.63146973 21.67529297 C-19.63376676 15.11955748 -19.23442015 10.30292209 -14.53808594 5.3137207 C-13.94125 4.83547852 -13.34441406 4.35723633 -12.72949219 3.86450195 C-12.13007813 3.37336914 -11.53066406 2.88223633 -10.91308594 2.3762207 C-7.39812376 -0.22400433 -4.21341198 0.01589562 0 0 Z " fill="#98E5FA" transform="translate(266.2919921875,415.822998046875)"/>
<path d="M0 0 C1.09657425 -0.00810448 1.09657425 -0.00810448 2.21530151 -0.01637268 C4.611405 -0.02879326 7.00629102 -0.01241487 9.40234375 0.00561523 C11.0795091 0.00546009 12.75667481 0.00396855 14.43383789 0.00120544 C17.94075462 -0.00017556 21.44726089 0.01232903 24.95410156 0.03515625 C29.43631161 0.06354012 33.91784023 0.06079962 38.40010071 0.04806614 C41.86093914 0.04109202 45.32162167 0.04891797 48.78244019 0.06132317 C50.43455405 0.06582084 52.08668474 0.06618927 53.73880005 0.06225777 C56.05277481 0.05932841 58.36582942 0.07593325 60.6796875 0.09765625 C61.99316162 0.10305923 63.30663574 0.10846222 64.65991211 0.11402893 C69.38692546 0.61201883 73.4353308 1.82351708 77.08203125 5.03686523 C80.23979339 9.2943997 81.46583402 11.33381369 81.45336914 16.59399414 C81.45324829 17.66979736 81.45312744 18.74560059 81.45300293 19.85400391 C81.44788696 20.98813721 81.442771 22.12227051 81.4375 23.29077148 C81.43649292 24.33064209 81.43548584 25.3705127 81.43444824 26.44189453 C81.4292051 30.33684385 81.4152439 34.23177749 81.40234375 38.12670898 C81.38171875 46.83045898 81.36109375 55.53420898 81.33984375 64.50170898 C48.00984375 64.50170898 14.67984375 64.50170898 -19.66015625 64.50170898 C-19.76328125 56.08670898 -19.86640625 47.67170898 -19.97265625 39.00170898 C-20.01817627 36.35977539 -20.06369629 33.7178418 -20.1105957 30.99584961 C-20.12520961 28.88323229 -20.13794814 26.77060081 -20.1484375 24.65795898 C-20.17401733 23.57611328 -20.19959717 22.49426758 -20.22595215 21.37963867 C-20.22935009 15.44818501 -19.66141823 11.23703591 -16.42033386 6.21496582 C-11.38325628 1.31216082 -6.92000101 0.00087545 0 0 Z " fill="#98E5FB" transform="translate(150.66015625,415.498291015625)"/>
<path d="M0 0 C6.93 0 13.86 0 21 0 C21 35.64 21 71.28 21 108 C14.07 108 7.14 108 0 108 C0 104.37 0 100.74 0 97 C-1.53207092 97.00444122 -3.06414185 97.00888245 -4.64263916 97.01345825 C-19.06321127 97.05395735 -33.48376253 97.08408186 -47.90437698 97.10362434 C-55.31859877 97.11393889 -62.73277811 97.12800262 -70.14697266 97.15087891 C-76.60884624 97.17080734 -83.07068908 97.18371514 -89.53259254 97.18817699 C-92.95442748 97.1907853 -96.37617449 97.19691964 -99.79798126 97.21146011 C-103.61700205 97.22592447 -107.43583915 97.22798004 -111.25488281 97.22705078 C-112.39064255 97.23424133 -113.52640228 97.24143188 -114.69657898 97.24884033 C-116.25723839 97.24471634 -116.25723839 97.24471634 -117.84942627 97.24050903 C-118.75278339 97.24235262 -119.65614052 97.24419621 -120.5868721 97.24609566 C-123.22184189 96.97737612 -124.78551865 96.43997813 -127 95 C-129.34549674 91.48175489 -129.57991403 90.14224306 -129 86 C-127.21955872 83.34016418 -127.21955872 83.34016418 -124 81 C-120.01900622 80.2675876 -116.08677797 80.36879566 -112.04956055 80.43237305 C-110.83938766 80.43164291 -109.62921478 80.43091278 -108.38237 80.43016052 C-105.07223936 80.43304327 -101.7636761 80.45808074 -98.45382285 80.49303031 C-94.99187085 80.5243294 -91.52989698 80.52722731 -88.06782532 80.53315735 C-81.51583718 80.54868552 -74.96426718 80.58969951 -68.41246301 80.6399048 C-60.95184686 80.69583069 -53.49121053 80.72329283 -46.03043687 80.74838197 C-30.68670931 80.80061676 -15.34342505 80.8895479 0 81 C0 77.37 0 73.74 0 70 C-1.52985031 70.00666183 -3.05970062 70.01332367 -4.63591003 70.02018738 C-19.04144548 70.08095802 -33.44693389 70.12613339 -47.85256481 70.15543652 C-55.25893999 70.17090272 -62.66521946 70.19198743 -70.0715332 70.22631836 C-76.5271908 70.25622838 -82.98277908 70.2755768 -89.43850404 70.28226548 C-92.85650706 70.28617506 -96.27431177 70.29535772 -99.69225121 70.31719017 C-103.50874042 70.33891346 -107.3248165 70.34196898 -111.14135742 70.34057617 C-112.27352188 70.351362 -113.40568634 70.36214783 -114.57215881 70.3732605 C-115.61397308 70.36913651 -116.65578735 70.36501251 -117.72917175 70.36076355 C-118.63160708 70.36352893 -119.53404242 70.36629431 -120.46382427 70.36914349 C-123.57215296 69.91672244 -125.46228438 68.82106351 -128 67 C-129.44430855 64.11138291 -129.37688506 62.20352299 -129 59 C-127.22346497 56.33625793 -127.22346497 56.33625793 -124 54 C-120.01887854 53.26803559 -116.08683893 53.3687947 -112.04956055 53.43237305 C-110.83938766 53.43164291 -109.62921478 53.43091278 -108.38237 53.43016052 C-105.07223936 53.43304327 -101.7636761 53.45808074 -98.45382285 53.49303031 C-94.99187085 53.5243294 -91.52989698 53.52722731 -88.06782532 53.53315735 C-81.51583718 53.54868552 -74.96426718 53.58969951 -68.41246301 53.6399048 C-60.21971713 53.70131885 -52.02690305 53.72865351 -43.83398438 53.75585938 C-29.22233069 53.80452998 -14.61158915 53.90469321 0 54 C0 36.18 0 18.36 0 0 Z " fill="#F5E9B7" transform="translate(178,65)"/>
<path d="M0 0 C1.0828125 0.37125 1.0828125 0.37125 2.1875 0.75 C2.1875 1.41 2.1875 2.07 2.1875 2.75 C2.95126953 3.12125 2.95126953 3.12125 3.73046875 3.5 C5.70951875 4.50682989 7.66549829 5.55893863 9.61328125 6.625 C10.56170898 7.14320313 10.56170898 7.14320313 11.52929688 7.671875 C12.83408896 8.38569584 14.13622893 9.10438786 15.43554688 9.828125 C22.58843595 13.71257135 29.04300123 15.08184303 37.125 15 C37.88490234 15.00773437 38.64480469 15.01546875 39.42773438 15.0234375 C47.96488357 14.99427559 54.76121288 12.80044168 62.3125 8.9375 C63.32763672 8.4415332 63.32763672 8.4415332 64.36328125 7.93554688 C67.75869191 6.22470649 70.5688436 4.51223776 73.3671875 1.92578125 C76.1875 -0.25 76.1875 -0.25 78.62815857 -0.09069824 C83.27457739 1.43556789 85.81683181 4.56297201 88.1875 8.75 C89.09960091 12.97423536 89.00813936 17.0384523 88.87109375 21.34375 C88.86404419 22.39723633 88.85699463 23.45072266 88.84973145 24.53613281 C88.81332778 28.44130405 88.71559767 32.34571009 88.625 36.25 C88.480625 44.995 88.33625 53.74 88.1875 62.75 C55.1875 62.75 22.1875 62.75 -11.8125 62.75 C-11.895 54.12875 -11.9775 45.5075 -12.0625 36.625 C-12.09891602 33.91265137 -12.13533203 31.20030273 -12.17285156 28.40576172 C-12.18453805 26.24707836 -12.19472997 24.08838617 -12.203125 21.9296875 C-12.22358887 20.81601807 -12.24405273 19.70234863 -12.26513672 18.55493164 C-12.26795936 12.27596119 -12.04850952 8.50992166 -7.8125 3.75 C-3.73086735 -0.33163265 -3.73086735 -0.33163265 0 0 Z " fill="#98E5FB" transform="translate(375.8125,417.25)"/>
<path d="M0 0 C2.11836893 0.05490531 4.23279873 0.06152738 6.35180664 0.06079102 C18.67928711 0.1943252 18.67928711 0.1943252 23.55688477 3.61743164 C27.65136983 9.07652256 28.33017059 15.12843796 28.82250977 21.75024414 C28.90563416 22.70454315 28.98875854 23.65884216 29.07440186 24.64205933 C29.24649843 26.65338936 29.41077766 28.66540205 29.56762695 30.67797852 C29.80467926 33.71418322 30.06526465 36.74761908 30.33032227 39.78149414 C32.85347591 69.4331138 32.85347591 69.4331138 28.55688477 76.61743164 C18.31164549 84.46612372 8.22239101 86.5251983 -4.44311523 85.61743164 C-12.30159977 84.20693442 -20.18818369 79.65902959 -25.44311523 73.61743164 C-28.83602486 63.43870277 -25.84755665 50.35632456 -24.84399414 39.83496094 C-24.567797 36.92658058 -24.3037449 34.01726854 -24.04077148 31.10766602 C-23.86571573 29.23194712 -23.68995857 27.35629353 -23.51342773 25.48071289 C-23.43625519 24.6242366 -23.35908264 23.76776031 -23.27957153 22.8853302 C-21.80675746 7.74885796 -21.80675746 7.74885796 -17.79077148 3.09008789 C-12.6147146 -0.78893999 -6.17647925 -0.16576818 0 0 Z " fill="#FCE258" transform="translate(411.443115234375,332.382568359375)"/>
<path d="M0 0 C0.78560106 -0.00367669 1.57120212 -0.00735338 2.38060927 -0.01114148 C5.02757008 -0.02220306 7.67449167 -0.02602634 10.32147217 -0.02983093 C12.213487 -0.03609372 14.10550059 -0.04274035 15.99751282 -0.04974365 C21.14845514 -0.06717066 26.29938816 -0.07771007 31.45035267 -0.08594918 C34.66693344 -0.09109578 37.8835113 -0.09717167 41.10009003 -0.10346031 C51.15944693 -0.12251721 61.21879647 -0.13674723 71.27816796 -0.14507228 C82.89843804 -0.15484726 94.51851776 -0.18117155 106.13872075 -0.22157317 C115.1145784 -0.25171217 124.09038143 -0.26653906 133.06628871 -0.26985329 C138.42987043 -0.27220633 143.79324889 -0.28119973 149.15677643 -0.30631447 C154.20305074 -0.32956135 159.2489875 -0.33384201 164.29530144 -0.32355309 C166.1472352 -0.32305679 167.99918538 -0.3294048 169.8510685 -0.34310913 C172.38036615 -0.36077876 174.90844598 -0.3537467 177.43774414 -0.34057617 C178.16985587 -0.35154542 178.90196761 -0.36251466 179.65626454 -0.37381631 C184.70426781 -0.31039632 187.58661152 0.96795578 191.47283936 4.14717102 C192.89946154 7.00041539 192.78317803 8.98171651 192.47283936 12.14717102 C190.67290161 14.84707764 189.38906636 16.68905752 186.47283936 18.14717102 C183.92757807 18.25574321 181.40901765 18.30379233 178.86302185 18.30780029 C178.06854812 18.31288811 177.27407439 18.31797593 176.4555257 18.32321793 C173.77860014 18.33898357 171.10170166 18.34747824 168.42474365 18.35591125 C166.51140164 18.36544628 164.59806137 18.37533729 162.6847229 18.38555908 C156.38885555 18.41698069 150.09297481 18.43721295 143.79705811 18.45576477 C142.19184874 18.46071075 142.19184874 18.46071075 140.5542109 18.46575665 C130.46718902 18.49653563 120.38016423 18.52325092 110.29310894 18.54017544 C97.37735483 18.562098 84.46201562 18.60409989 71.54642743 18.67361301 C62.47207632 18.72079952 53.39783739 18.74510175 44.32336742 18.75237232 C38.89989947 18.75733616 33.47689885 18.77248681 28.05356407 18.81211662 C22.95219085 18.84890236 17.85155343 18.85741915 12.75007248 18.84411049 C10.87673694 18.84416457 9.00336946 18.8545146 7.13015556 18.87586212 C4.57374537 18.90344041 2.02003799 18.89408373 -0.53639221 18.87542725 C-1.27919868 18.89222218 -2.02200515 18.9090171 -2.78732091 18.92632097 C-5.61881247 18.87461628 -7.86122503 18.68415998 -10.11050069 16.87041676 C-12.33261561 14.33221895 -13.47807233 12.4144296 -14.08966064 9.08467102 C-13.39736703 5.46935994 -12.07125032 3.76608686 -9.52716064 1.14717102 C-6.48938535 -0.37171663 -3.33289411 -0.00082919 0 0 Z " fill="#0492FB" transform="translate(28.52716064453125,187.8528289794922)"/>
<path d="M0 0 C0.79703701 -0.00709439 1.59407401 -0.01418877 2.41526365 -0.02149814 C5.08336471 -0.0390865 7.75001059 -0.02096987 10.41809082 -0.00291443 C12.33188033 -0.00805294 14.2456651 -0.0153337 16.15943909 -0.02459717 C21.35577189 -0.043128 26.55159228 -0.03016185 31.74790382 -0.01050687 C37.1841556 0.00586697 42.62037459 -0.0029315 48.05664062 -0.00802612 C57.1861592 -0.01254849 66.31547299 0.0033317 75.44494629 0.03126526 C86.00203747 0.06331772 96.55875927 0.06330184 107.11587667 0.04605049 C117.2687096 0.03019043 127.42140702 0.03691564 137.57423401 0.0539875 C141.89632267 0.0608627 146.21830286 0.05982072 150.54039001 0.05244255 C155.62944615 0.04478524 160.71808158 0.05688791 165.80706596 0.08429146 C167.67552377 0.09118216 169.54402082 0.09126593 171.41247749 0.08407593 C173.96173487 0.07539603 176.50968952 0.09131164 179.05883789 0.11352539 C179.799598 0.10528462 180.54035811 0.09704386 181.3035655 0.08855337 C184.86519288 0.14590041 186.91097352 0.55486538 189.96508026 2.44551182 C192.81522704 5.45904377 193.02941895 7.52616653 193.02941895 11.62818909 C191.85097538 14.41923965 190.90160827 16.02792652 188.40203762 17.74819374 C185.04204339 18.99440297 181.7905411 18.91049486 178.25502014 18.89561462 C177.07299693 18.90241129 177.07299693 18.90241129 175.86709446 18.90934527 C173.22395893 18.92201568 170.58102876 18.92036721 167.93786621 18.91871643 C166.04393244 18.92469997 164.15000111 18.93150511 162.256073 18.93907166 C157.10943105 18.95675509 151.96285558 18.96142798 146.81618619 18.96270323 C142.52180239 18.96460129 138.22743412 18.97195763 133.93305629 18.97904742 C123.80330396 18.99533734 113.67358717 19.00021576 103.54382324 18.99879456 C93.08845984 18.99759247 82.63330265 19.01870633 72.17799145 19.05028188 C63.20549788 19.07641533 54.23307178 19.08716311 45.26054043 19.08588374 C39.89982701 19.08537331 34.53929686 19.09110144 29.17862129 19.11223984 C24.13805282 19.13157322 19.0978434 19.1317803 14.05726242 19.11720657 C12.20652557 19.11511138 10.35576653 19.11986146 8.50506783 19.13192749 C5.97988766 19.14732572 3.45595402 19.13810856 0.93080139 19.12266541 C-0.16968911 19.13809609 -0.16968911 19.13809609 -1.29241174 19.15383852 C-6.11542 19.08858238 -8.59764836 18.07349529 -11.97058105 14.62818909 C-12.85339355 12.44459534 -12.85339355 12.44459534 -13.09558105 10.19068909 C-13.20128418 9.44947815 -13.3069873 8.70826721 -13.41589355 7.94459534 C-12.06594299 0.92248407 -6.13584853 -0.09803745 0 0 Z " fill="#0492FB" transform="translate(27.9705810546875,31.371810913085938)"/>
<path d="M0 0 C0.81251679 -0.00694553 1.62503358 -0.01389106 2.46217209 -0.02104706 C5.18844351 -0.03936306 7.91384926 -0.02904017 10.64015198 -0.01878357 C12.59320224 -0.02583974 14.54624703 -0.03458347 16.49928284 -0.04489136 C21.80715295 -0.06742928 27.1147255 -0.06443527 32.4226253 -0.05556989 C36.85123034 -0.05046652 41.27977913 -0.05774729 45.70837837 -0.06504196 C56.15459882 -0.08205505 66.60067324 -0.078461 77.04689026 -0.06175232 C87.82950663 -0.04482876 98.61171823 -0.06066572 109.39429039 -0.0929752 C118.64705703 -0.11965197 127.89969753 -0.12695228 137.15249878 -0.11846012 C142.68090391 -0.11352542 148.20906544 -0.11577592 153.73744011 -0.13624763 C158.93568694 -0.15457463 164.13335056 -0.14868238 169.33156586 -0.12404823 C171.24034647 -0.1190309 173.1491713 -0.12255394 175.05791664 -0.13519669 C177.66216947 -0.15108271 180.26449132 -0.13621972 182.86865234 -0.11352539 C183.62565837 -0.12536112 184.38266439 -0.13719685 185.16260999 -0.14939123 C189.08315506 -0.07988608 190.86115796 0.40959524 194.00589085 2.82736301 C195.99781799 5.5146637 195.99781799 5.5146637 195.99781799 9.1396637 C195.0523804 12.33051556 194.63410352 13.61653812 191.99781799 15.5146637 C188.92103665 17.05305437 185.68874558 16.66265678 182.31207275 16.66183472 C181.50943192 16.6655114 180.70679108 16.66918809 179.8798278 16.6729762 C177.17525501 16.6840385 174.4707206 16.68786116 171.76612854 16.69166565 C169.83308286 16.69792833 167.90003838 16.70457495 165.96699524 16.71157837 C160.70455328 16.72900517 155.44212042 16.7395445 150.17965674 16.7477839 C146.8940698 16.75293001 143.60848571 16.75900589 140.32290077 16.76529503 C130.04943756 16.78435096 119.77598155 16.79858179 109.50250405 16.806907 C97.63149357 16.81668484 85.76066928 16.84301701 73.88972443 16.88340789 C64.72195197 16.91353416 55.55423298 16.92837252 46.38641196 16.93168801 C40.9071689 16.9340423 35.42812466 16.94305203 29.94893456 16.96814919 C24.79514376 16.99137417 19.64168349 16.99568561 14.487854 16.9853878 C12.59518652 16.98489099 10.70250307 16.99125415 8.80988503 17.00494385 C6.22769564 17.02257784 3.64670337 17.01559902 1.06451416 17.00241089 C0.31392579 17.01338013 -0.43666258 17.02434938 -1.20999604 17.03565103 C-4.86303007 16.99054525 -6.86303498 16.60409197 -9.96704388 14.6091795 C-12.00218201 12.5146637 -12.00218201 12.5146637 -12.63108826 10.5146637 C-12.60917419 9.8546637 -12.58726013 9.1946637 -12.56468201 8.5146637 C-12.56597107 7.8546637 -12.56726013 7.1946637 -12.56858826 6.5146637 C-10.76488873 0.14573847 -5.73405726 -0.06223754 0 0 Z " fill="#D8E6EB" transform="translate(301.00218200683594,247.48533630371094)"/>
<path d="M0 0 C1.2411557 -0.0087616 2.4823114 -0.01752319 3.76107788 -0.02655029 C7.15824043 -0.04477077 10.55387779 -0.04052429 13.95095444 -0.02465487 C17.50939705 -0.01197642 21.06777547 -0.02374135 24.6262207 -0.03158569 C30.60151847 -0.04067668 36.57650702 -0.02870914 42.55175781 -0.00488281 C49.45537121 0.02232785 56.35824626 0.01351327 63.26184177 -0.01401484 C69.19409527 -0.03672094 75.12612677 -0.0398988 81.05840969 -0.02682149 C84.59933509 -0.01903505 88.13991368 -0.01796262 91.68081665 -0.03450394 C95.62864781 -0.05165872 99.57565512 -0.02786828 103.5234375 0 C104.69450043 -0.01012115 105.86556335 -0.02024231 107.07211304 -0.03067017 C114.97225337 0.07278414 114.97225337 0.07278414 118.99145508 2.9960022 C121.16337878 6.24845869 121.49600552 7.81236399 120.76171875 11.64697266 C118.71790245 14.23658217 117.52359777 15.4942603 114.2504425 16.15033722 C113.30066025 16.15184532 112.35087799 16.15335342 111.37231445 16.15490723 C110.27875641 16.16618652 109.18519836 16.17746582 108.0585022 16.18908691 C106.86357147 16.18098999 105.66864075 16.17289307 104.4375 16.16455078 C103.17537689 16.17156006 101.91325378 16.17856934 100.61288452 16.18579102 C97.15412904 16.20401989 93.69585103 16.19695909 90.23708725 16.18427467 C86.61678535 16.17414455 82.99652421 16.18354037 79.3762207 16.18981934 C73.2966376 16.19709574 67.2172489 16.18750837 61.13769531 16.16845703 C54.10977634 16.14668809 47.08232152 16.15373948 40.0544138 16.17576265 C34.01946064 16.19391699 27.9846472 16.19647488 21.94967556 16.18600798 C18.34565561 16.17977315 14.74185381 16.17893687 11.1378479 16.19215393 C7.12026498 16.20585865 3.10348171 16.18686246 -0.9140625 16.16455078 C-2.10899323 16.17264771 -3.30392395 16.18074463 -4.5350647 16.18908691 C-5.62862274 16.17780762 -6.72218079 16.16652832 -7.84887695 16.15490723 C-9.27355034 16.15264507 -9.27355034 16.15264507 -10.727005 16.15033722 C-14.00016027 15.4942603 -15.19446495 14.23658217 -17.23828125 11.64697266 C-17.97256802 7.81236399 -17.63994128 6.24845869 -15.46801758 2.9960022 C-10.54286523 -0.58612562 -5.94620285 -0.05139129 0 0 Z " fill="#060505" transform="translate(66.23828125,118.35302734375)"/>
<path d="M0 0 C1.2411557 -0.0087616 2.4823114 -0.01752319 3.76107788 -0.02655029 C7.15824043 -0.04477077 10.55387779 -0.04052429 13.95095444 -0.02465487 C17.50939705 -0.01197642 21.06777547 -0.02374135 24.6262207 -0.03158569 C30.60151847 -0.04067668 36.57650702 -0.02870914 42.55175781 -0.00488281 C49.45537121 0.02232785 56.35824626 0.01351327 63.26184177 -0.01401484 C69.19409527 -0.03672094 75.12612677 -0.0398988 81.05840969 -0.02682149 C84.59933509 -0.01903505 88.13991368 -0.01796262 91.68081665 -0.03450394 C95.62864781 -0.05165872 99.57565512 -0.02786828 103.5234375 0 C104.69450043 -0.01012115 105.86556335 -0.02024231 107.07211304 -0.03067017 C115.88969774 0.0847983 115.88969774 0.0847983 119.02661133 2.96084595 C120.76171875 5.64697266 120.76171875 5.64697266 120.76171875 9.27197266 C119.77300131 12.60889401 119.45503548 13.64500927 116.76171875 15.64697266 C114.37349033 16.02728939 114.37349033 16.02728939 111.49256897 16.03465271 C110.40038559 16.04455734 109.30820221 16.05446198 108.18292236 16.06466675 C106.98439636 16.0601651 105.78587036 16.05566345 104.55102539 16.05102539 C103.28904831 16.05788864 102.02707123 16.06475189 100.72685242 16.07182312 C97.26398857 16.08978787 93.80137766 16.08857997 90.33848119 16.08288074 C87.44825232 16.07979345 84.55807235 16.08587623 81.66785043 16.09191948 C74.84957062 16.10597415 68.03141606 16.10439583 61.21313477 16.09301758 C54.17786682 16.08153669 47.1429801 16.09560906 40.1077624 16.12241405 C34.06859623 16.14456289 28.0295498 16.15121027 21.9903459 16.14533764 C18.38294216 16.14196468 14.77578277 16.14440513 11.16841316 16.16158867 C7.14596501 16.17991251 3.12425966 16.16587935 -0.89819336 16.14868164 C-2.09469513 16.15834961 -3.2911969 16.16801758 -4.5239563 16.17797852 C-5.6189595 16.16814438 -6.71396271 16.15831024 -7.84214783 16.1481781 C-8.7932289 16.14796882 -9.74430998 16.14775953 -10.72421169 16.14754391 C-14.00099872 15.49510954 -15.19337339 14.23911354 -17.23828125 11.64697266 C-17.97256802 7.81236399 -17.63994128 6.24845869 -15.46801758 2.9960022 C-10.54286523 -0.58612562 -5.94620285 -0.05139129 0 0 Z " fill="#050505" transform="translate(66.23828125,145.35302734375)"/>
<path d="M0 0 C15.89897374 -0.1169573 31.79783078 -0.20504856 47.6971283 -0.25906086 C55.07997037 -0.28480973 62.46254467 -0.3198961 69.84521484 -0.37719727 C76.28222463 -0.42713467 82.71904044 -0.45931514 89.15623856 -0.47044247 C92.5627571 -0.47694398 95.96872084 -0.49215322 99.37506104 -0.52865028 C103.18396792 -0.56499069 106.99172866 -0.56994289 110.80078125 -0.56762695 C111.92215988 -0.58560333 113.04353851 -0.60357971 114.19889832 -0.62210083 C121.03582723 -0.57717236 125.78502057 0.4012223 131 5 C136.55084932 11.1919016 136.67903185 17.08885153 136.48828125 25.15625 C136.48324585 26.17041992 136.47821045 27.18458984 136.47302246 28.22949219 C136.44703276 31.98661926 136.37722654 35.74334061 136.3125 39.5 C136.1578125 52.1225 136.1578125 52.1225 136 65 C104.98 65 73.96 65 42 65 C42 64.67 42 64.34 42 64 C65.43 64 88.86 64 113 64 C112.9175 55.42 112.835 46.84 112.75 38 C112.73420898 35.30585938 112.71841797 32.61171875 112.70214844 29.8359375 C112.67276301 27.68227012 112.64193443 25.52862174 112.609375 23.375 C112.60768311 21.71984375 112.60768311 21.71984375 112.60595703 20.03125 C112.47997704 13.19760374 111.45383627 8.900232 108 3 C108 2.34 108 1.68 108 1 C72.36 1 36.72 1 0 1 C0 0.67 0 0.34 0 0 Z " fill="#017BED" transform="translate(329,168)"/>
<path d="M0 0 C17.31520396 -0.75648949 17.31520396 -0.75648949 24 4 C28.61826137 8.73667833 29.12727504 12.43528182 29.11352539 18.87011719 C29.11344986 20.05103943 29.11337433 21.23196167 29.11329651 22.44866943 C29.10813522 23.71857727 29.10297394 24.98848511 29.09765625 26.296875 C29.0962413 27.60078186 29.09482635 28.90468872 29.09336853 30.24810791 C29.08955867 33.70703055 29.07974151 37.16591091 29.06866455 40.62481689 C29.05841746 44.15742419 29.05386385 47.69003836 29.04882812 51.22265625 C29.03811782 58.14845658 29.02053346 65.0742219 29 72 C22.4 72 15.8 72 9 72 C7.2677728 67.66943199 6.75226853 65.92451146 6.76049805 61.54223633 C6.75676682 60.47374954 6.75303558 59.40526276 6.74919128 58.30439758 C6.75332535 57.15851669 6.75745941 56.0126358 6.76171875 54.83203125 C6.74629508 52.38736427 6.72999116 49.9427027 6.71289062 47.49804688 C6.69646655 43.65799969 6.6874892 39.81835077 6.69458008 35.97827148 C6.6972112 32.2624045 6.66899383 28.54773741 6.63671875 24.83203125 C6.64692551 23.69627151 6.65713226 22.56051178 6.66764832 21.39033508 C6.57472489 13.75049637 4.94701264 8.52202714 1 2 C0.67 1.34 0.34 0.68 0 0 Z " fill="#62DAFA" transform="translate(87,416)"/>
<path d="M0 0 C14.62950356 -0.58604836 14.62950356 -0.58604836 19 3 C22.84177257 8.71328438 23.7643471 14.39078332 24.265625 21.1328125 C24.34874939 22.08711151 24.43187378 23.04141052 24.51751709 24.02462769 C24.68961367 26.03595771 24.8538929 28.04797041 25.01074219 30.06054688 C25.2477945 33.09675158 25.50837989 36.13018744 25.7734375 39.1640625 C28.29659115 68.81568216 28.29659115 68.81568216 24 76 C16.03801196 82.0995347 8.02620908 85.40923302 -2 85 C-0.9171875 84.01 -0.9171875 84.01 0.1875 83 C3.88908999 79.21380224 7.62938714 75.19113905 8.26196289 69.74438477 C8.12889091 61.3129112 7.41054007 52.95264557 6.625 44.5625 C6.48548187 43.04648605 6.3461604 41.53045399 6.20703125 40.0144043 C5.93276517 37.03473012 5.6552001 34.05538508 5.37597656 31.07617188 C5.05011106 27.57845393 4.7505984 24.07904621 4.4609375 20.578125 C4.30763209 18.8228869 4.15401969 17.06767557 4 15.3125 C3.94150879 14.54945557 3.88301758 13.78641113 3.82275391 13.00024414 C3.36753576 8.08107822 2.11935821 4.39421282 0 0 Z " fill="#FBD102" transform="translate(416,333)"/>
<path d="M0 0 C2.70942393 -0.10861833 5.414439 -0.18758577 8.125 -0.25 C8.88554687 -0.28351563 9.64609375 -0.31703125 10.4296875 -0.3515625 C15.79851595 -0.44412851 18.72973897 0.45755118 23 4 C26.72322398 8.22636236 28.12676591 10.50478425 28.11352539 16.09228516 C28.11344986 17.15323395 28.11337433 18.21418274 28.11329651 19.30728149 C28.10813522 20.45626923 28.10297394 21.60525696 28.09765625 22.7890625 C28.0962413 23.96262299 28.09482635 25.13618347 28.09336853 26.3453064 C28.08775689 30.10522985 28.07520238 33.86509445 28.0625 37.625 C28.0574865 40.16926998 28.05292333 42.71354088 28.04882812 45.2578125 C28.03778367 51.50523112 28.02051119 57.75260557 28 64 C20.74 64 13.48 64 6 64 C5.99589111 62.45207764 5.99178223 60.90415527 5.98754883 59.30932617 C5.96565642 53.52595441 5.91126101 47.74325321 5.84741211 41.96020508 C5.82432022 39.46482811 5.80985726 36.96935489 5.80444336 34.47387695 C5.79508976 30.87130357 5.75395546 27.27022581 5.70703125 23.66796875 C5.7109639 22.56543259 5.71489655 21.46289642 5.71894836 20.32695007 C5.57488498 12.55088792 3.71652131 6.81798171 0 0 Z " fill="#61DAFA" transform="translate(320,416)"/>
<path d="M0 0 C16.51979472 -0.57404692 16.51979472 -0.57404692 22 3 C24.97306265 5.9339434 27.88986141 8.93689635 28.12025452 13.25259399 C28.1169236 14.65824112 28.1169236 14.65824112 28.11352539 16.09228516 C28.11344986 17.15323395 28.11337433 18.21418274 28.11329651 19.30728149 C28.10813522 20.45626923 28.10297394 21.60525696 28.09765625 22.7890625 C28.0962413 23.96262299 28.09482635 25.13618347 28.09336853 26.3453064 C28.08775689 30.10522985 28.07520238 33.86509445 28.0625 37.625 C28.0574865 40.16926998 28.05292333 42.71354088 28.04882812 45.2578125 C28.03778367 51.50523112 28.02051119 57.75260557 28 64 C20.74 64 13.48 64 6 64 C5.99589111 62.45207764 5.99178223 60.90415527 5.98754883 59.30932617 C5.96565642 53.52595441 5.91126101 47.74325321 5.84741211 41.96020508 C5.82432022 39.46482811 5.80985726 36.96935489 5.80444336 34.47387695 C5.79508976 30.87130357 5.75395546 27.27022581 5.70703125 23.66796875 C5.7109639 22.56543259 5.71489655 21.46289642 5.71894836 20.32695007 C5.57488498 12.55088792 3.71652131 6.81798171 0 0 Z " fill="#61DAFA" transform="translate(204,416)"/>
<path d="M0 0 C13.86 0 27.72 0 42 0 C42.0825 3.526875 42.165 7.05375 42.25 10.6875 C42.28641602 11.79053467 42.32283203 12.89356934 42.36035156 14.0300293 C42.4102332 18.42806114 42.42317991 21.24559502 40.23828125 25.140625 C37.97107397 27.0240293 36.81006359 27.66952887 33.9375 28.0625 C31.31031735 28.43060813 30.25131087 28.76309915 28.296875 30.60546875 C26.53933945 33.85055697 26.48242552 36.5796087 26.3125 40.25 C26.24675781 41.51328125 26.18101562 42.7765625 26.11328125 44.078125 C26.07589844 45.04234375 26.03851563 46.0065625 26 47 C22.7 47 19.4 47 16 47 C15.97873047 45.57107422 15.97873047 45.57107422 15.95703125 44.11328125 C15.82395465 36.52622411 15.82395465 36.52622411 12.875 29.75 C9.65777355 27.79168825 6.61397686 27.00388246 3 26 C0.89813486 23.84750577 0.07200452 22.52297475 -0.34057617 19.52636719 C-0.32486572 18.62563477 -0.30915527 17.72490234 -0.29296875 16.796875 C-0.28547607 15.91354492 -0.2779834 15.03021484 -0.27026367 14.12011719 C-0.24295166 13.00797852 -0.21563965 11.89583984 -0.1875 10.75 C-0.125625 7.2025 -0.06375 3.655 0 0 Z " fill="#F6B783" transform="translate(393,106)"/>
<path d="M0 0 C13.53 0 27.06 0 41 0 C41.1546875 5.56875 41.1546875 5.56875 41.3125 11.25 C41.35802002 12.4143457 41.40354004 13.57869141 41.45043945 14.77832031 C41.55286599 22.35656211 41.55286599 22.35656211 38.7109375 25.6640625 C35.55109654 27.22121756 32.40032589 28.10180071 29 29 C26.06552643 31.93447357 26.53841577 35.18259456 26.375 39.125 C26.33632812 39.87910156 26.29765625 40.63320313 26.2578125 41.41015625 C26.16348969 43.27303184 26.08065338 45.13648255 26 47 C22.37 47 18.74 47 15 47 C14.96132813 45.31970703 14.96132813 45.31970703 14.921875 43.60546875 C14.86559365 42.13277354 14.80824632 40.6601188 14.75 39.1875 C14.73582031 38.44951172 14.72164062 37.71152344 14.70703125 36.95117188 C14.53156167 32.57890199 14.53156167 32.57890199 12.17578125 29.046875 C9.83591684 27.83621545 9.83591684 27.83621545 6.4375 27.0625 C2.63314753 25.88660924 1.9295717 25.34377175 0 22 C-0.34057617 19.52636719 -0.34057617 19.52636719 -0.29296875 16.796875 C-0.28547607 15.91354492 -0.2779834 15.03021484 -0.27026367 14.12011719 C-0.24295166 13.00797852 -0.21563965 11.89583984 -0.1875 10.75 C-0.125625 7.2025 -0.06375 3.655 0 0 Z " fill="#FCBB85" transform="translate(45,354)"/>
<path d="M0 0 C3.96116495 0.28230614 6.0622865 1.42109347 8.76977539 4.27539062 C13.19121768 9.67728627 12.89685673 14.86516184 12.68359375 21.59375 C12.67368912 22.78101685 12.66378448 23.96828369 12.65357971 25.19152832 C12.6145737 28.96230578 12.52676658 32.73011096 12.4375 36.5 C12.40236882 39.06506196 12.370433 41.63016981 12.34179688 44.1953125 C12.26485486 50.46467689 12.14415764 56.73183554 12 63 C4.74 63 -2.52 63 -10 63 C-10.01981934 61.43523926 -10.03963867 59.87047852 -10.06005859 58.25830078 C-10.13595499 52.46972161 -10.22469656 46.6813991 -10.31738281 40.89306641 C-10.35573873 38.38465429 -10.39057975 35.87618592 -10.421875 33.36767578 C-10.46738209 29.76834971 -10.5254 26.16941317 -10.5859375 22.5703125 C-10.60326431 20.87964157 -10.60326431 20.87964157 -10.62094116 19.15481567 C-10.64081085 18.11388763 -10.66068054 17.07295959 -10.68115234 16.00048828 C-10.69447601 15.08115509 -10.70779968 14.1618219 -10.7215271 13.21463013 C-10.79576051 10.79533048 -10.79576051 10.79533048 -13 9 C-12.22914063 8.51789063 -11.45828125 8.03578125 -10.6640625 7.5390625 C-9.66117187 6.90742188 -8.65828125 6.27578125 -7.625 5.625 C-6.62726563 4.99851562 -5.62953125 4.37203125 -4.6015625 3.7265625 C-1.9751981 2.10730288 -1.9751981 2.10730288 0 0 Z " fill="#62DAFA" transform="translate(452,417)"/>
<path d="M0 0 C0.66914429 -0.00241196 1.33828857 -0.00482391 2.02770996 -0.00730896 C3.43633985 -0.00633354 4.84500951 0.00698777 6.25341797 0.03198242 C8.40074807 0.06631827 10.54396249 0.05262699 12.69140625 0.03320312 C14.06512155 0.04010214 15.43882631 0.04977506 16.8125 0.0625 C18.05322266 0.07337646 19.29394531 0.08425293 20.57226562 0.09545898 C24.46524219 0.71834664 26.12658929 1.88799427 28.90625 4.62890625 C30.28933781 7.39508188 30.01835196 9.63908625 30.00390625 12.73046875 C30.00068359 13.9421875 29.99746094 15.15390625 29.99414062 16.40234375 C29.98157227 18.30886719 29.98157227 18.30886719 29.96875 20.25390625 C29.96423828 21.53265625 29.95972656 22.81140625 29.95507812 24.12890625 C29.94326203 27.29561917 29.92678815 30.46223981 29.90625 33.62890625 C25.72554297 33.80254584 21.54676705 33.92923368 17.36352539 34.01342773 C15.94225496 34.04853481 14.52123568 34.09623655 13.10083008 34.15698242 C1.19765232 34.65312188 1.19765232 34.65312188 -1.92041016 32.18017578 C-3.11328125 30.3515625 -3.11328125 30.3515625 -4.05395508 28.43774414 C-5.8836655 25.25476115 -8.87437527 24.20703112 -12.09375 22.62890625 C-12.22923815 19.89806723 -12.32804855 17.17398818 -12.40625 14.44140625 C-12.44814453 13.67248047 -12.49003906 12.90355469 -12.53320312 12.11132812 C-12.54931641 11.36044922 -12.56542969 10.60957031 -12.58203125 9.8359375 C-12.60821533 9.14991455 -12.63439941 8.4638916 -12.66137695 7.75708008 C-10.92966865 1.26447737 -6.03244035 -0.00352545 0 0 Z " fill="#D7E5EA" transform="translate(173.09375,324.37109375)"/>
<path d="M0 0 C0.66914429 -0.00241196 1.33828857 -0.00482391 2.02770996 -0.00730896 C3.43633985 -0.00633354 4.84500951 0.00698777 6.25341797 0.03198242 C8.40074807 0.06631827 10.54396249 0.05262699 12.69140625 0.03320312 C14.06512155 0.04010214 15.43882631 0.04977506 16.8125 0.0625 C18.05322266 0.07337646 19.29394531 0.08425293 20.57226562 0.09545898 C24.46524219 0.71834664 26.12658929 1.88799427 28.90625 4.62890625 C31.1907884 9.19798305 31.41842417 13.79110766 29.90625 18.62890625 C24.68747734 24.20094967 16.37663736 29.12103453 8.77734375 29.984375 C1.02697117 29.27268589 -6.78172118 24.26317514 -12.09375 18.62890625 C-13.82467982 13.95486641 -13.81715985 10.30319052 -12.09375 5.62890625 C-8.32274801 0.93443779 -5.96824295 -0.00348793 0 0 Z " fill="#6E8089" transform="translate(289.09375,324.37109375)"/>
<path d="M0 0 C3.01865282 1.15464765 5.80438454 2.37947363 8.5625 4.0625 C14.46388821 7.38873699 20.29978897 7.93058487 27 7 C31.20401339 5.3284042 35.05432807 3.19812896 39 1 C39.99 0.67 40.98 0.34 42 0 C42.054138 2.24973447 42.09285491 4.49984383 42.125 6.75 C42.14820313 8.00296875 42.17140625 9.2559375 42.1953125 10.546875 C42.01303811 13.76948618 41.83206418 15.40356467 40 18 C36.80230264 20.13179824 34.52783506 20.63246367 30.83984375 21.33984375 C28.61509461 21.93188224 28.61509461 21.93188224 27 25 C26.70008931 27.58885171 26.49134775 30.09149082 26.375 32.6875 C26.33632813 33.38939453 26.29765625 34.09128906 26.2578125 34.81445312 C26.1637666 36.54254655 26.0808032 38.27123675 26 40 C22.7 40 19.4 40 16 40 C15.93941406 39.03578125 15.87882812 38.0715625 15.81640625 37.078125 C15.73261719 35.81484375 15.64882813 34.5515625 15.5625 33.25 C15.48128906 31.99703125 15.40007812 30.7440625 15.31640625 29.453125 C15.07484478 26.81682447 14.75716066 24.51962706 14 22 C12.86111328 21.76216797 12.86111328 21.76216797 11.69921875 21.51953125 C10.70535156 21.28621094 9.71148437 21.05289062 8.6875 20.8125 C7.70136719 20.59207031 6.71523438 20.37164062 5.69921875 20.14453125 C2.21163763 18.6657161 1.41942005 17.49100606 0 14 C-0.29296875 10.44921875 -0.29296875 10.44921875 -0.1875 6.6875 C-0.14689453 4.80611328 -0.14689453 4.80611328 -0.10546875 2.88671875 C-0.07066406 1.93410156 -0.03585937 0.98148437 0 0 Z " fill="#D48753" transform="translate(277,361)"/>
<path d="M0 0 C0.93549683 -0.0038269 1.87099365 -0.00765381 2.83483887 -0.01159668 C4.80836059 -0.01431288 6.78191848 -0.00697219 8.75537109 0.00976562 C11.77132645 0.03117954 14.78489974 0.00995416 17.80078125 -0.015625 C19.72135941 -0.01298167 21.64193609 -0.00785659 23.5625 0 C24.46158081 -0.00809692 25.36066162 -0.01619385 26.2869873 -0.02453613 C30.47257601 0.03796514 32.70715724 0.17147539 36.32617188 2.43945312 C40.0024836 6.37284959 39.36497122 9.34053427 39.28125 14.53125 C31.93064985 14.6071939 24.58015053 14.65980502 17.22924805 14.69604492 C14.72758198 14.71114944 12.22594247 14.73163429 9.72436523 14.75756836 C6.13258316 14.79387775 2.54115059 14.81095975 -1.05078125 14.82421875 C-2.17273392 14.83970261 -3.29468658 14.85518646 -4.45063782 14.87113953 C-6.01191658 14.87147942 -6.01191658 14.87147942 -7.60473633 14.87182617 C-8.52184891 14.87848801 -9.43896149 14.88514984 -10.38386536 14.89201355 C-12.71875 14.53125 -12.71875 14.53125 -14.53837585 13.22480774 C-15.71875 11.53125 -15.71875 11.53125 -15.71875 8.09375 C-13.41136586 -0.12630599 -7.36145172 -0.06629561 0 0 Z " fill="#7F8F95" transform="translate(395.71875,76.46875)"/>
<path d="M0 0 C7.59 0 15.18 0 23 0 C23.061875 3.67125 23.12375 7.3425 23.1875 11.125 C23.21481201 12.2711377 23.24212402 13.41727539 23.27026367 14.59814453 C23.32368045 21.14945389 22.86715729 25.81426968 18.3125 30.875 C17.6628125 31.431875 17.6628125 31.431875 17 32 C14.50638429 30.79618552 12.31856917 29.54571278 10 28 C8.2675 27.566875 8.2675 27.566875 6.5 27.125 C2.67443635 25.89535454 1.94185064 25.36932792 0 22 C-0.34057617 19.52636719 -0.34057617 19.52636719 -0.29296875 16.796875 C-0.28547607 15.91354492 -0.2779834 15.03021484 -0.27026367 14.12011719 C-0.24295166 13.00797852 -0.21563965 11.89583984 -0.1875 10.75 C-0.125625 7.2025 -0.06375 3.655 0 0 Z " fill="#FDD1A3" transform="translate(45,354)"/>
<path d="M0 0 C2.39706123 -0.10854617 4.78915838 -0.18753157 7.1875 -0.25 C7.86103516 -0.28351563 8.53457031 -0.31703125 9.22851562 -0.3515625 C12.89041975 -0.42301429 14.82150622 -0.11534178 17.92578125 1.890625 C21.29430526 5.31624264 21.11966039 7.39267584 21.09765625 12.1015625 C21.09515869 13.19291504 21.09266113 14.28426758 21.09008789 15.40869141 C21.08098389 16.80007324 21.07187988 18.19145508 21.0625 19.625 C21.041875 24.03875 21.02125 28.4525 21 33 C11.1 33 1.2 33 -9 33 C-9 32.67 -9 32.34 -9 32 C-5.37 32 -1.74 32 2 32 C1.86117146 27.41642624 1.71273252 22.83321304 1.5625 18.25 C1.52318359 16.94804687 1.48386719 15.64609375 1.44335938 14.3046875 C1.40146484 13.05429687 1.35957031 11.80390625 1.31640625 10.515625 C1.27974854 9.36352539 1.24309082 8.21142578 1.20532227 7.02441406 C1.03547826 4.52259776 0.72031525 2.38908832 0 0 Z " fill="#C0CDD7" transform="translate(182,325)"/>
<path d="M0 0 C7.59 0 15.18 0 23 0 C23.103125 3.465 23.20625 6.93 23.3125 10.5 C23.38078003 12.11358398 23.38078003 12.11358398 23.45043945 13.75976562 C23.53510486 19.68088213 22.75527763 23.59524547 19.47338867 28.55664062 C17.6719575 30.32135663 16.50191258 30.77471956 14 31 C12.32012773 29.68334336 10.65533995 28.34736973 9 27 C6.67891331 26.29187186 4.34622853 25.61975848 2 25 C0 23 0 23 -0.22705078 20.66162109 C-0.21657715 19.70852051 -0.20610352 18.75541992 -0.1953125 17.7734375 C-0.19031738 16.84450684 -0.18532227 15.91557617 -0.18017578 14.95849609 C-0.16196777 13.77594238 -0.14375977 12.59338867 -0.125 11.375 C-0.08375 7.62125 -0.0425 3.8675 0 0 Z " fill="#FDD0A2" transform="translate(394,107)"/>
<path d="M0 0 C0.73951904 -0.00619858 1.47903809 -0.01239716 2.2409668 -0.01878357 C3.80093065 -0.02587188 5.3609703 -0.02272482 6.92089844 -0.01000977 C9.30545348 0.00386525 11.6860884 -0.0302295 14.0703125 -0.06835938 C15.58854262 -0.06931057 17.10677765 -0.06745171 18.625 -0.0625 C19.69077271 -0.08238731 19.69077271 -0.08238731 20.77807617 -0.10267639 C24.51594953 -0.03249257 26.03693565 0.30515799 28.7890625 2.91430664 C30.3125 5.56640625 30.3125 5.56640625 30.375 8.62890625 C29.0247455 12.36196281 27.63566863 13.42738435 24.3125 15.56640625 C20.97851562 16.09985352 20.97851562 16.09985352 17.21875 16.1328125 C16.21503357 16.14211037 16.21503357 16.14211037 15.19104004 16.15159607 C13.78248543 16.15867005 12.37384679 16.15556244 10.96533203 16.14282227 C8.81776349 16.12894027 6.67454566 16.16306605 4.52734375 16.20117188 C3.15364477 16.20212311 1.77994038 16.20026402 0.40625 16.1953125 C-0.83447266 16.1960376 -2.07519531 16.1967627 -3.35351562 16.19750977 C-7.57511882 15.39838526 -9.0589198 13.89907043 -11.6875 10.56640625 C-12.25 7.50390625 -12.25 7.50390625 -11.6875 4.56640625 C-8.47055868 0.1213895 -5.15025807 -0.03595224 0 0 Z " fill="#080807" transform="translate(60.6875,76.43359375)"/>
<path d="M0 0 C25.06041323 -0.0934166 50.12080038 -0.16396616 75.18135262 -0.20724869 C86.81724999 -0.22787915 98.45303922 -0.25600912 110.08886719 -0.30175781 C120.22994841 -0.34161061 130.37095132 -0.36742929 140.51210868 -0.37635398 C145.88243992 -0.38157133 151.25254709 -0.39384429 156.62280655 -0.42292023 C161.6772463 -0.45006459 166.73136961 -0.45844691 171.78587532 -0.45243073 C173.64103858 -0.45353139 175.4962124 -0.46149106 177.35131264 -0.4768219 C179.88507914 -0.49673469 182.4176522 -0.49193483 184.95144653 -0.48101807 C185.68492251 -0.49266943 186.41839848 -0.5043208 187.174101 -0.51632524 C192.22746547 -0.45750687 195.11027613 0.81623984 199 4 C200.42662219 6.85324437 200.31033868 8.83454549 200 12 C198.20006226 14.69990662 196.916227 16.5418865 194 18 C192.55151418 18.08342159 191.09929131 18.10732861 189.6484375 18.09765625 C188.79765625 18.09443359 187.946875 18.09121094 187.0703125 18.08789062 C186.18085938 18.07951172 185.29140625 18.07113281 184.375 18.0625 C183.4778125 18.05798828 182.580625 18.05347656 181.65625 18.04882812 C179.43743352 18.03702591 177.21874982 18.02056155 175 18 C175.33 17.01 175.66 16.02 176 15 C176.09357692 13.14772748 176.12993909 11.2921282 176.125 9.4375 C176.12757813 8.46683594 176.13015625 7.49617187 176.1328125 6.49609375 C176.16650953 4.00047047 176.16650953 4.00047047 175 2 C117.25 1.67 59.5 1.34 0 1 C0 0.67 0 0.34 0 0 Z " fill="#0179E3" transform="translate(21,188)"/>
<path d="M0 0 C3.06345144 -0.10822792 6.1230601 -0.18741479 9.1875 -0.25 C10.05181641 -0.28351562 10.91613281 -0.31703125 11.80664062 -0.3515625 C16.00097981 -0.41584356 18.3698444 -0.37196125 22.05078125 1.80078125 C24.7530806 4.84966809 25 6.96455131 25 11 C23.82191425 13.79020309 22.87107079 15.39882996 20.37472153 17.12168694 C17.00168836 18.36923494 13.7392675 18.26846178 10.19195557 18.24050903 C9.00464061 18.24307231 9.00464061 18.24307231 7.79333949 18.24568737 C5.1385017 18.24898411 2.48391611 18.23797554 -0.17089844 18.22705078 C-2.07294204 18.22648671 -3.97498607 18.22680315 -5.87702942 18.22793579 C-11.04402117 18.22851045 -16.21092037 18.21673775 -21.37789059 18.20278788 C-26.77643809 18.19029944 -32.17498764 18.18911151 -37.57354736 18.18673706 C-47.79802441 18.18051674 -58.02245877 18.16409844 -68.24691701 18.14403808 C-79.88644377 18.12169626 -91.52597256 18.11068997 -103.16551542 18.10064721 C-127.11036729 18.07973271 -151.05518126 18.044546 -175 18 C-175 17.67 -175 17.34 -175 17 C-117.25 16.67 -59.5 16.34 0 16 C1.29758261 13.40483479 1.13269102 11.45816973 1.125 8.5625 C1.12757813 7.59441406 1.13015625 6.62632813 1.1328125 5.62890625 C1.11213973 2.88982171 1.11213973 2.88982171 0 0 Z " fill="#0175DD" transform="translate(196,32)"/>
<path d="M0 0 C0.66914429 -0.00478363 1.33828857 -0.00956726 2.02770996 -0.01449585 C3.43630334 -0.01788406 4.84497652 -0.00875672 6.25341797 0.01220703 C8.40120886 0.03899961 10.54377653 0.01243484 12.69140625 -0.01953125 C14.06511562 -0.01622695 15.43882176 -0.00982026 16.8125 0 C18.05322266 0.00563965 19.29394531 0.0112793 20.57226562 0.01708984 C24.94942387 0.86649445 26.39903808 1.98122296 28.90625 5.6640625 C28.90625 8.6340625 28.90625 11.6040625 28.90625 14.6640625 C15.37625 14.6640625 1.84625 14.6640625 -12.09375 14.6640625 C-12.09375 5.6640625 -12.09375 5.6640625 -10.03710938 2.64306641 C-6.42365772 0.2135177 -4.33348178 0.01969764 0 0 Z " fill="#7F8F94" transform="translate(57.09375,324.3359375)"/>
<path d="M0 0 C2.73083902 -0.13548815 5.45491807 -0.23429855 8.1875 -0.3125 C8.95642578 -0.35439453 9.72535156 -0.39628906 10.51757812 -0.43945312 C14.81344105 -0.53163902 16.49795419 -0.37733789 20.05078125 2.29296875 C22 5 22 5 22 8.625 C21.05456241 11.81585187 20.63628553 13.10187442 18 15 C14.91363311 16.54318345 11.6670578 16.13322192 8.28060913 16.12025452 C7.47444047 16.12110894 6.6682718 16.12196337 5.83767378 16.12284368 C3.12141526 16.12449804 0.40521773 16.11897781 -2.31103516 16.11352539 C-4.25219216 16.11324348 -6.19334928 16.11340132 -8.13450623 16.1139679 C-13.41728644 16.11425573 -18.70004412 16.10836121 -23.98281908 16.10139394 C-29.49882933 16.09515812 -35.01484004 16.09455642 -40.53085327 16.09336853 C-50.98204362 16.09025589 -61.43322355 16.0820434 -71.88440931 16.07201904 C-83.78023763 16.06085582 -95.67606644 16.05534693 -107.5718987 16.05032361 C-132.04793825 16.03986074 -156.52396854 16.02226259 -181 16 C-181 15.67 -181 15.34 -181 15 C-120.94 15 -60.88 15 1 15 C1.62051575 7.23548211 1.62051575 7.23548211 0 0 Z " fill="#BFCCD4" transform="translate(475,248)"/>
<path d="M0 0 C2.70552388 2.19823815 4.44778333 3.89556667 6 7 C6.3768901 11.99379386 6.19468322 15.05989069 3 19 C-0.02926599 21.49072981 -2.11904534 22.85317422 -6 23.5 C-9.85379558 22.85770074 -11.99024197 21.4625293 -15 19 C-17.57224924 14.82665684 -17.69932104 10.77585103 -17 6 C-12.85630473 -0.95548849 -7.48367318 -2.10770118 0 0 Z " fill="#C0CED7" transform="translate(156,360)"/>
<path d="M0 0 C8.25 0 16.5 0 25 0 C24 5 24 5 22.375 6.6875 C20 8 20 8 16.375 9 C12.74926111 9.68257524 12.74926111 9.68257524 11 13 C10.70008931 15.58885171 10.49134775 18.09149082 10.375 20.6875 C10.31699219 21.7403418 10.31699219 21.7403418 10.2578125 22.81445312 C10.1637666 24.54254655 10.0808032 26.27123675 10 28 C6.37 28 2.74 28 -1 28 C-1.06058594 26.87980469 -1.12117187 25.75960938 -1.18359375 24.60546875 C-1.26801424 23.13280016 -1.35266149 21.66014456 -1.4375 20.1875 C-1.47681641 19.44951172 -1.51613281 18.71152344 -1.55664062 17.95117188 C-1.74381035 14.76928658 -1.98720793 12.03837622 -3 9 C-2.01 6.03 -1.02 3.06 0 0 Z " fill="#F8CDA0" transform="translate(177,373)"/>
<path d="M0 0 C2.39706123 -0.10854617 4.78915838 -0.18753157 7.1875 -0.25 C7.86103516 -0.28351563 8.53457031 -0.31703125 9.22851562 -0.3515625 C12.89041975 -0.42301429 14.82150622 -0.11534178 17.92578125 1.890625 C21.65448903 5.68253121 21.98809484 9.52850616 22.01953125 14.734375 C20.15901994 20.6937139 14.75051736 23.21445151 9.57421875 26.234375 C6 28 6 28 3 28 C2.98018066 27.36497559 2.96036133 26.72995117 2.93994141 26.07568359 C2.84418878 23.17506674 2.73471454 20.27512095 2.625 17.375 C2.57859375 15.87646484 2.57859375 15.87646484 2.53125 14.34765625 C2.32760852 9.22267899 2.01388817 4.79731083 0 0 Z " fill="#576973" transform="translate(298,325)"/>
<path d="M0 0 C2.94276693 1.12034274 5.38353955 2.24264747 8.0625 3.9375 C12.95572553 6.84081382 18.49357942 7.80649012 24 9 C23.73275326 15.01305159 23.11881275 19.29278543 19 24 C16.75 24.875 16.75 24.875 15 25 C14.67 24.01 14.34 23.02 14 22 C11.25100601 21.1135166 8.49614762 20.59950151 5.6640625 20.0390625 C3 19 3 19 1.16015625 16.85546875 C-0.2877078 13.29187069 -0.2950207 10.5224049 -0.1875 6.6875 C-0.14689453 4.80611328 -0.14689453 4.80611328 -0.10546875 2.88671875 C-0.07066406 1.93410156 -0.03585937 0.98148437 0 0 Z " fill="#E59756" transform="translate(277,361)"/>
<path d="M0 0 C6.03225939 -0.09899561 12.06404427 -0.17152907 18.09692383 -0.21972656 C20.14843993 -0.23982199 22.19989889 -0.26710324 24.2512207 -0.30175781 C27.20278025 -0.35036669 30.15358148 -0.37298952 33.10546875 -0.390625 C34.02023483 -0.41127014 34.93500092 -0.43191528 35.87748718 -0.45318604 C40.11882716 -0.45467516 42.38054048 -0.38502797 46.0559082 1.89941406 C50.0785033 6.2458172 49 6.82047967 49 14 C43.06 14 37.12 14 31 14 C30.34 9.71 29.68 5.42 29 1 C19.43 1 9.86 1 0 1 C0 0.67 0 0.34 0 0 Z " fill="#6C7E86" transform="translate(386,77)"/>
<path d="M0 0 C2.39774745 -0.13572155 4.78775245 -0.23436868 7.1875 -0.3125 C8.19780273 -0.3753418 8.19780273 -0.3753418 9.22851562 -0.43945312 C12.92800924 -0.52968468 14.8779088 -0.07995776 17.98828125 1.95703125 C20 5 20 5 20 14 C6.47 14 -7.06 14 -21 14 C-21 13.67 -21 13.34 -21 13 C-13.41 13 -5.82 13 2 13 C1.34 8.71 0.68 4.42 0 0 Z " fill="#6D7F87" transform="translate(66,325)"/>
<path d="M0 0 C2.31 0 4.62 0 7 0 C6.63118644 6.14689273 5.09949571 8.69027374 1 13 C-0.32 12.34 -1.64 11.68 -3 11 C-2.01 7.37 -1.02 3.74 0 0 Z " fill="#F8DFBC" transform="translate(177,373)"/>
</svg>
