<?xml version="1.0" encoding="UTF-8"?>
<svg version="1.1" xmlns="http://www.w3.org/2000/svg" width="512" height="512">
<path d="M0 0 C1.02915527 -0.05184448 1.02915527 -0.05184448 2.07910156 -0.10473633 C6.03231376 -0.1370843 7.61747298 0.33081922 10.734375 2.83984375 C12.75 5.4375 12.75 5.4375 12.75 7.4375 C19.02 7.4375 25.29 7.4375 31.75 7.4375 C32.41 5.7875 33.07 4.1375 33.75 2.4375 C37.01906427 0.25812382 37.97703096 0.18226401 41.76538086 0.1628418 C42.78752182 0.15330978 43.80966278 0.14377777 44.86277771 0.13395691 C45.9689595 0.13486832 47.0751413 0.13577972 48.21484375 0.13671875 C49.35852921 0.13243362 50.50221466 0.1281485 51.68055725 0.12373352 C54.10742532 0.11798326 56.53431063 0.11749505 58.96118164 0.12182617 C62.64174695 0.12496103 66.32148873 0.10162255 70.00195312 0.07617188 C72.36458233 0.07389619 74.72721367 0.07319663 77.08984375 0.07421875 C78.72178932 0.06040413 78.72178932 0.06040413 80.38670349 0.04631042 C97.59989754 0.1483726 112.42019306 6.39222707 124.75 18.4375 C137.30663335 32.90119883 141.23672023 49.10770711 141.05078125 67.91796875 C141.05240013 69.26549194 141.05620591 70.61301405 141.0620575 71.96052551 C141.08357809 77.60984166 141.07293341 83.25873525 141.03491211 88.90795898 C141.01297143 92.39220662 141.02047395 95.87543184 141.0453701 99.35964394 C141.05063501 101.30153038 141.02313664 103.24341893 140.9947052 105.18510437 C141.06469633 113.6720732 142.91389612 118.56172826 147.75 125.4375 C151.40849696 134.41744707 150.64564678 144.06215206 147.0078125 152.90234375 C142.62588887 161.73423329 135.5672771 168.74072268 126.11328125 171.98046875 C121.05388179 172.95889807 115.87599161 172.64847831 110.75 172.4375 C110.75 173.5925 110.75 174.7475 110.75 175.9375 C110.20706478 181.08715827 108.17256953 185.2461835 105.875 189.8125 C105.34712891 190.8653418 105.34712891 190.8653418 104.80859375 191.93945312 C102.12825109 197.09587442 102.12825109 197.09587442 100.15649414 198.87670898 C98.31301508 200.92242355 98.3297063 202.16225234 98.23828125 204.88671875 C98.20516846 205.65072998 98.17205566 206.41474121 98.13793945 207.2019043 C98.11304443 208.16652588 98.08814941 209.13114746 98.0625 210.125 C97.959375 213.198125 97.85625 216.27125 97.75 219.4375 C105.34 219.4375 112.93 219.4375 120.75 219.4375 C120.09 216.4675 119.43 213.4975 118.75 210.4375 C120.27123778 205.12848458 122.80865111 201.87454926 126.6796875 198.01171875 C127.15189728 197.53805374 127.62410706 197.06438873 128.11062622 196.57637024 C129.10262331 195.58602065 130.09951924 194.60055555 131.10107422 193.61987305 C132.62651243 192.1235164 134.1322758 190.60923029 135.63671875 189.09179688 C144.96337149 179.82500058 144.96337149 179.82500058 150.92578125 179.21484375 C159.25492249 179.83914867 163.25799216 184.7299775 168.671875 190.60546875 C169.19031982 191.15420654 169.70876465 191.70294434 170.24291992 192.26831055 C171.27364915 193.36445236 172.28519423 194.47901864 173.2746582 195.61254883 C174.8731512 197.40474306 174.8731512 197.40474306 177.75 199.4375 C181.39225403 199.1435741 181.39225403 199.1435741 184.75 198.4375 C184.72381592 197.56013184 184.69763184 196.68276367 184.6706543 195.77880859 C184.58509091 192.50227243 184.52259133 189.22693442 184.4753418 185.94970703 C184.45030075 184.53545318 184.41625658 183.12132743 184.37280273 181.70751953 C183.97535346 168.43738974 183.97535346 168.43738974 187.01953125 164.6015625 C191.88637281 160.74429465 195.42435146 160.12044865 201.5859375 160.1015625 C202.34290924 160.0949057 203.09988098 160.0882489 203.87979126 160.08139038 C205.47842995 160.07128401 207.07711065 160.06657274 208.67578125 160.06689453 C211.11008952 160.06252675 213.54257543 160.02620456 215.9765625 159.98828125 C217.533848 159.98241135 219.09114207 159.97844312 220.6484375 159.9765625 C221.37050385 159.96219147 222.09257019 159.94782043 222.83651733 159.93301392 C227.95692191 159.97885171 230.86595872 161.12923901 234.75 164.4375 C237.87135777 168.34278852 238.10808512 171.34239239 238.04296875 176.26953125 C238.03330078 177.56181641 238.02363281 178.85410156 238.01367188 180.18554688 C237.98860985 181.5403707 237.96321506 182.89518841 237.9375 184.25 C237.92244013 185.62433445 237.90875401 186.99868468 237.89648438 188.37304688 C237.86116628 191.72826632 237.81183851 195.08268166 237.75 198.4375 C241.03801508 199.27511607 241.03801508 199.27511607 244.75 199.4375 C247.2331623 198.00005613 247.2331623 198.00005613 249.1953125 195.66796875 C249.96230469 194.86166016 250.72929687 194.05535156 251.51953125 193.22460938 C252.29683594 192.36673828 253.07414062 191.50886719 253.875 190.625 C255.43313728 188.94533313 256.99801698 187.27188989 258.5703125 185.60546875 C259.59535889 184.48047974 259.59535889 184.48047974 260.64111328 183.33276367 C263.46321011 180.79653565 266.15591215 179.60062928 269.92578125 179.21484375 C274.39592755 179.54990042 277.15406037 180.39488912 280.484375 183.453125 C281.17313721 184.083396 281.86189941 184.71366699 282.5715332 185.36303711 C286.32922764 188.94133249 290.0280246 192.57138175 293.6875 196.25 C294.83702148 197.3937207 294.83702148 197.3937207 296.00976562 198.56054688 C296.73744141 199.28951172 297.46511719 200.01847656 298.21484375 200.76953125 C298.870896 201.42671143 299.52694824 202.0838916 300.20288086 202.76098633 C303.46528064 206.29623949 303.27729727 209.94146198 303.19921875 214.578125 C302.40565562 219.62932681 299.40044418 222.07509409 295.75 225.4375 C294.00797236 227.05745472 292.27596623 228.68564641 290.55932617 230.33251953 C289.36752223 231.47205843 288.15817116 232.59356531 286.9309082 233.69482422 C286.09885864 234.48397217 286.09885864 234.48397217 285.25 235.2890625 C284.7446875 235.75135254 284.239375 236.21364258 283.71875 236.68994141 C282.22097214 239.39183 283.06997101 241.53270355 283.75 244.4375 C284.97517334 244.41393433 284.97517334 244.41393433 286.22509766 244.38989258 C289.94166077 244.3273606 293.65811296 244.28845056 297.375 244.25 C298.66019531 244.22486328 299.94539063 244.19972656 301.26953125 244.17382812 C303.13544922 244.15932617 303.13544922 244.15932617 305.0390625 244.14453125 C306.75150146 244.12096558 306.75150146 244.12096558 308.49853516 244.09692383 C313.40768989 244.61113549 316.47725978 246.26755649 320.08959961 249.58813477 C322.29854472 253.37884178 322.3433297 256.75761261 322.31640625 261.02734375 C322.32260483 261.84948868 322.32880341 262.67163361 322.33518982 263.51869202 C322.34227431 265.25260233 322.33913789 266.98658087 322.32641602 268.72045898 C322.31255897 271.36375026 322.34662544 274.00349232 322.38476562 276.64648438 C322.38571702 278.33593836 322.38385688 280.02539675 322.37890625 281.71484375 C322.39216446 282.49939438 322.40542267 283.28394501 322.41908264 284.0922699 C322.35188682 288.08225473 321.97203154 290.6743448 319.46069336 293.85766602 C314.89062906 298.20710936 312.32069404 298.68812012 306.015625 298.6328125 C304.72011719 298.62636719 303.42460937 298.61992187 302.08984375 298.61328125 C300.72655981 298.59657193 299.36327856 298.57964206 298 298.5625 C296.62110015 298.5524634 295.24219335 298.54333873 293.86328125 298.53515625 C290.49201118 298.51158093 287.12109364 298.4786727 283.75 298.4375 C282.90967035 301.22303277 282.90967035 301.22303277 282.75 304.4375 C284.21053898 306.82739528 284.21053898 306.82739528 286.51953125 308.8203125 C287.32583984 309.59503906 288.13214844 310.36976563 288.96289062 311.16796875 C289.82076172 311.95816406 290.67863281 312.74835938 291.5625 313.5625 C293.23984275 315.14403109 294.91319561 316.72980726 296.58203125 318.3203125 C297.33202393 319.01527832 298.0820166 319.71024414 298.85473633 320.42626953 C301.98067279 323.74347481 303.08927439 326.6653812 303.3125 331.1875 C303.17332668 335.27017876 302.55311433 337.23380149 299.7578125 340.2109375 C299.12270752 340.89478516 298.48760254 341.57863281 297.83325195 342.28320312 C297.14577881 342.99412109 296.45830566 343.70503906 295.75 344.4375 C295.05543701 345.16388672 294.36087402 345.89027344 293.64526367 346.63867188 C291.47149378 348.8845317 289.27162064 351.10143983 287.0625 353.3125 C286.31677734 354.07046875 285.57105469 354.8284375 284.80273438 355.609375 C284.08021484 356.33382813 283.35769531 357.05828125 282.61328125 357.8046875 C281.96657471 358.45550293 281.31986816 359.10631836 280.65356445 359.77685547 C276.90056829 363.05091984 273.92773816 363.6765481 268.9453125 363.8984375 C261.22754397 362.27798076 255.75193342 354.39445544 250.75976562 348.84179688 C250.08751953 348.13474609 249.41527344 347.42769531 248.72265625 346.69921875 C248.12718994 346.04912842 247.53172363 345.39903809 246.91821289 344.72924805 C243.69964614 342.81173463 241.29632371 343.66987096 237.75 344.4375 C237.76571045 345.28981201 237.7814209 346.14212402 237.79760742 347.02026367 C237.84888962 350.19781226 237.88642482 353.37514913 237.91479492 356.55297852 C237.92983432 357.92544517 237.95027133 359.29786414 237.97631836 360.67016602 C238.01291221 362.64838656 238.02816698 364.62696514 238.04296875 366.60546875 C238.0586792 367.79422607 238.07438965 368.9829834 238.09057617 370.20776367 C237.5888425 374.96578143 235.75603508 377.46774815 232.3671875 380.734375 C226.9247422 383.29690864 221.80514066 382.86152219 215.875 382.6875 C214.7096875 382.66945313 213.544375 382.65140625 212.34375 382.6328125 C209.47831751 382.5858382 206.61458832 382.52016293 203.75 382.4375 C203.77094727 383.19369629 203.79189453 383.94989258 203.81347656 384.72900391 C203.89690585 388.173366 203.94874624 391.61751507 204 395.0625 C204.03351563 396.25230469 204.06703125 397.44210937 204.1015625 398.66796875 C204.19053578 406.63107701 203.71449494 410.35668736 198.15234375 416.08203125 C193.88739725 419.48261526 191.1008115 420.56109292 185.71799183 420.57172108 C184.6719336 420.57617892 183.62587537 420.58063676 182.54811841 420.58522969 C181.39502941 420.58504533 180.2419404 420.58486097 179.0539093 420.58467102 C177.22093262 420.59018605 177.22093262 420.59018605 175.3509261 420.5958125 C171.95266339 420.60494212 168.55444898 420.60954964 165.15617859 420.61220181 C161.49345977 420.61610422 157.83075494 420.62568261 154.16804504 420.63441467 C145.31935075 420.654181 136.47065531 420.66424556 127.62194446 420.67314246 C123.45538701 420.67752514 119.28883084 420.68289201 115.1222744 420.68813133 C101.27241053 420.70514388 87.42254746 420.71963815 73.57267475 420.72688007 C69.9782187 420.72878998 66.38376266 420.73071031 62.78930664 420.73266602 C61.44922248 420.73339163 61.44922248 420.73339163 60.0820659 420.7341319 C45.60906884 420.74243256 31.13615442 420.76776998 16.66319344 420.80024669 C1.80565513 420.83331469 -13.05184119 420.8513286 -27.9094165 420.85452431 C-36.25202261 420.85668967 -44.59450822 420.86544196 -52.93707848 420.89098549 C-60.04191443 420.91268897 -67.1466006 420.92074468 -74.25146594 420.91101871 C-77.87579688 420.90647292 -81.49981877 420.908376 -85.12410736 420.92778015 C-89.05586359 420.94864842 -92.9871938 420.93842986 -96.91899109 420.92524719 C-98.63189419 420.94170106 -98.63189419 420.94170106 -100.37940139 420.95848733 C-107.1351924 420.90375134 -111.49945407 420.05903278 -117.25 416.4375 C-121.33424391 412.14380768 -122.37987478 408.94483486 -122.34765625 403.11328125 C-122.34282227 401.57124023 -122.34282227 401.57124023 -122.33789062 399.99804688 C-122.32532227 398.39026367 -122.32532227 398.39026367 -122.3125 396.75 C-122.30798828 395.66654297 -122.30347656 394.58308594 -122.29882812 393.46679688 C-122.28703743 390.79030915 -122.27058063 388.11393223 -122.25 385.4375 C-123.87421875 385.67726563 -123.87421875 385.67726563 -125.53125 385.921875 C-141.26810729 388.10387622 -156.5921462 383.61261504 -169.2890625 374.1796875 C-180.1531194 364.87191423 -188.09981562 352.75215344 -190.25 338.4375 C-191.2839432 322.64164338 -190.17973801 308.96968002 -181.25 295.4375 C-180.75886719 294.68855469 -180.26773438 293.93960937 -179.76171875 293.16796875 C-176.48052069 288.57115906 -173.48668384 285.92974411 -168.57763672 283.12768555 C-165.07962566 280.61677441 -163.50444543 279.30163244 -162.27740479 275.13442993 C-161.96324328 271.03322382 -161.98650333 267.06149839 -162.1328125 262.95703125 C-162.14360477 261.45589601 -162.14878979 259.95471102 -162.14865112 258.45353699 C-162.15993472 254.51986905 -162.23240515 250.58997305 -162.3225708 246.65740967 C-162.45982397 240.35510849 -162.51717788 234.0523608 -162.54824448 227.7487545 C-162.56997683 225.55343896 -162.62635998 223.36100541 -162.6867981 221.16645813 C-162.70390286 219.8177725 -162.71997946 218.4690733 -162.73486328 217.12036133 C-162.77463791 215.36119133 -162.77463791 215.36119133 -162.81521606 213.56648254 C-162.07389098 209.46257717 -160.48833474 207.97523258 -157.25 205.4375 C-156.26 205.4375 -155.27 205.4375 -154.25 205.4375 C-154.25 199.1675 -154.25 192.8975 -154.25 186.4375 C-155.9 186.1075 -157.55 185.7775 -159.25 185.4375 C-162.05640363 182.99807881 -162.24384101 181.50381403 -162.59057617 177.77050781 C-162.59010383 176.31046071 -162.57330994 174.85035689 -162.54296875 173.390625 C-162.53872391 172.61942322 -162.53447906 171.84822144 -162.53010559 171.0536499 C-162.51335383 168.59790685 -162.47570939 166.14299371 -162.4375 163.6875 C-162.42244857 162.01954313 -162.40876097 160.35157335 -162.39648438 158.68359375 C-162.36346194 154.60124422 -162.31170484 150.51951268 -162.25 146.4375 C-162.87237549 146.12989746 -163.49475098 145.82229492 -164.13598633 145.50537109 C-177.3242452 138.84346507 -184.63799801 125.76297564 -189.35546875 112.27734375 C-193.14224264 96.02232744 -190.30804429 79.37674218 -182.0078125 65.0703125 C-176.21134563 56.38849324 -168.82978874 48.33337133 -158.5625 45.375 C-154.57973457 45.45014652 -152.53575742 46.19721085 -149.25 48.4375 C-145.69959444 52.8759001 -145.85277466 56.81534505 -145.95703125 62.23828125 C-145.96127609 63.07465622 -145.96552094 63.91103119 -145.96989441 64.77275085 C-145.98662636 67.43216765 -146.02426774 70.090814 -146.0625 72.75 C-146.07755396 74.55793173 -146.09124112 76.36587539 -146.10351562 78.17382812 C-146.13651184 82.59534689 -146.18825572 87.01629302 -146.25 91.4375 C-145.46302734 91.74469971 -144.67605469 92.05189941 -143.86523438 92.3684082 C-141.60499981 93.29237825 -139.78130843 94.29794237 -137.75 95.625 C-134.5458289 97.60753885 -134.5458289 97.60753885 -131.8125 97.5 C-128.62544116 96.17853658 -125.87502537 94.42341578 -123.01953125 92.49609375 C-121.25 91.4375 -121.25 91.4375 -119.25 91.4375 C-119.27094727 90.31778809 -119.29189453 89.19807617 -119.31347656 88.04443359 C-119.38610426 83.87366623 -119.43188211 79.70295432 -119.46972656 75.53173828 C-119.48979033 73.72955919 -119.51704813 71.92744479 -119.55175781 70.12548828 C-119.60050829 67.52880864 -119.62302082 64.93299271 -119.640625 62.3359375 C-119.66127014 61.5357016 -119.68191528 60.7354657 -119.70318604 59.91098022 C-119.70528942 54.61752734 -118.76367117 51.63658791 -115.25 47.4375 C-112.04651558 45.44614482 -109.08077344 44.94952895 -105.3359375 45.64453125 C-93.58687256 50.11093609 -84.62059168 61.47900945 -79.25 72.4375 C-72.67939558 88.88493655 -72.8499957 105.88822492 -79.640625 122.265625 C-84.84921448 132.53109746 -92.41875537 142.10500215 -103.25 146.4375 C-103.25 175.8075 -103.25 205.1775 -103.25 235.4375 C-98.96 232.4675 -94.67 229.4975 -90.25 226.4375 C-78.23234081 221.10891527 -67.33082837 219.11185014 -54.23828125 219.2421875 C-52.59692451 219.24643234 -52.59692451 219.24643234 -50.92240906 219.25076294 C-47.46898902 219.26184966 -44.01584004 219.28693221 -40.5625 219.3125 C-38.20377982 219.32254469 -35.84505552 219.33166792 -33.48632812 219.33984375 C-27.74079483 219.36175113 -21.99541679 219.39511188 -16.25 219.4375 C-16.3003183 216.59262437 -16.38013878 213.75354461 -16.4765625 210.91015625 C-16.4876001 210.1150061 -16.4986377 209.31985596 -16.51000977 208.50061035 C-16.8062793 200.97651853 -19.74389759 196.4240793 -24.08203125 190.49609375 C-28.23803837 184.63275398 -29.40113905 179.53095936 -29.25 172.4375 C-30.07242188 172.48390625 -30.89484375 172.5303125 -31.7421875 172.578125 C-42.41373034 172.92316334 -49.3095621 171.18994825 -57.5625 164.3125 C-63.44438016 158.7265635 -67.93868654 151.43048902 -68.453125 143.1796875 C-68.65950628 126.15323167 -68.65950628 126.15323167 -62.71386719 119.67358398 C-58.82245269 114.22254085 -59.60145794 107.97274155 -59.68359375 101.53515625 C-59.68062619 100.17100678 -59.67488196 98.80686083 -59.66651917 97.44273376 C-59.64586178 93.12826439 -59.66532529 88.81442716 -59.6875 84.5 C-59.89532546 35.94541062 -59.89532546 35.94541062 -41.625 16.6875 C-30.00949079 5.68333338 -15.80634314 0.46520699 0 0 Z M-142.25 322.4375 C-143.78214888 325.50179776 -143.47938548 328.0540642 -143.25 331.4375 C-141.59860695 334.9761994 -140.53394771 336.24820153 -137.25 338.4375 C-134.18524457 338.98272803 -131.31475161 338.98592924 -128.25 338.4375 C-125.22590636 336.16622666 -125.22590636 336.16622666 -123.25 333.4375 C-122.92 333.1075 -122.59 332.7775 -122.25 332.4375 C-121.6433482 327.31554863 -121.6433482 327.31554863 -123.296875 322.609375 C-126.21090778 319.07825292 -127.96657118 317.58558794 -132.5 317.0625 C-137.44272958 317.55677296 -138.78828301 318.97578301 -142.25 322.4375 Z " fill="#010101" transform="translate(190.25,45.5625)"/>
<path d="M0 0 C0.763125 0.53625 1.52625 1.0725 2.3125 1.625 C3.1722493 2.12804657 4.0319986 2.63109314 4.9178009 3.14938354 C8.45685784 6.80802592 8.00591889 9.94344831 7.94018555 14.85986328 C7.94745667 15.79357758 7.95472778 16.72729187 7.96221924 17.68930054 C7.98081994 20.77502272 7.96474282 23.85958966 7.94921875 26.9453125 C7.95725534 29.08715861 7.96777139 31.22899673 7.98066711 33.37081909 C8.00924493 39.00899478 8.00978489 44.64680306 8.00280762 50.28503418 C7.99548891 59.31727044 8.02671074 68.34938751 8.06525612 77.38152695 C8.07414067 80.54253212 8.0687909 83.70328344 8.06169128 86.86428833 C8.06507415 88.79250153 8.06882294 90.72071413 8.07299805 92.64892578 C8.06730301 93.53312195 8.06160797 94.41731812 8.05574036 95.32830811 C7.85848593 99.95653361 7.85848593 99.95653361 10.3125 103.625 C14.37345958 104.09713673 14.37345958 104.09713673 18.3125 103.625 C20.91280005 101.1327009 21.30921457 99.65461423 21.71122742 96.03094482 C21.73759005 94.56867606 21.74766263 93.10605841 21.74487305 91.64355469 C21.7550647 90.8431778 21.76525635 90.0428009 21.77575684 89.21817017 C21.80590519 86.57766741 21.81515548 83.93752732 21.82421875 81.296875 C21.84106409 79.46411939 21.85921414 77.63137534 21.87861633 75.79864502 C21.92613825 70.97855238 21.95593343 66.15850662 21.98205566 61.33825684 C22.01185012 56.4181187 22.05838428 51.49814213 22.10351562 46.578125 C22.18957368 36.92716781 22.25690786 27.27617739 22.3125 17.625 C25.54941707 19.17495348 28.07152746 21.00537454 30.875 23.25 C35.6220771 26.61368333 39.10658768 27.51315824 44.88671875 27.12890625 C48.2140996 26.43771119 50.07750203 25.1579977 52.3125 22.625 C53.83356634 19.58286733 53.68679338 16.34452428 53.875 13 C53.93977539 11.94039063 53.93977539 11.94039063 54.00585938 10.859375 C54.11194751 9.11481463 54.21272889 7.36993303 54.3125 5.625 C61.62235434 5.52276833 68.93202128 5.45318856 76.24243164 5.40527344 C78.72427256 5.3852781 81.20606709 5.35807274 83.68774414 5.32324219 C87.27501947 5.27419036 90.86166678 5.25190942 94.44921875 5.234375 C95.54143234 5.21372986 96.63364594 5.19308472 97.75895691 5.17181396 C110.27580058 5.16824678 120.67138492 8.62202129 130.3125 16.625 C130.94800781 17.13675781 131.58351563 17.64851563 132.23828125 18.17578125 C140.33473008 25.41052378 145.7791126 36.58436863 146.4969101 47.40491867 C146.57210122 50.71925372 146.58271791 54.02808443 146.57128906 57.34326172 C146.57654602 59.22751106 146.57654602 59.22751106 146.58190918 61.14982605 C146.58917269 64.57301701 146.58751488 67.99596431 146.58115101 71.41914129 C146.57606714 75.00697995 146.58078846 78.59480861 146.58392334 82.18264771 C146.58755323 88.19958353 146.58278665 94.2164701 146.57324219 100.23339844 C146.56232978 107.19315764 146.56590725 114.15279991 146.576895 121.11255634 C146.5859604 127.09402592 146.58725772 133.07546025 146.58201766 139.05693448 C146.57889764 142.62723849 146.57849007 146.19748744 146.58509064 149.76778793 C146.59192221 153.73960708 146.58246374 157.71129411 146.57128906 161.68310547 C146.57533752 162.86959183 146.57938599 164.05607819 146.58355713 165.27851868 C146.57791748 166.3551326 146.57227783 167.43174652 146.56646729 168.54098511 C146.56533621 169.94956944 146.56533621 169.94956944 146.56418228 171.38661003 C146.3125 173.625 146.3125 173.625 144.3125 175.625 C142.06591797 175.85205078 142.06591797 175.85205078 139.3046875 175.8203125 C138.31855469 175.81386719 137.33242188 175.80742187 136.31640625 175.80078125 C134.76759766 175.77564453 134.76759766 175.77564453 133.1875 175.75 C132.14722656 175.74097656 131.10695313 175.73195313 130.03515625 175.72265625 C127.46070908 175.69903747 124.88671788 175.66610149 122.3125 175.625 C122.31107498 174.69649734 122.30964996 173.76799469 122.30818176 172.81135559 C122.29034453 164.05655576 122.24870963 155.3022611 122.18040943 146.54770374 C122.14613366 142.04695295 122.12102858 137.54654179 122.11694336 133.0456543 C122.1126616 128.70111332 122.08420982 124.35733858 122.03906822 120.01303673 C122.02608916 118.35651807 122.02178702 116.69990773 122.02634621 115.0433445 C122.03124971 112.72052135 122.00517609 110.39993993 121.97192383 108.07739258 C121.98054947 107.39406357 121.98917511 106.71073456 121.99806213 106.00669861 C121.90653655 102.18740467 121.37518479 100.70032079 118.89628601 97.72172546 C115.12297052 94.6597046 113.2775299 94.49171088 108.47338867 94.44799805 C107.24839157 94.43516281 106.02339447 94.42232758 104.76127625 94.40910339 C103.41767785 94.40093567 102.07407489 94.393492 100.73046875 94.38671875 C99.7165528 94.38060546 99.7165528 94.38060546 98.6821537 94.37436867 C95.1037794 94.35350871 91.52544343 94.33920727 87.94702148 94.32983398 C84.25471575 94.31877523 80.56301364 94.28438239 76.87092113 94.24466228 C74.02870073 94.21848861 71.18662391 94.21014151 68.34429359 94.20655251 C66.9835433 94.20168764 65.62279937 94.19007629 64.26216698 94.17151451 C62.35485778 94.14711439 60.44725483 94.15050875 58.53979492 94.1550293 C57.45550705 94.14916306 56.37121918 94.14329681 55.2540741 94.13725281 C51.5594183 94.7498697 49.95033865 96.00505598 47.3125 98.625 C44.82801064 102.10123205 45.03755329 105.50325298 44.99365234 109.68847656 C44.97858391 110.74273834 44.97858391 110.74273834 44.96321106 111.81829834 C44.93239881 114.13406582 44.91534964 116.44971779 44.8984375 118.765625 C44.87972425 120.37417595 44.86015071 121.9827171 44.8397522 123.59124756 C44.78844149 127.8194806 44.74881015 132.04774546 44.71160889 136.27612305 C44.67156256 140.59301621 44.62047309 144.90977711 44.5703125 149.2265625 C44.47356571 157.69262463 44.39017789 166.15874141 44.3125 174.625 C37.0525 174.625 29.7925 174.625 22.3125 174.625 C22.27511719 171.49515625 22.23773438 168.3653125 22.19921875 165.140625 C22.15300604 162.10897842 22.1017714 159.07745543 22.05004883 156.04589844 C22.01679718 153.93920402 21.988766 151.83242046 21.96606445 149.72558594 C21.93252317 146.69687925 21.88020709 143.66898962 21.82421875 140.640625 C21.81782883 139.69882385 21.8114389 138.75702271 21.80485535 137.78668213 C21.78506119 136.90607117 21.76526703 136.02546021 21.74487305 135.11816406 C21.72821846 133.95900482 21.72821846 133.95900482 21.71122742 132.77642822 C21.20810871 130.06173204 20.16023193 128.64835062 18.3125 126.625 C15.47681142 125.96240346 13.27010774 126.34332307 10.3125 126.625 C7.85753574 129.07996426 8.04783389 129.78918765 7.99365234 133.16650391 C7.97378265 134.10732819 7.95391296 135.04815247 7.93344116 136.01748657 C7.91611435 137.54410416 7.91611435 137.54410416 7.8984375 139.1015625 C7.87907135 140.14194672 7.8597052 141.18233093 7.8397522 142.25424194 C7.77984273 145.5860772 7.73352548 148.91794679 7.6875 152.25 C7.6493307 154.50522363 7.6102796 156.76043252 7.5703125 159.015625 C7.47413181 164.551964 7.39014284 170.08837124 7.3125 175.625 C1.3725 175.625 -4.5675 175.625 -10.6875 175.625 C-10.87267798 153.56352126 -11.01544889 131.50222964 -11.10199738 109.44013023 C-11.14325134 99.19630862 -11.19949582 88.95297868 -11.29101562 78.70947266 C-11.37074517 69.78135624 -11.42236371 60.85359587 -11.44020796 51.92513335 C-11.4506394 47.19720295 -11.47515755 42.47029117 -11.53334045 37.74268723 C-11.58767068 33.2920429 -11.60438764 28.84283592 -11.59236145 24.39189148 C-11.59456118 22.75919912 -11.61046106 21.1264584 -11.6411438 19.49405289 C-11.86086373 7.20064619 -11.86086373 7.20064619 -8.93992615 3.27827835 C-5.86032107 0.84098096 -3.97119434 -0.55412014 0 0 Z " fill="#908190" transform="translate(232.6875,275.375)"/>
<path d="M0 0 C1.08081848 0.00007553 2.16163696 0.00015106 3.27520752 0.00022888 C4.43574646 0.00539017 5.5962854 0.01055145 6.79199219 0.01586914 C7.98491882 0.01728409 9.17784546 0.01869904 10.40692139 0.02015686 C14.21759548 0.02575501 18.02821085 0.03830721 21.83886719 0.05102539 C24.42219967 0.05604063 27.00553308 0.06060349 29.58886719 0.06469727 C35.92222056 0.07572384 42.25553968 0.09246016 48.58886719 0.11352539 C48.67430786 1.35090454 48.67430786 1.35090454 48.76147461 2.61328125 C48.84244385 3.69488525 48.92341309 4.77648926 49.00683594 5.89086914 C49.08442139 6.96328857 49.16200684 8.03570801 49.24194336 9.140625 C49.76401712 13.61444073 51.0290039 16.72175082 54.40136719 19.73071289 C58.28442374 22.18535935 62.16692398 21.92928651 66.58886719 21.11352539 C69.90419352 19.47390832 72.70753373 17.41747101 75.58886719 15.11352539 C79.35438443 12.11352539 79.35438443 12.11352539 81.58886719 12.11352539 C81.58886719 64.25352539 81.58886719 116.39352539 81.58886719 170.11352539 C73.99886719 170.11352539 66.40886719 170.11352539 58.58886719 170.11352539 C58.5847583 167.86773682 58.58064941 165.62194824 58.57641602 163.30810547 C58.55921053 155.88396147 58.51469572 148.46016158 58.45677662 141.03622913 C58.42250084 136.53547834 58.39739576 132.03506718 58.39331055 127.53417969 C58.38902879 123.18963871 58.36057701 118.84586397 58.31543541 114.50156212 C58.30245635 112.84504346 58.2981542 111.18843312 58.30271339 109.53186989 C58.3076169 107.20904675 58.28154328 104.88846532 58.24829102 102.56591797 C58.26122948 101.54092445 58.26122948 101.54092445 58.27442932 100.495224 C58.18290374 96.67593006 57.65155197 95.18884618 55.1726532 92.21025085 C51.3993377 89.14822999 49.55389709 88.98023627 44.74975586 88.93652344 C43.52475876 88.9236882 42.29976166 88.91085297 41.03764343 88.89762878 C39.69404504 88.88946106 38.35044208 88.88201739 37.00683594 88.87524414 C35.99291999 88.86913085 35.99291999 88.86913085 34.95852089 88.86289406 C31.38014659 88.8420341 27.80181062 88.82773266 24.22338867 88.81835938 C20.53108294 88.80730062 16.83938083 88.77290778 13.14728832 88.73318768 C10.30506792 88.707014 7.4629911 88.6986669 4.62066078 88.6950779 C3.25991048 88.69021304 1.89916656 88.67860168 0.53853416 88.6600399 C-1.36877503 88.63563978 -3.27637798 88.63903414 -5.18383789 88.64355469 C-6.26812576 88.63768845 -7.35241364 88.6318222 -8.46955872 88.6257782 C-12.16421452 89.23839509 -13.77329416 90.49358137 -16.41113281 93.11352539 C-18.89562217 96.58975744 -18.68607952 99.99177837 -18.72998047 104.17700195 C-18.74002609 104.87984314 -18.75007172 105.58268433 -18.76042175 106.30682373 C-18.79123401 108.62259121 -18.80828317 110.93824318 -18.82519531 113.25415039 C-18.84390857 114.86270134 -18.8634821 116.47124249 -18.88388062 118.07977295 C-18.93519132 122.30800599 -18.97482266 126.53627085 -19.01202393 130.76464844 C-19.05207026 135.0815416 -19.10315973 139.3983025 -19.15332031 143.71508789 C-19.25006703 152.18114335 -19.33447576 160.64726431 -19.41113281 169.11352539 C-23.05694968 169.14240051 -26.70273745 169.16028124 -30.34863281 169.17602539 C-31.38955078 169.1844043 -32.43046875 169.1927832 -33.50292969 169.20141602 C-34.49228516 169.20463867 -35.48164062 169.20786133 -36.50097656 169.21118164 C-37.41741943 169.21641846 -38.3338623 169.22165527 -39.27807617 169.22705078 C-41.41113281 169.11352539 -41.41113281 169.11352539 -42.41113281 168.11352539 C-42.51593301 166.4727653 -42.55077722 164.82749705 -42.55830383 163.18341064 C-42.56545914 162.11539719 -42.57261444 161.04738373 -42.57998657 159.94700623 C-42.58401993 158.17366661 -42.58401993 158.17366661 -42.58813477 156.36450195 C-42.59470596 155.12702713 -42.60127716 153.88955231 -42.60804749 152.61457825 C-42.62785212 148.49443322 -42.63946458 144.37432732 -42.64941406 140.25415039 C-42.65346176 138.83389008 -42.65757868 137.41362997 -42.66176414 135.99337006 C-42.68083853 129.31114155 -42.69505658 122.62892415 -42.70337611 115.94667363 C-42.71311347 108.25323394 -42.73933096 100.56008467 -42.77987701 92.86674714 C-42.81017435 86.91158134 -42.82485838 80.956498 -42.82815713 75.0012567 C-42.83049508 71.44994856 -42.83928743 67.89894978 -42.8646183 64.34772491 C-42.89252662 60.37015349 -42.88802657 56.39295312 -42.88110352 52.4152832 C-42.89391357 51.25734756 -42.90672363 50.09941193 -42.91992188 48.90638733 C-42.8440137 36.86120694 -39.75782087 26.68036644 -32.41113281 17.11352539 C-31.54488281 15.81415039 -31.54488281 15.81415039 -30.66113281 14.48852539 C-22.7566189 6.14487181 -11.61312013 -0.02713346 0 0 Z " fill="#908190" transform="translate(125.4111328125,280.886474609375)"/>
<path d="M0 0 C36.3 0 72.6 0 110 0 C110.103125 14.9325 110.20625 29.865 110.3125 45.25 C110.35802002 49.94379883 110.40354004 54.63759766 110.45043945 59.47363281 C110.47302246 65.25927734 110.47302246 65.25927734 110.47721863 67.97821045 C110.48483563 69.8544103 110.50229328 71.73058755 110.52787781 73.60662842 C110.72811216 89.07906303 109.61775801 100.25713592 98.31640625 111.875 C86.54119347 122.6772188 72.67281888 122.48645059 57.4934082 122.39111328 C54.44111558 122.37501906 51.39014323 122.39102602 48.33789062 122.41015625 C46.36978879 122.40817388 44.40168776 122.40433034 42.43359375 122.3984375 C41.53539413 122.40451019 40.63719452 122.41058289 39.71177673 122.4168396 C27.9146956 122.28782115 19.16342819 118.30341495 10.3125 110.6875 C3.01956776 102.21193011 -0.32177543 94.96603237 -0.22705078 83.78173828 C-0.22729185 82.8591818 -0.22753292 81.93662533 -0.2277813 80.98611259 C-0.22629425 78.01407948 -0.21108942 75.04230046 -0.1953125 72.0703125 C-0.19237018 70.22973756 -0.1903309 68.38916094 -0.18920898 66.54858398 C-0.17874358 59.74069706 -0.15082105 52.932846 -0.125 46.125 C-0.08375 30.90375 -0.0425 15.6825 0 0 Z " fill="#FCDDCD" transform="translate(176,127)"/>
<path d="M0 0 C7.59 0 15.18 0 23 0 C23.05607422 3.05314453 23.05607422 3.05314453 23.11328125 6.16796875 C23.16197494 8.15049756 23.21077194 10.13302528 23.26245117 12.11547852 C23.29559806 13.48775958 23.32366171 14.86017362 23.34643555 16.23266602 C23.38016766 18.21137766 23.4340149 20.18971376 23.48828125 22.16796875 C23.51446533 23.35672607 23.54064941 24.5454834 23.56762695 25.77026367 C24.03538258 29.26430047 24.9252022 31.18011613 27 34 C28.82260751 35.34748233 28.82260751 35.34748233 30.875 36.1875 C31.58527344 36.50589844 32.29554688 36.82429688 33.02734375 37.15234375 C34.00380859 37.57193359 34.00380859 37.57193359 35 38 C35.804375 38.4125 36.60875 38.825 37.4375 39.25 C41.26729933 40.37091688 45.06762656 40.76193771 49 40 C54.46621307 36.98784902 58.54410642 32.69000524 62.875 28.25 C63.56335938 27.55261719 64.25171875 26.85523438 64.9609375 26.13671875 C66.64529582 24.42896657 68.32477617 22.71670557 70 21 C72.93230193 22.32120828 74.98664899 23.74638197 77.234375 26.0390625 C78.09482422 26.90917969 78.09482422 26.90917969 78.97265625 27.796875 C79.55917969 28.40015625 80.14570313 29.0034375 80.75 29.625 C81.35199219 30.23601562 81.95398438 30.84703125 82.57421875 31.4765625 C84.05405305 32.97988624 85.52764676 34.48934856 87 36 C82.69503781 41.26162046 78.03587598 46.02915347 73.13964844 50.73535156 C69.25573517 54.53003644 67.32663635 57.04018189 66.4375 62.375 C66.53716488 66.76856012 68.2961317 70.42577065 70.1875 74.3125 C70.47874756 74.92335449 70.76999512 75.53420898 71.07006836 76.16357422 C73.14253894 80.17513031 74.96275127 82.05917826 79 84 C82.18409748 84.49940711 82.18409748 84.49940711 85.61328125 84.51171875 C87.4840332 84.56489258 87.4840332 84.56489258 89.39257812 84.61914062 C90.68615234 84.64169922 91.97972656 84.66425781 93.3125 84.6875 C94.62541016 84.72166016 95.93832031 84.75582031 97.29101562 84.79101562 C100.52704519 84.87338729 103.76350892 84.93837279 107 85 C107 92.26 107 99.52 107 107 C104.19822266 107.03867187 104.19822266 107.03867187 101.33984375 107.078125 C98.87237283 107.13441711 96.40492581 107.19176419 93.9375 107.25 C92.70837891 107.26417969 91.47925781 107.27835937 90.21289062 107.29296875 C80.87713007 107.52114834 80.87713007 107.52114834 73 112 C70.90675009 114.9409301 70.90675009 114.9409301 69.5625 118.3125 C69.06878906 119.40175781 68.57507813 120.49101562 68.06640625 121.61328125 C66.55454413 126.41468954 66.36385026 130.0837612 67.95703125 134.8828125 C70.96112746 139.46650041 74.76198297 143.07507375 78.6875 146.875 C79.48478516 147.65875 80.28207031 148.4425 81.10351562 149.25 C83.0623682 151.17366361 85.02788984 153.08994591 87 155 C83.5191826 159.1413833 79.98304674 163.13790851 76.125 166.9375 C75.34382812 167.70964844 74.56265625 168.48179687 73.7578125 169.27734375 C72.88769531 170.13005859 72.88769531 170.13005859 72 171 C68.88387302 169.62151573 66.82473273 168.04365895 64.46875 165.59375 C63.82292969 164.93246094 63.17710937 164.27117187 62.51171875 163.58984375 C61.17057292 162.19661458 59.82942708 160.80338542 58.48828125 159.41015625 C57.84246094 158.74886719 57.19664062 158.08757812 56.53125 157.40625 C55.94923828 156.80103516 55.36722656 156.19582031 54.76757812 155.57226562 C51.13071771 152.33726824 47.69058489 151.39038575 42.78515625 151.48046875 C39.09897663 152.16807308 35.90227579 153.60580928 32.5625 155.25 C31.94713379 155.54962646 31.33176758 155.84925293 30.69775391 156.15795898 C27.16982691 158.00627103 25.36566915 159.26846447 24 163 C23.63348459 166.19441452 23.63348459 166.19441452 23.5859375 169.734375 C23.54726563 171.02988281 23.50859375 172.32539063 23.46875 173.66015625 C23.43729733 175.02343284 23.40604993 176.38671418 23.375 177.75 C23.33679531 179.12893028 23.29774213 180.50783734 23.2578125 181.88671875 C23.16352242 185.25758922 23.0806716 188.62877612 23 192 C16.73 192 10.46 192 4 192 C4 172.86 4 153.72 4 134 C8.62 134 13.24 134 18 134 C27.26057171 131.98440917 36.22470309 127.27239741 41.8125 119.46875 C43.31181345 117.01794917 44.69323025 114.55784112 46 112 C46.36996094 111.30132812 46.73992187 110.60265625 47.12109375 109.8828125 C48.47031688 106.99247672 48.75847073 104.1398805 49 101 C49.07734375 100.03578125 49.1546875 99.0715625 49.234375 98.078125 C49.65067931 88.41061391 47.55199577 79.88510501 41.1875 72.375 C40.1046875 71.199375 40.1046875 71.199375 39 70 C39 69.34 39 68.68 39 68 C38.46375 67.7525 37.9275 67.505 37.375 67.25 C35 66 35 66 32.25 64.0625 C25.59370867 59.83831512 19.80483486 58.48384004 12.0625 58.625 C11.27270752 58.63297607 10.48291504 58.64095215 9.66918945 58.64916992 C1.65188574 58.84536001 -4.23110828 60.69252345 -11 65 C-11.66 65 -12.32 65 -13 65 C-14.16277864 63.83722136 -15.32274768 62.67150384 -16.46875 61.4921875 C-26.05934336 52.14625214 -39.38234223 46.48088289 -52.75 45.8125 C-57.835246 44.5411885 -60.62102074 40.85291402 -64 37 C-59.30233025 31.33870569 -54.25276628 26.14771096 -49 21 C-45.75904935 22.41920753 -43.64164495 24.13308248 -41.1796875 26.66015625 C-40.47972656 27.37107422 -39.77976562 28.08199219 -39.05859375 28.81445312 C-38.33800781 29.55630859 -37.61742187 30.29816406 -36.875 31.0625 C-35.43712439 32.53473193 -33.99712292 34.00489156 -32.5546875 35.47265625 C-31.92030762 36.12500244 -31.28592773 36.77734863 -30.63232422 37.44946289 C-27.39098362 40.52839711 -24.3137946 40.45409484 -20.0078125 40.41015625 C-14.2309631 39.62240406 -8.80203743 37.27319803 -4 34 C-1.36711195 29.67213644 -0.60368218 26.32054295 -0.48828125 21.2890625 C-0.45283203 20.04511719 -0.41738281 18.80117187 -0.38085938 17.51953125 C-0.35830078 16.23433594 -0.33574219 14.94914063 -0.3125 13.625 C-0.27833984 12.31660156 -0.24417969 11.00820312 -0.20898438 9.66015625 C-0.12672786 6.44040129 -0.06168179 3.22021482 0 0 Z " fill="#0592FA" transform="translate(390,221)"/>
<path d="M0 0 C6.27 0 12.54 0 19 0 C19.99 1.98 20.98 3.96 22 6 C23.59230916 7.59230916 25.24312388 7.12475653 27.44946289 7.12597656 C28.87344139 7.13168671 28.87344139 7.13168671 30.32618713 7.13751221 C31.36452194 7.13853943 32.40285675 7.13956665 33.47265625 7.140625 C35.67514029 7.15898395 37.87761448 7.17855701 40.08007812 7.19921875 C43.54874901 7.22794379 47.016799 7.24999348 50.4855957 7.25048828 C84.7065417 7.28505739 84.7065417 7.28505739 97 19 C97.59941406 19.51175781 98.19882812 20.02351563 98.81640625 20.55078125 C105.59219637 26.68265179 109.1478263 34.44347889 112 43 C112 48.28 112 53.56 112 59 C56.23 59 0.46 59 -57 59 C-57 43.82534361 -54.44035416 32.46121773 -44.19140625 20.97265625 C-33.88283119 11.17843837 -21.58682705 7.98765895 -7.85546875 7.34375 C-4.8022236 7.19407152 -4.8022236 7.19407152 -2 5 C-1.34 3.35 -0.68 1.7 0 0 Z " fill="#D78954" transform="translate(203,53)"/>
<path d="M0 0 C7.59 0 15.18 0 23 0 C23.05607422 3.05314453 23.05607422 3.05314453 23.11328125 6.16796875 C23.16197494 8.15049756 23.21077194 10.13302528 23.26245117 12.11547852 C23.29559806 13.48775958 23.32366171 14.86017362 23.34643555 16.23266602 C23.38016766 18.21137766 23.4340149 20.18971376 23.48828125 22.16796875 C23.51446533 23.35672607 23.54064941 24.5454834 23.56762695 25.77026367 C24.03538258 29.26430047 24.9252022 31.18011613 27 34 C28.82260751 35.34748233 28.82260751 35.34748233 30.875 36.1875 C31.53242188 36.49042969 32.18984375 36.79335938 32.8671875 37.10546875 C33.57101562 37.40066406 34.27484375 37.69585937 35 38 C35.79019531 38.35449219 36.58039063 38.70898438 37.39453125 39.07421875 C40.26247137 40.09326194 42.78192205 40.40592208 45.8125 40.625 C46.78832031 40.69976562 47.76414062 40.77453125 48.76953125 40.8515625 C49.50558594 40.90054688 50.24164063 40.94953125 51 41 C59.97506769 60.6883896 62.59779398 82.77432089 55.17089844 103.52783203 C46.85575539 125.17931303 31.78107122 140.59299238 11.03125 150.6875 C8 152 8 152 4 153 C4 146.73 4 140.46 4 134 C7.0628125 134.1546875 7.0628125 134.1546875 10.1875 134.3125 C20.76651707 134.29112825 29.93987993 130.83991682 38.0625 124.03125 C41.46424677 120.46490258 43.76934054 116.36624164 46 112 C46.36996094 111.30132812 46.73992187 110.60265625 47.12109375 109.8828125 C48.47031688 106.99247672 48.75847073 104.1398805 49 101 C49.07734375 100.03578125 49.1546875 99.0715625 49.234375 98.078125 C49.65067931 88.41061391 47.55199577 79.88510501 41.1875 72.375 C40.1046875 71.199375 40.1046875 71.199375 39 70 C39 69.34 39 68.68 39 68 C38.46375 67.7525 37.9275 67.505 37.375 67.25 C35 66 35 66 32.25 64.0625 C25.59370867 59.83831512 19.80483486 58.48384004 12.0625 58.625 C11.27270752 58.63297607 10.48291504 58.64095215 9.66918945 58.64916992 C1.65188574 58.84536001 -4.23110828 60.69252345 -11 65 C-11.66 65 -12.32 65 -13 65 C-14.16277864 63.83722136 -15.32274768 62.67150384 -16.46875 61.4921875 C-26.05934336 52.14625214 -39.38234223 46.48088289 -52.75 45.8125 C-57.835246 44.5411885 -60.62102074 40.85291402 -64 37 C-59.30233025 31.33870569 -54.25276628 26.14771096 -49 21 C-45.75904935 22.41920753 -43.64164495 24.13308248 -41.1796875 26.66015625 C-40.47972656 27.37107422 -39.77976562 28.08199219 -39.05859375 28.81445312 C-38.33800781 29.55630859 -37.61742187 30.29816406 -36.875 31.0625 C-35.43712439 32.53473193 -33.99712292 34.00489156 -32.5546875 35.47265625 C-31.92030762 36.12500244 -31.28592773 36.77734863 -30.63232422 37.44946289 C-27.39098362 40.52839711 -24.3137946 40.45409484 -20.0078125 40.41015625 C-14.2309631 39.62240406 -8.80203743 37.27319803 -4 34 C-1.36711195 29.67213644 -0.60368218 26.32054295 -0.48828125 21.2890625 C-0.45283203 20.04511719 -0.41738281 18.80117187 -0.38085938 17.51953125 C-0.35830078 16.23433594 -0.33574219 14.94914063 -0.3125 13.625 C-0.27833984 12.31660156 -0.24417969 11.00820312 -0.20898438 9.66015625 C-0.12672786 6.44040129 -0.06168179 3.22021482 0 0 Z " fill="#25A3FA" transform="translate(390,221)"/>
<path d="M0 0 C8.65865497 1.52503239 16.65095585 8.10651352 22 15 C29.13667082 26.3749794 31.304383 35.49278685 31.25878906 48.71826172 C31.2622937 49.97442795 31.26579834 51.23059418 31.26940918 52.52482605 C31.27667269 55.94801701 31.27501488 59.37096431 31.26865101 62.79414129 C31.26356714 66.38197995 31.26828846 69.96980861 31.27142334 73.55764771 C31.27505323 79.57458353 31.27028665 85.5914701 31.26074219 91.60839844 C31.24982978 98.56815764 31.25340725 105.52779991 31.264395 112.48755634 C31.2734604 118.46902592 31.27475772 124.45046025 31.26951766 130.43193448 C31.26639764 134.00223849 31.26599007 137.57248744 31.27259064 141.14278793 C31.27942221 145.11460708 31.26996374 149.08629411 31.25878906 153.05810547 C31.26283752 154.24459183 31.26688599 155.43107819 31.27105713 156.65351868 C31.26259766 158.26843956 31.26259766 158.26843956 31.25396729 159.91598511 C31.25321323 160.85504133 31.25245918 161.79409756 31.25168228 162.76161003 C31 165 31 165 29 167 C26.75341797 167.22705078 26.75341797 167.22705078 23.9921875 167.1953125 C23.00605469 167.18886719 22.01992188 167.18242187 21.00390625 167.17578125 C19.45509766 167.15064453 19.45509766 167.15064453 17.875 167.125 C16.83472656 167.11597656 15.79445313 167.10695313 14.72265625 167.09765625 C12.14820908 167.07403747 9.57421788 167.04110149 7 167 C6.99857498 166.07149734 6.99714996 165.14299469 6.99568176 164.18635559 C6.97784453 155.43155576 6.93620963 146.6772611 6.86790943 137.92270374 C6.83363366 133.42195295 6.80852858 128.92154179 6.80444336 124.4206543 C6.8001616 120.07611332 6.77170982 115.73233858 6.72656822 111.38803673 C6.71358916 109.73151807 6.70928702 108.07490773 6.71384621 106.4183445 C6.71874971 104.09552135 6.69267609 101.77493993 6.65942383 99.45239258 C6.66804947 98.76906357 6.67667511 98.08573456 6.68556213 97.38169861 C6.59432287 93.57435267 6.0863293 92.10149849 3.58378601 89.15922546 C2.73113663 88.44668106 1.87848724 87.73413666 1 87 C-1 85 -1 85 -1.20254517 81.53256226 C-1.19054488 80.01166172 -1.16718913 78.49082741 -1.13525391 76.97021484 C-1.12579239 76.14086929 -1.11633087 75.31152374 -1.10658264 74.45704651 C-1.07282947 71.70812283 -1.0247352 68.95964324 -0.9765625 66.2109375 C-0.95040314 64.30808685 -0.92513552 62.40522375 -0.90072632 60.50234985 C-0.83399919 55.4880399 -0.75512297 50.473991 -0.67376709 45.4598999 C-0.59292119 40.34576456 -0.52349496 35.23147582 -0.453125 30.1171875 C-0.31329796 20.07794109 -0.16064353 10.03893337 0 0 Z " fill="#776A76" transform="translate(348,284)"/>
<path d="M0 0 C0.07026366 14.03909045 0.12287301 28.0781534 0.15543652 42.11738396 C0.1710682 48.63691192 0.1922611 55.15632144 0.22631836 61.67578125 C0.25900049 67.97166223 0.27687179 74.26742954 0.28463173 80.56338882 C0.29015932 82.96105869 0.30095328 85.35872259 0.31719017 87.75634384 C0.33908172 91.12399313 0.34196198 94.49117732 0.34057617 97.85888672 C0.351362 98.84216446 0.36214783 99.8254422 0.3732605 100.83851624 C0.36707451 102.23485039 0.36707451 102.23485039 0.36076355 103.65939331 C0.36352893 104.45397886 0.36629431 105.24856441 0.36914349 106.06722832 C-0.18718658 110.48716023 -1.71992076 114.73306921 -3 119 C-11.25 119 -19.5 119 -28 119 C-28.01458252 117.20336914 -28.02916504 115.40673828 -28.04418945 113.55566406 C-28.09585759 107.6163195 -28.16114784 101.67725535 -28.23571491 95.73816299 C-28.28042253 92.13763929 -28.31967741 88.53722883 -28.34643555 84.93652344 C-28.37246521 81.46092359 -28.41286421 77.98575943 -28.46318626 74.51042938 C-28.48796499 72.54076478 -28.49790086 70.57093161 -28.50764465 68.60113525 C-28.52743881 67.40019226 -28.54723297 66.19924927 -28.56762695 64.96191406 C-28.57873001 63.90490295 -28.58983307 62.84789185 -28.60127258 61.7588501 C-29.05831039 58.59654235 -29.72825616 57.22810637 -32 55 C-33.32 54.67 -34.64 54.34 -36 54 C-36 47.07 -36 40.14 -36 33 C-34.35 32.34 -32.7 31.68 -31 31 C-28.67547376 27.51321064 -28.70226266 25.93032429 -28.5859375 21.80078125 C-28.52792969 19.98803711 -28.52792969 19.98803711 -28.46875 18.13867188 C-28.4378125 16.87603516 -28.406875 15.61339844 -28.375 14.3125 C-28.33632813 13.03826172 -28.29765625 11.76402344 -28.2578125 10.45117188 C-28.16342314 7.30092708 -28.0778417 4.15069009 -28 1 C-27.42032471 1.00523682 -26.84064941 1.01047363 -26.2434082 1.01586914 C-23.5997833 1.03674334 -20.95617579 1.04969327 -18.3125 1.0625 C-16.94448242 1.07506836 -16.94448242 1.07506836 -15.54882812 1.08789062 C-14.21948242 1.09272461 -14.21948242 1.09272461 -12.86328125 1.09765625 C-12.05157471 1.10289307 -11.23986816 1.10812988 -10.40356445 1.11352539 C-6.85346631 0.94584681 -3.56535887 0 0 0 Z " fill="#F7CA58" transform="translate(72,198)"/>
<path d="M0 0 C0.763125 0.53625 1.52625 1.0725 2.3125 1.625 C3.1735585 2.12870117 4.034617 2.63240234 4.92176819 3.15136719 C7.95520752 6.28999405 7.89678258 7.94440389 7.93141174 12.17053223 C7.90433388 13.48604065 7.90433388 13.48604065 7.87670898 14.828125 C7.87797791 16.22387756 7.87797791 16.22387756 7.87927246 17.64782715 C7.87809819 19.66674331 7.86553986 21.6856776 7.84295464 23.70446777 C7.8083362 26.89876456 7.80549777 30.09166999 7.81129456 33.28613281 C7.81960589 41.21814426 7.77797454 49.14970512 7.72839355 57.08154297 C7.68730916 63.7851867 7.66964483 70.48801247 7.68574715 77.19177246 C7.68361673 80.34103627 7.64643472 83.48868909 7.60850525 86.63769531 C7.61014273 88.56575762 7.61351272 90.49381951 7.61889648 92.421875 C7.59882034 93.29888062 7.5787442 94.17588623 7.55805969 95.07946777 C7.58536171 97.41572808 7.6548932 99.38233925 8.3125 101.625 C11.17286705 104.12684067 11.17286705 104.12684067 14.3125 105.625 C15.08886719 107.75976562 15.08886719 107.75976562 15.109375 110.03125 C15.11710937 110.85753906 15.12484375 111.68382812 15.1328125 112.53515625 C15.10960937 113.38980469 15.08640625 114.24445313 15.0625 115.125 C15.08570313 115.97964844 15.10890625 116.83429688 15.1328125 117.71484375 C15.12507813 118.54113281 15.11734375 119.36742187 15.109375 120.21875 C15.09922363 121.34313477 15.09922363 121.34313477 15.08886719 122.49023438 C14.3125 124.625 14.3125 124.625 11.31298828 126.23339844 C8.18405064 128.23932168 8.18405064 128.23932168 7.74047852 130.78979492 C7.52060942 133.63900989 7.48201642 136.43919467 7.5078125 139.296875 C7.49410614 140.33442932 7.48039978 141.37198364 7.46627808 142.440979 C7.42890704 145.75275756 7.43269797 149.06304011 7.4375 152.375 C7.41937832 154.62111726 7.39857731 156.86721463 7.375 159.11328125 C7.32308181 164.617439 7.30807423 170.12061077 7.3125 175.625 C1.3725 175.625 -4.5675 175.625 -10.6875 175.625 C-10.87267798 153.56352126 -11.01544889 131.50222964 -11.10199738 109.44013023 C-11.14325134 99.19630862 -11.19949582 88.95297868 -11.29101562 78.70947266 C-11.37074517 69.78135624 -11.42236371 60.85359587 -11.44020796 51.92513335 C-11.4506394 47.19720295 -11.47515755 42.47029117 -11.53334045 37.74268723 C-11.58767068 33.2920429 -11.60438764 28.84283592 -11.59236145 24.39189148 C-11.59456118 22.75919912 -11.61046106 21.1264584 -11.6411438 19.49405289 C-11.86086373 7.20064619 -11.86086373 7.20064619 -8.93992615 3.27827835 C-5.86032107 0.84098096 -3.97119434 -0.55412014 0 0 Z " fill="#A498A4" transform="translate(232.6875,275.375)"/>
<path d="M0 0 C0.66 0 1.32 0 2 0 C2.01458252 0.78648926 2.02916504 1.57297852 2.04418945 2.38330078 C2.11889363 5.96434958 2.21548207 9.54448911 2.3125 13.125 C2.33505859 14.3625 2.35761719 15.6 2.38085938 16.875 C2.41630859 18.07382813 2.45175781 19.27265625 2.48828125 20.5078125 C2.51446533 21.60754395 2.54064941 22.70727539 2.56762695 23.84033203 C3.20464724 28.49550797 4.78396568 31.85296054 8.203125 35.078125 C11.6475801 37.44498521 15.13761225 39.64961545 18.75 41.75 C19.41515625 42.16121094 20.0803125 42.57242188 20.765625 42.99609375 C25.83075565 45.92802514 30.17404289 47.1783795 36 46 C39.49613055 44.60675224 42.61575261 42.78733443 45.8125 40.8125 C46.64458984 40.32974609 47.47667969 39.84699219 48.33398438 39.34960938 C53.7471739 36.11558676 57.92962232 33.21113303 60 27 C60.15029988 24.93637009 60.24844448 22.86876085 60.31640625 20.80078125 C60.35830078 19.59228516 60.40019531 18.38378906 60.44335938 17.13867188 C60.48267578 15.87603516 60.52199219 14.61339844 60.5625 13.3125 C60.62727539 11.40114258 60.62727539 11.40114258 60.69335938 9.45117188 C60.7995486 6.30089148 60.90159533 3.15053161 61 0 C66.79992865 1.93330955 69.45870932 8.97112216 72.12109375 14.203125 C75.74365437 23.28552578 75.20680026 34.60801053 71.98046875 43.7265625 C66.90032956 55.50600874 59.9205914 63.79263946 48.17578125 69.33203125 C37.39665201 73.40478636 25.63677712 73.65139593 15 69 C3.66021711 63.43414326 -3.93582312 55.59599737 -9 44 C-12.80186314 32.6985712 -12.1603146 20.75439476 -7 10 C-4.9090904 6.46547799 -2.74921481 3.06070221 0 0 Z " fill="#FBCE59" transform="translate(26,113)"/>
<path d="M0 0 C7.26 0 14.52 0 22 0 C22.11330634 11.78804284 22.20489184 23.57571947 22.25906086 35.36418533 C22.28506933 40.83902596 22.32030671 46.31347222 22.37719727 51.78808594 C22.43183005 57.07900578 22.46148623 62.36954814 22.47438622 67.66072845 C22.48357022 69.67161749 22.50150357 71.68248766 22.52865028 73.69321442 C22.72878066 89.14180603 21.57740898 100.252735 10.33203125 111.87109375 C5.14869617 116.60294906 -0.02671624 119.65898389 -7 121 C-9.203125 120.5390625 -9.203125 120.5390625 -11 120 C-10.41992188 119.25169922 -10.41992188 119.25169922 -9.828125 118.48828125 C-0.10584163 105.08404403 -0.39690556 91.17505049 -0.390625 75.29296875 C-0.37562043 73.11435226 -0.35888856 70.93574705 -0.34051514 68.75715637 C-0.29708523 63.06419307 -0.27689678 57.37138317 -0.26177979 51.67828369 C-0.24212041 45.85248842 -0.20016064 40.02685668 -0.16015625 34.20117188 C-0.08511811 22.8008043 -0.03673206 11.40055541 0 0 Z " fill="#FECDBE" transform="translate(264,127)"/>
<path d="M0 0 C6.54275172 -0.12838858 13.08517059 -0.21500484 19.62890625 -0.2746582 C21.84777971 -0.29956589 24.06657319 -0.3335049 26.28515625 -0.37719727 C42.52280862 -0.68861433 59.44389634 -0.96522819 72 11 C72.59941406 11.51175781 73.19882812 12.02351563 73.81640625 12.55078125 C80.59219637 18.68265179 84.1478263 26.44347889 87 35 C87 40.28 87 45.56 87 51 C31.23 51 -24.54 51 -82 51 C-82 47.04 -82 43.08 -82 39 C-81.67 39 -81.34 39 -81 39 C-81 42.63 -81 46.26 -81 50 C-42.39 50 -3.78 50 36 50 C36.3841328 25.84667494 36.3841328 25.84667494 34 2 C22.78 1.67 11.56 1.34 0 1 C0 0.67 0 0.34 0 0 Z " fill="#BC7441" transform="translate(228,61)"/>
<path d="M0 0 C0 5.61 0 11.22 0 17 C-2.31 16.67 -4.62 16.34 -7 16 C-14.54406286 15.38163419 -20.87000607 16.96347113 -27.05078125 21.5078125 C-32.96363057 26.95219196 -36.10481855 33.27858645 -36.625 41.3125 C-36.31099544 48.76487499 -33.26045649 55.71412085 -27.99609375 61.01953125 C-22.64744594 65.19086758 -17.85519732 67.28368262 -11 67.1875 C-9.4840625 67.17783203 -9.4840625 67.17783203 -7.9375 67.16796875 C-4.63240951 67.0476569 -4.63240951 67.0476569 0 66 C0 71.61 0 77.22 0 83 C-8.57523093 85.85841031 -19.847425 84.7382539 -28 81 C-39.81786608 74.78699113 -47.44599343 66.49542564 -51.75 53.78515625 C-54.84942252 41.88251282 -53.27075906 30.52518514 -47.3125 19.875 C-40.85055392 9.77029019 -32.64092263 4.11296848 -21.625 -0.375 C-14.36895068 -1.62604299 -7.20248439 -1.44049688 0 0 Z " fill="#FBC043" transform="translate(68,332)"/>
<path d="M0 0 C2.8956309 1.15825236 5.7814119 2.34328407 8.63671875 3.59765625 C13.65466608 5.46159966 18.50808507 5.49261672 23.8125 5.4375 C24.78356689 5.43355225 25.75463379 5.42960449 26.75512695 5.42553711 C33.81355157 5.28395394 39.65136909 4.20650933 46 1 C46.99 0.67 47.98 0.34 49 0 C49 14.85 49 29.7 49 45 C32.83 45 16.66 45 0 45 C0 30.15 0 15.3 0 0 Z " fill="#504951" transform="translate(292,406)"/>
<path d="M0 0 C2.8956309 1.15825236 5.7814119 2.34328407 8.63671875 3.59765625 C13.65466608 5.46159966 18.50808507 5.49261672 23.8125 5.4375 C24.78356689 5.43355225 25.75463379 5.42960449 26.75512695 5.42553711 C33.81355157 5.28395394 39.65136909 4.20650933 46 1 C46.99 0.67 47.98 0.34 49 0 C49 14.85 49 29.7 49 45 C32.83 45 16.66 45 0 45 C0 30.15 0 15.3 0 0 Z " fill="#504951" transform="translate(121,406)"/>
<path d="M0 0 C1.216875 -0.020625 2.43375 -0.04125 3.6875 -0.0625 C4.71423828 -0.07990234 4.71423828 -0.07990234 5.76171875 -0.09765625 C8 0 8 0 13 1 C13 39.28 13 77.56 13 117 C6.565 117.495 6.565 117.495 0 118 C-0.01458252 116.20336914 -0.02916504 114.40673828 -0.04418945 112.55566406 C-0.09585759 106.6163195 -0.16114784 100.67725535 -0.23571491 94.73816299 C-0.28042253 91.13763929 -0.31967741 87.53722883 -0.34643555 83.93652344 C-0.37246521 80.46092359 -0.41286421 76.98575943 -0.46318626 73.51042938 C-0.48796499 71.54076478 -0.49790086 69.57093161 -0.50764465 67.60113525 C-0.52743881 66.40019226 -0.54723297 65.19924927 -0.56762695 63.96191406 C-0.57873001 62.90490295 -0.58983307 61.84789185 -0.60127258 60.7588501 C-1.05831039 57.59654235 -1.72825616 56.22810637 -4 54 C-5.32 53.67 -6.64 53.34 -8 53 C-8 46.07 -8 39.14 -8 32 C-6.35 31.34 -4.7 30.68 -3 30 C-0.67547376 26.51321064 -0.70226266 24.93032429 -0.5859375 20.80078125 C-0.52792969 18.98803711 -0.52792969 18.98803711 -0.46875 17.13867188 C-0.4378125 15.87603516 -0.406875 14.61339844 -0.375 13.3125 C-0.33632813 12.03826172 -0.29765625 10.76402344 -0.2578125 9.45117188 C-0.16342314 6.30092708 -0.0778417 3.15069009 0 0 Z " fill="#FEE076" transform="translate(44,199)"/>
<path d="M0 0 C5.84855268 3.53428667 10.49513974 8.98586484 12.5625 15.5 C13.43370424 22.84445434 13.17754619 29.50173269 8.5625 35.5 C3.70710996 40.72402052 -1.67000571 45.11888809 -9.02734375 45.70703125 C-15.80937065 45.81406467 -15.80937065 45.81406467 -18.4375 44.5 C-18.45151855 43.66359985 -18.45151855 43.66359985 -18.46582031 42.81030273 C-18.7698176 28.30337333 -20.81279111 16.24969505 -25.4375 2.5 C-18.2893102 -2.94623984 -8.27961084 -3.62232974 0 0 Z " fill="#0070F6" transform="translate(412.4375,295.5)"/>
<path d="M0 0 C3.80688285 3.39532795 4.20758994 6.04172805 4.6015625 11.00390625 C5.32674891 14.63694798 7.38203849 16.44292132 10 19 C14.24476543 21.56436345 18.16348515 21.54578727 23 21 C27.28899134 19.41148469 29.57174591 17.83623335 32 14 C32.63502125 11.55777553 32.63502125 11.55777553 32.9375 9 C33.50933355 5.89837485 33.94638772 4.08660445 35.625 1.375 C39.29847566 -0.75174907 41.78062539 -0.4688194 46 0 C48.12894079 1.5518475 48.88131916 2.47879329 49.46875 5.05859375 C49.58466879 13.88291188 46.85965902 22.260556 40.9375 28.9375 C33.5771223 35.42353478 24.70083534 37.85218585 15.0390625 37.4140625 C6.71658312 36.28015143 0.72757401 31.97434024 -5 26 C-10.01543614 19.40074192 -11.53071399 13.98348384 -11.37890625 5.765625 C-11 3 -11 3 -8.875 0.1875 C-5.27467642 -1.29959017 -3.66266456 -1.32479356 0 0 Z " fill="#040303" transform="translate(212,191)"/>
<path d="M0 0 C5.12367169 4.52175038 6.71875778 11.0989254 7.359375 17.70703125 C7.62368509 30.75073408 4.43125872 42.6071331 -4.4453125 52.53125 C-13.18254289 60.7855179 -23.10157117 65.12452571 -35.125 65.4375 C-43.56677337 65.17660634 -50.61438809 63.08152237 -58 59 C-58 58.67 -58 58.34 -58 58 C-56.99582031 57.97421875 -55.99164063 57.9484375 -54.95703125 57.921875 C-39.26236195 57.34680904 -25.98732337 53.63525735 -14.1875 42.6875 C-2.94427794 30.55665515 -0.40866556 15.91752373 0 0 Z " fill="#FABF42" transform="translate(93,120)"/>
<path d="M0 0 C4 1.33333333 8 2.66666667 12 4 C23.43977027 4.92647827 34.51398856 5.01894565 45 0 C45.66 0 46.32 0 47 0 C47 7.26 47 14.52 47 22 C31.49 22 15.98 22 0 22 C0 14.74 0 7.48 0 0 Z " fill="#675D67" transform="translate(293,407)"/>
<path d="M0 0 C4 1.33333333 8 2.66666667 12 4 C23.43977027 4.92647827 34.51398856 5.01894565 45 0 C45.66 0 46.32 0 47 0 C47 7.26 47 14.52 47 22 C31.49 22 15.98 22 0 22 C0 14.74 0 7.48 0 0 Z " fill="#675D67" transform="translate(122,407)"/>
<path d="M0 0 C0 12.54 0 25.08 0 38 C-12.09836066 38 -12.09836066 38 -18 33 C-22.5678907 28.07148634 -24.50209726 24.05012397 -24.3046875 17.37109375 C-23.51737105 11.24415678 -20.76612625 7.29734904 -15.9375 3.5625 C-10.29045432 -0.41536135 -7.61750395 0 0 0 Z " fill="#F4C5B6" transform="translate(161,165)"/>
<path d="M0 0 C8.32522336 0 13.69853348 0.83325503 19.74609375 6.69140625 C23.2683774 11.47093563 23.74959888 16.25882474 23.484375 22.09375 C22.4727622 28.16342677 19.64399498 31.71768392 14.875 35.4375 C9.1900182 38.52716402 7.39959987 38 0 38 C0 25.46 0 12.92 0 0 Z " fill="#F8AB9A" transform="translate(301,165)"/>
<path d="M0 0 C3.72010247 10.00884713 4.85232427 19.73012102 0.3359375 29.67578125 C-3.04388356 35.55587929 -7.09673752 39.68890767 -13 43 C-13.02578125 41.87464844 -13.0515625 40.74929688 -13.078125 39.58984375 C-13.50005852 26.87335237 -15.92381255 16.06405253 -20 4 C-13.57376154 -0.78231699 -7.81498429 -0.42306682 0 0 Z " fill="#0081FB" transform="translate(407,294)"/>
<path d="M0 0 C0.33 0 0.66 0 1 0 C1 48.84 1 97.68 1 148 C6.28 148 11.56 148 17 148 C17 140.41 17 132.82 17 125 C17.33 125 17.66 125 18 125 C18 139.85 18 154.7 18 170 C12.06 170 6.12 170 0 170 C0 113.9 0 57.8 0 0 Z " fill="#837683" transform="translate(222,281)"/>
<path d="M0 0 C0.33 0 0.66 0 1 0 C1 16.5 1 33 1 50 C8.26 50 15.52 50 23 50 C23 57.26 23 64.52 23 72 C15.41 72 7.82 72 0 72 C0 48.24 0 24.48 0 0 Z " fill="#736772" transform="translate(184,379)"/>
<path d="M0 0 C7.59 0 15.18 0 23 0 C23 6.93 23 13.86 23 21 C19.35411831 21.02682987 15.70843154 21.04675569 12.0625 21.0625 C10.50112305 21.07506836 10.50112305 21.07506836 8.90820312 21.08789062 C7.91884766 21.09111328 6.92949219 21.09433594 5.91015625 21.09765625 C4.53549194 21.10551147 4.53549194 21.10551147 3.13305664 21.11352539 C1 21 1 21 0 20 C-0.08669432 18.5112814 -0.10703494 17.018555 -0.09765625 15.52734375 C-0.09515869 14.71773193 -0.09266113 13.90812012 -0.09008789 13.07397461 C-0.08098389 12.03893799 -0.07187988 11.00390137 -0.0625 9.9375 C-0.0315625 5.0184375 -0.0315625 5.0184375 0 0 Z " fill="#796C78" transform="translate(83,429)"/>
<path d="M0 0 C7.26 0 14.52 0 22 0 C22 6.93 22 13.86 22 21 C14.74 21 7.48 21 0 21 C0 14.07 0 7.14 0 0 Z " fill="#7A6D79" transform="translate(255,429)"/>
<path d="M0 0 C14.85 0 29.7 0 45 0 C42.73227303 5.66931743 42.73227303 5.66931743 39.6875 8.1875 C38.82705078 8.92033203 38.82705078 8.92033203 37.94921875 9.66796875 C30.7619199 14.57952969 21.3599666 13.96850895 13 13 C7.95762662 11.48988047 4.50751126 9.07698663 1.4375 4.8125 C0 2 0 2 0 0 Z " fill="#534C54" transform="translate(294,384)"/>
<path d="M0 0 C14.85 0 29.7 0 45 0 C42.02807548 5.94384903 39.7249717 9.08005089 33.84765625 12.109375 C26.47504385 14.41521262 16.96876943 14.4059977 9.703125 11.83203125 C5.11623322 9.19253287 2.44866003 6.7514751 0 2 C0 1.34 0 0.68 0 0 Z " fill="#534C54" transform="translate(123,384)"/>
<path d="M0 0 C0 9.24 0 18.48 0 28 C-4.42967451 26.2281302 -7.48741603 24.29120656 -11.125 21.375 C-12.26715625 20.47519893 -13.41040562 19.57678384 -14.5546875 18.6796875 C-15.12670898 18.23077148 -15.69873047 17.78185547 -16.28808594 17.31933594 C-19.76632875 14.63872781 -23.36482382 12.12422829 -26.953125 9.59375 C-29 8 -29 8 -30 6 C-28.90042969 5.90203125 -27.80085937 5.8040625 -26.66796875 5.703125 C-18.68103738 4.91989744 -11.47869516 3.93154576 -4.00390625 0.8046875 C-2 0 -2 0 0 0 Z " fill="#746773" transform="translate(273,258)"/>
<path d="M0 0 C2.97 0.99 5.94 1.98 9 3 C15.94866174 5.08459852 22.77045321 5.58121528 30 6 C25.62801217 10.72210595 20.63956087 14.36113266 15.4375 18.125 C13.74866972 19.35673217 12.05986666 20.58850167 10.37109375 21.8203125 C9.2562561 22.62879639 9.2562561 22.62879639 8.11889648 23.45361328 C6.67546473 24.50704072 5.25347075 25.59033419 3.85180664 26.69873047 C2 28 2 28 0 28 C0 18.76 0 9.52 0 0 Z " fill="#756974" transform="translate(189,258)"/>
<path d="M0 0 C4.62 0 9.24 0 14 0 C14 8.25 14 16.5 14 25 C9.38 25 4.76 25 0 25 C0 16.75 0 8.5 0 0 Z " fill="#E89F66" transform="translate(301,126)"/>
<path d="M0 0 C4.12354505 0.6627126 5.05339656 1.24248543 7.5 4.5625 C7.92819773 7.39746427 8.10597632 9.73909654 8.0625 12.5625 C8.08634766 13.2740625 8.11019531 13.985625 8.13476562 14.71875 C8.12410467 18.52826508 7.80544767 20.23172756 5.19140625 23.0625 C2.5 24.5625 2.5 24.5625 -1.125 24.5625 C-4.94236159 23.4314299 -5.61659866 22.9548579 -7.5 19.5625 C-7.93359375 16.28515625 -7.93359375 16.28515625 -7.9375 12.625 C-7.95683594 11.41972656 -7.97617188 10.21445313 -7.99609375 8.97265625 C-7.22108003 3.64519975 -5.39946971 0.86777192 0 0 Z " fill="#070606" transform="translate(253.5,145.4375)"/>
<path d="M0 0 C3.0625 0.5625 3.0625 0.5625 5.9375 2.25 C9.21454876 7.35834071 8.78025457 12.64669126 8.0625 18.5625 C6.82669278 21.91354935 6.16216311 22.49605793 3.0625 24.5625 C-0.40961541 25.00574878 -2.20128607 25.08171054 -5.09765625 23.0390625 C-7.61793586 19.64658421 -7.52578633 16.62367122 -7.4375 12.5625 C-7.45296875 11.8509375 -7.4684375 11.139375 -7.484375 10.40625 C-7.45832346 6.91534325 -7.20527323 4.91971968 -5.08984375 2.09765625 C-2.9375 0.5625 -2.9375 0.5625 0 0 Z " fill="#090807" transform="translate(207.9375,145.4375)"/>
<path d="M0 0 C4.29 0 8.58 0 13 0 C13 7.59 13 15.18 13 23 C6.565 23.495 6.565 23.495 0 24 C0 16.08 0 8.16 0 0 Z " fill="#FEBC85" transform="translate(147,127)"/>
</svg>
