<?xml version="1.0" encoding="UTF-8"?>
<svg version="1.1" xmlns="http://www.w3.org/2000/svg" width="512" height="512">
<path d="M0 0 C9.34366164 6.52127979 16.03816467 16.15013713 18.4296875 27.37890625 C19.39265722 35.01484924 18.83139685 41.14284542 16.70703125 48.578125 C53.66703125 48.578125 90.62703125 48.578125 128.70703125 48.578125 C128.04703125 46.268125 127.38703125 43.958125 126.70703125 41.578125 C125.36961416 30.22563112 128.19049692 18.89659395 134.9453125 9.640625 C140.21827688 3.46739841 146.11004654 -1.45361405 153.70703125 -4.421875 C155.02960938 -4.95361328 155.02960938 -4.95361328 156.37890625 -5.49609375 C166.73178433 -8.37594364 179.10851637 -7.49284864 188.83984375 -3.09765625 C199.54893029 3.16146926 207.03416933 12.71203366 211.0234375 24.3984375 C212.61089649 31.78238959 212.69383601 40.28384179 210.70703125 47.578125 C211.78031929 47.58026253 211.78031929 47.58026253 212.87528992 47.58244324 C219.62875216 47.60029581 226.3816019 47.64197513 233.13475323 47.71021557 C236.606443 47.74446196 240.07769388 47.76959168 243.54956055 47.77368164 C247.54398592 47.77879094 251.53709831 47.82391966 255.53125 47.87109375 C256.77412277 47.8671611 258.01699554 47.86322845 259.29753113 47.85917664 C264.12572667 47.9408777 267.67555044 48.03688939 271.98632812 50.29882812 C274.76970957 55.60336552 274.4327355 60.85249778 274.4140625 66.75390625 C274.42918381 68.03420212 274.44430511 69.31449799 274.45988464 70.6335907 C274.4996651 74.0251857 274.50992037 77.41624367 274.51391602 80.80804443 C274.52326092 84.27388732 274.56068269 87.7394164 274.59570312 91.20507812 C274.65863699 97.99610068 274.69350592 104.78683402 274.70703125 111.578125 C275.46226074 111.41803955 276.21749023 111.2579541 276.99560547 111.09301758 C289.16130022 108.78278435 300.0314486 110.84392075 310.45703125 117.390625 C319.63712932 123.98524091 326.30208521 132.22667344 328.70703125 143.578125 C329.82452968 156.35460013 329.22472299 167.6986521 321.45703125 178.328125 C313.69837672 187.51384706 304.88072927 193.73592733 292.70703125 195.578125 C290.75105439 195.6927122 288.79132036 195.75290234 286.83203125 195.765625 C285.84460938 195.77980469 284.8571875 195.79398438 283.83984375 195.80859375 C280.70703125 195.578125 280.70703125 195.578125 273.70703125 193.578125 C273.70703125 230.538125 273.70703125 267.498125 273.70703125 305.578125 C276.01703125 304.918125 278.32703125 304.258125 280.70703125 303.578125 C292.05952513 302.24070791 303.3885623 305.06159067 312.64453125 311.81640625 C318.81775784 317.08937063 323.7387703 322.98114029 326.70703125 330.578125 C327.0628125 331.45726562 327.41859375 332.33640625 327.78515625 333.2421875 C330.69066765 343.75619908 329.97275033 356.99812518 324.70703125 366.578125 C318.33295291 377.27262726 308.39934202 385.06002465 296.31640625 388.19921875 C293.08895081 388.6678762 289.96796759 388.71015288 286.70703125 388.703125 C284.91265625 388.70699219 284.91265625 388.70699219 283.08203125 388.7109375 C280.14254686 388.59526335 277.56927365 388.19294541 274.70703125 387.578125 C274.70489372 388.65141304 274.70489372 388.65141304 274.70271301 389.74638367 C274.68486044 396.49984591 274.64318112 403.25269565 274.57494068 410.00584698 C274.54069429 413.47753675 274.51556457 416.94878763 274.51147461 420.4206543 C274.50636531 424.41507967 274.46123659 428.40819206 274.4140625 432.40234375 C274.41799515 433.64521652 274.4219278 434.88808929 274.42597961 436.16862488 C274.34427855 440.99682042 274.24826686 444.54664419 271.98632812 448.85742188 C266.68179073 451.64080332 261.43265847 451.30382925 255.53125 451.28515625 C254.25095413 451.30027756 252.97065826 451.31539886 251.65156555 451.33097839 C248.25997055 451.37075885 244.86891258 451.38101412 241.47711182 451.38500977 C238.01126893 451.39435467 234.54573985 451.43177644 231.08007812 451.46679688 C224.28905557 451.52973074 217.49832223 451.56459967 210.70703125 451.578125 C210.94715942 452.46866577 210.94715942 452.46866577 211.19213867 453.37719727 C213.69098441 464.05860758 211.81215243 476.49176308 206.3515625 485.91796875 C204.9086914 487.93334634 203.37820986 489.74913533 201.70703125 491.578125 C201.20558594 492.18140625 200.70414062 492.7846875 200.1875 493.40625 C194.3626128 499.92558847 185.49908252 504.92567844 176.69921875 505.77099609 C162.26718996 506.32018538 150.79675673 504.68369735 139.70703125 494.578125 C131.87301717 487.2849529 127.16784478 477.44410486 126.5390625 466.7109375 C126.53261719 465.71835937 126.52617187 464.72578125 126.51953125 463.703125 C126.50535156 462.71570313 126.49117188 461.72828125 126.4765625 460.7109375 C126.739921 457.13104742 127.6833338 454.01005993 128.70703125 450.578125 C128.06226995 450.58181217 127.41750864 450.58549934 126.75320911 450.58929825 C111.0625103 450.67764749 95.37189803 450.7438336 79.68101215 450.78537369 C72.09299599 450.80599629 64.5051459 450.83411091 56.91723633 450.87988281 C50.30336511 450.91976008 43.68961417 450.94556002 37.07562608 450.95447898 C33.57372186 450.95969231 30.07216172 450.97193859 26.57036781 451.00104523 C22.66053458 451.03327965 18.75103751 451.03408383 14.84106445 451.03222656 C13.68084778 451.04660767 12.5206311 451.06098877 11.32525635 451.07580566 C3.50518512 451.035508 3.50518512 451.035508 -0.48493958 448.7489624 C-3.10869275 445.59871372 -3.36014105 443.675635 -3.29296875 439.578125 C-2.43863386 437.17195474 -1.40808513 434.93294879 -0.28515625 432.640625 C2.59235145 426.65903419 2.36705615 420.20222821 0.45703125 413.953125 C-0.87284573 410.21801598 -2.66293761 407.57091906 -5.29296875 404.578125 C-5.29296875 403.918125 -5.29296875 403.258125 -5.29296875 402.578125 C-13.75854009 398.27753727 -21.36445169 394.54520682 -30.90234375 397.34375 C-39.50787969 400.55173085 -44.61024079 404.81025989 -48.54296875 413.265625 C-50.32550876 421.13851004 -49.78993678 427.20918894 -46.203125 434.3828125 C-44.7001396 438.00803908 -44.17943246 441.7879518 -45.29296875 445.578125 C-47.9424713 448.86578455 -49.42691387 450.41344223 -53.63195801 451.21304321 C-55.53793762 451.21901016 -55.53793762 451.21901016 -57.48242188 451.22509766 C-58.53948586 451.23824005 -58.53948586 451.23824005 -59.61790466 451.25164795 C-61.93731044 451.27357721 -64.2547951 451.25911481 -66.57421875 451.2421875 C-68.19177617 451.24555756 -69.80933111 451.25041177 -71.42687988 451.25668335 C-74.81298998 451.26404581 -78.1984395 451.2533702 -81.58447266 451.22998047 C-85.91928943 451.20149206 -90.25255841 451.21789953 -94.58731842 451.24784279 C-97.92632658 451.2659333 -101.26496932 451.26014992 -104.60398865 451.24720383 C-106.20194178 451.24387461 -107.79992836 451.24793991 -109.39784241 451.25960159 C-111.63395714 451.27234053 -113.86758559 451.2528968 -116.10351562 451.22509766 C-117.3741687 451.22111969 -118.64482178 451.21714172 -119.95397949 451.21304321 C-124.15932297 450.4133853 -125.64372359 448.86650633 -128.29296875 445.578125 C-128.92407227 443.42163086 -128.92407227 443.42163086 -128.921875 441.29296875 C-128.92380859 440.51501953 -128.92574219 439.73707031 -128.92773438 438.93554688 C-128.90388672 438.13697266 -128.88003906 437.33839844 -128.85546875 436.515625 C-128.86642578 435.71318359 -128.87738281 434.91074219 -128.88867188 434.08398438 C-128.84083751 430.24129036 -128.73888327 428.19561763 -126.4453125 425.01953125 C-124.29296875 423.578125 -124.29296875 423.578125 -121.29296875 423.578125 C-121.29296875 416.978125 -121.29296875 410.378125 -121.29296875 403.578125 C-122.94296875 403.248125 -124.59296875 402.918125 -126.29296875 402.578125 C-128.56251506 399.17380553 -128.65846824 397.41288298 -128.91796875 393.390625 C-128.99273437 392.30394531 -129.0675 391.21726562 -129.14453125 390.09765625 C-129.19351563 389.26621094 -129.2425 388.43476563 -129.29296875 387.578125 C-130.06833984 387.81595703 -130.06833984 387.81595703 -130.859375 388.05859375 C-141.75636552 390.38491757 -153.98930801 388.80912713 -163.6328125 383.22265625 C-165.64819009 381.77978515 -167.46397908 380.24930361 -169.29296875 378.578125 C-169.89625 378.07667969 -170.49953125 377.57523437 -171.12109375 377.05859375 C-177.62023596 371.25175147 -182.70079933 362.34845925 -183.4699707 353.55444336 C-183.93580797 337.31324062 -181.85367728 326.82026632 -170.484375 314.640625 C-162.63016591 307.0640075 -152.21705028 303.46074891 -141.41796875 303.390625 C-140.43054688 303.37644531 -139.443125 303.36226563 -138.42578125 303.34765625 C-134.84589117 303.61101475 -131.72490368 304.55442755 -128.29296875 305.578125 C-128.29665592 304.9333637 -128.30034309 304.28860239 -128.304142 303.62430286 C-128.39249124 287.93360405 -128.45867735 272.24299178 -128.50021744 256.5521059 C-128.52084004 248.96408974 -128.54895466 241.37623965 -128.59472656 233.78833008 C-128.63460383 227.17445886 -128.66040377 220.56070792 -128.66932273 213.94671983 C-128.67453606 210.44481561 -128.68678234 206.94325547 -128.71588898 203.44146156 C-128.7481234 199.53162833 -128.74892758 195.62213126 -128.74707031 191.7121582 C-128.76864197 189.97183319 -128.76864197 189.97183319 -128.79064941 188.1963501 C-128.75031157 180.36848072 -128.75031157 180.36848072 -126.44818115 176.39006042 C-124.20421623 174.50350877 -122.49198408 173.55354985 -119.54296875 173.29296875 C-115.26936243 173.834589 -111.39761311 175.79319092 -107.4375 177.41796875 C-100.38822995 180.01875534 -94.01400305 178.64363492 -87.29296875 175.578125 C-84.44696198 173.52024985 -84.44696198 173.52024985 -82.29296875 171.578125 C-81.63296875 171.578125 -80.97296875 171.578125 -80.29296875 171.578125 C-75.99238102 163.11255366 -72.26005057 155.50664206 -75.05859375 145.96875 C-78.2665746 137.36321406 -82.52510364 132.26085296 -90.98046875 128.328125 C-98.85335379 126.54558499 -104.92403269 127.08115697 -112.09765625 130.66796875 C-115.72288283 132.17095415 -119.50279555 132.69166129 -123.29296875 131.578125 C-126.5806283 128.92862245 -128.12828598 127.44417988 -128.92788696 123.23913574 C-128.93186493 121.96848267 -128.9358429 120.69782959 -128.93994141 119.38867188 C-128.948703 118.68396255 -128.9574646 117.97925323 -128.9664917 117.25318909 C-128.98842096 114.93378331 -128.97395856 112.61629865 -128.95703125 110.296875 C-128.96040131 108.67931758 -128.96525552 107.06176264 -128.9715271 105.44421387 C-128.97888956 102.05810377 -128.96821395 98.67265425 -128.94482422 95.28662109 C-128.91633581 90.95180432 -128.93274328 86.61853534 -128.96268654 82.28377533 C-128.98077705 78.94476717 -128.97499367 75.60612443 -128.96204758 72.2671051 C-128.95871836 70.66915197 -128.96278366 69.07116539 -128.97444534 67.47325134 C-128.98718428 65.23713661 -128.96774055 63.00350816 -128.93994141 60.76757812 C-128.93596344 59.49692505 -128.93198547 58.22627197 -128.92788696 56.91711426 C-128.12690545 52.70481005 -126.59950918 51.21989518 -123.29296875 48.578125 C-120.76928711 47.93115234 -120.76928711 47.93115234 -118.1328125 47.9140625 C-117.17439453 47.90761719 -116.21597656 47.90117188 -115.22851562 47.89453125 C-113.74448242 47.92353516 -113.74448242 47.92353516 -112.23046875 47.953125 C-111.23724609 47.93378906 -110.24402344 47.91445313 -109.22070312 47.89453125 C-101.99882409 47.94316343 -101.99882409 47.94316343 -98.609375 50.9921875 C-97.29296875 53.578125 -97.29296875 53.578125 -97.29296875 55.578125 C-91.02296875 55.578125 -84.75296875 55.578125 -78.29296875 55.578125 C-77.96296875 54.258125 -77.63296875 52.938125 -77.29296875 51.578125 C-75.64865854 49.3671602 -74.73621739 48.67841096 -72.03125 48.06640625 C-71.23074219 48.00839844 -70.43023437 47.95039062 -69.60546875 47.890625 C-68.39310547 47.79201172 -68.39310547 47.79201172 -67.15625 47.69140625 C-66.54136719 47.65402344 -65.92648438 47.61664063 -65.29296875 47.578125 C-65.45152344 47.0728125 -65.61007813 46.5675 -65.7734375 46.046875 C-68.08937211 35.04183236 -66.71713715 22.98573838 -60.9375 13.30859375 C-59.49053054 11.27973309 -57.95516218 9.43350314 -56.29296875 7.578125 C-55.79152344 6.97355469 -55.29007813 6.36898438 -54.7734375 5.74609375 C-40.86521429 -9.7864475 -16.88316166 -10.46928594 0 0 Z " fill="#010101" transform="translate(183.29296875,6.421875)"/>
<path d="M0 0 C5.48523557 4.04617888 10.29919175 9.07129233 12.29296875 15.69140625 C13.07088917 23.68770456 12.98508356 30.62927342 9.19921875 37.8359375 C7.83620829 40.62658392 7.74179982 42.65997713 8.29296875 45.69140625 C9.86474961 48.42852981 9.86474961 48.42852981 12.29296875 50.69140625 C15.22260144 51.4495022 15.22260144 51.4495022 18.53027344 51.35083008 C19.79127869 51.37047318 21.05228394 51.39011627 22.35150146 51.41035461 C23.72261699 51.40691142 25.09373125 51.40292636 26.46484375 51.3984375 C27.87162413 51.41155584 29.27838568 51.4268605 30.68511963 51.44425964 C34.38085872 51.48410825 38.07610511 51.49429984 41.77203369 51.49829102 C45.54609116 51.50762295 49.31985917 51.54503669 53.09375 51.58007812 C60.49349203 51.64465218 67.89293862 51.67789348 75.29296875 51.69140625 C75.29439377 52.45704391 75.29581879 53.22268158 75.29728699 54.01152039 C75.3151353 61.23593373 75.35680158 68.45963505 75.42505932 75.68373394 C75.45931407 79.39755476 75.48443679 83.11096491 75.48852539 86.82495117 C75.49281185 90.41095109 75.52130085 93.99602489 75.56640053 97.58173561 C75.57936486 98.94797173 75.5836869 100.31431875 75.57912254 101.68060875 C75.1758641 109.94684532 75.1758641 109.94684532 78.59106445 117.06958008 C81.67147561 118.91860613 83.60189494 118.95893378 87.1328125 118.37890625 C89.46840934 117.71130604 89.46840934 117.71130604 92.09375 116.16015625 C98.5615921 113.19079284 106.47242695 113.59982288 113.24609375 115.53515625 C120.60256604 118.87490441 125.20865338 124.12789932 129.23046875 131.00390625 C131.51882381 138.94584441 131.13050063 147.28754616 127.29296875 154.69140625 C122.79599107 161.22190097 117.2527777 166.12554219 109.29296875 167.69140625 C101.88590142 168.3539152 96.30980363 167.63717474 89.546875 164.59765625 C86.28679672 163.28684488 83.74510696 163.13906414 80.29296875 163.69140625 C77.46289918 165.84083326 76.41222108 167.03130398 75.77398682 170.56414795 C75.76510437 171.67445374 75.75622192 172.78475952 75.74707031 173.92871094 C75.72735168 175.18971619 75.70763306 176.45072144 75.68731689 177.74993896 C75.68565387 179.12105261 75.68442293 180.49216684 75.68359375 181.86328125 C75.66860944 183.27005924 75.65188176 184.67681964 75.63348389 186.08355713 C75.5898252 189.77920344 75.56981494 193.47461246 75.55474854 197.17047119 C75.53517181 200.94451927 75.49320255 204.71831129 75.453125 208.4921875 C75.37783921 215.89185822 75.3275383 223.29142141 75.29296875 230.69140625 C74.30554688 230.74039063 73.318125 230.789375 72.30078125 230.83984375 C70.37878906 230.95199219 70.37878906 230.95199219 68.41796875 231.06640625 C66.50371094 231.17082031 66.50371094 231.17082031 64.55078125 231.27734375 C61.21235176 231.36381731 61.21235176 231.36381731 59.29296875 233.69140625 C58.96296875 235.01140625 58.63296875 236.33140625 58.29296875 237.69140625 C51.36296875 237.69140625 44.43296875 237.69140625 37.29296875 237.69140625 C36.30296875 235.21640625 36.30296875 235.21640625 35.29296875 232.69140625 C32.69201519 230.09045269 25.35440726 231.45676089 21.85546875 231.44140625 C20.68435547 231.42078125 19.51324219 231.40015625 18.30664062 231.37890625 C17.18966797 231.37375 16.07269531 231.36859375 14.921875 231.36328125 C13.8913501 231.35393555 12.8608252 231.34458984 11.79907227 231.33496094 C10.97205811 231.45258789 10.14504395 231.57021484 9.29296875 231.69140625 C6.88416423 235.30461303 6.73914455 236.41904815 7.29296875 240.69140625 C8.43980706 243.06758922 9.71834048 245.29671077 11.1015625 247.54296875 C14.03237245 252.82803587 14.03918733 258.60314018 12.64453125 264.375 C9.74612221 273.30556804 5.49818718 279.37333464 -2.95703125 283.69140625 C-9.87409719 286.4563453 -15.7047068 287.02718831 -22.8203125 284.65234375 C-30.8773241 281.06030122 -35.93717339 276.24983723 -39.86328125 268.37109375 C-42.05333561 261.41564333 -42.05624785 252.40179115 -38.76953125 245.81640625 C-36.70703125 242.69140625 -36.70703125 242.69140625 -35.70703125 241.69140625 C-35.47784883 237.67483482 -35.47784883 237.67483482 -35.70703125 233.69140625 C-38.47124372 230.92719378 -40.11987418 231.41673504 -43.99267578 231.37255859 C-44.63670349 231.36251297 -45.2807312 231.35246735 -45.9442749 231.34211731 C-48.07612198 231.31119042 -50.20784296 231.29422431 -52.33984375 231.27734375 C-53.81673271 231.25863969 -55.2936109 231.23906685 -56.77047729 231.21865845 C-60.66007142 231.16725049 -64.54970023 231.1276714 -68.43945312 231.09051514 C-73.10516175 231.04350098 -77.77069715 230.98186623 -82.43626404 230.92266846 C-89.52645019 230.83435058 -96.61660137 230.76466246 -103.70703125 230.69140625 C-103.70703125 214.19140625 -103.70703125 197.69140625 -103.70703125 180.69140625 C-102.38703125 181.02140625 -101.06703125 181.35140625 -99.70703125 181.69140625 C-90.73969918 182.42725595 -80.86303056 182.89634753 -72.70703125 178.69140625 C-71.87945312 178.27761719 -71.051875 177.86382812 -70.19921875 177.4375 C-59.50748816 171.58098488 -53.85823146 163.24766241 -49.95703125 151.94140625 C-47.13294913 141.73726421 -48.3113178 132.2585473 -52.70703125 122.69140625 C-59.32774783 111.08876432 -67.58817906 105.53894713 -79.70703125 100.69140625 C-87.62703125 100.69140625 -95.54703125 100.69140625 -103.70703125 100.69140625 C-103.70703125 84.52140625 -103.70703125 68.35140625 -103.70703125 51.69140625 C-99.19402344 51.63082031 -94.68101562 51.57023437 -90.03125 51.5078125 C-86.43493083 51.45685193 -82.83862834 51.40493265 -79.24233246 51.35236359 C-75.44486836 51.29711747 -71.64739759 51.24356454 -67.84985352 51.1940918 C-64.19287727 51.14638531 -60.53599425 51.09404026 -56.87912941 51.0384655 C-55.48329805 51.01807042 -54.08744115 50.99935264 -52.69156456 50.98233223 C-50.73792023 50.95822548 -48.78435928 50.92762579 -46.83081055 50.89672852 C-45.71828415 50.88118423 -44.60575775 50.86563995 -43.45951843 50.84962463 C-40.61677839 50.8064688 -40.61677839 50.8064688 -37.70703125 49.69140625 C-36.69060361 44.39935364 -36.05976064 40.25822761 -38.64453125 35.37890625 C-41.9504879 28.85914505 -41.61316546 21.9520373 -40.1171875 14.91796875 C-37.39483968 6.76347068 -31.59910092 2.08652605 -24.45703125 -2.30859375 C-15.9283711 -4.58290312 -7.75610429 -4.44109724 0 0 Z " fill="#FCD201" transform="translate(366.70703125,18.30859375)"/>
<path d="M0 0 C6.93 0 13.86 0 21 0 C21.99 2.475 21.99 2.475 23 5 C24.94090826 6.94090826 28.47293902 6.39919435 31.0625 6.5625 C32.99802734 6.68818359 32.99802734 6.68818359 34.97265625 6.81640625 C36.47119141 6.90728516 36.47119141 6.90728516 38 7 C38.0154612 8.17391045 38.0154612 8.17391045 38.03123474 9.37153625 C38.12917403 16.74346549 38.2316834 24.11531023 38.33933926 31.48710346 C38.39452584 35.27709879 38.447939 39.06710189 38.49731445 42.85717773 C38.54502094 46.51415398 38.59736599 50.171037 38.65294075 53.82790184 C38.67333583 55.2237332 38.69205361 56.6195901 38.70907402 58.01546669 C38.73318077 59.96911102 38.76378046 61.92267197 38.79467773 63.8762207 C38.81022202 64.9887471 38.8257663 66.1012735 38.84178162 67.24751282 C38.88493745 70.09025286 38.88493745 70.09025286 40 73 C45.45589679 74.81863226 49.53422596 74.34465684 54.6875 72 C61.61642416 69.03648754 69.03422158 68.79872638 76.25 71.0625 C83.63309642 74.37798613 88.86138526 79.91730171 92.15234375 87.2578125 C94.43463106 94.64106455 93.87813793 102.04793183 90.3203125 108.90234375 C85.97077725 115.81270005 81.18456286 121.12119073 73 123 C64.10377492 123.91930851 57.70254332 123.48147975 50 119 C46.14228649 118.39486847 44.6818135 118.57520869 41.36543274 120.64141846 C38.35167054 123.64645165 38.36577861 125.03689884 38.34057617 129.23730469 C38.31111153 131.12881256 38.31111153 131.12881256 38.28105164 133.05853271 C38.28449483 134.42964824 38.28847989 135.8007625 38.29296875 137.171875 C38.27985041 138.57865538 38.26454575 139.98541693 38.24714661 141.39215088 C38.207298 145.08788997 38.19710641 148.78313636 38.19311523 152.47906494 C38.1837833 156.25312241 38.14636956 160.02689042 38.11132812 163.80078125 C38.04675407 171.20052328 38.01351277 178.59996987 38 186 C37.21961365 186.00142502 36.43922729 186.00285004 35.63519287 186.00431824 C28.27802819 186.02215334 20.92156407 186.06378049 13.56470871 186.13209057 C9.78247917 186.16637138 6.00065397 186.19147209 2.21826172 186.19555664 C-1.43256604 186.1998375 -5.08248153 186.22828014 -8.7330246 186.27343178 C-10.12520787 186.28641399 -11.51750029 186.29071181 -12.90973663 186.28615379 C-14.86080104 186.28125421 -16.81186142 186.31018739 -18.76269531 186.34057617 C-19.8730011 186.34723801 -20.98330688 186.35389984 -22.1272583 186.36076355 C-25.19710668 186.77358612 -25.19710668 186.77358612 -27.35858154 189.36543274 C-29.42479131 192.6818135 -29.60513153 194.14228649 -29 198 C-28.01 199.7015625 -28.01 199.7015625 -27 201.4375 C-23.41753163 208.09065554 -23.91920367 216.54251456 -25.66015625 223.72265625 C-28.54017496 230.99127491 -33.60843392 236.18772007 -40.6875 239.4375 C-48.33032837 242.10495148 -55.85962972 242.33626211 -63.3125 239 C-69.94569876 235.21417113 -75.2456304 229.64283435 -77.5625 222.2578125 C-79.12648011 214.186558 -78.27010679 207.67692199 -74.89453125 200.2578125 C-73.20080336 195.98281373 -73.57796301 192.26611096 -75 188 C-78.2529403 186.91568657 -80.69966461 186.84251966 -84.1237793 186.79467773 C-85.38486008 186.77473251 -86.64594086 186.75478729 -87.94523621 186.73423767 C-89.32156247 186.71725467 -90.69789002 186.70037581 -92.07421875 186.68359375 C-93.48241275 186.66301803 -94.89060065 186.6420214 -96.29878235 186.62062073 C-100.00260481 186.56546378 -103.70648241 186.51602646 -107.41040039 186.46777344 C-111.19096782 186.41751179 -114.97145529 186.36185008 -118.75195312 186.30664062 C-126.16790102 186.19913708 -133.58391545 186.09767486 -141 186 C-141.00586624 185.19233688 -141.01173248 184.38467377 -141.01777649 183.55253601 C-141.07565468 175.94501422 -141.14770272 168.33782177 -141.23571491 160.73059368 C-141.28046315 156.81952152 -141.31970911 152.90855459 -141.34643555 148.99731445 C-141.37242461 145.22347912 -141.4127949 141.45004781 -141.46318626 137.67646217 C-141.47988494 136.23600091 -141.49138053 134.79546972 -141.49761391 133.35492516 C-141.50722148 131.33896226 -141.53696102 129.32312559 -141.56762695 127.30737305 C-141.58428154 125.58528877 -141.58428154 125.58528877 -141.60127258 123.82841492 C-141.77260753 121.00326429 -141.77260753 121.00326429 -143.36296082 119.13703918 C-146.08117053 117.24905081 -147.74053586 117.51711642 -151 118 C-152.28727568 118.80770238 -153.55632427 119.64473142 -154.8125 120.5 C-161.48462764 124.46476176 -169.50491488 124.11693703 -177 123 C-184.45468342 120.71013107 -189.29497926 115.44937991 -193.25390625 108.9375 C-196.26105246 103.06989765 -197.12993288 97.50806305 -196 91 C-193.17091971 82.47005603 -188.79361027 76.52707101 -181 72 C-174.73346109 68.89306054 -167.80058945 69.26653328 -161 70 C-158.41875077 71.07209628 -156.31643351 72.33023006 -154 73.87890625 C-150.56801628 75.802694 -147.84659444 75.47238879 -144 75 C-141.25133034 72.25133034 -141.72574989 70.65640683 -141.68115234 66.80615234 C-141.66128265 65.50495453 -141.64141296 64.20375671 -141.62094116 62.86312866 C-141.6090638 61.4374 -141.597401 60.01166955 -141.5859375 58.5859375 C-141.56723326 57.13146862 -141.54766041 55.67701067 -141.5272522 54.2225647 C-141.47584606 50.39215531 -141.43626601 46.56171072 -141.39910889 42.73114014 C-141.35209329 38.13634767 -141.29045932 33.54173108 -141.23126221 28.94708252 C-141.14294654 21.96479234 -141.07325688 14.98253762 -141 8 C-124.83 8 -108.66 8 -92 8 C-92 15.26 -92 22.52 -92 30 C-90.51108542 34.91792997 -89.57318338 37.87245712 -87 42 C-86.49210937 42.8146875 -85.98421875 43.629375 -85.4609375 44.46875 C-78.78031558 53.96726458 -69.26932315 59.57386546 -58 62 C-46.63290817 63.44889344 -35.24381664 60.46525029 -25.9921875 53.6875 C-18.69058872 47.50261632 -14.02167192 40.06501577 -11 31 C-10.91760831 29.15389468 -10.89256641 27.30494836 -10.90234375 25.45703125 C-10.90556641 24.38388672 -10.90878906 23.31074219 -10.91210938 22.20507812 C-10.92048828 21.08552734 -10.92886719 19.96597656 -10.9375 18.8125 C-10.94426758 17.11577148 -10.94426758 17.11577148 -10.95117188 15.38476562 C-10.96296502 12.58979073 -10.9794235 9.7949218 -11 7 C-9.72125 6.87625 -8.4425 6.7525 -7.125 6.625 C-3.65209064 6.30957601 -3.65209064 6.30957601 -1 4 C-0.67 2.68 -0.34 1.36 0 0 Z " fill="#01BFF9" transform="translate(404,256)"/>
<path d="M0 0 C6.47461251 4.08206743 10.78397244 9.66770606 13 17 C14.07113419 24.71595782 13.11985525 30.81576612 9.89453125 37.84765625 C8.26874413 41.75948465 8.40359834 46.08155956 10 50 C13.2271028 51.07570093 15.6365741 51.1571116 19.03198242 51.20532227 C20.27304245 51.22526749 21.51410248 51.24521271 22.79277039 51.26576233 C24.1470019 51.28274527 25.50123473 51.29962413 26.85546875 51.31640625 C28.24124259 51.33698228 29.62701025 51.35797892 31.01277161 51.37937927 C34.65740953 51.43453301 38.30210346 51.48397174 41.94683838 51.53222656 C45.6670835 51.58249056 49.38724743 51.63815104 53.10742188 51.69335938 C60.40487913 51.80085899 67.70240397 51.90232207 75 52 C75.00808685 52.78038635 75.01617371 53.56077271 75.02450562 54.36480713 C75.10246943 61.72178065 75.18976535 69.07855634 75.28752708 76.43529129 C75.33745784 80.21740302 75.38378803 83.99948726 75.421875 87.78173828 C75.45876871 91.43231047 75.5051395 95.08265085 75.55806351 98.7330246 C75.5765858 100.12522055 75.59170178 101.51746615 75.60334396 102.90973663 C75.62024268 104.86082207 75.65041171 106.81177887 75.68115234 108.76269531 C75.70113785 110.42815399 75.70113785 110.42815399 75.7215271 112.1272583 C75.99663429 114.96527911 76.43828302 116.63614073 78 119 C80.94875877 120.47437939 82.69179497 120.36089509 86 120 C88.37968482 118.85758632 90.60434904 117.57521664 92.8515625 116.19140625 C98.52748412 113.04384971 104.87134807 113.13047856 111.0078125 114.8359375 C119.98655766 118.18890248 125.10291608 122.88581489 129.4375 131.375 C132.14625671 138.21138599 131.82788498 144.40199273 129.3125 151.25 C125.95617218 158.76346369 121.24935767 163.4442707 113.76953125 167.0859375 C106.8230339 169.37857555 97.72832585 169.35817079 91.125 166.0625 C88 164 88 164 87 163 C82.98342857 162.77081758 82.98342857 162.77081758 79 163 C76.23578753 165.76421247 76.72532879 167.41284293 76.68115234 171.28564453 C76.67110672 171.92967224 76.6610611 172.57369995 76.65071106 173.23724365 C76.61978417 175.36909073 76.60281806 177.50081171 76.5859375 179.6328125 C76.56723344 181.10970146 76.5476606 182.58657965 76.5272522 184.06344604 C76.47584424 187.95304017 76.43626515 191.84266898 76.39910889 195.73242188 C76.35209473 200.3981305 76.29045998 205.0636659 76.23126221 209.72923279 C76.14294433 216.81941894 76.07325621 223.90957012 76 231 C59.5 231 43 231 26 231 C26.33 229.35 26.66 227.7 27 226 C28.26100372 212.73072924 26.62093105 202.18833665 18.75 191.125 C12.15418843 183.23001342 2.16785995 177.63245458 -8 176 C-21.05219269 174.94281305 -31.6743909 178.55756438 -41.96875 186.5234375 C-47.98435891 191.93220867 -51.46971055 199.40913166 -54 207 C-54 214.92 -54 222.84 -54 231 C-70.17 231 -86.34 231 -103 231 C-103 214.5 -103 198 -103 181 C-101.68 181.33 -100.36 181.66 -99 182 C-84.7636245 183.00559665 -72.35929193 181.66643381 -61 172.08203125 C-52.75382782 163.49763716 -48.41281579 153.41678905 -48.5625 141.625 C-48.57007324 140.78791504 -48.57764648 139.95083008 -48.58544922 139.08837891 C-48.75579262 132.69614937 -49.71902756 127.57049838 -53 122 C-53.42410156 121.22527344 -53.84820312 120.45054687 -54.28515625 119.65234375 C-57.8491671 113.70570727 -62.21164219 109.75033472 -68 106 C-68.71929687 105.49082031 -69.43859375 104.98164062 -70.1796875 104.45703125 C-80.6713711 98.31681642 -90.17678175 101 -103 101 C-103 84.83 -103 68.66 -103 52 C-97.555 51.505 -97.555 51.505 -92 51 C-88.68558593 48.20008168 -88.68558593 48.20008168 -88 44 C-81.4 44 -74.8 44 -68 44 C-67.01 45.98 -66.02 47.96 -65 50 C-62.51289113 52.48710887 -56.08585866 51.33062945 -52.75 51.375 C-51.69941406 51.41238281 -50.64882812 51.44976562 -49.56640625 51.48828125 C-43.24432853 51.60631965 -43.24432853 51.60631965 -37.80078125 48.6484375 C-35.51605457 45.28825379 -35.3068436 44.00490367 -36 40 C-36.64831065 38.67833666 -37.31729756 37.36673083 -38 36.0625 C-41.27492776 29.16175937 -41.27798446 20.83214243 -39.33984375 13.50390625 C-36.01639983 6.12327104 -29.85398278 0.59406611 -22.3828125 -2.34375 C-14.86512828 -4.41419418 -7.02548334 -3.2195341 0 0 Z " fill="#6ED5A1" transform="translate(173,18)"/>
<path d="M0 0 C5.94476779 3.51679947 9.84788724 9.54366172 12 16 C12.700267 24.34318106 12.86563896 30.86506977 8.12890625 38.00390625 C6.14664957 41.50886529 6.3892096 44.06379521 7 48 C9.25076654 50.3249307 10.65368195 50.95193216 13.8727417 51.39872742 C14.98304749 51.40983047 16.09335327 51.42093353 17.23730469 51.43237305 C18.49830994 51.45216721 19.75931519 51.47196136 21.05853271 51.49235535 C22.42964529 51.49912459 23.80075949 51.50557152 25.171875 51.51171875 C26.57864957 51.52856901 27.98540911 51.54671973 29.39215088 51.56611633 C33.08774114 51.61358539 36.78327048 51.64341441 40.47906494 51.66955566 C44.25309191 51.69937704 48.02691324 51.74574086 51.80078125 51.79101562 C59.20053746 51.87857466 66.59979644 51.93854356 74 52 C74 67.84 74 83.68 74 100 C66.74 100 59.48 100 52 100 C47.08207003 101.48891458 44.12754288 102.42681662 40 105 C39.1853125 105.50789063 38.370625 106.01578125 37.53125 106.5390625 C28.03273542 113.21968442 22.42613454 122.73067685 20 134 C18.55974658 145.29930777 21.48866335 156.74674944 28.25390625 165.94140625 C34.79745435 173.65605915 41.23360231 178.18446193 51 181 C58.92 181 66.84 181 75 181 C75 197.17 75 213.34 75 230 C58.5 230 42 230 25 230 C25.33 228.35 25.66 226.7 26 225 C27.28630729 211.46446515 25.50752811 200.92488778 17.4375 189.6875 C11.51667209 182.71058514 2.17930458 176.74725084 -7.09228516 175.78222656 C-16.55923411 175.29550431 -25.62358475 175.04472138 -34 180 C-34.78632813 180.44730469 -35.57265625 180.89460937 -36.3828125 181.35546875 C-45.95446564 187.24693182 -51.46034075 195.38102226 -55 206 C-55 213.92 -55 221.84 -55 230 C-71.17 230 -87.34 230 -104 230 C-104.33 227.36 -104.66 224.72 -105 222 C-107.28666695 219.63711081 -108.86842568 219.04385811 -112 218 C-112 211.4 -112 204.8 -112 198 C-110.02 197.01 -108.04 196.02 -106 195 C-103.27634962 192.27634962 -104.66616503 184.34931631 -104.625 180.6875 C-104.58761719 179.43775391 -104.55023438 178.18800781 -104.51171875 176.90039062 C-104.50011719 175.69962891 -104.48851562 174.49886719 -104.4765625 173.26171875 C-104.45674316 172.15787842 -104.43692383 171.05403809 -104.41650391 169.91674805 C-104.75853202 166.80493909 -104.75853202 166.80493909 -107.36083984 164.63989258 C-110.70227571 162.56362757 -112.10944173 162.40145257 -116 163 C-117.3227625 163.64606505 -118.63427519 164.31537909 -119.9375 165 C-126.83824063 168.27492776 -135.16785757 168.27798446 -142.49609375 166.33984375 C-149.22969233 163.3077555 -154.38449845 157.98625427 -157.4375 151.3125 C-160.10495148 143.66967163 -160.33626211 136.14037028 -157 128.6875 C-153.21417113 122.05430124 -147.64283435 116.7543696 -140.2578125 114.4375 C-132.17513839 112.87130709 -125.62429774 113.73269029 -118.1875 117.10546875 C-114.02572598 118.80733706 -110.19935149 118.29210815 -106 117 C-104.98204315 113.61150805 -104.84572865 110.47609491 -104.79467773 106.94628906 C-104.77473251 105.72532532 -104.75478729 104.50436157 -104.73423767 103.24639893 C-104.71752518 101.93274353 -104.70081268 100.61908813 -104.68359375 99.265625 C-104.66301081 97.90370064 -104.64201399 96.54178248 -104.62062073 95.17987061 C-104.56553835 91.60265128 -104.51606836 88.02537562 -104.46777344 84.44805908 C-104.41745711 80.79474906 -104.36182403 77.14152042 -104.30664062 73.48828125 C-104.19922838 66.32558983 -104.09774615 59.16283054 -104 52 C-102.82942047 51.98786972 -102.82942047 51.98786972 -101.63519287 51.97549438 C-94.27821935 51.89753057 -86.92144366 51.81023465 -79.56470871 51.71247292 C-75.78259698 51.66254216 -72.00051274 51.61621197 -68.21826172 51.578125 C-64.56768953 51.54123129 -60.91734915 51.4948605 -57.2669754 51.44193649 C-55.87477945 51.4234142 -54.48253385 51.40829822 -53.09026337 51.39665604 C-51.13917793 51.37975732 -49.18822113 51.34958829 -47.23730469 51.31884766 C-46.1269989 51.30552399 -45.01669312 51.29220032 -43.8727417 51.2784729 C-41.03472089 51.00336571 -39.36385927 50.56171698 -37 49 C-35.52562061 46.05124123 -35.63910491 44.30820503 -36 41 C-36.8024063 39.70941644 -37.6402883 38.44063909 -38.5 37.1875 C-42.46476176 30.51537236 -42.11693703 22.49508512 -41 15 C-38.71416436 7.55844696 -33.44033246 2.61052513 -26.8671875 -1.25390625 C-17.40891275 -5.98304363 -9.34557652 -4.43297176 0 0 Z " fill="#FD0263" transform="translate(174,212)"/>
<path d="M0 0 C5.28 0 10.56 0 16 0 C16.99 2.475 16.99 2.475 18 5 C19.94090826 6.94090826 23.47293902 6.39919435 26.0625 6.5625 C27.99802734 6.68818359 27.99802734 6.68818359 29.97265625 6.81640625 C31.47119141 6.90728516 31.47119141 6.90728516 33 7 C33.0154612 8.17391045 33.0154612 8.17391045 33.03123474 9.37153625 C33.12917403 16.74346549 33.2316834 24.11531023 33.33933926 31.48710346 C33.39452584 35.27709879 33.447939 39.06710189 33.49731445 42.85717773 C33.54502094 46.51415398 33.59736599 50.171037 33.65294075 53.82790184 C33.67333583 55.2237332 33.69205361 56.6195901 33.70907402 58.01546669 C33.73318077 59.96911102 33.76378046 61.92267197 33.79467773 63.8762207 C33.81022202 64.9887471 33.8257663 66.1012735 33.84178162 67.24751282 C33.88493745 70.09025286 33.88493745 70.09025286 35 73 C40.45589679 74.81863226 44.53422596 74.34465684 49.6875 72 C56.61642416 69.03648754 64.03422158 68.79872638 71.25 71.0625 C78.63309642 74.37798613 83.86138526 79.91730171 87.15234375 87.2578125 C89.43463106 94.64106455 88.87813793 102.04793183 85.3203125 108.90234375 C80.97077725 115.81270005 76.18456286 121.12119073 68 123 C59.10377492 123.91930851 52.70254332 123.48147975 45 119 C41.14228649 118.39486847 39.6818135 118.57520869 36.36543274 120.64141846 C33.35167054 123.64645165 33.36577861 125.03689884 33.34057617 129.23730469 C33.31111153 131.12881256 33.31111153 131.12881256 33.28105164 133.05853271 C33.28449483 134.42964824 33.28847989 135.8007625 33.29296875 137.171875 C33.27985041 138.57865538 33.26454575 139.98541693 33.24714661 141.39215088 C33.207298 145.08788997 33.19710641 148.78313636 33.19311523 152.47906494 C33.1837833 156.25312241 33.14636956 160.02689042 33.11132812 163.80078125 C33.04675407 171.20052328 33.01351277 178.59996987 33 186 C32.21961365 186.00142502 31.43922729 186.00285004 30.63519287 186.00431824 C23.27802819 186.02215334 15.92156407 186.06378049 8.56470871 186.13209057 C4.78247917 186.16637138 1.00065397 186.19147209 -2.78173828 186.19555664 C-6.43256604 186.1998375 -10.08248153 186.22828014 -13.7330246 186.27343178 C-15.12520787 186.28641399 -16.51750029 186.29071181 -17.90973663 186.28615379 C-19.86080104 186.28125421 -21.81186142 186.31018739 -23.76269531 186.34057617 C-24.8730011 186.34723801 -25.98330688 186.35389984 -27.1272583 186.36076355 C-30.19710668 186.77358612 -30.19710668 186.77358612 -32.35858154 189.36543274 C-34.42479131 192.6818135 -34.60513153 194.14228649 -34 198 C-33.01 199.7015625 -33.01 199.7015625 -32 201.4375 C-28.41753163 208.09065554 -28.91920367 216.54251456 -30.66015625 223.72265625 C-33.54017496 230.99127491 -38.60843392 236.18772007 -45.6875 239.4375 C-53.33032837 242.10495148 -60.85962972 242.33626211 -68.3125 239 C-74.94569876 235.21417113 -80.2456304 229.64283435 -82.5625 222.2578125 C-84.12648011 214.186558 -83.27010679 207.67692199 -79.89453125 200.2578125 C-78.20080336 195.98281373 -78.57796301 192.26611096 -80 188 C-83.2529403 186.91568657 -85.69966461 186.84251966 -89.1237793 186.79467773 C-91.04184387 186.76440491 -91.04184387 186.76440491 -92.99865723 186.73352051 C-94.35717619 186.71675242 -95.71569669 186.70010915 -97.07421875 186.68359375 C-98.30966431 186.66494263 -99.54510986 186.6462915 -100.81799316 186.6270752 C-105.44108809 186.55868245 -110.06430286 186.49859449 -114.6875 186.4375 C-125.020625 186.293125 -135.35375 186.14875 -146 186 C-146 164.88 -146 143.76 -146 122 C-145.67 122 -145.34 122 -145 122 C-145 138.83 -145 155.66 -145 173 C-131.3249962 172.9379771 -131.3249962 172.9379771 -117.65039062 172.83984375 C-112.06160322 172.79175247 -106.47300669 172.74761738 -100.8840332 172.72900391 C-96.37095767 172.71370342 -91.8583863 172.67902577 -87.34553719 172.63169098 C-85.63587932 172.61701373 -83.92614941 172.60896697 -82.21642876 172.60811615 C-68.20853261 172.59415294 -55.28029762 170.92555687 -42.6875 164.25 C-42.02435791 163.90783447 -41.36121582 163.56566895 -40.67797852 163.21313477 C-34.88471855 160.1272033 -29.85145811 156.4260504 -25 152 C-24.3915625 151.48308594 -23.783125 150.96617187 -23.15625 150.43359375 C-10.07938645 138.57525612 -2.07549547 119.70416173 -0.8041954 102.32296181 C-0.71818922 99.58472392 -0.68743284 96.85212026 -0.68115234 94.11254883 C-0.67110672 93.08681763 -0.6610611 92.06108643 -0.65071106 91.00427246 C-0.62012253 87.65519713 -0.60291216 84.30620081 -0.5859375 80.95703125 C-0.56720625 78.61862011 -0.5476314 76.28021559 -0.5272522 73.94181824 C-0.47613181 67.81814493 -0.43639897 61.69444977 -0.39910889 55.57067871 C-0.35894272 49.30943482 -0.30790816 43.0482803 -0.2578125 36.78710938 C-0.16129135 24.52480255 -0.07681097 12.26244503 0 0 Z " fill="#08A7EE" transform="translate(409,256)"/>
<path d="M0 0 C19.8 0 39.6 0 60 0 C60.01417969 4.41761719 60.02835937 8.83523437 60.04296875 13.38671875 C60.06822265 16.91467896 60.09845126 20.44251869 60.13204193 23.97040558 C60.16610947 27.69153498 60.19145999 31.41225157 60.19555664 35.13354492 C60.1998431 38.71954484 60.2283321 42.30461864 60.27343178 45.89032936 C60.28639611 47.25656548 60.29071815 48.6229125 60.28615379 49.9892025 C59.88289535 58.25543907 59.88289535 58.25543907 63.2980957 65.37817383 C66.37850686 67.22719988 68.30892619 67.26752753 71.83984375 66.6875 C74.17544059 66.01989979 74.17544059 66.01989979 76.80078125 64.46875 C83.26862335 61.49938659 91.1794582 61.90841663 97.953125 63.84375 C105.30959729 67.18349816 109.91568463 72.43649307 113.9375 79.3125 C116.22585506 87.25443816 115.83753188 95.59613991 112 103 C107.50302232 109.53049472 101.95980895 114.43413594 94 116 C86.59293267 116.66250895 81.01683488 115.94576849 74.25390625 112.90625 C70.99382797 111.59543863 68.45213821 111.44765789 65 112 C62.16993043 114.14942701 61.11925233 115.33989773 60.48101807 118.8727417 C60.4676944 120.53820038 60.4676944 120.53820038 60.45410156 122.23730469 C60.43438293 123.49830994 60.41466431 124.75931519 60.39434814 126.05853271 C60.39268512 127.42964636 60.39145418 128.80076059 60.390625 130.171875 C60.37564069 131.57865299 60.35891301 132.98541339 60.34051514 134.39215088 C60.29685645 138.08779719 60.27684619 141.78320621 60.26177979 145.47906494 C60.24220306 149.25311302 60.2002338 153.02690504 60.16015625 156.80078125 C60.08487046 164.20045197 60.03456955 171.60001516 60 179 C59.01257813 179.04898438 58.02515625 179.09796875 57.0078125 179.1484375 C55.08582031 179.26058594 55.08582031 179.26058594 53.125 179.375 C51.21074219 179.47941406 51.21074219 179.47941406 49.2578125 179.5859375 C45.91938301 179.67241106 45.91938301 179.67241106 44 182 C43.67 183.32 43.34 184.64 43 186 C37.72 186 32.44 186 27 186 C27 124.95 27 63.9 27 1 C18.09 1 9.18 1 0 1 C0 0.67 0 0.34 0 0 Z " fill="#F8C400" transform="translate(382,70)"/>
<path d="M0 0 C0.33 0 0.66 0 1 0 C1 16.17 1 32.34 1 49 C-15.5 49 -32 49 -49 49 C-48.01 40.09 -48.01 40.09 -47 31 C-46.67 31 -46.34 31 -46 31 C-46 32.65 -46 34.3 -46 36 C-30.82 36 -15.64 36 0 36 C0 24.12 0 12.24 0 0 Z " fill="#D70151" transform="translate(248,393)"/>
<path d="M0 0 C0.33 0 0.66 0 1 0 C1.33 6.6 1.66 13.2 2 20 C-14.17 20 -30.34 20 -47 20 C-47.33 17.36 -47.66 14.72 -48 12 C-49.7677812 10.04841514 -49.7677812 10.04841514 -52 9 C-52.99 8.34 -53.98 7.68 -55 7 C-36.85 7 -18.7 7 0 7 C0 4.69 0 2.38 0 0 Z " fill="#DD0154" transform="translate(117,422)"/>
</svg>
