<?xml version="1.0" encoding="UTF-8"?>
<svg version="1.1" xmlns="http://www.w3.org/2000/svg" width="512" height="512">
<path d="M0 0 C1.75497663 -0.00514287 3.50994808 -0.01242692 5.26490784 -0.02168274 C10.01488108 -0.04015545 14.76429113 -0.02728542 19.51424074 -0.00759244 C24.49089465 0.00882435 29.46751374 -0.00002281 34.44418335 -0.00511169 C42.79832939 -0.00962842 51.1522512 0.00621319 59.50634766 0.03417969 C69.16088103 0.06625063 78.81501054 0.06620634 88.46957266 0.04896492 C97.76544542 0.03309662 107.0611703 0.03983399 116.35703659 0.05690193 C120.30987872 0.06376925 124.26260221 0.06274331 128.21544266 0.05535698 C132.86954552 0.0476907 137.5231891 0.05983141 142.17721367 0.08720589 C143.88399708 0.09408641 145.59082342 0.09419124 147.29760551 0.08699036 C149.6296294 0.0782859 151.96023899 0.09426638 154.29214478 0.11643982 C155.59623102 0.11924674 156.90031727 0.12205366 158.24392128 0.12494564 C163.53993271 0.88833912 166.5885051 3.30655292 170.06787109 7.25610352 C173.69575894 12.36201974 173.01421966 17.27199413 173.06787109 23.38110352 C173.096875 24.46649414 173.12587891 25.55188477 173.15576172 26.67016602 C173.20606189 33.00024923 173.03521157 36.83894328 168.75537109 41.63110352 C162.93743216 47.44904245 155.77229816 47.8348397 147.95458984 47.99438477 C145.58145901 48.45266573 145.58145901 48.45266573 144.14494324 50.64201355 C142.35850971 54.4847867 142.31541514 57.93910832 142.32299805 62.09326172 C142.3128064 62.93279892 142.30261475 63.77233612 142.29211426 64.63731384 C142.26200753 67.40223891 142.25272189 70.16681738 142.24365234 72.93188477 C142.22680393 74.85289153 142.20865347 76.77388729 142.18925476 78.69487 C142.14176627 83.74346475 142.1119494 88.79201484 142.08581543 93.84075928 C142.05600416 98.99557311 142.00947575 104.1502331 141.96435547 109.30493164 C141.8783354 119.4135751 141.81098427 129.52225024 141.75537109 139.63110352 C142.44607193 139.6248848 143.13677277 139.61866608 143.84840393 139.61225891 C147.00618179 139.58743151 150.16393903 139.57208041 153.32177734 139.55688477 C154.9516156 139.54195984 154.9516156 139.54195984 156.61437988 139.5267334 C168.02902446 139.48554095 177.06947015 141.23518793 186.75537109 147.63110352 C187.08537109 147.96110352 187.41537109 148.29110352 187.75537109 148.63110352 C187.75683765 147.93057295 187.75830421 147.23004238 187.75981522 146.50828362 C187.7968792 129.45680582 187.85588838 112.40554516 187.93927383 95.35423088 C187.97907031 87.10830233 188.01145968 78.86246929 188.02636719 70.61645508 C188.03938059 63.42857702 188.06633714 56.24090907 188.10998416 49.05314934 C188.1326062 45.24781265 188.14828135 41.44273519 188.14725494 37.63732529 C188.14650875 34.05355881 188.16444227 30.47036551 188.19653893 26.88674736 C188.20908398 24.94847972 188.20197067 23.01011589 188.19422913 21.07182312 C188.27108571 14.65834526 188.32445277 10.44896696 192.75537109 5.63110352 C197.65881593 1.31140211 200.51791587 0.48225595 206.9072113 0.4839325 C207.65253256 0.48025581 208.39785382 0.47657912 209.16576058 0.47279102 C211.67667603 0.46173097 214.18755013 0.45790633 216.69848633 0.45410156 C218.49371981 0.44783838 220.28895199 0.44119171 222.08418274 0.43418884 C226.97307221 0.41675919 231.86195188 0.40622052 236.75086474 0.39798331 C239.80667526 0.39283455 242.86248273 0.38675859 245.91829109 0.38047218 C255.48269954 0.36140979 265.04710024 0.34718406 274.61152405 0.33886021 C285.64425364 0.32909997 296.67678194 0.30281653 307.70944065 0.26235932 C316.23952032 0.23215584 324.76954248 0.2173871 333.29967457 0.2140792 C338.39234752 0.21173245 343.48480571 0.20282164 348.57742119 0.17761803 C353.37502095 0.15425997 358.17226578 0.1501351 362.96990776 0.16037941 C364.72460107 0.1608731 366.47931229 0.15460231 368.23395157 0.14082336 C377.71960692 0.07054326 386.03476007 0.40306681 394.75537109 4.63110352 C395.75052734 5.11192383 396.74568359 5.59274414 397.77099609 6.08813477 C408.9094077 12.84517817 416.64027629 21.82162219 420.32875061 34.55873108 C422.54378448 43.71249069 422.18271349 52.98119083 422.15942383 62.33984375 C422.16513457 64.41902024 422.17210154 66.49819359 422.18022156 68.57736206 C422.19808947 74.19515938 422.19699667 79.81279995 422.19127917 85.43061709 C422.18817833 90.13224623 422.19428967 94.83384565 422.20031792 99.53547055 C422.21434042 110.63223362 422.21282059 121.72891966 422.20141602 132.82568359 C422.18993482 144.24899262 422.20401584 155.67206686 422.23081249 167.09534496 C422.25300779 176.9275726 422.2595983 186.75972675 422.25373608 196.59197766 C422.25037476 202.45359713 422.25272684 208.3150661 422.26998711 214.17666435 C422.28551542 219.69013511 422.28143544 225.2032594 422.26268196 230.71671677 C422.25901248 232.73180007 422.26205627 234.74690939 422.27256775 236.76196861 C422.35561624 254.00839849 420.23610196 269.56987354 407.75537109 282.63110352 C394.89078629 293.88040413 381.4405449 296.01875887 364.97021484 296.05664062 C362.49658198 296.06864617 360.0253626 296.11803584 357.55224609 296.16821289 C355.96892479 296.17766768 354.38558838 296.18490722 352.80224609 296.18969727 C352.06882996 296.20922958 351.33541382 296.2287619 350.57977295 296.24888611 C346.58514957 296.21376745 344.90914268 295.75450834 341.75244141 293.22119141 C339.75537109 290.63110352 339.75537109 290.63110352 339.75537109 288.63110352 C333.48537109 288.63110352 327.21537109 288.63110352 320.75537109 288.63110352 C320.09537109 290.28110352 319.43537109 291.93110352 318.75537109 293.63110352 C315.57463814 295.75159215 314.81839163 295.87983351 311.18061829 295.87161255 C309.77347565 295.87573654 309.77347565 295.87573654 308.33790588 295.87994385 C307.31075974 295.8727533 306.28361359 295.86556274 305.2253418 295.8581543 C304.14225739 295.85844635 303.05917297 295.8587384 301.94326782 295.85903931 C298.35581509 295.85764364 294.76856889 295.8420711 291.18115234 295.82641602 C288.69679376 295.82268673 286.2124337 295.81983936 283.72807312 295.81784058 C277.85262809 295.81097908 271.97725957 295.79520893 266.10184592 295.7751416 C257.58316364 295.74667751 249.0644561 295.73619154 240.54573822 295.723526 C228.61555425 295.70411917 216.68556456 295.66580112 204.75537109 295.63110352 C204.75537109 318.73110352 204.75537109 341.83110352 204.75537109 365.63110352 C209.37537109 363.32110352 213.99537109 361.01110352 218.75537109 358.63110352 C222.53008675 357.6874246 225.40877944 357.51589174 229.27099609 357.53344727 C230.52138672 357.53666992 231.77177734 357.53989258 233.06005859 357.54321289 C234.36201172 357.5515918 235.66396484 357.5599707 237.00537109 357.56860352 C238.98150391 357.57537109 238.98150391 357.57537109 240.99755859 357.58227539 C244.2502085 357.59406035 247.50276694 357.6105134 250.75537109 357.63110352 C250.70896484 356.34075195 250.66255859 355.05040039 250.61474609 353.72094727 C250.57720676 352.00352264 250.54080893 350.28607279 250.50537109 348.56860352 C250.45509766 347.29726563 250.45509766 347.29726563 250.40380859 346.00024414 C250.31064694 339.9680269 251.25428169 336.57344284 254.75537109 331.63110352 C259.51916266 327.21588207 262.92162594 326.50690839 269.30297852 326.43823242 C269.96356262 326.43005493 270.62414673 326.42187744 271.30474854 326.41345215 C273.49010323 326.38865007 275.67539303 326.37209275 277.86083984 326.35766602 C278.60935022 326.35234234 279.3578606 326.34701866 280.12905312 326.34153366 C284.09343058 326.31482053 288.0577768 326.29544256 292.0222168 326.28100586 C295.29398677 326.26768551 298.56513026 326.23986681 301.83666992 326.19897461 C305.79540693 326.14949901 309.7535773 326.12486656 313.71261024 326.11777878 C315.21603902 326.11109058 316.71945637 326.09593203 318.22270775 326.07188797 C333.74817129 325.83779329 333.74817129 325.83779329 339.75537109 331.63110352 C344.16917718 336.88972466 344.26903938 341.90083813 344.00537109 348.56860352 C343.98732422 349.44323242 343.96927734 350.31786133 343.95068359 351.21899414 C343.90395462 353.3568446 343.8322255 355.49412397 343.75537109 357.63110352 C344.54596924 357.61015625 345.33656738 357.58920898 346.15112305 357.56762695 C349.78990573 357.48364073 353.42848353 357.43218264 357.06787109 357.38110352 C358.93282227 357.33083008 358.93282227 357.33083008 360.83544922 357.27954102 C373.79313258 357.14350235 384.50028401 360.67293281 393.95068359 369.73657227 C402.9337186 379.36598802 406.05836891 388.94805233 406.04589844 401.9375 C406.05261566 402.94979675 406.05933289 403.96209351 406.06625366 405.00506592 C406.08518692 408.33749352 406.08915523 411.66971929 406.09130859 415.00219727 C406.0977387 417.32715436 406.10446722 419.65211064 406.11148071 421.97706604 C406.12344103 426.84491858 406.1271627 431.71270021 406.12597656 436.58056641 C406.12577321 442.80917795 406.15309877 449.03733409 406.18752098 455.26583767 C406.20978606 460.06576109 406.21381425 464.86557474 406.21275711 469.66554451 C406.21511274 471.961595 406.22393409 474.25764853 406.23942184 476.55364799 C406.25907742 479.76785881 406.2532453 482.9810849 406.24121094 486.1953125 C406.25244995 487.13738052 406.26368896 488.07944855 406.27526855 489.05006409 C406.20916382 496.01883623 404.60878247 501.32446572 400.00927734 506.65454102 C399.45111328 507.10055664 398.89294922 507.54657227 398.31787109 508.00610352 C397.76228516 508.46758789 397.20669922 508.92907227 396.63427734 509.40454102 C391.95675917 512.458056 387.66155547 512.92276897 382.18461609 512.89852905 C381.4305313 512.90306017 380.67644652 512.90759128 379.89951068 512.9122597 C377.37703632 512.92490251 374.8547779 512.92328341 372.33227539 512.92163086 C370.52187828 512.92761621 368.71148373 512.93442177 366.90109253 512.94198608 C361.98570531 512.9596532 357.07038773 512.96434178 352.15497184 512.96561766 C349.08291446 512.96703948 346.01087478 512.97130967 342.93882179 512.97661209 C332.2182363 512.99511513 321.49770054 513.00328241 310.77709961 513.00170898 C300.78926554 513.0005077 290.80164761 513.02160688 280.81386822 513.05319631 C272.23450985 513.07936268 263.65522205 513.09007612 255.07582408 513.08879817 C249.95368242 513.08828861 244.83173283 513.09396804 239.70963097 513.11515427 C234.89064428 513.1345425 230.07203274 513.13465706 225.25303268 513.120121 C223.48740782 513.1180325 221.72175945 513.1227363 219.95617485 513.13484192 C202.10706835 513.24926697 202.10706835 513.24926697 194.73193359 506.88500977 C194.28591797 506.3268457 193.83990234 505.76868164 193.38037109 505.19360352 C192.91888672 504.63801758 192.45740234 504.08243164 191.98193359 503.51000977 C189.37211557 499.5121675 188.5000076 495.84609262 188.34130859 491.11157227 C188.30263672 490.08999023 188.26396484 489.0684082 188.22412109 488.01586914 C188.17771484 486.43322266 188.17771484 486.43322266 188.13037109 484.81860352 C188.09169922 483.74416992 188.05302734 482.66973633 188.01318359 481.56274414 C187.91918496 478.91903263 187.83352536 476.27532302 187.75537109 473.63110352 C186.93806519 474.14966919 186.93806519 474.14966919 186.10424805 474.67871094 C185.38712646 475.13093018 184.67000488 475.58314941 183.93115234 476.04907227 C183.22128174 476.49790771 182.51141113 476.94674316 181.7800293 477.40917969 C178.37376294 479.46493311 175.74253412 480.63110352 171.75537109 480.63110352 C172.08537109 481.29110352 172.41537109 481.95110352 172.75537109 482.63110352 C173.38783944 490.53177371 173.89295516 498.17156799 168.75537109 504.63110352 C164.30404778 509.33558266 160.06472593 512.29107423 153.48583984 512.96704102 C145.1513577 513.05893167 139.43722586 512.67014069 133.04833984 507.15844727 C128.80676246 502.7930282 126.49924179 497.66565009 125.75537109 491.63110352 C126.08537109 488.66110352 126.41537109 485.69110352 126.75537109 482.63110352 C90.45537109 482.30110352 54.15537109 481.97110352 16.75537109 481.63110352 C17.08537109 482.29110352 17.41537109 482.95110352 17.75537109 483.63110352 C18.46120812 491.15231769 18.22059284 497.37103773 13.75537109 503.63110352 C9.44333769 508.75892702 5.17493482 512.22808351 -1.52587891 513.01782227 C-9.97844385 513.27970729 -15.95707639 512.63736531 -22.20947266 506.79516602 C-28.08555758 500.52253549 -29.47766323 495.37217218 -29.41259766 486.90063477 C-29.24462891 484.63110352 -29.24462891 484.63110352 -28.24462891 481.63110352 C-29.15083984 481.21860352 -30.05705078 480.80610352 -30.99072266 480.38110352 C-43.28885893 474.622694 -52.95256961 467.79418458 -58.01255894 454.63381863 C-61.07157553 445.13682165 -60.67410189 435.58207391 -60.64868164 425.71923828 C-60.65439137 423.71427532 -60.66135795 421.70931561 -60.66947937 419.70436096 C-60.68734934 414.28751386 -60.68625522 408.87082928 -60.68053699 403.45396161 C-60.67743933 398.92799214 -60.68354329 394.40205362 -60.68957573 389.87608856 C-60.70359612 379.20496362 -60.70207751 368.5339188 -60.69067383 357.86279297 C-60.67916645 346.8511497 -60.69331789 335.83974925 -60.7200703 324.82813793 C-60.74219727 315.36634339 -60.74887231 305.90462525 -60.74299389 296.44280666 C-60.73961938 290.79440322 -60.74207354 285.14615581 -60.75924492 279.49777412 C-60.77466642 274.19445773 -60.770812 268.89150337 -60.75193977 263.58820152 C-60.74824205 261.6402913 -60.75139661 259.6923545 -60.76182556 257.74446869 C-60.77495495 255.09013373 -60.7635607 252.43701202 -60.74583435 249.7827301 C-60.75543936 249.00813133 -60.76504436 248.23353256 -60.77494043 247.4354611 C-60.72695652 243.95537018 -60.52333766 242.00098335 -58.40080357 239.18412685 C-56.24462891 237.63110352 -56.24462891 237.63110352 -53.24462891 236.63110352 C-52.91462891 230.36110352 -52.58462891 224.09110352 -52.24462891 217.63110352 C-53.89462891 217.30110352 -55.54462891 216.97110352 -57.24462891 216.63110352 C-59.97459272 214.22367337 -60.23430034 212.72191377 -60.64868164 209.07861328 C-60.67520005 207.66012579 -60.68395915 206.24123351 -60.67822266 204.82250977 C-60.68346451 204.0599437 -60.68870636 203.29737762 -60.69410706 202.51170349 C-60.70052464 200.89534721 -60.69919361 199.27894422 -60.69067383 197.66259766 C-60.68226383 195.23258901 -60.71076046 192.80501452 -60.74267578 190.37524414 C-60.80806216 175.98277161 -58.41047053 163.26714715 -48.20947266 152.47875977 C-36.7314894 141.60807721 -24.49779234 139.2517573 -9.11962891 139.50610352 C-7.54181641 139.51963867 -7.54181641 139.51963867 -5.93212891 139.53344727 C-3.36938013 139.55674498 -0.80713378 139.5894524 1.75537109 139.63110352 C1.69422455 128.20898085 1.61716521 116.7870879 1.51965618 105.36521435 C1.47488405 100.06185099 1.4356431 94.75856567 1.40893555 89.45507812 C1.38297075 84.33914138 1.34261704 79.22350387 1.29218483 74.10775185 C1.27546982 72.15371732 1.2639845 70.19963099 1.25775719 68.2455349 C1.24816634 65.51330393 1.22016794 62.78184656 1.18774414 60.04980469 C1.18917923 59.23772552 1.19061432 58.42564636 1.1920929 57.58895874 C1.14923818 53.38439737 1.14923818 53.38439737 -0.56364441 49.64179993 C-3.36577641 47.95701059 -6.27524973 47.97898673 -9.49462891 47.69360352 C-15.33364348 47.05046971 -19.59161839 46.35351193 -24.24462891 42.63110352 C-29.10237817 36.36716368 -29.47470987 31.55362808 -29.55712891 23.94360352 C-29.58613281 23.07026367 -29.61513672 22.19692383 -29.64501953 21.29711914 C-29.71082534 14.51912085 -28.70062056 9.19627753 -23.85865211 4.20134068 C-16.83272149 -1.03318599 -8.33558944 -0.06200568 0 0 Z M49.75537109 47.63110352 C47.91065209 49.47582252 48.6353492 52.07626764 48.63095093 54.53050232 C48.6345462 55.37782425 48.63814148 56.22514618 48.6418457 57.09814453 C48.64169968 57.98586548 48.64155365 58.87358643 48.6414032 59.78820801 C48.64210266 62.73716636 48.64989661 65.68606238 48.65771484 68.63500977 C48.6595789 70.67382269 48.66100286 72.71263606 48.66200256 74.75144958 C48.66582869 80.12894925 48.67565977 85.5064221 48.68670654 90.88391113 C48.69871275 97.3299377 48.70332245 103.77597321 48.70915985 110.22200775 C48.71887148 120.02505835 48.73802738 129.82805005 48.75537109 139.63110352 C63.93537109 139.63110352 79.11537109 139.63110352 94.75537109 139.63110352 C94.75537109 109.27110352 94.75537109 78.91110352 94.75537109 47.63110352 C79.90537109 47.63110352 65.05537109 47.63110352 49.75537109 47.63110352 Z M266.75537109 342.63110352 C266.75537109 347.58110352 266.75537109 352.53110352 266.75537109 357.63110352 C286.88537109 357.63110352 307.01537109 357.63110352 327.75537109 357.63110352 C327.75537109 352.68110352 327.75537109 347.73110352 327.75537109 342.63110352 C307.62537109 342.63110352 287.49537109 342.63110352 266.75537109 342.63110352 Z " fill="#010001" transform="translate(75.24462890625,-0.631103515625)"/>
<path d="M0 0 C0.78296737 -0.0060911 1.56593474 -0.01218221 2.37262839 -0.01845789 C4.98104666 -0.03502972 7.58897365 -0.03032047 10.19743347 -0.0255127 C12.0738475 -0.03285647 13.95025701 -0.0414436 15.82666016 -0.05117798 C20.91357181 -0.07337171 26.00032137 -0.07632568 31.08727479 -0.07443047 C35.33909465 -0.07431065 39.59088032 -0.08287941 43.84269065 -0.09120798 C53.87730267 -0.11043486 63.91183151 -0.11332868 73.94645691 -0.10656738 C84.28539277 -0.09992897 94.62397166 -0.12278468 104.96283513 -0.15988111 C113.85055334 -0.19060925 122.73815691 -0.2019347 131.62592715 -0.1980443 C136.92922291 -0.1959798 142.23224093 -0.20140975 147.53548622 -0.22593689 C152.5252984 -0.24825246 157.51453167 -0.2462861 162.50434685 -0.22600937 C164.33040952 -0.22260769 166.15651153 -0.22765194 167.98252106 -0.24199295 C179.20232839 -0.32399509 187.77259033 0.32634913 196.74894714 7.70690918 C201.27682678 13.26973273 205.05429034 18.54063866 205.07066822 25.90266418 C205.07512606 26.83192026 205.07958391 27.76117634 205.08417684 28.71859169 C205.08399248 29.74123304 205.08380811 30.7638744 205.08361816 31.81750488 C205.08729485 32.90261541 205.09097154 33.98772594 205.09475964 35.10571861 C205.105818 38.76054727 205.10964401 42.41534752 205.1134491 46.07019043 C205.11971221 48.68329458 205.12635887 51.29639784 205.13336182 53.90950012 C205.15312656 61.76598743 205.16319375 69.62247602 205.17208961 77.47898197 C205.17647365 81.1804265 205.18184026 84.88186959 205.18707848 88.58331299 C205.20409294 100.89163923 205.21858551 113.19996458 205.22582722 125.50830078 C205.22773707 128.70259604 205.2296574 131.89689129 205.23161316 135.09118652 C205.2320969 135.88509875 205.23258064 136.67901097 205.23307904 137.49698114 C205.24137328 150.34809171 205.26669895 163.19910901 205.29919384 176.05017889 C205.33229778 189.2500037 205.3502791 202.44978118 205.35347146 215.64964771 C205.35563378 223.05841159 205.3643413 230.46703958 205.38993263 237.87576294 C205.41396489 244.84922009 205.41744435 251.82242938 205.40717125 258.79591942 C205.40667587 261.35205078 205.4129967 263.90819418 205.42672729 266.46428871 C205.44445891 269.96163194 205.43733264 273.45809988 205.42419434 276.95544434 C205.43516358 277.96023992 205.44613283 278.9650355 205.45743448 280.00027943 C205.3797601 288.60076249 203.62032635 296.82919634 197.68644714 303.33190918 C191.1344041 309.22027545 184.13411173 311.54084311 175.44329834 311.55503845 C174.67332691 311.56012627 173.90335547 311.56521409 173.11005157 311.57045609 C170.52166765 311.58619208 167.93331168 311.59470881 165.34489441 311.60314941 C163.49202293 311.61268727 161.63915325 311.6225784 159.7862854 311.63279724 C153.69182961 311.66420118 147.59736011 311.68445652 141.50285339 311.70300293 C139.94667427 311.70794891 139.94667427 311.70794891 138.35905719 311.71299481 C128.5703932 311.74378528 118.78172613 311.77048824 108.99302769 311.7874136 C96.482762 311.80929921 83.97292666 311.85121941 71.46283299 311.92085117 C62.66181098 311.96816857 53.86090474 311.99235781 45.05975956 311.99961048 C39.80654427 312.00455655 34.55381384 312.01953727 29.30073738 312.05935478 C24.35198738 312.09636939 19.40399614 312.10458231 14.45513344 312.09134865 C12.64601345 312.09140236 10.83685859 312.10160051 9.02786636 312.12310028 C-2.39963439 312.25157166 -12.05984966 311.60603172 -21.0820837 303.60416317 C-27.03719421 297.49174498 -28.5168994 289.97319088 -28.43536377 281.75262451 C-28.43918833 280.91965025 -28.4430129 280.08667598 -28.44695336 279.22846007 C-28.45618667 276.45710487 -28.44427995 273.68625606 -28.43244934 270.91491699 C-28.43491893 268.92025038 -28.43875895 266.92558507 -28.44386292 264.93092346 C-28.45218413 260.64592405 -28.45140777 256.36105761 -28.4436779 252.07605743 C-28.43208094 245.30286014 -28.44426786 238.52983349 -28.46029663 231.75665283 C-28.49646073 214.93972795 -28.50271652 198.12280741 -28.50019836 181.30584717 C-28.49848877 168.22353532 -28.50554929 155.14136302 -28.54017693 142.05909038 C-28.55699986 135.32294054 -28.55515223 128.58713082 -28.53935421 121.85098219 C-28.5335716 117.66725285 -28.54427082 113.4836861 -28.55960083 109.29998589 C-28.56333758 107.35691596 -28.56018879 105.41381907 -28.5497303 103.4707737 C-28.53642445 100.82285513 -28.54751262 98.17612902 -28.5647583 95.52825928 C-28.55495152 94.7555051 -28.54514475 93.98275092 -28.5350408 93.18657994 C-28.5820249 89.71002314 -28.78639024 87.76210015 -30.90722752 84.94854355 C-33.07085046 83.22633722 -33.07085046 83.22633722 -36.06355286 82.39440918 C-36.20865448 79.1240419 -36.29754659 75.85449911 -36.37605286 72.58190918 C-36.41794739 71.65313965 -36.45984192 70.72437012 -36.50300598 69.76745605 C-36.54900706 67.21899653 -36.54379698 64.89874617 -36.06355286 62.39440918 C-33.66902161 60.44519043 -33.66902161 60.44519043 -31.06355286 59.39440918 C-28.62943715 55.74323562 -28.78426233 53.01610344 -28.79011536 48.79675293 C-28.76980343 47.25703242 -28.74895226 45.71731895 -28.72761536 44.1776123 C-28.7051584 41.76422201 -28.68859985 39.35111152 -28.68269348 36.93762207 C-28.60060828 17.02169973 -28.60060828 17.02169973 -21.95027161 8.77331543 C-21.22452942 8.17390137 -20.49878723 7.5744873 -19.75105286 6.95690918 C-19.03304504 6.33944824 -18.31503723 5.7219873 -17.57527161 5.08581543 C-11.79946071 1.19635024 -6.91034113 -0.0511464 0 0 Z " fill="#E2384F" transform="translate(59.06355285644531,154.6055908203125)"/>
<path d="M0 0 C0.70025333 -0.00297112 1.40050665 -0.00594224 2.12197977 -0.0090034 C4.48632539 -0.01772741 6.8506206 -0.0192018 9.21498108 -0.02069092 C10.90331634 -0.02531677 12.59165054 -0.03034111 14.27998352 -0.03573608 C18.88168825 -0.04889138 23.48337837 -0.05531203 28.08509898 -0.05974674 C30.96082364 -0.06267465 33.83654428 -0.06677908 36.71226692 -0.07125092 C45.71124089 -0.08493895 54.7102057 -0.09459713 63.70918936 -0.09845281 C74.09271987 -0.10292594 84.47611824 -0.12043369 94.85960859 -0.1494534 C102.88519908 -0.17110266 110.9107525 -0.18115895 118.93637186 -0.18249393 C123.72885209 -0.18354036 128.52120832 -0.18941269 133.31365776 -0.20731354 C137.82885564 -0.22384854 142.34383711 -0.22592346 146.85905457 -0.21717453 C148.51095727 -0.21640684 150.16287186 -0.22071126 151.81474495 -0.23063278 C164.45853302 -0.30207976 175.37376972 0.6300013 185.37928772 9.14044189 C192.06653473 16.32412209 194.83886927 23.3945487 194.76696777 33.0771637 C194.77504608 34.39249731 194.77504608 34.39249731 194.78328758 35.73440331 C194.79754802 38.66066546 194.79046809 41.58647403 194.78334045 44.51275635 C194.78904509 46.61576704 194.79600971 48.71877463 194.80413818 50.82177734 C194.82207623 56.52644246 194.82089972 62.23095381 194.8151958 67.93563867 C194.8121043 72.70191815 194.81819612 77.46816809 194.82423455 82.23444337 C194.83828086 93.48202454 194.83671812 104.72952976 194.82533264 115.97711182 C194.81385652 127.57021809 194.82791848 139.1630929 194.85472912 150.75616866 C194.87690284 160.71818364 194.88351955 170.68012604 194.8776527 180.64216393 C194.87428533 186.58815724 194.87668358 192.53400225 194.89390373 198.47997475 C194.90939686 204.07380446 194.90539075 209.66729208 194.88659859 215.2611084 C194.88291902 217.30969872 194.88600265 219.35831452 194.89648438 221.40688133 C194.95895427 234.62962614 194.80932912 245.31671194 185.22303772 255.39044189 C174.66816153 265.40862946 162.77599128 265.59077773 148.87928772 265.70294189 C146.5416497 265.72676097 144.20437936 265.75479387 141.86695862 265.79472351 C140.42250985 265.81902741 138.97786489 265.83392923 137.53321838 265.83833313 C133.50913703 265.79204456 133.50913703 265.79204456 130.37928772 268.14044189 C129.71928772 269.79044189 129.05928772 271.44044189 128.37928772 273.14044189 C122.10928772 273.14044189 115.83928772 273.14044189 109.37928772 273.14044189 C108.38928772 271.16044189 107.39928772 269.18044189 106.37928772 267.14044189 C104.79394325 265.55509743 103.16939298 265.99927992 100.96911621 265.98222351 C100.01694214 265.97243469 99.06476807 265.96264587 98.08374023 265.95256042 C97.03070206 265.94680496 95.97766388 265.9410495 94.89271545 265.93511963 C93.2392662 265.92027023 93.2392662 265.92027023 91.55241394 265.90512085 C87.8892587 265.87339703 84.22609046 265.84870557 80.56288147 265.82403564 C78.03081922 265.8034755 75.49876047 265.7824793 72.96670532 265.76106262 C66.97083769 265.7114065 60.9749523 265.66616649 54.97903544 265.62304026 C48.15444262 265.57370917 41.32989856 265.51877579 34.50535285 265.46336067 C20.46337661 265.34946632 6.42135358 265.24264359 -7.62071228 265.14044189 C-7.6435777 231.52542526 -7.66121002 197.91041055 -7.67177761 164.29538787 C-7.67302839 160.33106016 -7.6743227 156.36673247 -7.67564392 152.40240479 C-7.67590623 151.6131448 -7.67616854 150.82388481 -7.6764388 150.01070785 C-7.68079569 137.21412518 -7.68868333 124.41754699 -7.69786508 111.62096698 C-7.70720111 98.50038845 -7.71276778 85.37981227 -7.71480078 72.25923055 C-7.71617611 64.15653552 -7.72052725 56.05385312 -7.72862875 47.95116197 C-7.73451623 41.74861576 -7.73517137 35.54607928 -7.73381996 29.34353065 C-7.7340965 26.79127169 -7.73610434 24.23901227 -7.73991776 21.68675613 C-7.7448478 18.2188718 -7.74371313 14.7510428 -7.7409668 11.28315735 C-7.74387964 10.25885984 -7.74679248 9.23456233 -7.74979359 8.1792255 C-7.74780254 7.25761802 -7.74581149 6.33601054 -7.74376011 5.38647556 C-7.74413983 4.58488595 -7.74451955 3.78329633 -7.74491078 2.95741612 C-7.45251764 -1.32017823 -3.43112752 0.00808847 0 0 Z " fill="#00BFF8" transform="translate(286.62071228027344,14.85955810546875)"/>
<path d="M0 0 C13.81876087 11.94698891 23.42549036 27.70212029 25.5 46.0625 C26.1031076 56.05095327 26.07970323 65.60288264 22.5 75.0625 C22.14808594 76.03445312 21.79617188 77.00640625 21.43359375 78.0078125 C13.67226508 98.03870035 0.72282413 110.1868848 -18.1875 119.3671875 C-34.68449102 126.61105856 -53.80528795 125.75347173 -70.38867188 119.33105469 C-88.63602331 111.65558146 -102.10513605 97.63389634 -109.62109375 79.42578125 C-116.21434797 61.69725323 -115.43212612 42.02234028 -108.0625 24.6796875 C-103.86234973 16.13803576 -98.18687811 9.69072129 -91.5 3.0625 C-90.86578125 2.39476563 -90.2315625 1.72703125 -89.578125 1.0390625 C-65.50144451 -22.50494806 -25.25023814 -19.42326011 0 0 Z " fill="#020202" transform="translate(424.5,61.9375)"/>
<path d="M0 0 C1.15628906 0.01353516 2.31257813 0.02707031 3.50390625 0.04101562 C6.33643004 0.07612956 9.16796307 0.12531 12 0.1875 C12.00546844 1.28291107 12.00546844 1.28291107 12.01104736 2.40045166 C12.04893267 9.28660817 12.10579136 16.17237557 12.18390274 23.05818558 C12.22339255 26.59821665 12.25557317 30.13799844 12.27099609 33.67822266 C12.28905371 37.74942943 12.33899725 41.81970454 12.390625 45.890625 C12.39185364 47.16053284 12.39308228 48.43044067 12.39434814 49.73883057 C12.41406677 50.91975281 12.4337854 52.10067505 12.45410156 53.31738281 C12.46298401 54.35662903 12.47186646 55.39587524 12.48101807 56.46661377 C13.1357776 59.89934636 14.21848567 61.12054858 17 63.1875 C20.62649951 63.27666154 20.62649951 63.27666154 24 62.1875 C26.28165474 58.76501788 26.26729869 57.46031938 26.31884766 53.4309082 C26.33890869 52.23340942 26.35896973 51.03591064 26.37963867 49.80212402 C26.39099854 48.54355591 26.4023584 47.28498779 26.4140625 45.98828125 C26.43170654 44.83146851 26.44935059 43.67465576 26.4675293 42.48278809 C26.53066661 38.1553343 26.57680464 33.82764599 26.625 29.5 C26.74875 19.826875 26.8725 10.15375 27 0.1875 C47.79 0.1875 68.58 0.1875 90 0.1875 C90 41.4375 90 82.6875 90 125.1875 C69.21 125.1875 48.42 125.1875 27 125.1875 C26.6875 106.875 26.6875 106.875 26.61206055 101.10424805 C26.57977426 99.59421301 26.54640106 98.08420065 26.51171875 96.57421875 C26.50547485 95.79067017 26.49923096 95.00712158 26.49279785 94.1998291 C26.40675349 89.96632338 26.40675349 89.96632338 24.68676758 86.19067383 C21.75704276 84.44827416 19.29588431 84.77551446 16 85.1875 C13.24756291 87.65270202 12.99381661 89.24125464 12.56762695 92.94628906 C12.52636116 94.44823373 12.50080142 95.95066572 12.48828125 97.453125 C12.47033005 98.24652283 12.45237885 99.03992065 12.43388367 99.85736084 C12.37983074 102.38402031 12.34590188 104.91049144 12.3125 107.4375 C12.2793224 109.15367201 12.24483233 110.86981919 12.20898438 112.5859375 C12.12410745 116.78632232 12.05727279 120.98665177 12 125.1875 C6.11018515 125.31125961 0.22112988 125.40191514 -5.66967773 125.4621582 C-7.67274156 125.4872755 -9.67571398 125.52137595 -11.6784668 125.56469727 C-14.56061366 125.62547188 -17.44154721 125.65373732 -20.32421875 125.67578125 C-21.66355721 125.71449089 -21.66355721 125.71449089 -23.029953 125.75398254 C-23.87044693 125.7543602 -24.71094086 125.75473785 -25.5769043 125.75512695 C-26.31192673 125.76623001 -27.04694916 125.77733307 -27.804245 125.78877258 C-31.40382397 124.80308513 -32.79453117 123.16652468 -35 120.1875 C-35.72160395 117.01881693 -35.68372353 113.9297426 -35.64697266 110.69067383 C-35.65573425 109.74040314 -35.66449585 108.79013245 -35.67352295 107.81106567 C-35.69551478 104.67175515 -35.68095857 101.53385599 -35.6640625 98.39453125 C-35.66743208 96.20602652 -35.67228588 94.01752361 -35.67855835 91.82902527 C-35.68593059 87.23992107 -35.67521758 82.65130346 -35.65185547 78.06225586 C-35.62345226 72.19902159 -35.63971649 66.33693596 -35.66971779 60.47374439 C-35.68785295 55.95160903 -35.68200274 51.4297423 -35.66907883 46.9075985 C-35.66575762 44.7471878 -35.66978635 42.58675224 -35.68147659 40.42637062 C-35.694278 37.39403139 -35.6746745 34.36350429 -35.64697266 31.33129883 C-35.65709381 30.4493837 -35.66721497 29.56746857 -35.67764282 28.65882874 C-35.54674026 20.86432933 -32.7965824 14.55645295 -27.82421875 8.56640625 C-27.11910156 7.96699219 -26.41398437 7.36757813 -25.6875 6.75 C-24.99011719 6.13253906 -24.29273438 5.51507813 -23.57421875 4.87890625 C-15.90929106 -0.1573816 -8.92232612 -0.19929594 0 0 Z " fill="#FC682F" transform="translate(314,371.8125)"/>
<path d="M0 0 C5.63269337 2.54344488 9.78041675 6.94980571 12.57472992 12.42157459 C13.82287548 16.30317193 13.80508453 20.00993107 13.79650879 24.04386902 C13.80245103 24.91904924 13.80839328 25.79422947 13.81451559 26.6959303 C13.83185761 29.62829898 13.83490332 32.56050404 13.83789062 35.49291992 C13.8471493 37.59563546 13.85719893 39.69834763 13.86798096 41.80105591 C13.89421177 47.51405772 13.90711561 53.22701253 13.91600227 58.94006515 C13.92186682 62.51064609 13.93007705 66.08121422 13.93901062 69.65178871 C13.96635666 80.82707159 13.98569158 92.00232516 13.9934144 103.17763919 C14.00237371 116.07083916 14.03746196 128.96361485 14.09541559 141.85668582 C14.13867393 151.82714523 14.15882429 161.79748538 14.16149664 171.76803762 C14.16359106 177.72087723 14.1753699 183.6733179 14.21113586 189.62605858 C14.24414038 195.22816278 14.24838823 200.8295691 14.23085785 206.43173599 C14.22931933 208.48356943 14.23797355 210.53544071 14.25777435 212.58717918 C14.44024683 232.67911387 14.44024683 232.67911387 7.515625 240.34765625 C2.84267739 244.89640591 -2.19858979 246.70761291 -8.671875 246.91015625 C-16.85901404 246.43902932 -23.02168294 243.4037206 -28.484375 237.34765625 C-32.00450307 231.44643364 -33.06858821 226.05172117 -32.99230957 219.27085876 C-32.99854953 218.40310037 -33.0047895 217.53534197 -33.01121855 216.64128786 C-33.02706668 213.75788969 -33.01457661 210.87534654 -33.00195312 207.99194336 C-33.00737784 205.91494761 -33.01450245 203.83795572 -33.02319336 201.76097107 C-33.04138682 196.13708282 -33.0343758 190.51348897 -33.02167702 184.88959575 C-33.01153015 178.99699168 -33.02094726 173.10441234 -33.02722168 167.21180725 C-33.03449258 157.3184864 -33.02492434 147.42528511 -33.00585938 137.53198242 C-32.98408578 126.10124318 -32.99114792 114.67078928 -33.013165 103.24005693 C-33.03132763 93.41645237 -33.03387325 83.59293361 -33.02341032 73.76931769 C-33.01718095 67.90614588 -33.01632469 62.04310813 -33.02955627 56.17994499 C-33.04112682 50.66815545 -33.03306669 45.15673324 -33.00997925 39.64498329 C-33.0046989 37.62458277 -33.00619435 35.60415123 -33.01502991 33.58376312 C-33.02599542 30.8212508 -33.01220976 28.05990831 -32.99230957 25.29747009 C-33.00123246 24.50203086 -33.01015534 23.70659163 -33.01934862 22.88704818 C-32.92714837 16.2678398 -30.90989664 11.0668934 -26.484375 6.10546875 C-25.824375 5.56664062 -25.164375 5.0278125 -24.484375 4.47265625 C-23.824375 3.91835937 -23.164375 3.3640625 -22.484375 2.79296875 C-15.92056766 -1.95040765 -7.75980427 -2.03755867 0 0 Z " fill="#030001" transform="translate(156.484375,187.65234375)"/>
<path d="M0 0 C4.23353096 2.54375251 6.95100445 6.34367604 9.5 10.5 C10.0246733 11.28731443 10.0246733 11.28731443 10.55994606 12.09053421 C11.96162358 15.68319405 11.78186276 19.24984922 11.76742554 23.05145264 C11.77195665 23.92310601 11.77648776 24.79475939 11.78115618 25.69282651 C11.7938356 28.6191645 11.79217752 31.54531723 11.79052734 34.47167969 C11.79651045 36.56763957 11.80331549 38.66359724 11.81088257 40.759552 C11.82857366 46.45802941 11.83323931 52.15644678 11.83451414 57.854949 C11.83641214 62.61132037 11.84376869 67.36767772 11.85085833 72.1240437 C11.86715232 83.34702593 11.87202643 94.56997606 11.87060547 105.79296875 C11.86940431 117.36956972 11.89049871 128.94598417 11.9220928 140.52253795 C11.9482488 150.46067455 11.95897302 160.39875022 11.95769465 170.33692098 C11.95718474 176.27284499 11.96288364 182.20860336 11.98405075 188.1444931 C12.00342115 193.72923392 12.00356557 199.3136509 11.98901749 204.89840317 C11.9869267 206.94622394 11.99164632 208.99406491 12.0037384 211.04185104 C12.01919878 213.84181798 12.00987734 216.64066948 11.99447632 219.44061279 C12.00476344 220.24724452 12.01505057 221.05387624 12.02564943 221.88495135 C11.94494174 228.54427445 9.95392853 233.74891606 5.5 238.7421875 C4.84 239.28101563 4.18 239.81984375 3.5 240.375 C2.84 240.92929687 2.18 241.48359375 1.5 242.0546875 C-4.29716659 246.24404617 -9.50131696 246.04944616 -16.5 245.5 C-22.66072928 244.45070209 -26.00355999 241.43519346 -29.95703125 236.73046875 C-33.95839564 230.94621795 -34.93882919 226.60417309 -34.88768005 219.7460022 C-34.89306559 218.87672352 -34.89845113 218.00744485 -34.90399987 217.11182439 C-34.91828212 214.2054268 -34.91117501 211.29948449 -34.90405273 208.39306641 C-34.90975619 206.30666233 -34.91672035 204.22026138 -34.92485046 202.13386536 C-34.94280054 196.47059602 -34.94160986 190.80748147 -34.93590808 185.14419222 C-34.93281863 180.41505421 -34.93890604 175.68594603 -34.94494683 170.95681226 C-34.95899679 159.79898244 -34.95742707 148.64122916 -34.94604492 137.48339844 C-34.93456555 125.97604624 -34.94863539 114.46892715 -34.9754414 102.96160567 C-34.9976008 93.07862222 -35.00423515 83.19571193 -34.99836498 73.3127054 C-34.99499452 67.41147365 -34.99741646 61.51039129 -35.01461601 55.60918045 C-35.03008654 50.05887025 -35.0261281 44.5089052 -35.00731087 38.95860863 C-35.0036252 36.9236921 -35.00673279 34.88875 -35.01719666 32.85385704 C-35.03040974 30.07149615 -35.01885611 27.2902773 -35.00120544 24.50796509 C-35.01081045 23.70658855 -35.02041546 22.90521201 -35.03031152 22.07955134 C-34.94151212 15.25564991 -32.82784015 10.07797202 -28.24609375 5.00390625 C-27.48425781 4.36324219 -26.72242187 3.72257813 -25.9375 3.0625 C-25.17308594 2.40378906 -24.40867187 1.74507812 -23.62109375 1.06640625 C-17.59822962 -3.38141791 -6.68108092 -2.94486479 0 0 Z " fill="#020000" transform="translate(96.5,188.5)"/>
<path d="M0 0 C5.76410953 2.60278589 10.17217407 7.07976807 12.57515049 12.92490768 C13.7173573 17.08183769 13.80265122 20.80063114 13.78977966 25.0881958 C13.79763468 26.38999712 13.79763468 26.38999712 13.80564839 27.71809745 C13.82062342 30.61972908 13.82135299 33.52118397 13.82202148 36.42285156 C13.82964466 38.50600989 13.83807244 40.58916542 13.84724426 42.6723175 C13.86918097 48.32741741 13.87798712 53.98246325 13.88307071 59.6376009 C13.88671537 63.17250776 13.89295603 66.70740048 13.9000721 70.24230194 C13.92456411 82.57967246 13.93761788 94.91700095 13.94116211 107.25439453 C13.94479675 118.74583023 13.97468784 130.23699874 14.01656669 141.72835279 C14.05128277 151.6011691 14.06671078 161.47389693 14.06740814 171.34677386 C14.06820053 177.2402996 14.07692177 183.13355314 14.10540581 189.02701569 C14.13160858 194.57244245 14.13377896 200.11737177 14.11775017 205.66283226 C14.11593744 207.69369531 14.12261039 209.72458711 14.13856888 211.75538826 C14.28706926 231.88633432 14.28706926 231.88633432 8.515625 239.34765625 C6.1640625 241.6015625 6.1640625 241.6015625 3.890625 242.91015625 C3.13523438 243.36519531 2.37984375 243.82023438 1.6015625 244.2890625 C-4.29791618 247.28299269 -11.49463925 247.44599147 -17.83984375 245.69921875 C-23.48963039 243.14206193 -27.84695066 239.01477111 -30.38921022 233.32122082 C-32.25133534 227.89356098 -32.9178405 223.11724923 -32.87878418 217.39820862 C-32.88487528 216.54411201 -32.89096639 215.6900154 -32.89724207 214.81003708 C-32.91377561 211.97291024 -32.90911016 209.13623697 -32.90429688 206.29907227 C-32.91164273 204.25487811 -32.92023046 202.2106881 -32.92996216 200.16650391 C-32.95213039 194.63138106 -32.95511125 189.0964073 -32.95321465 183.56124616 C-32.95309475 178.93404257 -32.96166659 174.30687035 -32.96999216 169.67967552 C-32.98920869 158.76095695 -32.99211613 147.84231483 -32.98535156 136.92358398 C-32.97870915 125.67235033 -33.00158742 114.42144438 -33.03866529 103.17027718 C-33.06938269 93.49696421 -33.08072018 83.82375656 -33.07682848 74.15039581 C-33.07476343 68.37876915 -33.08020322 62.60739766 -33.10472107 56.83581734 C-33.12701966 51.40769976 -33.12508413 45.98011456 -33.10479355 40.55199432 C-33.10138926 38.5646746 -33.10644744 36.57731881 -33.12077713 34.59004784 C-33.26334297 13.34629401 -33.26334297 13.34629401 -25.64107513 5.43428898 C-18.28621268 -1.35344053 -9.75510955 -2.56148317 0 0 Z " fill="#050101" transform="translate(218.484375,187.65234375)"/>
<path d="M0 0 C1.4247164 0.45220986 2.84752757 0.91042455 4.26953125 1.37109375 C5.06206299 1.62560303 5.85459473 1.8801123 6.67114258 2.14233398 C14.6079811 5.06529381 18.2767577 10.62848002 22 18 C22.94473633 20.83420898 23.12769008 22.57250327 23.13422108 25.508255 C23.13867892 26.43751108 23.14313676 27.36676716 23.14772969 28.32418251 C23.14754533 29.34682386 23.14736097 30.36946522 23.14717102 31.4230957 C23.15084771 32.50820623 23.1545244 33.59331676 23.1583125 34.71130943 C23.16937085 38.36613809 23.17319686 42.02093834 23.17700195 45.67578125 C23.18326507 48.28888541 23.18991173 50.90198867 23.19691467 53.51509094 C23.21667942 61.37157825 23.22674661 69.22806684 23.23564246 77.08457279 C23.2400265 80.78601732 23.24539312 84.48746041 23.25063133 88.18890381 C23.2676458 100.49723005 23.28213837 112.8055554 23.28938007 125.1138916 C23.29128992 128.30818686 23.29321026 131.50248211 23.29516602 134.69677734 C23.29564976 135.49068957 23.2961335 136.28460179 23.2966319 137.10257196 C23.30492614 149.95368253 23.33025181 162.80469983 23.36274669 175.65576971 C23.39585064 188.85559452 23.41383196 202.055372 23.41702431 215.25523853 C23.41918664 222.66400241 23.42789416 230.0726304 23.45348549 237.48135376 C23.47751775 244.45481091 23.48099721 251.4280202 23.47072411 258.40151024 C23.47022873 260.9576416 23.47654956 263.513785 23.49028015 266.06987953 C23.50801176 269.56722276 23.5008855 273.0636907 23.48774719 276.56103516 C23.49871644 277.56583074 23.50968568 278.57062632 23.52098733 279.60587025 C23.44331296 288.20635331 21.68387921 296.43478717 15.75 302.9375 C9.19795695 308.82586627 2.19766459 311.14643394 -6.4931488 311.16062927 C-7.26312024 311.16571709 -8.03309167 311.17080491 -8.82639557 311.17604691 C-11.41477949 311.1917829 -14.00313546 311.20029963 -16.59155273 311.20874023 C-18.44442421 311.21827809 -20.2972939 311.22816922 -22.15016174 311.23838806 C-28.24461754 311.269792 -34.33908703 311.29004734 -40.43359375 311.30859375 C-41.98977287 311.31353973 -41.98977287 311.31353973 -43.57738996 311.31858563 C-53.36605394 311.3493761 -63.15472102 311.37607906 -72.94341946 311.39300442 C-85.45368515 311.41489003 -97.96352049 311.45681023 -110.47361416 311.52644199 C-119.27463616 311.57375939 -128.0755424 311.59794863 -136.87668759 311.6052013 C-142.12990287 311.61014737 -147.38263331 311.62512809 -152.63570976 311.6649456 C-157.58445976 311.70196021 -162.53245101 311.71017313 -167.48131371 311.69693947 C-169.29043369 311.69699318 -171.09958855 311.70719133 -172.90858078 311.7286911 C-184.12296731 311.85476659 -194.07454962 311.38029994 -202.83005428 303.31400204 C-206 299.68293142 -206 299.68293142 -206 298 C-205.16677121 297.99853344 -204.33354242 297.99706688 -203.47506428 297.99555588 C-183.15818395 297.95843084 -162.84146968 297.89934077 -142.52472401 297.81609726 C-132.69950414 297.7763648 -122.8743637 297.74394295 -113.04907227 297.72900391 C-104.48080858 297.71595729 -95.91272008 297.68891612 -87.34455508 297.64538693 C-82.81185926 297.62283961 -78.27937896 297.60708526 -73.74662209 297.60811615 C-69.47096082 297.60886676 -65.19577476 297.59075654 -60.92023659 297.55883217 C-59.35992606 297.55038739 -57.79956189 297.54854591 -56.23923874 297.55419731 C-39.98581697 297.60517661 -26.47964808 293.95506825 -14.25 282.8125 C-3.32825072 271.12937878 0.16706538 257.18815802 0.12025452 241.71157837 C0.12110894 240.67739663 0.12196337 239.64321488 0.12284368 238.5776943 C0.12449025 235.11379027 0.11899054 231.64993472 0.11352539 228.18603516 C0.11324332 225.70242311 0.11340165 223.21881097 0.1139679 220.73519897 C0.11419558 215.38887535 0.11135989 210.0425668 0.10573006 204.6962471 C0.09759562 196.96641175 0.09499784 189.23658229 0.09374207 181.50674312 C0.0915546 168.96494128 0.0849028 156.42314596 0.07543945 143.88134766 C0.06625743 131.69970736 0.05918046 119.51806884 0.05493164 107.33642578 C0.05466892 106.58527924 0.05440619 105.83413269 0.05413551 105.06022413 C0.05283045 101.29186199 0.05156675 97.52349984 0.05032361 93.75513768 C0.03996051 62.50342039 0.02227605 31.25171118 0 0 Z " fill="#C92D42" transform="translate(241,155)"/>
<path d="M0 0 C1.17127441 -0.00525696 2.34254883 -0.01051392 3.54931641 -0.01593018 C7.42176645 -0.02913565 11.29380552 -0.02038914 15.16625977 -0.01025391 C17.8575931 -0.01092196 20.54891911 -0.01518148 23.24024963 -0.01895142 C28.88172862 -0.02440556 34.5230897 -0.01722719 40.16455078 -0.00292969 C46.6783149 0.01338837 53.19179716 0.00811327 59.70555443 -0.0084089 C65.30572713 -0.02204304 70.9058152 -0.02393381 76.50599915 -0.0160929 C79.84737761 -0.01142587 83.18851772 -0.01194943 86.52990532 -0.02070236 C90.25710967 -0.02832243 93.98377339 -0.01670341 97.7109375 0 C98.81294998 -0.00607269 99.91496246 -0.01214539 101.05036926 -0.0184021 C107.95166997 0.03888312 112.65623432 0.66110432 117.76391602 5.70068359 C120.85827798 10.90075245 119.99179599 17.56227904 119.92016602 23.38818359 C119.94336914 25.27537109 119.94336914 25.27537109 119.96704102 27.20068359 C119.91776862 38.82897 119.91776862 38.82897 115.42016602 43.38818359 C111.90091432 45.8463963 109.51720515 46.76501867 105.23440552 46.7893219 C104.21112152 46.80211685 103.18783752 46.8149118 102.13354492 46.82809448 C101.02172852 46.82673492 99.90991211 46.82537537 98.7644043 46.82397461 C96.99527176 46.83908836 96.99527176 46.83908836 95.19039917 46.85450745 C91.96296478 46.87809559 88.73587823 46.88803836 85.50836802 46.88995481 C83.4896018 46.89209077 81.47089584 46.89850208 79.45214462 46.90644646 C72.4025463 46.93418047 65.35311787 46.94645443 58.3034668 46.9440918 C51.74293051 46.94228992 45.18313464 46.97394096 38.62278569 47.02132279 C32.98097333 47.06061137 27.33940237 47.07664094 21.69745433 47.07472557 C18.33182204 47.0739624 14.96684812 47.08241409 11.60135269 47.11425972 C7.84518286 47.14366515 4.0909175 47.13502708 0.3347168 47.11694336 C-0.77305115 47.13380188 -1.88081909 47.1506604 -3.02215576 47.16802979 C-9.28752672 47.09140595 -12.85704406 46.35353337 -17.36979866 41.87037563 C-21.00529477 37.41719705 -19.80477208 31.1712851 -19.82006836 25.69458008 C-19.82974959 23.59399448 -19.86076083 21.49439785 -19.89233398 19.39404297 C-19.89886684 18.05225189 -19.9041162 16.71045382 -19.90795898 15.36865234 C-19.91730469 14.15072998 -19.92665039 12.93280762 -19.9362793 11.67797852 C-19.44760397 7.16777298 -18.12821932 4.71367471 -14.6915741 1.77174377 C-9.88072385 -0.36728474 -5.20732477 -0.0286426 0 0 Z " fill="#000100" transform="translate(330.579833984375,201.61181640625)"/>
<path d="M0 0 C30.8125 0 30.8125 0 40.34375 9.0625 C44.42219953 13.83351643 47.10464111 19.74090117 47.15390015 26.0475769 C47.16250061 26.86906219 47.17110107 27.69054749 47.17996216 28.53692627 C47.18422211 29.43465759 47.18848206 30.33238892 47.19287109 31.25732422 C47.20513733 32.67970901 47.20513733 32.67970901 47.21765137 34.13082886 C47.242486 37.27210864 47.25901449 40.41334337 47.2734375 43.5546875 C47.27876118 44.62688663 47.28408485 45.69908577 47.28956985 46.80377579 C47.31629015 52.4764357 47.33567062 58.14907367 47.35009766 63.82177734 C47.36676324 69.68542217 47.4115606 75.54850689 47.4624691 81.41193962 C47.4960895 85.91749737 47.50766925 90.42292112 47.51332474 94.92859268 C47.52004915 97.09038714 47.53530192 99.25217242 47.55921555 101.41384506 C47.59076416 104.43766045 47.59091939 107.4599506 47.58349609 110.48388672 C47.59990143 111.37756958 47.61630676 112.27125244 47.63320923 113.1920166 C47.62489075 114.01914154 47.61657227 114.84626648 47.60800171 115.69845581 C47.61131186 116.41263609 47.614622 117.12681637 47.61803246 117.86263847 C47 120 47 120 42 125 C28.14 125 14.28 125 0 125 C0 83.75 0 42.5 0 0 Z " fill="#FB5325" transform="translate(419,372)"/>
<path d="M0 0 C1.03540381 -0.00233999 1.03540381 -0.00233999 2.09172487 -0.00472724 C4.42180755 -0.00873942 6.75182593 -0.00554678 9.08190918 -0.00241089 C10.74543801 -0.00376483 12.40896655 -0.00554473 14.07249451 -0.00772095 C18.6033571 -0.01229609 23.13419703 -0.01050539 27.66506004 -0.00734186 C32.39584796 -0.00481868 37.12663388 -0.00715568 41.85742188 -0.00872803 C49.80351105 -0.01054985 57.74959094 -0.0081431 65.69567871 -0.00338745 C74.89618629 0.00205519 84.09667171 0.00029254 93.29717875 -0.00521386 C101.18165226 -0.00974464 109.06611908 -0.01039571 116.95059347 -0.00777519 C121.66616778 -0.00621222 126.38173165 -0.00601918 131.0973053 -0.00931168 C135.52952174 -0.01218989 139.96170948 -0.01021562 144.39392281 -0.00441742 C146.02541112 -0.00308955 147.65690183 -0.00348439 149.28838921 -0.00568008 C151.50601334 -0.00839056 153.72354402 -0.00501176 155.94116211 0 C157.18520561 0.00037703 158.42924911 0.00075405 159.71099091 0.0011425 C162.47058105 0.12698364 162.47058105 0.12698364 163.47058105 1.12698364 C163.56967408 3.45858419 163.6002861 5.79328306 163.59558105 8.12698364 C163.59815918 9.40573364 163.6007373 10.68448364 163.60339355 12.00198364 C163.47058105 15.12698364 163.47058105 15.12698364 162.47058105 16.12698364 C160.45146819 16.2604052 158.42996558 16.35823685 156.40808105 16.43948364 C148.5241483 17.01740869 143.45273582 18.66775934 138.09558105 24.56448364 C134.02166983 29.46910861 133.19799971 34.1546843 132.84558105 40.43948364 C132.65995605 43.74979614 132.65995605 43.74979614 132.47058105 47.12698364 C127.19058105 47.12698364 121.91058105 47.12698364 116.47058105 47.12698364 C116.45640137 45.92042114 116.44222168 44.71385864 116.4276123 43.47073364 C116.41904449 32.49534312 116.41904449 32.49534312 112.21276855 22.63479614 C105.60455176 16.91557712 100.11562752 16.53220874 91.6229248 16.59573364 C90.49286514 16.59190674 89.36280548 16.58807983 88.19850159 16.58413696 C85.81742457 16.58142326 83.43631747 16.58874627 81.05529785 16.60549927 C77.41635603 16.6269349 73.7793841 16.60566707 70.14050293 16.58010864 C67.82213921 16.58275162 65.50377671 16.58787598 63.1854248 16.59573364 C61.55866066 16.58358826 61.55866066 16.58358826 59.89903259 16.57119751 C53.77099187 16.64709519 50.12382883 17.01671681 45.47058105 21.12698364 C42.07620097 24.98006374 40.39203265 27.38159229 40.1541748 32.47854614 C40.09133301 33.75471802 40.09133301 33.75471802 40.02722168 35.05667114 C39.98790527 35.94612427 39.94858887 36.83557739 39.90808105 37.75198364 C39.84330566 39.09776489 39.84330566 39.09776489 39.77722168 40.47073364 C39.67101391 42.68929603 39.57028146 44.90811929 39.47058105 47.12698364 C34.19058105 47.12698364 28.91058105 47.12698364 23.47058105 47.12698364 C23.40870605 45.18823364 23.34683105 43.24948364 23.28308105 41.25198364 C22.68018122 33.46523506 20.59922761 27.337963 15.09558105 21.68948364 C8.52131576 17.77623049 3.58393848 16.73586827 -4.05285645 16.33792114 C-6.52941895 16.12698364 -6.52941895 16.12698364 -7.52941895 15.12698364 C-7.62851197 12.79538309 -7.65912399 10.46068423 -7.65441895 8.12698364 C-7.65699707 6.84823364 -7.6595752 5.56948364 -7.66223145 4.25198364 C-7.42776446 -1.26488666 -4.95487337 0.00150165 0 0 Z " fill="#0054A2" transform="translate(69.5294189453125,14.873016357421875)"/>
<path d="M0 0 C2.16356659 1.52649689 2.16356659 1.52649689 4 4 C4.39276161 6.92215901 4.54056719 9.46708913 4.50793457 12.3885498 C4.51729451 13.66963662 4.51729451 13.66963662 4.52684355 14.97660398 C4.54282063 17.84340599 4.53015094 20.7093633 4.51757812 23.57617188 C4.52299715 25.62936398 4.53011856 27.6825522 4.53881836 29.73573303 C4.55708071 35.31626194 4.54997208 40.89649562 4.53730202 46.4770298 C4.52718947 52.31147698 4.53656284 58.14589853 4.54284668 63.98034668 C4.55012817 73.779099 4.54052218 83.57773081 4.52148438 93.37646484 C4.49971475 104.71231796 4.50676576 116.04788332 4.52879 127.38372946 C4.54692966 137.10865798 4.54950932 146.83349977 4.53903532 156.55843973 C4.53279253 162.3701388 4.5319864 168.18170252 4.54518127 173.99339294 C4.55671824 179.45667966 4.54875327 184.91959464 4.52560425 190.38284111 C4.52030566 192.39040445 4.5218505 194.39799897 4.53065491 196.40555 C4.54154856 199.14127543 4.52792191 201.87580167 4.50793457 204.6114502 C4.5213189 205.80969272 4.5213189 205.80969272 4.53497362 207.03214216 C4.48494038 210.55057508 4.28100185 212.61299144 2.18700409 215.49694061 C-0.99846662 217.68621482 -3.22491774 217.47188528 -7 217 C-10.1850357 215.23984869 -10.83296972 214.50109084 -12 211 C-12.10235504 208.27577395 -12.14780734 205.57685489 -12.14717102 202.85232544 C-12.15084771 202.01207821 -12.1545244 201.17183098 -12.1583125 200.30612171 C-12.16935788 197.48027943 -12.17319459 194.65447392 -12.17700195 191.82861328 C-12.18326583 189.80675133 -12.18991257 187.78489053 -12.19691467 185.76303101 C-12.21432843 180.26305235 -12.22487694 174.76308238 -12.2331202 169.26308298 C-12.23826836 165.8289096 -12.2443441 162.39473894 -12.25063133 158.96056747 C-12.26968236 148.22151541 -12.28391507 137.48247023 -12.2922433 126.74340451 C-12.3020238 114.33585291 -12.32836494 101.92847933 -12.36874419 89.52099049 C-12.39886732 79.9370655 -12.41370846 70.35319166 -12.41702431 60.76922023 C-12.41937866 55.04183807 -12.42838935 49.31464611 -12.45348549 43.58731461 C-12.4767054 38.20123519 -12.48102394 32.81547205 -12.47072411 27.42935562 C-12.47022719 25.45122223 -12.47659318 23.47307359 -12.49028015 21.49498749 C-12.507907 18.79682336 -12.50093865 16.09980569 -12.48774719 13.40164185 C-12.49871644 12.61671706 -12.50968568 11.83179228 -12.52098733 11.0230819 C-12.47697865 7.30127545 -12.12812722 5.19920923 -10.0945158 2.03739738 C-6.55461346 -1.40597018 -4.72352968 -1.22811772 0 0 Z " fill="#C62D41" transform="translate(151,202)"/>
<path d="M0 0 C2.16356659 1.5292902 2.16356659 1.5292902 4 4 C4.3927735 6.90788164 4.54059405 9.43672962 4.50793457 12.34385681 C4.51729451 13.61775995 4.51729451 13.61775995 4.52684355 14.91739851 C4.5428202 17.76804861 4.53015108 20.61784916 4.51757812 23.46850586 C4.52299721 25.51022339 4.53011866 27.551937 4.53881836 29.59364319 C4.55708115 35.14324902 4.5499716 40.692558 4.53730202 46.24216914 C4.52718832 52.04545195 4.53656329 57.84870901 4.54284668 63.6519928 C4.55012841 73.39947074 4.54052215 83.14682755 4.52148438 92.89428711 C4.4997208 104.1676368 4.50676126 115.44069708 4.52879 126.71403974 C4.54693624 136.38717978 4.54950591 146.06023264 4.53903532 155.73338419 C4.53279537 161.51325732 4.5319785 167.29299439 4.54518127 173.07285881 C4.55672757 178.50742209 4.54873609 183.94161197 4.52560425 189.37613487 C4.52031041 191.37199025 4.52184243 193.367877 4.53065491 195.36371994 C4.54156739 198.08595884 4.52789886 200.80699737 4.50793457 203.52915955 C4.5213189 204.71719638 4.5213189 204.71719638 4.53497362 205.92923397 C4.48251933 209.61041541 4.11079516 211.81764678 2.18309784 214.99036503 C0 217 0 217 -3.4375 217.625 C-7.97776932 216.82846152 -9.19284262 215.62020367 -12 212 C-12.4902469 208.9993568 -12.67321399 206.5694373 -12.62818909 203.57385254 C-12.63528347 202.72781291 -12.64237786 201.88177327 -12.64968723 201.01009607 C-12.66728429 198.17618996 -12.64915399 195.34365228 -12.63110352 192.50976562 C-12.63624168 190.47775141 -12.64352218 188.44574165 -12.65278625 186.41374207 C-12.67132143 180.89511595 -12.6583481 175.37697214 -12.63869596 169.85836601 C-12.62232575 164.08578797 -12.63112008 158.31324088 -12.63621521 152.54064941 C-12.64073798 142.8461943 -12.62485486 133.15193201 -12.59692383 123.45751953 C-12.56487122 112.24605614 -12.56488714 101.03494056 -12.5821386 89.82345247 C-12.59799689 79.04271358 -12.59127458 68.26210232 -12.57420158 57.48136902 C-12.56732516 52.89133817 -12.56836964 48.30140944 -12.57574654 43.71138 C-12.58340203 38.30715547 -12.57130702 32.90332724 -12.54389763 27.4991703 C-12.53700503 25.51460764 -12.53692516 23.53000802 -12.54411316 21.5454464 C-12.55278833 18.83856965 -12.53688485 16.13292138 -12.5146637 13.42614746 C-12.52290446 12.63869597 -12.53114523 11.85124448 -12.53963572 11.03993082 C-12.46429131 6.07547111 -11.57070297 3.47350706 -8 0 C-5.02898609 -1.48550695 -3.16565278 -0.82306972 0 0 Z " fill="#C82D42" transform="translate(89,202)"/>
<path d="M0 0 C0.99 0.03287109 0.99 0.03287109 2 0.06640625 C2.66 0.06511719 3.32 0.06382812 4 0.0625 C7.00830742 0.91446206 8.09503555 2.14234763 10 4.62890625 C10.39276161 7.55106526 10.54056719 10.09599538 10.50793457 13.01745605 C10.51729451 14.29854287 10.51729451 14.29854287 10.52684355 15.60551023 C10.54282063 18.47231224 10.53015094 21.33826955 10.51757812 24.20507812 C10.52299715 26.25827023 10.53011856 28.31145845 10.53881836 30.36463928 C10.55708071 35.94516819 10.54997208 41.52540187 10.53730202 47.10593605 C10.52718947 52.94038323 10.53656284 58.77480478 10.54284668 64.60925293 C10.55012817 74.40800525 10.54052218 84.20663706 10.52148438 94.00537109 C10.49971475 105.34122421 10.50676576 116.67678957 10.52879 128.01263571 C10.54692966 137.73756423 10.54950932 147.46240602 10.53903532 157.18734598 C10.53279253 162.99904505 10.5319864 168.81060877 10.54518127 174.62229919 C10.55671824 180.08558591 10.54875327 185.54850089 10.52560425 191.01174736 C10.52030566 193.0193107 10.5218505 195.02690522 10.53065491 197.03445625 C10.54154856 199.77018168 10.52792191 202.50470792 10.50793457 205.24035645 C10.5213189 206.43859897 10.5213189 206.43859897 10.53497362 207.66104841 C10.48495585 211.17839342 10.28261194 213.24028911 8.18700409 216.12194061 C4.97656559 218.33410863 2.80352246 218.1722666 -1 217.62890625 C-3.36497439 215.7618212 -4.66030715 214.30829194 -6 211.62890625 C-6.10444679 208.94475934 -6.14779573 206.28617823 -6.14717102 203.60148621 C-6.15084771 202.7620934 -6.1545244 201.92270059 -6.1583125 201.05787164 C-6.16937649 198.22892331 -6.17319775 195.40001168 -6.17700195 192.57104492 C-6.1832645 190.54933047 -6.18991111 188.52761717 -6.19691467 186.50590515 C-6.21434261 181.00173518 -6.2248811 175.49757391 -6.2331202 169.99338317 C-6.23826603 166.55703755 -6.24434192 163.12069466 -6.25063133 159.68435097 C-6.2696875 148.93995612 -6.28391833 138.19556816 -6.2922433 127.45115966 C-6.3020215 115.03510797 -6.32835454 102.61923428 -6.36874419 90.20324534 C-6.39886805 80.61509426 -6.41370859 71.02699432 -6.41702431 61.43879682 C-6.41937886 55.70804635 -6.42839197 49.97748596 -6.45348549 44.24678612 C-6.47670626 38.85661615 -6.48102359 33.46676221 -6.47072411 28.07655525 C-6.47022719 26.09681016 -6.47659327 24.11704983 -6.49028015 22.13735199 C-6.50790703 19.43694513 -6.50093858 16.73768379 -6.48774719 14.03727722 C-6.49871644 13.25167032 -6.50968568 12.46606342 -6.52098733 11.65665025 C-6.47692654 7.9272698 -6.12063981 5.81796928 -4.0945158 2.6426897 C-2 0.62890625 -2 0.62890625 0 0 Z " fill="#C52C41" transform="translate(207,201.37109375)"/>
<path d="M0 0 C6.27 0 12.54 0 19 0 C19.11343779 9.70189819 19.20496585 19.40334834 19.25906086 29.10576248 C19.28503763 33.61210224 19.32021438 38.11796063 19.37719727 42.62402344 C19.43194686 46.98127654 19.46150993 51.33806975 19.47438622 55.69564056 C19.48354975 57.34928364 19.50144202 59.00290456 19.52865028 60.65634918 C19.77767459 76.43214874 15.73980243 87.20523837 5.5625 99.484375 C4 101 4 101 0 103 C0 69.01 0 35.02 0 0 Z " fill="#FD682F" transform="translate(419,373)"/>
<path d="M0 0 C35.97 0 71.94 0 109 0 C109 5.28 109 10.56 109 16 C73.03 16 37.06 16 0 16 C0 10.72 0 5.44 0 0 Z " fill="#FEC243" transform="translate(326,217)"/>
<path d="M0 0 C2.375 0.0625 2.375 0.0625 5 1 C8.07393342 4.36811845 9.92867971 7.66155929 11.625 11.875 C12.23214844 13.35613281 12.23214844 13.35613281 12.8515625 14.8671875 C15.06078509 20.89370626 16.3884804 26.71756477 17.125 33.0625 C17.21136719 33.74376953 17.29773438 34.42503906 17.38671875 35.12695312 C17.87418975 39.1543921 18 42.91456229 18 47 C7.77 47 -2.46 47 -13 47 C-13 38.60646589 -12.76409743 31.88459103 -10.875 23.9375 C-10.65416748 22.98520508 -10.43333496 22.03291016 -10.20581055 21.05175781 C-8.28207401 13.23369253 -5.82500561 5.82500561 0 0 Z " fill="#F9BF42" transform="translate(378,62)"/>
<path d="M0 0 C10.23 0 20.46 0 31 0 C30.42765203 16.16883002 28.63735239 34.71612804 17 47 C13.63190128 46.4350286 12.16110795 45.56075311 10.0625 42.875 C1.37501765 30.60255658 0 14.48685053 0 0 Z " fill="#FBC043" transform="translate(365,124)"/>
<path d="M0 0 C20.79 0 41.58 0 63 0 C63 41.25 63 82.5 63 125 C42.21 125 21.42 125 0 125 C0 113.78 0 102.56 0 91 C0.33 91 0.66 91 1 91 C1 98.26 1 105.52 1 113 C21.13 112.67 41.26 112.34 62 112 C62 75.37 62 38.74 62 1 C41.87 1 21.74 1 1 1 C1 19.48 1 37.96 1 57 C0.67 57 0.34 57 0 57 C0 38.19 0 19.38 0 0 Z " fill="#F05426" transform="translate(341,372)"/>
<path d="M0 0 C5.28 0 10.56 0 16 0 C16 20.79 16 41.58 16 63 C10.72 63 5.44 63 0 63 C0 42.21 0 21.42 0 0 Z " fill="#DCF3FA" transform="translate(186,77)"/>
<path d="M0 0 C5.28 0 10.56 0 16 0 C16 20.79 16 41.58 16 63 C10.72 63 5.44 63 0 63 C0 42.21 0 21.42 0 0 Z " fill="#D9F0F7" transform="translate(93,77)"/>
<path d="M0 0 C1.20416583 3.6124975 0.39247693 4.45803033 -1.10546875 7.76171875 C-5.54277731 18.86467859 -5.96028235 31.24319272 -7 43 C-14.92 43 -22.84 43 -31 43 C-28.41867595 27.51205571 -21.38024324 15.20828123 -8.75 5.5625 C-5.91754559 3.56278718 -3.02361925 1.70078583 0 0 Z " fill="#F7BD42" transform="translate(357,66)"/>
<path d="M0 0 C11.26989298 3.18928057 19.07707842 12.27620131 25 22 C28.911628 29.0623907 30.07342203 33.66079823 31 42 C23.41 42 15.82 42 8 42 C7.4121875 36.8334375 7.4121875 36.8334375 6.8125 31.5625 C5.69496369 22.4120187 3.85241847 13.85791258 0.98828125 5.10546875 C0 2 0 2 0 0 Z " fill="#F8BD42" transform="translate(403,67)"/>
<path d="M0 0 C7.59 0 15.18 0 23 0 C21.21939381 16.02545568 13.65980165 26.89388923 1.3125 37 C-1.95177075 39.55731946 -5.02775724 40.81798785 -9 42 C-8.83395264 41.4738208 -8.66790527 40.9476416 -8.49682617 40.40551758 C-4.31123256 26.96022362 -1.71247579 13.98521895 0 0 Z " fill="#F9BE42" transform="translate(411,124)"/>
<path d="M0 0 C7.92 0 15.84 0 24 0 C24.391875 3.63 24.78375 7.26 25.1875 11 C26.25024562 20.12396912 27.97272664 28.48865469 31.01171875 37.1484375 C32 40 32 40 32 42 C19.89286516 37.63706853 11.09317923 28.18048472 5.1875 17 C2.77225302 11.8431213 0 5.78062215 0 0 Z " fill="#F9BE42" transform="translate(326,124)"/>
<path d="M0 0 C15.51 0 31.02 0 47 0 C47 3.96 47 7.92 47 12 C41.11018515 12.12375961 35.22112988 12.21441514 29.33032227 12.2746582 C27.32725844 12.2997755 25.32428602 12.33387595 23.3215332 12.37719727 C20.43938634 12.43797188 17.55845279 12.46623732 14.67578125 12.48828125 C13.33644279 12.52699089 13.33644279 12.52699089 11.970047 12.56648254 C7.64584514 12.56842552 5.56269061 12.37933055 1.89526367 9.90698242 C0 7 0 7 0 0 Z " fill="#FC5325" transform="translate(279,485)"/>
<path d="M0 0 C4.0743356 0.84881992 5.54405875 2.30225596 8 5.625 C8.54667869 8.97340698 8.34038506 10.83785954 7 13.9375 C4.40625967 16.1259684 2.35863095 16.59190498 -0.9921875 16.8515625 C-3 16.625 -3 16.625 -6 14.5625 C-8 11.625 -8 11.625 -8.625 8.625 C-7.58039389 3.61089068 -5.01410932 1.04460611 0 0 Z " fill="#00519C" transform="translate(225,480.375)"/>
<path d="M0 0 C3.41165683 1.9711795 4.71748902 3.21894024 6.0625 6.9375 C6 10 6 10 4.5 12.8125 C1.24611283 15.65965128 -0.69712377 16.07548906 -5 16 C-7.9375 14.5625 -7.9375 14.5625 -10 12 C-10.65337886 9.19734858 -10.61554992 6.80736787 -10 4 C-7.30203057 -0.15072221 -4.80768487 -0.78492814 0 0 Z " fill="#00529E" transform="translate(72,481)"/>
</svg>
